<svg version="1.1" id="Layer_1" xmlns="http://www.w3.org/2000/svg" xmlns:xlink="http://www.w3.org/1999/xlink" x="0px" y="0px"
	 width="100%" viewBox="0 0 224 224" enable-background="new 0 0 224 224" xml:space="preserve">
<path fill="#000000" opacity="1.000000" stroke="none" 
	d="
M95.935806,169.305817 
	C74.126930,161.325180 60.790768,146.408478 56.426762,123.864761 
	C50.459023,93.036423 72.070518,62.081329 103.197968,56.704189 
	C108.037132,55.868244 112.883995,55.008327 118.095749,56.274487 
	C106.717003,65.151665 106.659393,70.189041 115.322884,80.582161 
	C112.078812,80.909195 109.131363,80.953407 106.294258,81.535446 
	C92.920418,84.279060 82.565598,96.109779 80.546661,110.739670 
	C78.911865,122.585907 86.452553,136.955139 98.111916,142.446396 
	C103.166779,144.827103 104.864098,147.707718 104.412460,153.063431 
	C103.928543,158.801987 104.303299,164.612946 104.303299,170.290390 
	C100.980911,171.140549 98.675751,170.077362 95.935806,169.305817 
z"/>
<path fill="#000000" opacity="1.000000" stroke="none" 
	d="
M142.736053,64.452583 
	C147.463898,73.452469 144.640625,81.686783 136.404861,83.922661 
	C130.904480,85.415924 125.448776,83.292061 122.656929,78.570717 
	C119.760612,73.672684 120.279961,67.603134 123.920395,63.805016 
	C127.920525,59.631607 133.838028,58.671711 138.929520,61.487423 
	C140.215439,62.198578 141.312561,63.251122 142.736053,64.452583 
z"/>
<path fill="#000000" opacity="1.000000" stroke="none" 
	d="
M110.620636,158.917664 
	C110.612007,145.118454 110.589325,131.807205 110.616539,118.496063 
	C110.620255,116.677864 110.606651,114.787201 111.079811,113.061348 
	C111.628616,111.059654 113.080742,109.326172 115.325974,109.451744 
	C118.149551,109.609650 117.290344,112.126450 117.296753,113.739990 
	C117.363525,130.545181 117.353889,147.350784 117.317017,164.156174 
	C117.308083,168.225143 116.017296,171.245667 110.982941,171.099380 
	C109.995316,166.995712 110.877373,163.177368 110.620636,158.917664 
z"/>
<path fill="#000000" opacity="1.000000" stroke="none" 
	d="
M163.381668,83.883286 
	C167.317413,89.617180 163.503357,96.945511 158.587189,98.766792 
	C153.368912,100.699989 147.515060,98.132385 145.414932,92.884079 
	C143.625122,88.411324 145.329971,83.224709 149.432816,80.660583 
	C153.839951,77.906303 158.777863,78.939743 163.381668,83.883286 
z"/>
<path fill="#000000" opacity="1.000000" stroke="none" 
	d="
M158.267242,104.233917 
	C164.336227,100.615265 170.044739,102.158310 171.266693,107.483871 
	C172.060486,110.943382 171.579697,114.256744 168.276520,116.209908 
	C165.052261,118.116394 161.493240,118.174553 158.571243,115.644119 
	C155.823883,113.264931 155.236053,110.045731 156.713913,106.621246 
	C157.036163,105.874489 157.563034,105.216026 158.267242,104.233917 
z"/>
<path fill="#000000" opacity="1.000000" stroke="none" 
	d="
M166.241028,132.560394 
	C162.740417,133.593231 160.198807,132.681824 159.022720,129.641220 
	C158.094971,127.242691 158.382202,124.699020 160.678421,122.954674 
	C162.925385,121.247749 165.314255,121.406212 167.545288,122.985222 
	C170.723251,125.234406 170.299011,129.129868 166.241028,132.560394 
z"/>
<path fill="#000000" opacity="1.000000" stroke="none" 
	d="
M163.202637,143.419495 
	C160.805908,146.005371 158.596451,145.930481 156.715363,143.442581 
	C155.377045,141.672531 156.038055,139.948395 157.581360,138.595184 
	C158.674377,137.636795 160.047821,137.475967 161.328064,138.091583 
	C163.434113,139.104279 164.096512,140.832199 163.202637,143.419495 
z"/>
<path fill="#000000" opacity="1.000000" stroke="none" 
	d="
M157.099976,150.921341 
	C155.846130,153.622009 154.111465,153.999115 152.339355,152.176956 
	C151.156693,150.960876 151.316696,149.236038 152.873245,148.363983 
	C155.124542,147.102661 156.639725,147.978485 157.099976,150.921341 
z"/>
</svg>