<?xml version="1.0" encoding="UTF-8"?>
<svg version="1.1" xmlns="http://www.w3.org/2000/svg" width="258" height="196">
<path d="M0 0 C0.85553467 0.26441895 1.71106934 0.52883789 2.5925293 0.80126953 C47.41848185 15.1413351 47.41848185 15.1413351 55.59814453 30.81396484 C57.63683096 35.67863882 58.70338131 40.74071143 59.77267456 45.89251709 C60.1972214 47.92145932 60.64769601 49.94325683 61.10375977 51.96533203 C62.6249486 58.78828711 63.94606043 65.58779525 64.96875 72.50390625 C66.34387741 85.57091525 66.34387741 85.57091525 73.296875 95.98828125 C76.62317521 98.01957291 80.12932884 99.40306904 83.78173828 100.73486328 C94.7551073 105.34906831 103.619729 117.17833701 108.75 127.5625 C112.27044394 137.71808573 112.45687799 150.71323218 107.75 160.5625 C99.76622154 174.6693389 87.13392933 183.07291582 71.71337891 187.41894531 C63.22127207 189.66182456 55.33901113 190.72581214 46.5859375 190.765625 C45.59864655 190.77132507 44.61135559 190.77702515 43.59414673 190.78289795 C41.50125185 190.79232828 39.40834225 190.7988741 37.31542969 190.80273438 C34.18396184 190.81231952 31.05318564 190.84331058 27.921875 190.875 C9.48965171 190.9748331 -7.68269109 188.69490672 -25.4375 183.75 C-26.74006213 183.39311315 -28.04263389 183.03626149 -29.34521484 182.67944336 C-46.05668298 178.05961496 -61.5782102 171.9588635 -77.25 164.5625 C-78.331604 164.05565674 -78.331604 164.05565674 -79.43505859 163.53857422 C-103.20192778 152.32293668 -131.6113894 135.61819202 -143.125 110.875 C-146.03154268 102.31684657 -146.34280996 93.09438954 -143.25 84.5625 C-139.24716409 76.86473864 -132.25742319 72.39475512 -124.28515625 69.4375 C-114.55729982 66.63307292 -104.31869135 65.36160249 -94.25 64.5625 C-90.32038408 55.31034954 -86.67071318 46.08818278 -83.55859375 36.52734375 C-73.57951039 6.04478856 -73.57951039 6.04478856 -65.875 0.9375 C-57.64298563 -2.18498821 -52.46568744 -0.04414117 -44.69140625 3.37109375 C-42.25 4.5625 -42.25 4.5625 -41.25 5.5625 C-36.88904015 6.55404456 -33.31510872 6.93842073 -29.0625 5.4375 C-25.90447128 3.33214752 -23.12205056 1.0429073 -20.25 -1.4375 C-14.09537099 -4.5148145 -6.17116238 -1.94786866 0 0 Z " fill="#ED0404" transform="translate(146.25,3.4375)"/>
<path d="M0 0 C1 3 1 3 0.0625 5.1875 C-2.3943342 11.69088466 -1.08655577 17.26517102 1.62109375 23.42578125 C11.82595282 42.47677877 32.97081718 52.72849942 52 61 C52.75925781 61.33435059 53.51851563 61.66870117 54.30078125 62.01318359 C60.92210722 64.80888413 67.62040764 66.56017169 74.625 68.125 C75.77653564 68.38361816 76.92807129 68.64223633 78.11450195 68.90869141 C102.04484336 74.16378429 130.68955972 77.92182272 152.7578125 64.640625 C157.76518147 60.97669648 161.07424789 56.92606444 163 51 C163.57841661 43.98057129 162.92816458 36.96123431 162 30 C178.87966493 37.64266688 193.65205894 47.86475257 202 65 C205.51458437 75.16121332 205.70908374 88.14611659 201 98 C193.01622154 112.1068389 180.38392933 120.51041582 164.96337891 124.85644531 C156.47127207 127.09932456 148.58901113 128.16331214 139.8359375 128.203125 C138.84864655 128.20882507 137.86135559 128.21452515 136.84414673 128.22039795 C134.75125185 128.22982828 132.65834225 128.2363741 130.56542969 128.24023438 C127.43396184 128.24981952 124.30318564 128.28081058 121.171875 128.3125 C102.73965171 128.4123331 85.56730891 126.13240672 67.8125 121.1875 C66.50993787 120.83061315 65.20736611 120.47376149 63.90478516 120.11694336 C47.19331702 115.49711496 31.6717898 109.3963635 16 102 C15.27893066 101.66210449 14.55786133 101.32420898 13.81494141 100.97607422 C-9.95192778 89.76043668 -38.3613894 73.05569202 -49.875 48.3125 C-52.78154268 39.75434657 -53.09280996 30.53188954 -50 22 C-45.99716409 14.30223864 -39.00742319 9.83225512 -31.03515625 6.875 C-21.87367743 4.23385295 -12.19585852 2.83862049 -2.6875 2.30859375 C-2.130625 2.20675781 -1.57375 2.10492188 -1 2 C-0.67 1.34 -0.34 0.68 0 0 Z " fill="#ED0505" transform="translate(53,66)"/>
<path d="M0 0 C1.4717652 1.95225325 2.93402476 3.90805175 4.359375 5.89453125 C23.17724517 31.84839151 58.20133439 46.06629844 89 51 C107.78881596 53.80698499 131.10753087 56.63599908 148 46 C152.84185834 42.14852177 154.8053289 37.62767617 157 32 C157.66 32 158.32 32 159 32 C163.03779496 56.37097675 163.03779496 56.37097675 158.37890625 64.1953125 C150.64285566 74.32011526 138.53717116 79.04871556 126.19384766 80.77294922 C99.65118894 83.51996375 67.91960772 79.05180235 44 67 C42.93555664 66.4738208 42.93555664 66.4738208 41.84960938 65.93701172 C32.00139473 61.04300285 22.53691177 56.00606006 14 49 C13.12988281 48.30390625 12.25976562 47.6078125 11.36328125 46.890625 C3.43726986 40.20860643 -3.95288777 31.51548622 -5.265625 20.83984375 C-5.23162516 16.70036293 -4.68402828 13.74228506 -3 10 C-2.62475027 8.60968624 -2.27195493 7.2131872 -1.9375 5.8125 C-1 2 -1 2 0 0 Z " fill="#010000" transform="translate(56,59)"/>
<path d="M0 0 C0.66 0.33 1.32 0.66 2 1 C-1.3 4.3 -4.6 7.6 -8 11 C-8.33 10.34 -8.66 9.68 -9 9 C-8.06725891 7.87105124 -7.12859878 6.74699124 -6.1875 5.625 C-5.66542969 4.99851562 -5.14335938 4.37203125 -4.60546875 3.7265625 C-3 2 -3 2 0 0 Z " fill="#F68282" transform="translate(13,77)"/>
<path d="M0 0 C0.66 0.33 1.32 0.66 2 1 C-0.31 3.31 -2.62 5.62 -5 8 C-5 5 -5 5 -2.5 2.3125 C-1.675 1.549375 -0.85 0.78625 0 0 Z " fill="#F79393" transform="translate(80,5)"/>
</svg>
