<?xml version="1.0" encoding="utf-8"?>
<!DOCTYPE svg PUBLIC "-//W3C//DTD SVG 1.0//EN" "http://www.w3.org/TR/2001/REC-SVG-20010904/DTD/svg10.dtd">
<svg version="1.0" xmlns="http://www.w3.org/2000/svg" width="920px" height="599px" viewBox="0 0 920 599" preserveAspectRatio="xMidYMid meet">
 <g fill="#025ada">
  <path d="M704.05 598.65 c-0.05 -0.50 -6.55 -0.70 -29.15 -0.85 -28.60 -0.20 -152.70 -1.50 -189.15 -2 -30.10 -0.40 -64.25 -0.75 -101.25 -1.10 -75.85 -0.65 -117.85 -1.20 -115.10 -1.55 0.85 -0.10 1.60 -0.40 1.60 -0.60 0 -0.25 3.85 -0.70 8.50 -1.05 4.70 -0.40 8.50 -0.80 8.50 -0.95 0 -0.15 2.20 -0.35 4.85 -0.45 2.70 -0.05 5 -0.30 5.15 -0.55 0.15 -0.20 3.95 -0.70 8.50 -1.05 4.55 -0.35 8.35 -0.85 8.50 -1.05 0.15 -0.20 2.40 -0.50 5 -0.65 2.60 -0.15 6.35 -0.50 8.25 -0.80 1.95 -0.30 5.75 -0.65 8.50 -0.80 2.75 -0.15 5.10 -0.45 5.25 -0.65 0.25 -0.40 14.70 -2.05 19.40 -2.20 1.40 -0.05 2.60 -0.20 2.60 -0.35 0 -0.15 1.20 -0.30 2.60 -0.35 1.45 0 6.35 -0.55 10.90 -1.10 4.55 -0.60 11.85 -1.45 16.25 -1.90 4.40 -0.45 8.10 -0.95 8.25 -1.10 0.15 -0.20 1.15 -0.35 2.25 -0.40 4.60 -0.05 8.75 -0.40 8.75 -0.65 0 -0.20 3.75 -0.60 8.40 -1 4.60 -0.35 8.45 -0.80 8.60 -1 0.15 -0.20 3.80 -0.70 8.15 -1.05 4.30 -0.35 7.85 -0.75 7.85 -0.90 0 -0.20 2.40 -0.35 5.35 -0.45 2.95 -0.05 5.45 -0.30 5.60 -0.55 0.20 -0.25 3.80 -0.70 8.05 -1.10 4.25 -0.35 7.85 -0.80 8 -1 0.15 -0.20 2.60 -0.45 5.50 -0.55 2.90 -0.10 5.35 -0.30 5.50 -0.45 0.15 -0.20 3.75 -0.60 8 -1 4.25 -0.35 7.85 -0.75 8 -0.95 0.15 -0.20 3.75 -0.60 8 -0.95 4.25 -0.40 8.20 -0.90 8.70 -1.15 0.50 -0.30 1.95 -0.40 3.10 -0.25 1.20 0.10 2.20 0.05 2.20 -0.15 0 -0.20 1 -0.25 2.20 -0.15 1.15 0.15 2.60 0.05 3.10 -0.25 0.50 -0.25 4.45 -0.75 8.70 -1.15 4.25 -0.35 7.85 -0.80 8 -0.95 0.25 -0.35 14.50 -1.80 22.20 -2.25 2.45 -0.15 4.80 -0.50 5.25 -0.70 0.45 -0.25 4.30 -0.70 8.55 -1.10 4.25 -0.35 7.85 -0.80 8 -1 0.15 -0.20 2.40 -0.45 5 -0.55 2.60 -0.10 5 -0.30 5.25 -0.45 0.30 -0.20 4.10 -0.60 8.50 -0.95 4.40 -0.40 8.10 -0.80 8.25 -1 0.15 -0.15 3.75 -0.60 8 -0.95 4.25 -0.40 7.85 -0.85 8 -1.05 0.15 -0.20 1.80 -0.40 3.65 -0.40 1.90 0 3.55 -0.15 3.70 -0.25 0.20 -0.25 -2.05 -2.80 -6.20 -7.15 -1.20 -1.20 -2.15 -2.35 -2.15 -2.60 0 -0.20 -0.80 -1.15 -1.75 -2.10 -0.95 -0.95 -1.75 -1.90 -1.75 -2.15 0 -0.60 -2.40 -2.85 -3.05 -2.85 -0.25 0 -0.45 -0.35 -0.45 -0.75 0 -0.45 -0.95 -1.75 -2.10 -2.95 -1.20 -1.20 -2.95 -3.10 -3.90 -4.25 -0.95 -1.10 -2.70 -3.05 -3.85 -4.30 -1.20 -1.20 -2.15 -2.45 -2.15 -2.75 0 -0.30 -0.80 -1.20 -1.75 -2.05 -0.95 -0.85 -1.75 -1.70 -1.75 -1.95 0 -0.20 -1 -1.45 -2.30 -2.80 -1.25 -1.35 -3.05 -3.30 -4 -4.30 -0.90 -1.05 -1.70 -2.05 -1.70 -2.30 0 -0.25 -1.10 -1.60 -2.50 -3 -1.35 -1.40 -2.50 -2.80 -2.50 -3.10 0 -0.30 -0.55 -0.80 -1.25 -1.10 -0.65 -0.30 -1.35 -0.95 -1.50 -1.45 -0.20 -0.50 -1.15 -1.80 -2.15 -2.90 -1 -1.10 -2.65 -2.90 -3.60 -4.05 -0.95 -1.10 -2.70 -3 -3.80 -4.20 -1.15 -1.15 -2.15 -2.35 -2.25 -2.65 -0.20 -0.55 -3.05 -3.95 -5.95 -7.10 -0.95 -1.05 -2.75 -3.10 -4 -4.60 -2.45 -2.90 -4.35 -5.05 -7.45 -8.35 -1.15 -1.20 -2.05 -2.35 -2.05 -2.50 0 -0.20 -0.90 -1.35 -2 -2.60 -1.10 -1.25 -2.75 -3.10 -3.65 -4.10 -0.85 -1 -2.65 -3 -3.95 -4.40 -1.35 -1.40 -2.40 -2.75 -2.40 -3 0 -0.25 -1.30 -1.80 -2.85 -3.45 -1.60 -1.65 -3.45 -3.75 -4.15 -4.60 -0.70 -0.90 -2.05 -2.50 -3 -3.55 -0.95 -1 -2.55 -2.80 -3.50 -3.90 -0.95 -1.15 -2.45 -2.80 -3.30 -3.70 -0.90 -0.90 -1.85 -2.15 -2.20 -2.80 -0.65 -1.15 -1.30 -1.95 -6.50 -7.50 -1.70 -1.80 -3.55 -3.90 -4.15 -4.70 -0.60 -0.80 -1.95 -2.35 -3 -3.50 -1 -1.10 -2 -2.45 -2.15 -2.90 -0.15 -0.50 -0.60 -0.90 -1 -0.90 -0.40 0 -0.70 -0.25 -0.70 -0.50 0 -0.30 -0.70 -1.25 -1.50 -2.15 -2.25 -2.35 -4.50 -4.95 -6.50 -7.30 -0.95 -1.10 -2.60 -2.95 -3.60 -4.10 -1.05 -1.10 -1.90 -2.20 -1.90 -2.40 0 -0.20 -1.05 -1.50 -2.35 -2.90 -4.60 -4.95 -7.65 -8.40 -8.50 -9.60 -0.50 -0.65 -1.85 -2.20 -3 -3.50 -3.05 -3.40 -5.10 -5.75 -5.55 -6.30 -0.20 -0.30 -1.30 -1.65 -2.50 -3 -1.20 -1.40 -2.85 -3.35 -3.75 -4.40 -0.90 -1.05 -2.55 -2.90 -3.70 -4.10 -1.20 -1.25 -2.15 -2.45 -2.15 -2.75 0 -0.30 -0.95 -1.50 -2.10 -2.75 -1.20 -1.20 -2.95 -3.15 -3.90 -4.25 -0.95 -1.10 -2.70 -3.05 -3.85 -4.25 -1.20 -1.25 -2.15 -2.35 -2.15 -2.50 0 -0.15 -0.85 -1.15 -1.85 -2.25 -3.85 -4 -5.05 -5.40 -5.65 -6.50 -0.35 -0.65 -1.30 -1.90 -2.20 -2.80 -5.35 -5.60 -6.30 -6.75 -6.30 -7.40 0 -1.05 1.10 -3.30 1.60 -3.30 0.20 0 0.40 -0.35 0.40 -0.75 0 -0.90 5.05 -10.90 5.60 -11.15 0.20 -0.10 0.40 -0.50 0.40 -0.85 0 -0.40 0.90 -2.45 2 -4.60 1.10 -2.15 2 -4.25 2 -4.75 0 -0.45 0.20 -0.90 0.45 -1 0.55 -0.20 4.55 -8.15 4.55 -9.10 0 -0.40 0.20 -0.80 0.45 -0.90 0.60 -0.20 4.55 -8.20 4.55 -9.15 0 -0.40 0.20 -0.75 0.40 -0.75 0.50 0 2.60 -4.25 2.60 -5.20 0 -0.40 0.20 -0.80 0.45 -0.90 0.60 -0.20 4.55 -8.20 4.55 -9.15 0 -0.40 0.20 -0.75 0.40 -0.75 0.25 0 1.40 -2.10 2.55 -4.60 1.20 -2.55 2.35 -5 2.60 -5.40 1.40 -2.35 2.45 -4.55 2.45 -5.20 0 -0.40 0.20 -0.80 0.40 -0.90 0.55 -0.20 4.60 -8.20 4.60 -9.10 0 -0.40 0.20 -0.80 0.40 -0.90 0.45 -0.20 3.80 -6.60 4.35 -8.40 0.20 -0.65 0.65 -1.50 1 -1.85 0.35 -0.35 1.05 -1.70 1.55 -3 0.50 -1.35 1.20 -2.70 1.55 -3.05 0.35 -0.35 0.80 -1.25 1 -2 0.15 -0.75 0.60 -1.65 1 -2 0.35 -0.35 0.80 -1.25 0.95 -2 0.20 -0.75 1.65 -3.95 3.20 -7.10 1.60 -3.15 7.45 -14.80 12.95 -25.90 5.55 -11.05 10.30 -20.50 10.55 -21 0.25 -0.45 1.35 -2.65 2.40 -4.85 1.05 -2.20 2.20 -4.45 2.50 -5 1.90 -3.35 12.60 -25.40 12.60 -26 0 -0.40 0.25 -0.75 0.50 -0.75 0.30 0 0.50 -0.45 0.50 -1 0 -0.55 0.25 -1 0.50 -1 0.30 0 0.50 -0.45 0.50 -1 0 -0.55 0.25 -1 0.50 -1 0.30 0 0.50 -0.45 0.50 -1 0 -0.55 0.25 -1 0.50 -1 0.30 0 0.50 -0.45 0.50 -1 0 -0.55 0.20 -1 0.45 -1 0.25 0 0.55 -0.65 0.70 -1.45 0.15 -0.80 0.65 -1.80 1.10 -2.20 0.40 -0.45 0.75 -1.15 0.75 -1.55 0 -0.45 0.25 -0.80 0.50 -0.80 0.30 0 0.50 -0.45 0.50 -1 0 -0.55 0.25 -1 0.50 -1 0.30 0 0.50 -0.45 0.50 -1 0 -0.55 0.25 -1 0.50 -1 0.30 0 0.50 -0.45 0.50 -1 0 -0.55 0.25 -1 0.50 -1 0.30 0 0.50 -0.45 0.50 -1 0 -0.55 0.25 -1 0.50 -1 0.30 0 0.50 -0.45 0.50 -1 0 -0.55 0.25 -1 0.50 -1 0.30 0 0.50 -0.45 0.50 -1 0 -0.55 0.25 -1 0.50 -1 0.30 0 0.50 -0.45 0.50 -1 0 -1.50 1.30 -1.20 2 0.50 0.35 0.80 1.05 1.95 1.55 2.60 0.55 0.60 1.10 1.65 1.30 2.35 0.15 0.70 0.75 1.60 1.25 1.95 0.50 0.35 0.90 1.10 0.90 1.65 0 0.50 0.20 0.95 0.40 0.95 0.25 0 0.95 1.15 1.65 2.60 0.65 1.40 1.45 2.80 1.70 3.10 0.30 0.30 1.50 2.45 2.70 4.75 1.20 2.30 2.35 4.45 2.60 4.75 1.25 1.50 2.85 4.25 3.10 5.40 0.20 0.75 0.65 1.65 1.05 2 0.35 0.40 1.05 1.40 1.50 2.30 0.45 0.85 1.35 2.40 2.05 3.40 0.70 1 1.25 2.20 1.25 2.65 0 0.45 0.45 1.10 1 1.45 0.55 0.35 1 1.05 1 1.55 0 0.55 0.25 1.15 0.50 1.30 0.30 0.20 1.20 1.70 2.10 3.40 0.85 1.70 1.70 3.20 1.90 3.35 0.20 0.15 1.10 1.70 2 3.50 0.90 1.80 1.80 3.35 2 3.50 0.20 0.15 0.85 1.15 1.45 2.25 0.60 1.10 2 3.60 3.05 5.50 1.10 1.95 2.25 4.05 2.55 4.75 0.30 0.65 0.65 1.35 0.85 1.50 0.20 0.15 0.95 1.30 1.60 2.65 0.70 1.30 1.40 2.35 1.60 2.35 0.25 0 0.40 0.40 0.40 0.90 0 0.55 0.55 1.60 1.25 2.40 0.70 0.80 1.25 1.70 1.25 2.05 0 0.30 0.30 0.90 0.65 1.25 0.35 0.35 1.50 2.35 2.60 4.40 1.05 2.05 2.25 4.05 2.60 4.40 0.35 0.35 0.65 1 0.65 1.45 0 0.45 0.40 1.15 0.90 1.60 0.55 0.45 1.20 1.65 1.55 2.70 0.35 1 0.80 1.85 1 1.85 0.20 0 0.80 0.90 1.30 2 0.50 1.10 1.20 2.25 1.60 2.55 0.35 0.30 0.65 1 0.65 1.50 0 0.55 0.25 0.95 0.50 0.95 0.30 0 0.50 0.45 0.50 1 0 0.55 0.20 1 0.50 1 0.25 0 0.85 0.85 1.25 1.85 0.45 1.05 1 2 1.20 2.15 0.25 0.15 1 1.40 1.70 2.85 0.75 1.40 1.55 2.70 1.85 2.90 0.25 0.15 0.50 0.75 0.50 1.30 0 0.50 0.20 0.95 0.40 0.95 0.25 0 0.95 1.15 1.60 2.50 0.65 1.40 1.35 2.50 1.60 2.50 0.20 0 0.40 0.45 0.40 1 0 0.55 0.20 1 0.45 1 0.25 0 0.70 0.70 1.05 1.50 0.35 0.80 0.80 1.50 1.05 1.50 0.25 0 0.45 0.45 0.45 1 0 0.55 0.25 1 0.50 1 0.30 0 0.50 0.45 0.50 1 0 0.55 0.20 1 0.40 1 0.20 0 0.90 0.95 1.50 2.15 3.60 6.80 5.80 10.65 6.40 11 0.40 0.20 0.70 0.95 0.70 1.60 0 0.70 0.20 1.25 0.45 1.25 0.25 0 0.70 0.70 1.05 1.50 0.35 0.85 0.80 1.50 1.05 1.50 0.25 0 0.45 0.45 0.45 1 0 0.55 0.20 1 0.40 1 0.25 0 0.85 0.90 1.35 2 0.50 1.10 1.20 2.25 1.60 2.55 0.35 0.30 0.65 1 0.65 1.50 0 0.55 0.25 0.95 0.50 0.95 0.30 0 0.50 0.45 0.50 1 0 0.55 0.20 1 0.45 1 0.25 0 0.70 0.70 1.05 1.50 0.35 0.80 0.80 1.50 1.05 1.50 0.25 0 0.45 0.45 0.45 1 0 0.55 0.20 1 0.45 1 0.25 0 0.80 0.85 1.20 1.90 0.40 1.05 1.10 2.20 1.55 2.55 0.45 0.40 0.80 1.10 0.80 1.60 0 0.55 0.20 0.95 0.40 0.95 0.25 0 0.95 1.15 1.60 2.50 0.65 1.40 1.30 2.50 1.50 2.50 0.20 0 0.85 1.15 1.45 2.50 0.60 1.40 1.35 2.50 1.60 2.50 0.25 0 0.45 0.45 0.45 0.95 0 0.55 0.30 1.30 0.70 1.65 0.40 0.40 1.30 1.95 2.05 3.40 0.75 1.45 1.65 3 2 3.35 0.40 0.35 0.85 1.10 1 1.65 0.15 0.55 0.55 1 0.80 1 0.25 0 0.45 0.35 0.45 0.80 0 0.75 0.85 2.25 3.90 7 0.60 0.95 1.10 2.05 1.10 2.45 0 0.40 0.25 0.75 0.50 0.75 0.30 0 0.50 0.45 0.50 1 0 0.55 0.20 1 0.45 1 0.25 0 0.70 0.65 1.05 1.50 0.35 0.80 1.05 1.95 1.55 2.55 0.50 0.60 0.95 1.50 0.95 2.05 0 0.50 0.20 0.90 0.45 0.90 0.25 0 0.70 0.70 1.05 1.50 0.35 0.85 0.80 1.50 1.05 1.50 0.25 0 0.45 0.40 0.45 0.90 0 0.55 0.45 1.45 0.95 2.05 0.50 0.60 1.20 1.75 1.55 2.55 0.35 0.85 0.80 1.50 1.05 1.50 0.25 0 0.45 0.45 0.45 1 0 0.55 0.25 1 0.50 1 0.30 0 0.50 0.45 0.50 1 0 0.55 0.20 1 0.40 1 0.25 0 0.85 0.90 1.35 2 0.50 1.15 1.35 2.55 1.85 3.15 0.55 0.60 1.10 1.70 1.25 2.45 0.15 0.80 0.45 1.40 0.65 1.40 0.20 0 0.65 0.70 1 1.50 0.35 0.85 0.80 1.50 1.05 1.50 0.25 0 0.45 0.35 0.45 0.75 0 0.45 0.25 1.05 0.50 1.40 1.25 1.45 3.50 5.15 3.50 5.75 0 0.35 0.25 0.90 0.55 1.25 0.65 0.70 2.40 3.70 4.25 7.10 0.75 1.40 1.45 2.60 1.65 2.75 0.60 0.50 1.55 2.50 1.55 3.25 0 0.40 0.20 0.75 0.45 0.75 0.25 0 0.60 0.40 0.75 0.90 0.30 0.90 3.35 5.90 4.30 6.95 0.25 0.35 0.50 0.95 0.50 1.40 0 0.40 0.25 0.75 0.50 0.75 0.30 0 0.50 0.35 0.50 0.80 0 0.40 0.35 1.10 0.75 1.50 0.40 0.45 0.90 1.35 1.10 2.10 0.15 0.75 0.70 1.70 1.25 2.15 0.50 0.45 0.90 1.20 0.90 1.65 0 0.45 0.25 0.80 0.50 0.80 0.30 0 0.50 0.40 0.50 0.90 0 0.50 0.45 1.20 1 1.60 0.55 0.40 1 1.10 1 1.60 0 0.45 0.40 1.25 0.90 1.75 0.50 0.50 1.20 1.65 1.55 2.55 0.40 0.85 0.85 1.60 1.10 1.60 0.25 0 0.45 0.45 0.45 1 0 0.55 0.15 1 0.40 1 0.20 0 1.15 1.60 2.10 3.50 0.95 1.95 1.90 3.50 2.10 3.50 0.25 0 0.40 0.45 0.40 0.95 0 0.55 0.15 1.05 0.40 1.15 0.20 0.10 0.90 1.15 1.55 2.40 0.70 1.25 1.35 2.35 1.50 2.50 0.20 0.15 0.95 1.50 1.75 3 0.80 1.50 1.75 3.10 2.10 3.55 0.40 0.40 0.70 1.15 0.70 1.55 0 0.45 0.20 0.90 0.45 1 0.25 0.10 1.05 1.35 1.80 2.85 0.70 1.45 1.55 2.95 1.80 3.25 1.10 1.30 2.95 4.40 2.95 4.90 0 0.30 0.60 1.45 1.30 2.60 0.70 1.10 2.05 3.30 3 4.80 0.95 1.50 1.70 3.10 1.70 3.60 0 0.50 0.20 0.90 0.45 0.90 0.25 0 0.70 0.70 1.05 1.55 0.35 0.85 0.95 1.80 1.25 2.15 0.35 0.35 1.25 1.85 2 3.35 0.75 1.50 1.55 2.80 1.70 2.95 0.20 0.15 1.10 1.70 2 3.50 0.95 1.80 1.85 3.35 2 3.50 0.20 0.15 0.90 1.30 1.55 2.65 0.70 1.30 1.40 2.35 1.60 2.35 0.25 0 0.40 0.45 0.40 1 0 0.55 0.25 1 0.50 1 0.30 0 0.50 0.45 0.50 1 0 0.55 0.20 1 0.45 1 0.25 0 0.70 0.70 1.05 1.50 0.35 0.85 0.80 1.50 1.05 1.50 0.25 0 0.45 0.45 0.45 1 0 0.55 0.25 1 0.50 1 0.30 0 0.50 0.45 0.50 1 0 0.55 0.20 1 0.40 1 0.25 0 0.85 0.90 1.35 2 0.50 1.15 1.35 2.55 1.85 3.10 0.50 0.60 1.05 1.65 1.25 2.35 0.15 0.70 0.75 1.60 1.25 1.95 0.50 0.35 0.90 1.10 0.90 1.65 0 0.50 0.20 0.95 0.40 0.95 0.25 0 0.95 1.15 1.65 2.60 0.65 1.40 1.45 2.80 1.70 3.10 0.30 0.30 1.40 2.25 2.45 4.30 1.05 2.05 2.10 3.85 2.30 4 0.20 0.15 0.75 1 1.20 1.85 0.45 0.90 1.35 2.45 2.05 3.45 0.70 1 1.25 2.25 1.25 2.75 0 0.55 0.20 0.95 0.40 0.95 0.25 0 0.70 0.60 1.05 1.40 0.60 1.30 1.95 3.50 4.45 7.40 0.60 0.95 1.10 2.05 1.10 2.40 0 0.35 0.45 1.20 1 1.80 0.60 0.65 1.50 2.10 2 3.25 1.20 2.45 3 5.40 3.50 5.75 0.20 0.15 0.65 1.10 0.95 2.15 0.35 1 0.80 1.85 1 1.85 0.20 0 0.90 1.15 1.55 2.50 0.65 1.40 1.35 2.50 1.60 2.50 0.20 0 0.40 0.45 0.40 0.95 0 0.55 0.15 1.05 0.40 1.15 0.20 0.10 1.15 1.60 2.05 3.40 0.95 1.80 1.85 3.35 2 3.50 0.20 0.15 0.90 1.30 1.55 2.65 0.70 1.30 1.40 2.35 1.60 2.35 0.25 0 0.40 0.40 0.40 0.90 0 0.55 0.45 1.45 0.95 2.05 0.50 0.60 1.20 1.75 1.55 2.55 0.35 0.85 0.80 1.50 1.05 1.50 0.25 0 0.45 0.45 0.45 1 0 0.55 0.15 1 0.40 1 0.20 0 1 1.30 1.85 2.90 0.80 1.55 1.60 2.95 1.80 3.10 0.15 0.15 0.70 1.05 1.20 2 0.50 0.95 1.05 1.85 1.20 2 0.50 0.40 1.55 2.45 1.55 3 0 0.30 0.25 0.80 0.55 1.15 0.75 0.85 2.65 4.15 4.25 7.25 0.70 1.40 1.50 2.60 1.75 2.60 0.25 0 0.45 0.45 0.45 0.95 0 0.55 0.30 1.30 0.70 1.65 0.40 0.40 1.25 1.85 2 3.30 0.70 1.40 1.50 2.65 1.80 2.85 0.25 0.15 0.50 0.75 0.50 1.30 0 0.50 0.20 0.95 0.40 0.95 0.35 0 2.60 4.10 2.60 4.75 0 0.15 -18.10 0.25 -40.25 0.25 -26.50 0 -40.25 -0.15 -40.25 -0.50 0 -0.75 -2.85 -0.60 -3.15 0.15 -0.20 0.50 -0.30 0.50 -0.30 0 -0.05 -0.35 -0.40 -0.65 -0.80 -0.65 -0.40 0 -0.75 0.30 -0.75 0.65 0 0.40 -0.15 0.40 -0.45 -0.10 -0.40 -0.60 -0.60 -0.60 -1.25 -0.10 -0.55 0.45 -0.80 0.50 -0.80 0.10 0 -0.30 -0.35 -0.55 -0.75 -0.55 -0.40 0 -0.75 0.30 -0.75 0.65 0 0.35 -0.15 0.40 -0.40 0.10 -0.50 -0.70 -3.25 -0.80 -3.70 -0.10 -0.30 0.45 -0.40 0.45 -0.40 0 0 -0.50 -1.90 -0.65 -7.70 -0.65 -5.70 0 -7.80 0.15 -7.95 0.65 -0.20 0.50 -0.30 0.50 -0.30 0 -0.05 -0.35 -0.40 -0.65 -0.80 -0.65 -0.40 0 -0.75 0.30 -0.75 0.65 0 0.40 -0.15 0.40 -0.45 -0.10 -0.40 -0.60 -0.60 -0.60 -1.25 -0.10 -0.45 0.40 -0.80 0.45 -0.80 0.15 0 -0.55 -2.45 -0.55 -3.35 0.05 -0.30 0.20 -0.65 0.05 -0.80 -0.25 -0.15 -0.50 -0.35 -0.50 -0.95 0 -0.65 0.50 -0.85 0.50 -1 0 -0.20 -0.55 -0.40 -0.55 -1 0 -0.65 0.50 -0.85 0.50 -1 0 -0.20 -0.50 -0.40 -0.50 -1.05 0.05 -0.55 0.45 -0.85 0.50 -0.85 0.10 0 -0.85 -15.35 -0.75 -15.65 0.10 -0.20 0.45 -0.30 0.45 -0.30 0z"/>
  <path d="M76 544.75 c0 -0.65 1.35 -3.10 2.10 -3.90 0.50 -0.50 0.90 -1.35 0.90 -1.85 0 -0.55 0.20 -1 0.45 -1 0.25 0 0.70 -0.65 1.05 -1.50 0.35 -0.80 0.80 -1.50 1 -1.50 0.15 0 0.85 -1.10 1.50 -2.50 0.65 -1.35 1.35 -2.50 1.60 -2.50 0.20 0 0.40 -0.35 0.40 -0.75 0 -0.65 1.50 -3.20 3.25 -5.50 0.40 -0.50 0.75 -1.30 0.75 -1.75 0 -0.40 0.45 -1.10 1 -1.50 0.55 -0.40 1 -1.10 1 -1.55 0 -0.50 0.20 -0.95 0.40 -1.05 0.25 -0.05 1.20 -1.60 2.15 -3.40 0.90 -1.80 1.80 -3.35 2 -3.50 0.15 -0.15 0.80 -1.25 1.50 -2.50 0.65 -1.25 1.35 -2.45 1.60 -2.75 1.20 -1.60 3.10 -4.75 3.80 -6.30 0.45 -1 1.20 -2.20 1.70 -2.65 0.45 -0.50 0.85 -1.30 0.85 -1.85 0 -0.50 0.20 -0.95 0.45 -0.95 0.25 0 0.70 -0.65 1.05 -1.50 0.35 -0.80 0.80 -1.50 1 -1.50 0.20 0 0.65 -0.65 1 -1.50 0.35 -0.80 0.80 -1.50 1.05 -1.50 0.25 0 0.45 -0.45 0.45 -0.95 0 -0.55 0.30 -1.30 0.70 -1.65 0.35 -0.40 1.20 -1.70 1.80 -2.95 0.65 -1.20 1.30 -2.30 1.50 -2.45 0.15 -0.15 1 -1.50 1.80 -3 0.80 -1.50 1.70 -3.05 2.05 -3.40 0.30 -0.30 0.75 -1.05 0.90 -1.60 0.15 -0.55 0.55 -1 0.80 -1 0.25 0 0.45 -0.45 0.45 -0.95 0 -0.55 0.25 -1.15 0.50 -1.30 0.30 -0.20 1.10 -1.35 1.80 -2.65 1.75 -3.25 3.55 -6.25 4.10 -6.90 0.30 -0.30 1 -1.55 1.60 -2.70 0.60 -1.20 1.40 -2.50 1.80 -2.85 0.35 -0.35 0.80 -1.10 0.95 -1.65 0.15 -0.55 0.55 -1 0.80 -1 0.25 0 0.45 -0.40 0.45 -0.90 0 -0.75 0.95 -2.50 4.40 -7.85 0.30 -0.55 1 -1.75 1.45 -2.60 0.45 -0.90 1 -1.65 1.15 -1.65 0.15 0 0.95 -1.35 1.75 -3 0.80 -1.65 1.60 -3 1.85 -3 0.20 0 0.40 -0.45 0.40 -1 0 -0.55 0.15 -1 0.40 -1 0.20 0 0.90 -1.05 1.60 -2.35 0.65 -1.35 1.60 -2.75 2.10 -3.20 0.50 -0.45 0.90 -1.15 0.90 -1.60 0 -0.45 0.30 -1.10 0.70 -1.50 0.40 -0.35 1.40 -2 2.25 -3.65 0.90 -1.60 2.05 -3.75 2.65 -4.70 1.20 -2 3.85 -6.25 4.80 -7.75 0.30 -0.55 1 -1.75 1.45 -2.60 0.45 -0.90 1 -1.65 1.20 -1.65 0.20 0 0.50 -0.70 0.70 -1.50 0.20 -0.85 0.75 -1.80 1.30 -2.15 0.50 -0.30 0.95 -0.95 0.95 -1.45 0 -0.45 0.30 -1.15 0.65 -1.50 0.35 -0.35 1.30 -1.90 2.15 -3.40 1.55 -2.95 3.35 -5.85 4.20 -6.90 0.30 -0.35 0.90 -1.35 1.30 -2.25 1.25 -2.60 2.35 -4.60 2.70 -4.85 0.20 -0.15 1 -1.50 1.80 -3 0.80 -1.50 2.40 -4.15 3.55 -5.90 1.15 -1.75 2.25 -3.60 2.40 -4.15 0.20 -0.50 0.55 -0.95 0.80 -0.95 0.25 0 0.45 -0.40 0.45 -0.95 0 -0.50 0.35 -1.20 0.75 -1.55 0.40 -0.35 0.75 -0.90 0.75 -1.20 0 -0.30 0.55 -1.20 1.25 -2 0.70 -0.80 1.25 -1.75 1.25 -2.15 0 -0.40 0.25 -0.95 0.50 -1.30 0.95 -1.05 4 -6.05 4.30 -6.95 0.15 -0.50 0.50 -0.90 0.75 -0.90 0.25 0 0.45 -0.45 0.45 -1 0 -0.55 0.20 -1 0.45 -1 0.25 0 0.70 -0.65 1.05 -1.50 0.35 -0.80 1.05 -1.95 1.55 -2.55 0.50 -0.60 0.95 -1.45 0.95 -1.90 0 -0.45 0.45 -1.15 1 -1.55 0.55 -0.40 1 -1.10 1 -1.60 0 -0.50 0.20 -0.90 0.45 -0.90 0.25 0 0.70 -0.65 1.05 -1.50 0.35 -0.80 0.80 -1.50 1.05 -1.50 0.25 0 0.45 -0.45 0.45 -1 0 -0.55 0.25 -1 0.50 -1 0.30 0 0.50 -0.35 0.50 -0.75 0 -0.45 0.25 -1.05 0.50 -1.40 0.85 -1 2.95 -4.30 3.80 -6 0.45 -0.85 1 -1.70 1.20 -1.85 0.20 -0.15 0.85 -1.25 1.50 -2.45 0.60 -1.25 1.45 -2.55 1.80 -2.95 0.40 -0.35 0.85 -1.25 1.05 -2 0.15 -0.75 0.70 -1.70 1.25 -2.15 0.50 -0.45 0.90 -1.20 0.90 -1.65 0 -0.45 0.20 -0.80 0.45 -0.80 0.25 0 0.70 -0.65 1.05 -1.50 0.35 -0.80 0.80 -1.50 1.05 -1.50 0.25 0 0.45 -0.35 0.45 -0.75 0 -0.60 1.70 -3.50 2.90 -5 0.25 -0.30 1.30 -2.20 2.40 -4.25 1.05 -2.05 2.20 -4.05 2.55 -4.40 0.30 -0.30 0.75 -1.05 0.90 -1.60 0.15 -0.55 0.55 -1 0.80 -1 0.25 0 0.45 -0.45 0.45 -1 0 -0.55 0.20 -1 0.45 -1 0.25 0 0.70 -0.75 1.05 -1.60 0.35 -0.90 0.95 -1.90 1.25 -2.15 0.35 -0.30 1.35 -1.85 2.20 -3.50 2.05 -3.80 3.80 -6.85 4.50 -7.60 0.30 -0.35 0.80 -1.20 1.05 -1.90 0.25 -0.70 0.70 -1.25 1 -1.25 0.25 0 0.50 -0.55 0.50 -1.25 0 -0.70 0.30 -1.40 0.70 -1.55 0.35 -0.15 1.05 -1.15 1.55 -2.25 0.50 -1.05 1.10 -1.95 1.35 -1.95 0.20 0 0.40 -0.45 0.40 -1 0 -0.55 0.20 -1 0.40 -1 0.25 0 0.85 -0.90 1.35 -2 0.50 -1.10 1.05 -2 1.25 -2 0.20 0 0.75 -0.90 1.25 -2 0.50 -1.10 1.10 -2 1.35 -2 0.20 0 0.40 -0.40 0.40 -0.95 0 -0.50 0.30 -1.20 0.65 -1.50 0.40 -0.30 1.10 -1.45 1.60 -2.55 0.50 -1.10 1.10 -2 1.35 -2 0.20 0 0.40 -0.45 0.40 -1 0 -0.55 0.45 -1.25 1 -1.60 0.55 -0.35 1 -1 1 -1.50 0 -0.45 0.30 -1.15 0.65 -1.50 0.35 -0.35 1.30 -1.90 2.15 -3.40 0.80 -1.50 1.55 -2.85 1.75 -3 0.15 -0.15 0.80 -1.25 1.50 -2.50 0.65 -1.25 1.35 -2.35 1.50 -2.50 0.15 -0.15 0.85 -1.25 1.50 -2.50 2.30 -4.30 5.70 -8.50 6.85 -8.50 0.25 0 1.75 -1.25 3.35 -2.75 1.55 -1.50 3.05 -2.75 3.25 -2.75 0.25 0 1.30 -0.85 2.40 -1.90 1.10 -1 2.95 -2.65 4.10 -3.60 1.20 -0.95 2.90 -2.50 3.80 -3.35 0.90 -0.90 1.90 -1.65 2.15 -1.65 0.25 0 1.20 -0.75 2.15 -1.60 0.95 -0.90 2.65 -2.45 3.80 -3.40 1.15 -0.95 2.80 -2.35 3.60 -3.10 0.85 -0.75 1.95 -1.50 2.45 -1.65 0.55 -0.15 1.05 -0.70 1.20 -1.20 0.10 -0.50 0.95 -1.20 1.80 -1.60 0.85 -0.40 1.70 -1.10 1.85 -1.55 0.15 -0.45 0.70 -1 1.20 -1.15 0.55 -0.15 1.95 -1.20 3.10 -2.25 1.20 -1.10 2.75 -2.50 3.50 -3.10 0.75 -0.65 2.20 -1.90 3.25 -2.75 1.05 -0.90 3.15 -2.65 4.65 -3.90 1.50 -1.25 3.75 -3.15 5 -4.25 1.25 -1.10 2.80 -2.40 3.50 -2.95 2.30 -1.80 4 -3.30 5.75 -4.90 0.95 -0.90 1.95 -1.65 2.20 -1.65 0.25 0 1.25 -0.75 2.20 -1.65 0.95 -0.85 2.90 -2.60 4.30 -3.85 1.45 -1.25 3.15 -2.75 3.80 -3.35 0.65 -0.65 1.45 -1.15 1.80 -1.15 0.30 0 1 -0.55 1.55 -1.25 0.55 -0.70 1.65 -1.60 2.40 -2 0.80 -0.40 1.55 -1.20 1.75 -1.75 0.15 -0.55 0.65 -1 1.05 -1 0.40 0 1.50 -0.75 2.45 -1.60 0.90 -0.90 2.55 -2.40 3.60 -3.30 1.05 -0.90 2.65 -2.30 3.60 -3.15 0.90 -0.80 1.85 -1.45 2.10 -1.45 0.25 0 1.10 -0.65 1.85 -1.50 0.80 -0.80 1.60 -1.50 1.80 -1.50 0.15 0 1.05 -0.75 1.95 -1.65 3.15 -3.05 5.80 -5.25 6.75 -5.55 0.55 -0.20 1.10 -0.75 1.25 -1.25 0.10 -0.50 0.95 -1.20 1.80 -1.60 0.85 -0.40 1.70 -1.10 1.85 -1.55 0.15 -0.50 0.45 -0.90 0.70 -0.90 0.65 0 8.55 -6.60 10.65 -8.85 0.55 -0.65 1.30 -1.15 1.60 -1.15 0.60 0 3.85 -2.75 6.60 -5.55 0.50 -0.50 5.35 -4.60 7.30 -6.10 0.75 -0.60 2.10 -1.85 3 -2.75 0.85 -0.85 1.85 -1.60 2.15 -1.60 0.35 0 1.40 -0.75 2.35 -1.65 2.30 -2.10 6.45 -5.70 7.85 -6.75 0.60 -0.45 1.95 -1.60 2.95 -2.50 1 -0.95 2.40 -2 3.15 -2.40 0.75 -0.35 1.45 -1.15 1.65 -1.70 0.15 -0.55 0.55 -1 0.85 -1 0.30 0 1.35 -0.75 2.40 -1.60 1 -0.90 2.80 -2.45 4 -3.40 1.15 -0.95 2.65 -2.25 3.30 -2.85 0.65 -0.65 1.40 -1.15 1.70 -1.15 0.30 0 1.20 -0.80 2.05 -1.75 0.85 -0.95 1.75 -1.75 1.95 -1.75 0.20 0 1.20 -0.75 2.10 -1.65 0.95 -0.85 2.45 -2.15 3.25 -2.85 0.85 -0.70 2.60 -2.20 3.95 -3.35 4.25 -3.65 4.60 -3.90 5.75 -4.65 0.60 -0.40 1.70 -1.35 2.45 -2.10 0.75 -0.80 1.55 -1.40 1.75 -1.40 0.20 0 1.10 -0.75 2 -1.60 2.45 -2.55 5.25 -4.90 5.70 -4.90 0.25 0 1.25 -0.75 2.20 -1.65 1 -0.85 2.40 -2.10 3.20 -2.75 2.05 -1.65 8.60 -7.35 11.35 -9.95 1 -0.90 2 -1.65 2.25 -1.65 0.25 0 1.25 -0.75 2.20 -1.65 1 -0.85 2.45 -2.15 3.35 -2.85 0.85 -0.70 2.25 -2 3.15 -2.85 0.85 -0.90 1.85 -1.65 2.10 -1.65 0.30 0 1.30 -0.80 2.25 -1.75 0.95 -0.95 2 -1.75 2.35 -1.75 0.35 0 0.65 -0.30 0.65 -0.70 0 -0.40 0.40 -0.85 0.90 -1 0.50 -0.20 2 -1.30 3.30 -2.55 1.25 -1.25 2.65 -2.25 3.05 -2.25 0.35 0 0.80 -0.45 1 -0.95 0.15 -0.50 1.05 -1.45 2 -2.10 0.95 -0.65 1.75 -1.35 1.75 -1.55 0 -0.25 0.45 -0.40 1.05 -0.40 0.65 0 0.95 0.25 0.75 0.65 -0.15 0.30 -0.45 1 -0.60 1.45 -0.20 0.50 -0.50 0.90 -0.65 0.90 -0.20 0 -0.90 1.15 -1.55 2.50 -0.65 1.40 -1.35 2.50 -1.60 2.50 -0.20 0 -0.40 0.45 -0.40 0.95 0 0.55 -0.20 1.05 -0.40 1.15 -0.25 0.10 -1.65 2.50 -3.15 5.40 -1.50 2.90 -2.85 5.30 -3.05 5.40 -0.25 0.10 -0.40 0.50 -0.40 0.85 0 0.40 -0.55 1.55 -1.25 2.55 -0.70 1 -1.25 2.10 -1.25 2.45 0 0.30 -0.45 1 -0.95 1.60 -0.55 0.55 -1.40 1.90 -1.90 2.95 -2.60 5.25 -4.85 9.50 -5.15 9.70 -0.20 0.15 -1.10 1.70 -2 3.50 -0.90 1.80 -1.80 3.35 -2.05 3.40 -0.25 0.10 -0.45 0.60 -0.45 1.15 0 0.50 -0.20 0.95 -0.50 0.95 -0.25 0 -0.50 0.45 -0.50 0.95 0 0.55 -0.20 1.05 -0.45 1.15 -0.25 0.05 -1.55 2.30 -2.85 4.90 -1.25 2.60 -2.50 4.85 -2.70 5 -0.20 0.15 -1.20 1.95 -2.30 4 -1.05 2.05 -2.10 3.80 -2.30 3.90 -0.25 0.10 -0.40 0.50 -0.40 0.90 0 0.70 -1 2.75 -1.55 3.20 -0.20 0.15 -1.05 1.70 -1.95 3.45 -0.85 1.80 -1.90 3.55 -2.30 3.90 -0.40 0.40 -0.85 1.30 -1.05 2.05 -0.30 1.35 -2.10 4.20 -2.80 4.50 -0.20 0.10 -0.35 0.60 -0.35 1.15 0 0.50 -0.20 0.95 -0.50 0.95 -0.25 0 -0.50 0.45 -0.50 0.95 0 0.55 -0.30 1.30 -0.65 1.65 -0.35 0.35 -1.50 2.35 -2.55 4.40 -1.10 2.05 -2.15 3.85 -2.40 3.90 -0.20 0.10 -0.40 0.60 -0.40 1.15 0 0.50 -0.20 0.95 -0.50 0.95 -0.25 0 -0.50 0.45 -0.50 1 0 0.55 -0.20 1 -0.50 1 -0.25 0 -0.50 0.45 -0.50 1 0 0.55 -0.20 1 -0.40 1 -0.25 0 -0.95 1.15 -1.60 2.50 -0.65 1.40 -1.35 2.50 -1.60 2.50 -0.20 0 -0.40 0.45 -0.40 1 0 0.55 -0.20 1 -0.45 1 -0.25 0 -0.90 1.15 -1.50 2.50 -0.60 1.40 -1.30 2.50 -1.55 2.50 -0.30 0 -0.50 0.45 -0.50 1 0 0.55 -0.20 1 -0.50 1 -0.25 0 -0.50 0.45 -0.50 1 0 0.55 -0.20 1 -0.50 1 -0.25 0 -0.50 0.45 -0.50 0.95 0 0.55 -0.25 1.15 -0.50 1.30 -0.30 0.20 -1.20 1.70 -2.05 3.35 -0.85 1.70 -1.90 3.40 -2.30 3.80 -0.35 0.40 -0.85 1.35 -1 2.15 -0.15 0.80 -0.45 1.45 -0.70 1.45 -0.25 0 -0.45 0.45 -0.45 1 0 0.55 -0.20 1 -0.45 1 -0.25 0 -0.70 0.65 -1.05 1.50 -0.35 0.80 -0.80 1.50 -1 1.50 -0.20 0 -0.50 0.65 -0.65 1.45 -0.15 0.80 -0.65 1.75 -1 2.15 -0.40 0.40 -1.50 2.15 -2.35 3.95 -0.90 1.75 -1.80 3.30 -2 3.45 -0.20 0.15 -0.50 0.85 -0.65 1.60 -0.20 0.75 -0.70 1.65 -1.10 2.10 -0.40 0.40 -0.75 1.05 -0.75 1.45 0 0.45 -0.20 0.85 -0.45 0.95 -0.25 0.10 -1.15 1.60 -2.05 3.35 -0.90 1.80 -1.90 3.50 -2.25 3.90 -0.35 0.35 -1.05 1.70 -1.55 3 -0.50 1.35 -1.20 2.70 -1.50 3.05 -0.35 0.30 -0.80 1.05 -0.95 1.60 -0.15 0.55 -0.55 1 -0.80 1 -0.25 0 -0.45 0.45 -0.45 0.95 0 0.55 -0.30 1.30 -0.70 1.70 -0.40 0.35 -1.40 2.10 -2.30 3.85 -0.90 1.75 -1.90 3.50 -2.30 3.85 -0.40 0.40 -0.70 1.05 -0.70 1.45 0 0.75 -1 2.75 -1.55 3.20 -0.20 0.15 -1.10 1.70 -2 3.50 -0.90 1.80 -1.80 3.35 -1.95 3.50 -0.20 0.15 -1.10 1.70 -2 3.50 -0.90 1.80 -1.80 3.35 -2.05 3.40 -0.25 0.10 -0.45 0.60 -0.45 1.15 0 0.50 -0.20 0.95 -0.50 0.95 -0.25 0 -0.50 0.45 -0.50 1 0 0.55 -0.20 1 -0.50 1 -0.25 0 -0.50 0.45 -0.50 1 0 0.55 -0.20 1 -0.40 1 -0.25 0 -1.15 1.60 -2.10 3.50 -0.95 1.95 -1.85 3.50 -2.10 3.50 -0.20 0 -0.40 0.35 -0.40 0.80 0 0.40 -0.35 1.10 -0.75 1.55 -0.45 0.40 -0.95 1.40 -1.10 2.20 -0.15 0.80 -0.45 1.45 -0.65 1.45 -0.20 0 -0.65 0.70 -1 1.50 -0.35 0.85 -0.80 1.50 -1.05 1.50 -0.25 0 -0.45 0.35 -0.45 0.75 0 0.75 -0.95 2.75 -1.55 3.25 -0.20 0.15 -1.05 1.70 -1.95 3.50 -0.90 1.80 -1.80 3.35 -2.05 3.40 -0.25 0.10 -0.45 0.60 -0.45 1.15 0 0.50 -0.20 0.95 -0.50 0.95 -0.25 0 -0.50 0.45 -0.50 0.95 0 0.55 -0.25 1.15 -0.50 1.30 -0.30 0.20 -1.35 1.90 -2.30 3.85 -1 1.95 -2.10 3.90 -2.50 4.25 -0.40 0.40 -0.70 1.15 -0.70 1.70 0 0.50 -0.20 0.95 -0.40 0.95 -0.25 0 -0.95 1.15 -1.60 2.50 -0.65 1.40 -1.35 2.50 -1.60 2.50 -0.20 0 -0.40 0.45 -0.40 1 0 0.55 -0.20 1 -0.50 1 -0.25 0 -0.50 0.40 -0.50 0.85 0 0.45 -0.30 1.20 -0.70 1.60 -0.35 0.45 -1.55 2.50 -2.60 4.55 -1.05 2.05 -2.20 4.05 -2.60 4.45 -0.35 0.35 -0.80 1.30 -0.95 2.10 -0.15 0.80 -0.45 1.45 -0.65 1.45 -0.15 0 -0.85 1.15 -1.50 2.50 -0.65 1.40 -1.35 2.50 -1.60 2.50 -0.20 0 -0.40 0.45 -0.40 1 0 0.55 -0.20 1 -0.45 1 -0.20 0 -1.15 1.60 -2.10 3.55 -2.50 5.20 -2.65 5.45 -3.05 5.45 -0.25 0 -0.40 0.40 -0.40 0.95 0 0.50 -0.55 1.75 -1.25 2.75 -0.70 1.05 -1.75 2.80 -2.30 3.95 -0.60 1.15 -1.25 2.20 -1.45 2.35 -0.20 0.15 -1.65 2.85 -3.30 6 -1.60 3.15 -3.05 5.85 -3.25 6 -0.20 0.15 -1.05 1.70 -1.95 3.50 -0.90 1.80 -1.80 3.35 -2.05 3.40 -0.25 0.10 -0.45 0.60 -0.45 1.15 0 0.50 -0.20 0.95 -0.50 0.95 -0.25 0 -0.50 0.45 -0.50 1 0 0.55 -0.20 1 -0.40 1 -0.25 0 -1.20 1.60 -2.15 3.50 -0.90 1.95 -1.85 3.50 -2.05 3.50 -0.25 0 -0.40 0.55 -0.40 1.25 0 0.65 -0.30 1.40 -0.70 1.60 -0.80 0.50 -2.30 3.30 -2.30 4.40 0 0.40 -0.20 0.75 -0.40 0.75 -0.20 0 -0.95 1.10 -1.65 2.50 -0.65 1.35 -1.35 2.50 -1.55 2.50 -0.25 0 -0.40 0.45 -0.40 1 0 0.55 -0.20 1 -0.40 1 -0.25 0 -1.15 1.60 -2.10 3.50 -0.95 1.95 -1.85 3.50 -2.10 3.50 -0.20 0 -0.40 0.45 -0.40 1 0 0.55 -0.20 1 -0.50 1 -0.25 0 -0.50 0.35 -0.50 0.75 0 0.80 -1.95 3.85 -2.60 4.15 -0.25 0.10 -0.40 0.60 -0.40 1.15 0 0.50 -0.20 0.95 -0.50 0.95 -0.25 0 -0.50 0.45 -0.50 0.95 0 0.55 -0.30 1.30 -0.65 1.65 -0.40 0.35 -1.75 2.80 -3.10 5.40 -1.35 2.60 -2.65 4.85 -2.85 4.90 -0.20 0.10 -0.40 0.60 -0.40 1.15 0 0.50 -0.20 0.95 -0.50 0.95 -0.25 0 -0.50 0.45 -0.50 1 0 0.55 -0.20 1 -0.45 1 -0.25 0 -0.70 0.70 -1.05 1.55 -0.35 0.85 -1.15 2.30 -1.75 3.15 -0.60 0.90 -2 3.30 -3.05 5.35 -1.05 2.05 -2.10 3.80 -2.30 3.85 -0.25 0.10 -0.40 0.60 -0.40 1.15 0 0.50 -0.20 0.95 -0.50 0.95 -0.25 0 -0.50 0.45 -0.50 0.95 0 0.55 -0.25 1.15 -0.50 1.30 -0.30 0.20 -1.35 1.90 -2.30 3.85 -1 1.95 -2.10 3.90 -2.50 4.25 -0.40 0.40 -0.70 1.15 -0.70 1.70 0 0.50 -0.20 0.95 -0.50 0.95 -0.25 0 -0.50 0.45 -0.50 0.95 0 0.55 -0.20 1.05 -0.45 1.15 -0.25 0.10 -1.25 1.75 -2.30 3.65 -2.80 5.35 -5.10 9.45 -5.60 10 -0.30 0.30 -0.65 1.15 -0.80 1.85 -0.20 0.75 -0.70 1.65 -1.10 2.10 -0.40 0.40 -0.75 1.05 -0.75 1.45 0 0.45 -0.20 0.85 -0.45 0.95 -0.25 0.10 -1.15 1.60 -2.05 3.35 -0.90 1.80 -1.90 3.50 -2.25 3.90 -0.35 0.35 -1.05 1.70 -1.55 3 -0.50 1.35 -1.05 2.50 -1.20 2.65 -0.40 0.30 -2.85 4.60 -5.30 9.20 -1 1.90 -2.10 3.80 -2.50 4.15 -0.40 0.40 -0.70 1.05 -0.70 1.45 0 0.75 -1 2.75 -1.55 3.20 -0.20 0.15 -1.10 1.70 -2 3.50 -0.90 1.80 -1.75 3.35 -1.95 3.50 -0.20 0.15 -1.55 2.60 -3 5.50 -1.50 2.90 -2.85 5.35 -3.10 5.40 -0.20 0.10 -0.40 0.60 -0.40 1.10 0 0.50 -0.20 1.10 -0.50 1.25 -0.25 0.15 -1.40 2.15 -2.55 4.40 -1.10 2.20 -2.45 4.60 -3 5.25 -0.50 0.70 -0.95 1.65 -0.95 2.15 0 0.55 -0.20 0.95 -0.45 0.95 -0.25 0 -0.70 0.70 -1.05 1.50 -0.35 0.85 -0.80 1.50 -1.05 1.50 -0.25 0 -0.45 0.35 -0.45 0.75 0 0.75 -0.95 2.75 -1.55 3.25 -0.20 0.15 -1.05 1.70 -1.95 3.50 -0.90 1.80 -1.80 3.35 -2.05 3.40 -0.25 0.10 -0.45 0.60 -0.45 1.15 0 0.50 -0.20 0.95 -0.50 0.95 -0.25 0 -0.50 0.45 -0.50 0.95 0 0.55 -0.20 1.05 -0.45 1.15 -0.25 0.10 -1.25 1.80 -2.30 3.85 -1 2.05 -2.15 4.05 -2.55 4.40 -0.40 0.40 -0.70 1.05 -0.70 1.45 0 0.45 -0.35 1.10 -0.75 1.50 -0.40 0.45 -0.90 1.35 -1.10 2.10 -0.15 0.75 -0.70 1.70 -1.25 2.15 -0.50 0.45 -0.90 1.30 -0.90 1.85 0 1.35 -0.20 1.40 -10.50 2.35 -4.55 0.45 -12.40 1.15 -17.50 1.65 -5.10 0.50 -9.50 1 -9.80 1.20 -0.25 0.20 -2.90 0.40 -5.85 0.45 -2.95 0.05 -5.35 0.25 -5.35 0.45 0 0.15 -4.20 0.60 -9.35 0.95 -5.20 0.40 -9.50 0.85 -9.65 1.05 -0.25 0.35 -2.35 0.50 -14.35 1.35 -2.55 0.15 -4.65 0.45 -4.65 0.60 0 0.20 -2.35 0.40 -5.25 0.45 -2.90 0.05 -5.70 0.30 -6.15 0.55 -0.45 0.20 -4.85 0.70 -9.70 1.05 -4.90 0.35 -8.90 0.80 -8.90 1 0 0.20 -2.15 0.50 -4.75 0.70 -2.60 0.15 -6.90 0.45 -9.50 0.60 -2.60 0.20 -4.75 0.50 -4.75 0.65 0 0.15 -2.65 0.35 -5.85 0.45 -3.20 0.05 -5.95 0.30 -6.15 0.50 -0.40 0.65 -18 1.95 -18 1.35z"/>
 </g>
</svg>