<?xml version="1.0" encoding="utf-8"?>
<!DOCTYPE svg PUBLIC "-//W3C//DTD SVG 1.0//EN" "http://www.w3.org/TR/2001/REC-SVG-20010904/DTD/svg10.dtd">
<svg version="1.0" xmlns="http://www.w3.org/2000/svg" width="799px" height="297px" viewBox="0 0 799 297" preserveAspectRatio="xMidYMid meet">
 <g fill="#f8bc2b">
  <path d="M122.50 247.30 c-7.20 -2.55 -9.80 -4.15 -14.90 -9 l-3.15 -3 -6.85 -0.40 c-6.25 -0.30 -13.85 -1.55 -18.70 -3 -1.75 -0.50 -2.10 -0.45 -4.75 1.20 -6.05 3.70 -10.55 5.35 -17.90 6.65 -6.65 1.10 -9.55 1 -10.45 -0.40 -1.30 -2 -2.35 -7.70 -2.45 -12.95 -0.10 -4.95 -0.05 -5.15 1 -5.30 0.70 -0.10 1.15 0.15 1.35 0.80 0.20 0.55 0.85 1.15 1.45 1.30 1.95 0.50 22.75 0.35 23.10 -0.20 0.15 -0.30 1.20 -0.50 2.35 -0.50 1.60 0 2.40 -0.35 3.95 -1.75 1.60 -1.45 2.35 -1.75 4.15 -1.75 3.30 0 3.80 0.30 3.80 2.55 0 1.60 -0.25 2.05 -1.10 2.45 -1 0.40 -0.95 0.45 0.65 0.45 1 0.05 2.70 -0.30 3.75 -0.75 1.60 -0.70 3.05 -0.75 8.20 -0.50 3.45 0.15 12.80 0.30 20.85 0.30 l14.60 0.05 2.10 -1.40 c1.15 -0.75 2.55 -1.65 3.05 -1.95 0.55 -0.30 1.30 -1.05 1.70 -1.65 0.40 -0.55 1.05 -1.05 1.35 -1.05 0.35 0 1.30 -0.70 2.20 -1.50 0.90 -0.85 1.85 -1.50 2.20 -1.50 0.30 0 0.85 -0.35 1.15 -0.80 0.40 -0.50 1.15 -0.70 2.20 -0.60 l1.65 0.15 -2.90 2.85 c-3.10 3.05 -4.50 4.30 -6.95 6.20 -1.40 1.10 -1.60 1.55 -1.85 4.85 -0.40 4.55 -1.70 8.50 -4.15 12.50 -2.50 4.10 -6.20 8.85 -6.90 8.85 -0.30 0 -2 -0.55 -3.80 -1.20z"/>
 </g>
 <g fill="#f7b12d">
  <path d="M76.50 227.30 c0 -1.25 2.40 -3.65 4.50 -4.50 2.10 -0.85 2.50 -1.50 1.20 -2 -1.50 -0.60 -2.25 -0.30 -4.45 1.75 -1.95 1.80 -2.45 2.05 -3.80 1.75 -0.95 -0.15 -1.90 -0.05 -2.25 0.25 -0.75 0.60 -23.60 0.75 -25.90 0.15 -2.40 -0.60 -3 -4.75 -1.50 -9.90 1 -3.55 0.95 -3.90 -1.30 -6.60 -1.10 -1.35 -2 -2.60 -2 -2.80 0 -0.55 3.90 -0.50 5.90 0.05 1.85 0.55 16.65 0.70 21.50 0.25 l3.10 -0.30 0 -2 c0 -2.70 0.90 -2.85 4.45 -0.70 10.40 6.30 24.20 9.20 34.05 7.10 5.20 -1.10 7.60 -1.80 10.10 -3.10 2.75 -1.40 3.50 -1.45 5.05 -0.50 0.70 0.45 1.45 0.55 2.10 0.30 0.85 -0.35 0.70 -0.45 -0.60 -0.45 -2.40 -0.05 -2.15 -1.60 0.45 -3.50 3 -2.20 3.55 -2.05 3.30 0.95 -0.10 2.05 0 2.50 0.70 2.50 0.45 0 0.90 -0.25 1 -0.55 0.10 -0.30 1.55 -1 3.15 -1.50 2.40 -0.75 3.80 -0.90 6.90 -0.65 3.80 0.35 3.90 0.35 4.20 1.80 0.15 0.85 0.45 1.25 0.65 0.90 0.20 -0.30 1.20 -0.70 2.30 -0.85 1.05 -0.15 2.40 -0.80 2.95 -1.40 1.35 -1.45 5.45 -2.40 8.70 -1.95 1.75 0.20 2.55 0.15 2.55 -0.25 0 -0.30 0.45 -0.55 1 -0.55 0.55 0 1 -0.20 1 -0.40 0 -0.80 5.50 -3.15 7.05 -3 l1.55 0.15 -1.10 1.40 c-2.10 2.65 -9.15 5.55 -14.95 6.15 -3.15 0.35 -3.20 0.35 -5.25 3.15 -2.80 3.80 -6.55 7.55 -7.55 7.55 -0.45 0 -0.65 0.25 -0.50 0.50 0.15 0.30 0 0.50 -0.40 0.50 -0.40 0 -1.10 0.45 -1.60 1 -0.50 0.55 -1.20 1 -1.55 1 -0.35 0 -1 0.50 -1.40 1.05 -0.40 0.60 -1.15 1.35 -1.70 1.65 -0.50 0.30 -1.95 1.20 -3.15 2.05 l-2.20 1.45 -16.50 -0.10 c-9.05 -0.05 -18.40 -0.25 -20.75 -0.40 -3.30 -0.25 -4.70 -0.15 -6.20 0.50 -1.05 0.45 -2.85 0.80 -4 0.80 -1.10 0.05 -3.30 0.45 -4.80 1 -3.30 1.15 -4 1.20 -4 0.30z"/>
  <path d="M34.10 196 c-0.35 -0.55 -1.05 -1 -1.60 -1 -0.70 0 -1 -0.35 -1 -1.05 0 -0.85 0.25 -1 1.90 -0.85 1.75 0.15 1.85 0.25 2 2.05 0.20 2.05 -0.35 2.40 -1.30 0.85z"/>
  <path d="M14.40 188.20 c-2.30 -1.45 -2.40 -2.20 -0.45 -2.20 2.35 0 3.05 0.50 3.05 2.05 0 1.75 -0.20 1.75 -2.60 0.15z"/>
 </g>
 <g fill="#f8a62c">
  <path d="M123.50 212.85 c0 -0.95 1.85 -2.50 2.45 -2.10 0.80 0.50 0.65 2.10 -0.25 2.45 -1.30 0.50 -2.20 0.35 -2.20 -0.35z"/>
  <path d="M90.80 210.15 c-0.20 -0.45 0.45 -0.55 2.10 -0.45 3.20 0.25 3.20 0.25 2.85 0.75 -0.40 0.70 -4.70 0.40 -4.95 -0.30z"/>
  <path d="M62.85 210.15 c-0.20 -0.15 -0.35 -0.85 -0.35 -1.50 l0 -1.20 -8 0.15 c-4.40 0.10 -8.05 -0.05 -8.15 -0.25 -0.05 -0.25 -1.15 -0.50 -2.35 -0.60 -2.05 -0.15 -2.45 -0.40 -4.55 -3 -1.30 -1.55 -3.15 -4.25 -4.15 -5.95 -1.55 -2.65 -2.05 -3.10 -3 -2.95 -2.15 0.45 -16.80 -5.10 -16.80 -6.35 0 -0.30 -0.25 -0.40 -0.50 -0.25 -0.30 0.15 -0.50 0.05 -0.50 -0.20 0 -0.30 -0.15 -0.50 -0.35 -0.45 -0.55 0.15 -3.15 -1.65 -3.15 -2.15 0 -0.25 0.65 -0.45 1.50 -0.45 1.60 0 4 0.95 4 1.60 0 0.20 0.35 0.40 0.75 0.40 0.40 0 0.75 0.20 0.75 0.40 0 0.20 1 0.65 2.25 1 1.25 0.35 2.25 0.80 2.25 1.10 0 0.25 0.40 0.50 0.95 0.50 0.50 0 1.80 0.35 2.85 0.80 1.10 0.50 3.30 1 4.95 1.15 2.60 0.25 3 0.45 3.15 1.45 0.10 0.60 0.50 1.10 0.95 1.10 0.45 0 1.15 0.40 1.60 0.95 0.60 0.65 1.70 0.95 4.20 1.15 3.20 0.20 3.35 0.15 3.35 -0.95 0 -1.05 0.25 -1.15 2.40 -1.15 2.15 0 2.50 0.15 3.05 1.30 0.40 0.85 0.85 1.20 1.35 1 0.45 -0.15 1.10 -0.30 1.45 -0.30 0.40 0 0.75 -0.60 0.85 -1.35 0.15 -1.30 0.35 -1.40 2.45 -1.55 2.20 -0.15 2.40 -0.05 3 1.40 l0.70 1.55 3.65 -0.15 3.65 -0.15 2.85 2.30 c1.55 1.30 3.40 2.60 4 2.90 1.15 0.60 1.10 1.30 0 1.30 -1.15 0 -0.75 1.75 0.65 2.85 1.70 1.35 1.90 2.40 0.45 2.40 -0.55 0 -1 -0.20 -1 -0.50 0 -0.65 -4.95 -0.65 -6.90 0.05 -0.85 0.30 -1.90 1.05 -2.35 1.75 -0.80 1.20 -1.30 1.45 -1.90 0.85z"/>
  <path d="M146.15 210.10 c-1.20 -0.15 -1.30 -0.45 -1.20 -2.60 0.05 -0.70 -0.15 -1.60 -0.40 -2 -0.45 -0.65 -0.65 -0.65 -1.90 0.05 -1.55 0.90 -2.65 0.75 -2.65 -0.40 0 -0.50 -0.30 -0.65 -0.85 -0.40 -0.50 0.15 -1.90 0.60 -3.05 0.90 -1.55 0.40 -2.40 1 -2.90 1.95 -0.75 1.50 -2.20 1.90 -2.20 0.65 0 -0.95 -0.70 -0.95 -2.90 0.10 -1.70 0.80 -1.85 0.80 -3.60 -0.20 -1.15 -0.60 -2.15 -0.85 -2.60 -0.60 -0.75 0.40 -2.55 0.85 -5.35 1.25 -0.90 0.10 -2.05 0.45 -2.55 0.70 -0.50 0.30 -1.35 0.50 -1.85 0.45 -0.50 0 0.70 -0.55 2.60 -1.15 7.15 -2.35 13.45 -6.35 17.50 -11.10 1.80 -2.10 2.55 -2.65 2.65 -2.05 0.20 1.10 1 1.05 3 -0.15 2.15 -1.35 5.40 -1.35 5.85 -0.05 0.25 0.85 0.95 0.95 7.15 1.15 3.75 0.10 7.25 0.40 7.75 0.60 0.70 0.35 0.85 0.15 0.85 -1.20 0 -1.30 0.25 -1.70 1.50 -2.15 0.85 -0.30 1.65 -0.95 1.80 -1.45 0.20 -0.65 0.80 -0.90 2.20 -0.90 2.25 0 3 0.90 3 3.70 0 1.85 0.55 2.20 1.95 1.35 0.60 -0.40 0.60 -0.90 -0.10 -3.40 -0.95 -3.30 -1.10 -7.15 -0.35 -7.15 0.70 0 2.70 4.20 3.70 7.70 0.90 3 0.75 5.30 -0.30 5.30 -0.30 0 -1.75 0.60 -3.20 1.35 -1.70 0.85 -2.50 1.55 -2.35 2 0.20 0.55 -0.05 0.60 -1.05 0.35 -1 -0.25 -1.30 -0.10 -1.30 0.45 0 0.65 -0.50 0.75 -2.85 0.55 -1.60 -0.15 -2.95 -0.35 -3.05 -0.40 -0.35 -0.40 -4.85 1.20 -4.70 1.65 0.05 0.30 -0.30 0.55 -0.75 0.55 -0.70 0 -0.75 0.10 -0.20 0.45 1.05 0.65 -1.15 3.55 -2.70 3.55 -0.65 0 -1.30 0.30 -1.40 0.65 -0.20 0.40 -0.30 0.35 -0.30 -0.15 0 -0.40 0.55 -1.30 1.20 -1.95 1.40 -1.30 1.35 -1.90 -0.10 -1.30 -0.50 0.25 -1.05 0.35 -1.25 0.35 -0.25 -0.05 -0.40 0.05 -0.45 0.30 -0.25 2.40 -0.75 3 -2.30 2.70z m-17.30 -6.35 c0.50 -1.35 -0.30 -1.50 -1.45 -0.35 l-1.10 1.10 1.10 0 c0.60 0 1.25 -0.35 1.45 -0.75z"/>
  <path d="M104 188.80 c0 -1.20 0.15 -1.30 2.25 -1.30 1.60 0 2.35 0.25 2.60 0.75 0.40 1.10 0 1.35 -2.60 1.60 -2.15 0.25 -2.25 0.25 -2.25 -1.05z"/>
  <path d="M109.50 188.10 c0 -1.15 0.30 -1.50 1.65 -2 2.45 -0.90 5.35 -0.80 5.35 0.20 0 0.75 -2.95 2.25 -5.60 2.90 -1.30 0.30 -1.40 0.20 -1.40 -1.10z"/>
 </g>
 <g fill="#f49b30">
  <path d="M135.40 203.75 c0.85 -0.70 2 -1.25 2.65 -1.25 l1.20 0.05 -1.40 1.20 c-0.75 0.70 -1.95 1.25 -2.65 1.25 l-1.30 0 1.50 -1.25z"/>
  <path d="M145.50 202.60 c0 -0.25 0.35 -0.80 0.80 -1.15 0.70 -0.60 0.80 -0.55 0.65 0.25 -0.20 1 -1.45 1.75 -1.45 0.90z"/>
  <path d="M43.90 200 c-0.95 -1.70 -2.95 -2.35 -4.70 -1.55 -1.30 0.55 -3.20 -0.15 -3.20 -1.20 0 -0.25 -0.25 -0.15 -0.50 0.25 -0.40 0.65 -0.50 0.60 -0.50 -0.15 0 -1.20 -2.45 -3.85 -3.60 -3.85 -0.50 0 -0.90 0.25 -0.90 0.50 0 0.30 -0.35 0.50 -0.75 0.50 -0.40 0 -0.75 -0.20 -0.75 -0.50 0 -0.25 -0.35 -0.35 -0.75 -0.20 -0.40 0.20 -0.75 0.05 -0.75 -0.25 0 -0.30 -0.35 -0.40 -0.75 -0.25 -0.40 0.20 -0.75 0.05 -0.75 -0.25 0 -0.30 -0.35 -0.40 -0.75 -0.25 -0.40 0.20 -0.75 0.05 -0.75 -0.30 0 -0.30 -0.20 -0.40 -0.50 -0.25 -0.25 0.15 -0.50 0.10 -0.50 -0.15 0 -0.30 -0.45 -0.40 -1 -0.25 -0.60 0.15 -1.10 -0.05 -1.30 -0.55 -0.15 -0.45 -0.50 -0.65 -0.75 -0.50 -0.25 0.15 -0.45 0 -0.45 -0.30 0 -0.35 -0.35 -0.50 -0.75 -0.30 -0.40 0.15 -0.75 0.05 -0.75 -0.25 0 -0.30 -0.25 -0.35 -0.60 -0.15 -0.30 0.20 -0.85 -0.05 -1.25 -0.55 -0.35 -0.55 -0.65 -0.80 -0.65 -0.60 0 0.20 -0.45 -0.10 -1 -0.65 -0.60 -0.60 -1.25 -0.90 -1.50 -0.75 -0.30 0.20 -0.50 0.05 -0.50 -0.20 0 -0.30 -0.25 -0.55 -0.50 -0.55 -1.40 0 -10 -7.60 -10 -8.85 0 -0.35 -0.30 -0.65 -0.70 -0.65 -1.15 0 -1.50 -1 -0.75 -2.30 0.70 -1.35 2.95 -1.70 2.95 -0.45 0 0.50 0.50 0.75 1.40 0.75 0.75 0 2.35 0.50 3.60 1.05 2.15 1 3.15 1.05 20.90 1.05 10.30 0 18.85 -0.15 19.10 -0.40 0.25 -0.25 0.25 -1.55 0 -2.95 -1.45 -8.75 -1.65 -11.65 -0.85 -12.45 1.60 -1.60 1.90 -1.10 2.60 4.45 1.20 9.45 6.90 20.70 14.70 28.85 3.40 3.60 3.25 3.80 -2.25 3.55 -4.50 -0.20 -4.70 -0.20 -4.70 0.80 0 2.15 -2.35 1.70 -3.15 -0.60 -0.10 -0.30 -1.15 -0.30 -3.05 0 -2.90 0.50 -2.95 0.50 -3.75 -0.90 -0.95 -1.70 -2.55 -1.95 -2.55 -0.45 0 0.55 0.25 1 0.50 1 0.85 0 0.55 1.80 -0.40 2.65 -1.20 1.10 -1.20 1.10 -2.20 -0.65z m14.10 -2.85 c0 -0.25 -0.35 -0.80 -0.75 -1.35 -0.85 -1.15 -2.25 -0.70 -2.25 0.70 0 0.80 0.35 1 1.50 1 0.85 0 1.50 -0.15 1.50 -0.35z"/>
  <path d="M157.50 199.25 c-0.35 -0.45 -0.95 -0.70 -1.30 -0.55 -0.35 0.15 -0.80 0.05 -0.95 -0.15 -0.10 -0.25 -3 -0.45 -6.35 -0.50 -3.40 -0.05 -6.20 -0.25 -6.30 -0.45 -0.65 -1.75 -1.05 -1.80 -3.15 -0.65 -2.60 1.50 -5.35 2.15 -5.60 1.35 -0.15 -0.40 -0.45 -0.35 -1.05 0.15 -1.45 1.20 -1.30 0.35 0.25 -1.45 3.70 -4.35 6.80 -9.90 8.40 -15.25 1.20 -4 2 -11 1.70 -14.10 -0.25 -1.90 -0.15 -2.15 0.75 -2.15 1.20 0 1.60 1.65 1.60 6.55 0 1.95 0.20 3.45 0.50 3.45 0.30 0 0.50 0.45 0.50 1 0 0.75 0.35 1 1.45 1 0.85 0 1.65 -0.20 1.80 -0.50 0.40 -0.70 4.90 -0.65 6.45 0.05 0.65 0.30 1.80 0.45 2.45 0.25 1.15 -0.25 1.25 -0.55 1.55 -4.75 0.35 -4.25 0.45 -4.45 1.65 -4.80 1.85 -0.45 2.15 0.30 2.15 6.05 l0 5.10 2.45 2.65 c2.50 2.70 4.90 6.75 4.35 7.30 -0.15 0.15 0.10 0.60 0.60 0.95 0.50 0.40 0.60 0.65 0.25 0.70 -0.90 0 -0.80 1 0.05 1 0.40 0 0.90 0.20 1.05 0.50 0.15 0.30 -0.05 0.35 -0.45 0.20 -0.45 -0.15 -0.80 -0.05 -0.80 0.25 0 0.30 0.40 0.55 0.90 0.60 0.50 0 0.60 0.15 0.25 0.30 -0.90 0.35 -0.80 1.65 0.05 1.65 0.40 0 0.90 0.20 1.05 0.50 0.15 0.25 0 0.35 -0.40 0.20 -0.45 -0.15 -0.85 0.15 -1 0.90 -0.35 1.30 -3.55 3.15 -4.45 2.60 -0.35 -0.25 -0.40 -0.10 -0.15 0.30 0.30 0.50 -0.05 0.55 -1.55 0.30 -3.05 -0.55 -3.75 -0.85 -3.55 -1.45 0.10 -0.35 0.90 -0.65 1.75 -0.75 1.85 -0.20 2.55 -1.80 1.60 -3.55 -0.65 -1.30 -1.35 -1.35 -1.70 -0.15 -0.15 0.50 -0.95 1.15 -1.80 1.45 -1.10 0.40 -1.50 0.90 -1.50 1.80 0 0.70 -0.15 1.60 -0.30 2.05 -0.40 1 -2.40 1.05 -3.20 0.05z"/>
  <path d="M99.80 189.45 c-5.20 -0.85 -11.55 -4.55 -15.15 -8.80 -2.70 -3.20 -5.20 -7.20 -4.85 -7.70 0.15 -0.25 1.15 -0.45 2.25 -0.45 1.45 0 2.05 0.25 2.30 0.90 0.45 1.10 1.70 2.05 2.75 2.10 0.60 0 0.90 -0.50 1 -1.85 0.20 -2.40 1.15 -2.65 2.20 -0.55 1.70 3.35 5.05 6.60 8.75 8.60 3.15 1.70 4.20 2 7.55 2.20 3.10 0.20 4.55 0 7.40 -0.95 3.60 -1.15 4.90 -1.05 5.40 0.45 0.35 1.05 -3.25 4.20 -4.35 3.85 -1.05 -0.30 -3.50 0.60 -4.35 1.70 -0.40 0.50 -1.15 0.60 -2.90 0.40 -1.40 -0.20 -2.30 -0.15 -2.30 0.15 0 0.60 -2.20 0.55 -5.70 -0.05z"/>
 </g>
 <g fill="#f38d2c">
  <path d="M162.45 184.55 c-0.85 -0.65 -1.05 -1.15 -0.70 -1.50 0.75 -0.80 2.75 -0.10 2.75 1 0 1.35 -0.75 1.55 -2.05 0.50z"/>
  <path d="M1.85 177.70 c-1.80 -1.70 -2.35 -2.70 -1.35 -2.70 0.25 0 0.85 -0.85 1.25 -1.85 1.25 -3 5 -9.15 7.55 -12.35 l2.30 -2.95 1 2.35 c0.70 1.60 1.30 2.30 2 2.30 0.55 0 1.40 0.25 1.95 0.50 0.85 0.50 0.95 0.35 0.95 -1.40 0 -2.30 0.70 -3.10 2.75 -3.10 2 0 2.75 0.80 2.75 3 l0 1.75 2.20 -0.15 c1.85 -0.15 2.45 0 3.40 1 1.15 1.15 1.35 1.15 9.40 1 4.50 -0.05 8.30 -0.25 8.45 -0.35 0.10 -0.15 0.30 -2.60 0.45 -5.50 l0.25 -5.25 1.40 0 1.45 0 0 4.50 c0 3.25 -0.15 4.50 -0.60 4.50 -0.35 0 -0.25 0.25 0.25 0.55 1 0.55 1.15 2.45 0.25 2.45 -0.35 0 -0.25 0.25 0.25 0.55 0.95 0.55 1.20 2.45 0.30 2.45 -0.35 0 -0.45 0.50 -0.25 1.40 0.70 2.75 0.85 7.15 0.35 7.80 -0.30 0.35 -0.35 0.80 -0.15 1.05 0.20 0.20 -0.65 0.20 -1.90 0 -2.40 -0.45 -33.50 -0.65 -33.25 -0.25 0.15 0.25 -3.70 0.30 -4.35 0 -0.25 -0.05 -0.55 -0.15 -0.75 -0.25 -0.25 -0.05 -1.45 -0.60 -2.80 -1.20 -2.55 -1.20 -3.55 -1.05 -3.10 0.45 0.50 1.60 -0.45 1.45 -2.40 -0.30z m18.35 -11 c1.30 -0.50 0.90 -1.20 -0.70 -1.20 -1.10 0 -1.40 0.20 -1.20 0.75 0.35 0.80 0.70 0.90 1.90 0.45z"/>
  <path d="M157.25 178.95 c-1.35 -0.20 -3.20 -0.55 -4.05 -0.70 -0.95 -0.20 -1.70 -0.15 -1.90 0.20 -0.45 0.65 -6.60 0.75 -7.05 0.10 -0.15 -0.25 -0.25 -2.25 -0.30 -4.40 0 -3.50 -1.10 -10.65 -1.75 -11.75 -0.15 -0.20 0.30 -0.40 0.95 -0.40 0.70 0 1.35 0.35 1.55 0.75 0.20 0.55 1.05 0.75 3.10 0.75 2.05 0 3 0.25 3.45 0.80 0.50 0.75 0.70 0.75 1.80 0.05 0.70 -0.40 3 -0.85 5.55 -1 l4.35 -0.30 0.25 1.60 c0.45 2.80 0.75 6.10 0.45 5.50 -0.10 -0.35 -0.55 -0.65 -0.95 -0.65 -0.50 0 -0.75 0.65 -0.80 2.15 -0.25 6.70 -0.35 7.45 -0.90 7.10 -0.25 -0.15 -0.50 -0.05 -0.50 0.20 0 0.30 -0.15 0.50 -0.35 0.50 -0.25 -0.05 -1.50 -0.25 -2.90 -0.50z"/>
  <path d="M86.05 178.15 c-0.25 -0.50 -1.15 -1.30 -2 -1.80 -1.40 -0.85 -1.50 -0.85 -2 0 -0.45 0.75 -0.50 0.70 -0.45 -0.50 0.10 -1 0.30 -1.30 0.90 -1.10 0.60 0.25 0.60 0.20 0.15 -0.30 -0.50 -0.50 -0.75 -0.50 -1.35 0 -0.60 0.50 -0.85 0.35 -1.50 -0.90 -0.90 -1.65 -2.30 -6.75 -2.30 -8.15 0 -0.55 0.35 -0.90 1 -0.90 0.65 0 1 0.35 1 0.95 0 0.70 0.50 1 2.05 1.20 3.10 0.40 3.45 0.10 3.45 -2.95 0 -2.65 0 -2.70 1.50 -2.70 1.50 0 1.50 0 1.50 3 0 1.75 0.45 4.25 1.05 6 0.55 1.65 0.90 3.20 0.70 3.50 -0.15 0.25 0 0.50 0.35 0.55 0.70 0 4.05 3.95 3.70 4.30 -0.10 0.15 -0.75 -0.15 -1.40 -0.55 -0.70 -0.45 -1.40 -0.65 -1.55 -0.45 -0.20 0.15 -0.35 0 -0.35 -0.40 -0.05 -0.50 -0.15 -0.45 -0.55 0.20 -0.25 0.45 -0.75 0.85 -1.10 0.85 -0.35 0 -0.30 -0.20 0.15 -0.50 0.65 -0.40 0.65 -0.50 -0.05 -0.50 -0.45 0 -0.95 0.45 -1.10 1 -0.30 1.25 -1.15 1.30 -1.80 0.15z"/>
 </g>
 <g fill="#f18430">
  <path d="M1.15 177 c-1.25 -1 -1.55 -2.15 -0.50 -1.70 0.65 0.25 2.05 2.20 1.75 2.45 -0.10 0.10 -0.65 -0.25 -1.25 -0.75z"/>
  <path d="M77.75 166 c-0.60 -5.50 -0.35 -10.85 0.65 -14.50 1.05 -3.60 2.10 -4.30 4.35 -2.80 1.35 0.90 4.25 1.10 4.25 0.30 0 -0.30 1.45 -0.50 3.30 -0.50 l3.25 0 -1.25 1.65 c-1.45 1.90 -3.50 7.15 -4.05 10.20 -0.20 1.35 -0.65 2.15 -1.15 2.30 -0.75 0.20 -0.75 0.25 0.05 0.30 0.45 0 0.85 0.25 0.85 0.50 0 0.25 -0.40 0.60 -0.85 0.70 -0.85 0.20 -0.85 0.25 0 0.30 1.05 0.05 1.15 1.55 0.10 1.55 -0.40 0 -0.75 0.45 -0.75 1 0 1.30 -1.75 1.70 -5.20 1.30 -2.35 -0.30 -2.75 -0.25 -2.90 0.55 -0.15 0.50 -0.40 -0.80 -0.65 -2.85z"/>
  <path d="M6.85 167.60 c-1.05 -1.15 -1.05 -2.05 -0.05 -3.50 0.70 -1 0.85 -1.05 1.50 -0.35 0.85 0.80 3.70 1.05 3.70 0.25 0 -0.80 -1.15 -3 -1.60 -3 -1.90 0 3.55 -5.70 8.55 -9 3.65 -2.40 6.10 -3.10 6.80 -2 0.40 0.65 5.25 0.65 5.25 0 0 -0.30 2.25 -0.50 5.75 -0.50 7.40 0 10.55 -1.10 11.05 -3.85 0.30 -1.50 0.45 -1.65 2.05 -1.65 1.30 0 1.70 0.20 1.50 0.70 -0.15 0.40 -0.55 3 -0.90 5.75 -0.45 3.50 -0.85 5.05 -1.30 5.05 -0.45 0 -0.65 0.75 -0.65 2.25 0 1.65 0.20 2.25 0.75 2.25 0.45 0 0.75 0.45 0.75 1.25 0 0.80 -0.30 1.25 -0.75 1.25 -0.40 0 -0.75 0.40 -0.80 0.90 -0.05 0.45 -0.10 1.40 -0.10 2.05 l-0.10 1.20 -8.70 0.10 c-5.45 0.10 -8.85 0.35 -9.20 0.70 -0.85 0.85 -1.75 0.65 -2.10 -0.45 -0.20 -0.55 -0.80 -1.35 -1.40 -1.75 -1.20 -0.80 -3.35 -0.50 -3.35 0.45 0 1.45 -2.05 2.80 -4.25 2.80 -2.05 0 -2.20 -0.10 -2.75 -1.75 -0.60 -1.75 -1.75 -2.75 -3.20 -2.75 -0.45 0 -0.80 0.35 -0.80 0.75 0 0.40 -0.45 0.75 -0.95 0.75 -0.60 0 -1.15 0.55 -1.50 1.50 -0.60 1.75 -1.95 2 -3.20 0.60z m14.65 -5.35 c0 -1.50 -1.10 -2.45 -1.90 -1.65 -0.60 0.60 -0.80 2.50 -0.30 3 0.65 0.70 2.20 -0.30 2.20 -1.35z"/>
  <path d="M149.70 165.75 c-0.35 -0.85 -4.45 -1.05 -4.95 -0.25 -0.75 1.25 -1.10 0.60 -3.35 -5.75 -0.55 -1.65 -2.15 -4.65 -3.45 -6.60 -2.90 -4.35 -2.85 -5.40 0.25 -4.95 5.70 0.75 6.60 0.95 7.05 1.35 0.75 0.75 2 0.50 2.65 -0.55 0.75 -1.25 4.15 -1.40 5.10 -0.25 0.90 1.05 2 0.95 2 -0.25 0 -0.70 0.35 -1 1.15 -1 1.40 0 2.40 1.75 4.60 7.80 2.10 5.65 2.90 9.75 1.90 9.35 -0.35 -0.15 -0.65 -0.05 -0.65 0.20 0 0.25 -1.35 0.35 -3 0.25 -2.20 -0.15 -3.30 0 -4.25 0.60 -1.55 1.05 -4.70 1.05 -5.05 0.05z"/>
  <path d="M173.30 148.70 c-0.55 -1.45 -0.30 -1.70 1.45 -1.70 1.90 0 2 0.10 1.25 1.55 -0.65 1.15 -2.30 1.25 -2.70 0.15z"/>
  <path d="M122.40 141.35 c-0.80 -0.30 -1.40 -0.95 -1.40 -1.45 0 -0.70 0.40 -0.90 1.75 -0.90 1.60 0 1.75 0.10 1.75 1.50 0 1.65 -0.10 1.65 -2.10 0.85z"/>
 </g>
 <g fill="#f1762c">
  <path d="M16.75 153.50 c0.15 -0.25 0.80 -0.75 1.40 -1.05 1.10 -0.60 1.10 -0.60 0.15 0.50 -0.95 1.05 -2.15 1.50 -1.55 0.55z"/>
  <path d="M154.10 152 c-0.35 -0.55 -0.85 -1 -1.20 -1 -0.30 0 -1 -0.40 -1.55 -0.85 -0.90 -0.85 -1 -0.85 -2.05 0.50 -1.20 1.50 -2.80 1.75 -4.90 0.65 -0.75 -0.40 -2 -0.65 -2.75 -0.60 -0.80 0.10 -1.95 -0.20 -2.60 -0.60 -1.05 -0.70 -1.20 -0.70 -1.65 0.10 -0.45 0.80 -0.75 0.70 -2.85 -1.35 -2.75 -2.65 -6.25 -5.05 -9.30 -6.40 -1.25 -0.55 -2.25 -1.20 -2.25 -1.50 0 -0.30 -0.20 -0.40 -0.45 -0.25 -0.25 0.20 -1.80 -0.05 -3.40 -0.45 -8.85 -2.35 -17.60 0.10 -24.25 6.85 -1.60 1.60 -3.25 2.90 -3.75 2.95 -0.55 0 -0.65 0.15 -0.25 0.30 1.25 0.50 0.55 0.95 -1.15 0.75 -0.95 -0.10 -2.10 0.05 -2.50 0.40 -0.55 0.45 -0.75 0.45 -0.75 0.05 0 -0.40 -0.25 -0.40 -0.90 0 -0.70 0.45 -1.35 0.30 -3.25 -0.75 -1.30 -0.75 -2.60 -1.20 -2.85 -1.05 -1.90 1.15 2.60 -8.10 5.85 -12.10 2.35 -2.90 5.15 -5.60 5.80 -5.65 0.20 0 0.35 0.70 0.35 1.50 0 1.15 -0.20 1.50 -1 1.50 -0.65 0 -0.90 0.25 -0.70 0.75 0.25 0.55 1.10 0.75 3.30 0.75 1.90 0 3.25 0.25 3.70 0.70 0.50 0.55 1.60 0.70 3.95 0.55 1.80 -0.10 3.40 -0.30 3.60 -0.40 0.25 -0.10 1.25 -0.35 2.25 -0.55 1.20 -0.20 1.95 -0.65 2.15 -1.30 0.25 -0.80 0.75 -1 2.75 -1 2.85 0 4 0.35 4 1.25 0 0.80 3.95 1.55 7 1.30 1.50 -0.10 2.45 -0.45 2.90 -1.10 0.85 -1.20 4.65 -1.30 5.80 -0.20 0.40 0.40 1.10 0.75 1.50 0.75 0.45 0 0.80 0.25 0.80 0.50 0 0.30 0.35 0.50 0.75 0.50 0.40 0 0.75 -0.35 0.75 -0.80 0 -0.70 0.40 -0.80 2.95 -0.50 1.65 0.20 3.05 0.15 3.15 -0.10 0.05 -0.25 1.45 -0.60 3 -0.75 l2.85 -0.25 3.55 3.75 c4.30 4.50 7.85 9.80 6.75 10.05 -0.40 0.10 -0.75 0.70 -0.75 1.35 0 0.65 -0.25 1.35 -0.50 1.50 -0.30 0.20 -0.40 0.55 -0.25 0.80 0.20 0.25 0 0.45 -0.35 0.45 -0.35 0 -0.95 -0.45 -1.30 -1z"/>
  <path d="M24.50 151.75 c-0.70 -0.85 -2.60 -1 -4.05 -0.25 -1.95 1.05 -0.90 0.05 1.50 -1.40 2.30 -1.45 2.45 -1.65 2.80 -4.20 0.55 -4.70 1.35 -8.35 1.95 -9.20 0.50 -0.65 1.20 -0.70 4.20 -0.45 3.05 0.35 3.60 0.50 3.60 1.30 0 0.75 0.35 0.95 1.70 0.95 0.90 0 2.40 0.15 3.25 0.30 1.40 0.30 1.55 0.20 1.55 -1 l0 -1.30 4.50 0 4.45 0 0.55 -2 c0.30 -1.20 0.85 -2 1.30 -2 0.40 0 0.85 -0.35 1 -0.75 0.20 -0.40 0.80 -0.75 1.45 -0.75 l1.15 0 -1.45 4.15 c-0.80 2.25 -1.70 5.40 -2 7.05 -0.45 2.15 -0.85 3 -1.55 3.20 -0.90 0.20 -1.30 1.10 -0.45 1.10 0.25 0 0.55 0.30 0.70 0.70 0.20 0.50 0 0.60 -0.70 0.45 -0.60 -0.20 -0.95 0 -0.95 0.45 0 0.70 -0.70 1.15 -3.65 2.35 -0.75 0.30 -3.95 0.55 -7.10 0.55 -3.10 0 -5.75 0.20 -5.85 0.45 -0.05 0.20 -1.75 0.55 -3.70 0.75 -2.90 0.30 -3.65 0.20 -4.20 -0.45z"/>
  <path d="M172.10 145.20 c-0.85 -2.45 -2 -5.65 -2.55 -7.10 l-1.05 -2.65 1.35 0.15 c1 0.10 1.45 0.45 1.55 1.30 0.25 1.65 1.10 1.35 1.10 -0.40 0 -1.25 0.20 -1.50 1.20 -1.50 1.50 0 1.60 0.30 2.30 6.45 0.65 5.65 0.45 7.70 -0.80 7.20 -0.45 -0.15 -1 0 -1.20 0.35 -0.25 0.35 -0.95 -1.10 -1.90 -3.80z"/>
 </g>
 <g fill="#f0692c">
  <path d="M172.70 144.25 c0.50 -0.75 0.65 -1.20 0.35 -1.05 -0.35 0.25 -0.40 0.05 -0.20 -0.50 0.25 -0.70 0.10 -0.80 -0.80 -0.55 -0.90 0.20 -1 0.15 -0.55 -0.40 0.45 -0.50 0.30 -0.95 -0.45 -1.70 -0.60 -0.60 -1.05 -1.25 -1.05 -1.45 0 -0.85 -5.40 -10.45 -7.80 -13.85 -4.80 -6.85 -12.75 -14.35 -19.55 -18.45 -1.75 -1.05 -3.15 -2.20 -3.15 -2.60 0 -1 3.30 -0.95 3.70 0.05 0.15 0.40 0.60 0.75 1.05 0.75 0.95 0 2.75 1.75 2.75 2.75 0 0.50 0.50 0.75 1.50 0.75 1.85 0 4.75 1.80 5.60 3.50 0.90 1.75 2.70 3.50 3.60 3.50 0.85 0 2.80 2.30 2.80 3.30 0 0.35 0.80 0.80 1.90 0.95 1 0.15 2.45 0.45 3.25 0.70 0.75 0.25 1.35 0.35 1.35 0.25 0 -0.15 -0.55 -1.35 -1.25 -2.70 -0.70 -1.35 -1.25 -3.05 -1.25 -3.75 0 -0.80 -0.30 -1.25 -0.75 -1.25 -0.50 0 -0.75 -0.55 -0.75 -1.75 0 -3.70 2.35 -1.35 6.10 6 2 3.90 5.10 12.85 5.60 16.25 0.20 1.25 0.50 2.65 0.60 3.10 0.20 0.65 0.05 0.80 -0.50 0.60 -0.70 -0.25 -0.80 0.25 -0.80 3.65 0 3.50 -0.10 4 -1.10 4.60 l-1.10 0.70 0.90 -1.40z"/>
  <path d="M25.95 140.50 c-0.15 -1.50 0.15 -2.85 1.60 -7.65 l1.50 -4.85 -2.20 -3.65 c-1.95 -3.30 -3.35 -6.05 -3.35 -6.60 0 -0.15 0.55 -0.25 1.25 -0.25 0.85 0 1.45 0.40 1.85 1.20 0.45 1.10 0.80 1.20 2.85 1.05 5.70 -0.50 13.50 -0.65 15.45 -0.30 2.35 0.45 13.70 -1.15 14 -2 0.10 -0.25 0.50 -0.45 0.90 -0.45 0.40 0 0.70 -0.45 0.70 -1 0 -0.65 0.35 -1 1 -1 0.75 0 1 -0.35 1 -1.25 0 -0.75 0.30 -1.25 0.70 -1.25 0.35 0 0.80 -0.45 0.95 -1.05 0.15 -0.55 0.75 -1.15 1.30 -1.30 0.60 -0.15 1.05 -0.60 1.05 -0.95 0 -0.45 0.55 -0.70 1.50 -0.70 0.85 0 1.50 -0.20 1.50 -0.50 0 -0.25 0.80 -0.50 1.85 -0.50 l1.80 0 -4.05 3.80 c-4.95 4.55 -8.55 9.60 -12.30 17.10 -1.95 3.90 -3.05 5.60 -3.70 5.60 -0.70 0 -0.75 0.10 -0.10 0.50 0.65 0.40 0.60 0.50 -0.10 0.50 -0.50 0 -0.90 0.25 -0.90 0.50 0 0.30 0.25 0.50 0.50 0.50 0.30 0 0.50 0.25 0.50 0.50 0 0.30 -0.25 0.50 -0.55 0.50 -0.75 0 -1.95 1.30 -1.60 1.70 0.20 0.15 0.05 0.30 -0.25 0.30 -0.35 0 -0.60 -0.20 -0.60 -0.50 0 -0.25 -1 -0.50 -2.20 -0.50 -1.95 0 -2.25 0.15 -2.40 1.15 -0.15 1.10 -0.30 1.10 -6.90 1.15 -6.80 0.05 -8.50 -0.25 -8.50 -1.50 0 -0.40 -0.30 -0.80 -0.70 -0.95 -0.65 -0.25 -1.70 0.65 -2.70 2.45 -0.45 0.75 -0.60 0.80 -0.65 0.20z m17.55 -1.80 c0 -0.40 -0.20 -0.70 -0.50 -0.70 -0.25 0 -0.50 0.45 -0.50 1.05 0 0.55 0.25 0.85 0.50 0.70 0.30 -0.15 0.50 -0.65 0.50 -1.05z"/>
  <path d="M128 140.25 c0 -0.40 0.25 -0.75 0.50 -0.75 0.30 0 0.50 -0.35 0.50 -0.75 0 -0.40 -0.35 -0.75 -0.75 -0.75 -0.40 0 -0.75 0.15 -0.75 0.40 0 0.20 -1.75 0.40 -3.85 0.45 -2.20 0.05 -3.95 0.35 -4.15 0.65 -0.25 0.40 -0.45 0.35 -0.65 -0.20 -0.40 -0.95 -1.65 -1.05 -2 -0.15 -0.15 0.35 -0.30 0.25 -0.30 -0.25 -0.05 -1.20 -2.55 -1.25 -2.55 -0.10 0 0.95 -1.10 0.70 -1.40 -0.35 -0.15 -0.60 -0.10 -0.60 0.30 0 0.40 0.55 0.55 0.45 0.85 -0.45 0.40 -1.25 -0.35 -2 -2.05 -2 -1.20 0 -1.60 0.65 -1.45 2.45 0.10 1.15 0.05 1.15 -0.60 0.25 -0.65 -0.90 -0.75 -0.90 -1.35 -0.10 -0.35 0.50 -0.85 0.65 -1.25 0.45 -0.35 -0.25 -1.30 -0.10 -2.10 0.30 -0.85 0.45 -1.85 0.60 -2.35 0.35 -0.45 -0.20 -1.05 -0.30 -1.35 -0.20 -1.05 0.35 -5.25 0.25 -5.25 -0.10 0 -0.25 -0.50 -0.40 -1.10 -0.40 -0.95 0 -1 -0.10 -0.40 -0.50 0.60 -0.40 0.45 -0.50 -0.70 -0.50 -1.15 0 -1.35 0.15 -1.15 1 0.20 0.80 0 1 -0.95 1 -0.65 0 -1.15 -0.15 -1.15 -0.35 0.20 -1.10 -0.15 -1.65 -1 -1.65 -0.95 0 -1.55 -0.90 -1.55 -2.40 0 -1.40 5 -5.50 9.25 -7.60 6.15 -3 9.90 -4.05 15.55 -4.35 10.80 -0.60 20.10 2 29.50 8.20 3.90 2.55 7.30 5.55 5.70 5.05 -0.40 -0.15 -1.15 0.10 -1.65 0.50 -0.80 0.70 -1 0.70 -1.40 0.10 -0.40 -0.60 -0.60 -0.60 -0.80 -0.10 -0.45 1.10 -2.60 3.40 -2.65 2.80 0 -0.30 0.35 -0.85 0.75 -1.20 0.40 -0.35 0.75 -1 0.70 -1.45 0 -0.60 -0.10 -0.55 -0.45 0.20 -0.20 0.60 -0.75 1.35 -1.20 1.70 -0.45 0.35 -0.70 0.85 -0.55 1.05 0.10 0.15 -0.70 0.35 -1.75 0.40 -1.10 0.05 -2 -0.15 -2 -0.40 0 -0.30 -0.45 -0.50 -1 -0.50 -0.55 0 -1 -0.20 -1 -0.50 0 -0.25 -0.65 -0.50 -1.50 -0.50 -0.80 0 -1.50 -0.20 -1.50 -0.50 0 -0.25 -0.45 -0.50 -0.95 -0.50 -0.55 0 -1.10 -0.30 -1.20 -0.60 -0.15 -0.35 -0.30 0.30 -0.30 1.50 -0.05 1.50 -0.25 2.10 -0.80 2.10 -0.40 0 -0.75 -0.35 -0.75 -0.75z m11.45 -1.70 c0.45 -0.30 0.10 -0.50 -1.15 -0.65 -1.25 -0.15 -1.80 0 -1.80 0.45 0 0.75 1.90 0.85 2.95 0.20z m-10.90 -1.05 c0.25 0 0.45 -0.20 0.45 -0.50 0 -0.80 -1.30 -0.60 -2.05 0.35 -0.60 0.75 -0.60 0.80 0.20 0.50 0.50 -0.20 1.15 -0.35 1.40 -0.35z"/>
  <path d="M158.65 106 c-0.95 -0.40 -1.15 -0.85 -1.15 -2.50 0 -1.15 0.25 -2 0.55 -2 0.60 0 4.40 4 4.45 4.65 0 0.50 -2.50 0.40 -3.85 -0.15z"/>
  <path d="M19.80 104.65 c-0.15 -0.80 -0.40 -2.60 -0.55 -4 -0.30 -2.40 -0.25 -2.65 0.65 -2.65 1.20 0 1.60 1.25 1.60 5.15 0 2.15 -0.20 2.85 -0.70 2.85 -0.40 0 -0.85 -0.60 -1 -1.35z"/>
  <path d="M77.50 103.40 c0 -0.75 0.25 -1.40 0.50 -1.40 0.30 0 0.50 -0.30 0.50 -0.65 0 -0.95 2.20 -1.85 4.50 -1.85 1.55 0 2 0.20 2 0.90 0 0.55 -1.20 1.40 -3.75 2.60 l-3.75 1.80 0 -1.40z"/>
  <path d="M128 99.70 c-3.90 -1.20 -4.30 -1.30 -10.75 -2.25 -4.75 -0.70 -16.45 -0.30 -21.25 0.80 -4.15 0.90 -4.50 0.90 -4.50 -0.05 0 -2.10 3.80 -3.10 12.60 -3.30 2.95 -0.10 5.40 -0.30 5.40 -0.50 0 -0.25 1.35 -0.40 3 -0.40 2.20 0 3.10 0.20 3.30 0.70 0.15 0.40 0.60 0.60 1 0.45 0.95 -0.35 8.70 0.90 8.70 1.45 0 0.20 0.55 0.40 1.25 0.40 0.70 0 2.25 0.25 3.50 0.60 2 0.55 2.25 0.75 2.25 2 0 1.65 0.25 1.65 -4.50 0.10z"/>
  <path d="M86.50 99 c0 -1.45 0.10 -1.50 2.25 -1.50 1.85 0 2.25 0.15 2.25 0.90 0 0.65 -0.60 1.10 -1.95 1.50 -2.60 0.80 -2.55 0.80 -2.55 -0.90z"/>
  <path d="M19 92.80 c0 -1.20 1.15 -2.80 2.05 -2.80 0.50 0 0.60 2 0.15 3.20 -0.50 1.30 -2.20 1 -2.20 -0.40z"/>
  <path d="M146.15 79.65 c-2.75 -0.15 -3.65 -0.35 -3.65 -0.90 0 -0.90 2.40 -1.35 6.20 -1.15 2.40 0.10 3.05 0.35 3.70 1.30 0.70 1.05 0.70 1.10 -0.95 1 -0.95 -0.05 -3.35 -0.20 -5.30 -0.25z"/>
  <path d="M99.15 62 c-0.80 -0.30 -1.15 -0.90 -1.15 -1.75 0 -1.10 -0.20 -1.25 -1.80 -1.25 -1.70 0 -1.80 -0.05 -1.45 -1.35 0.20 -0.80 0.40 -1.45 0.50 -1.55 0.05 -0.10 1.70 1 3.55 2.45 1.90 1.40 3.75 2.65 4.10 2.80 0.30 0.15 0.60 0.45 0.60 0.70 0 0.55 -2.90 0.55 -4.35 -0.05z"/>
 </g>
 <g fill="#f05b2c">
  <path d="M25.10 120.35 c-2.85 -4.45 -4.15 -8.60 -5.20 -16.60 -0.50 -3.70 -0.70 -10.75 -0.35 -12.45 0.15 -0.90 6 -3.05 11.20 -4.10 5.85 -1.20 17.05 -0.75 22.50 0.90 l4 1.20 3.70 -2.25 c3.75 -2.25 12.10 -6.10 15.55 -7.10 1.80 -0.55 2 -0.85 3.25 -4.25 2.15 -5.85 7.75 -13.05 13.15 -16.75 1.15 -0.85 2.10 -1.85 2.10 -2.25 0 -0.45 0.25 -0.70 0.55 -0.60 0.30 0.10 0.45 0.35 0.35 0.55 -0.10 0.20 0.80 0.80 1.95 1.40 1.20 0.60 2.05 1.25 1.90 1.45 -0.15 0.25 0.70 0.90 1.90 1.40 2.80 1.25 7.15 6.50 10 12.15 l2.10 4.10 4.35 0.90 c4.50 0.90 10.20 2.60 12.45 3.75 1.10 0.55 1.60 0.45 4.25 -0.85 4.40 -2.15 8 -3.10 11.90 -3.05 5.15 0.05 5.60 0.30 6.80 3.45 1.65 4.40 2.10 7.15 1.90 11.70 l-0.15 4.35 2.10 2.50 c1.35 1.60 2.05 2.80 1.85 3.30 -0.25 0.60 0.10 0.95 1.20 1.35 1.85 0.65 5.35 5.45 4.45 6.05 -0.40 0.25 -0.30 0.40 0.20 0.40 0.90 0 1.65 1.30 1.20 2.05 -0.15 0.20 0.40 1.75 1.25 3.40 0.80 1.65 1.50 3.75 1.50 4.60 0 1.55 -0.05 1.55 -1.85 1.20 -1.05 -0.20 -2.65 -0.35 -3.50 -0.30 -0.90 0.05 -1.65 -0.15 -1.65 -0.45 0 -0.30 -0.20 -0.45 -0.45 -0.25 -0.25 0.15 -0.60 0.05 -0.80 -0.20 -0.15 -0.30 -0.60 -0.40 -1 -0.20 -0.50 0.15 -0.75 -0.05 -0.75 -0.75 0 -1.20 -1.90 -3.70 -2.55 -3.30 -0.50 0.30 -3.45 -2.45 -3.45 -3.25 0 -0.65 -2.60 -3.05 -3 -2.80 -0.25 0.15 -0.50 0 -0.60 -0.35 -0.10 -0.30 -0.55 -0.60 -1 -0.70 -0.95 -0.10 -4.40 -2.75 -4.40 -3.30 0 -0.20 -0.30 -0.25 -0.70 -0.10 -0.40 0.15 -1 -0.20 -1.40 -0.75 -0.40 -0.60 -0.85 -0.95 -1 -0.80 -0.40 0.40 -9.90 -4.20 -9.90 -4.80 0 -0.30 -0.45 -0.40 -1 -0.20 -0.55 0.20 -1 0.10 -1 -0.20 0 -0.30 -0.35 -0.40 -0.75 -0.25 -0.40 0.20 -0.75 0.10 -0.75 -0.20 0 -0.25 -0.55 -0.35 -1.15 -0.25 -0.65 0.15 -1.55 -0.10 -1.95 -0.50 -0.45 -0.45 -1.25 -0.65 -2.05 -0.50 -0.75 0.15 -1.35 0.05 -1.35 -0.20 0 -0.30 -0.55 -0.40 -1.25 -0.25 -0.70 0.10 -1.25 0 -1.25 -0.25 0 -0.25 -0.80 -0.35 -1.80 -0.25 -1.35 0.15 -1.95 0 -2.30 -0.60 -0.45 -0.85 -3.40 -1.15 -3.40 -0.35 0 0.65 -2.65 1.05 -3.20 0.50 -0.65 -0.60 -2.65 -0.60 -2.90 0 -0.25 0.70 -2.90 1.25 -2.90 0.60 0 -0.85 -2.45 -0.65 -3.40 0.25 -0.50 0.55 -0.85 0.65 -1 0.25 -0.20 -0.65 -1.60 -0.75 -1.60 -0.10 0 0.25 -0.45 0.35 -1 0.20 -0.55 -0.15 -1 -0.05 -1 0.25 0 0.75 -3.40 1.65 -4.85 1.30 -0.80 -0.20 -1.15 -0.10 -1.15 0.40 0 0.90 -4.35 2.55 -4.65 1.75 -0.20 -0.70 -3.35 0.50 -3.35 1.35 0 0.30 -0.85 1.10 -1.90 1.75 -1 0.70 -3.30 2.25 -5.10 3.50 -1.80 1.25 -3.70 2.20 -4.25 2.15 -0.75 -0.10 -0.85 -0.05 -0.30 0.30 0.85 0.60 0.25 1.65 -0.70 1.25 -1.05 -0.40 -2.20 0.70 -1.90 1.85 0.20 0.75 0.05 0.90 -0.95 0.65 -0.85 -0.15 -1 -0.10 -0.45 0.25 1 0.70 -0.15 2.10 -1.65 2.10 -0.80 0 -0.90 0.10 -0.35 0.45 1.10 0.70 0.30 2 -1.05 1.75 -0.65 -0.10 -0.85 -0.10 -0.50 0.10 0.30 0.15 0.60 0.65 0.60 1.10 0 0.70 -0.10 0.70 -0.45 0.15 -0.30 -0.45 -0.95 -0.60 -2.10 -0.35 -0.95 0.20 -2.10 0.40 -2.55 0.45 -0.45 0.05 -0.70 0.25 -0.55 0.55 0.20 0.25 -0.20 0.30 -0.95 0.15 -0.65 -0.20 -3.05 -0.05 -5.30 0.35 -2.55 0.40 -4.25 0.45 -4.55 0.15 -0.50 -0.50 -14.35 -0.55 -15.15 -0.05 -0.25 0.15 -1.10 0.45 -1.95 0.70 -1.35 0.40 -1.55 0.30 -2.85 -1.65z"/>
 </g>
 <g fill="#5d5f5e">
  <path d="M417 218.25 c-13.50 -2.90 -24.05 -10.95 -30.20 -23.10 -3.75 -7.45 -5.25 -18.50 -3.60 -26.60 3.30 -16.20 14.75 -28.60 30.65 -33.15 3.25 -0.95 5.05 -1.15 11.15 -1.10 6.80 0.05 7.55 0.15 11.95 1.65 5.40 1.80 9.05 3.75 12.85 6.85 1.60 1.30 2.80 1.95 3 1.65 0.15 -0.30 0.20 -2.35 0.10 -4.60 l-0.15 -4.10 7.15 0 7.10 0 0 40.75 c0 22.40 -0.20 40.85 -0.40 41 -0.20 0.15 -3.35 0.20 -6.95 0.10 l-6.65 -0.15 0 -4.75 c0 -2.60 -0.10 -4.70 -0.25 -4.70 -0.15 0 -1.65 1.10 -3.30 2.45 -3.70 3 -8.90 5.60 -13.95 7.05 -4.85 1.40 -13.90 1.75 -18.50 0.75z m14.75 -17 c7.05 -1.85 12.85 -6.60 16.15 -13.20 7.10 -14.20 0.65 -30.50 -14.30 -35.90 -16.45 -6 -34.05 6.60 -34.10 24.35 0 11.10 8.05 21.90 18.55 24.70 3.60 0.95 10.05 1 13.70 0.05z"/>
  <path d="M563.05 218.25 c-11.90 -2.60 -20.85 -8.60 -27.25 -18.20 -9.05 -13.60 -9.65 -30.55 -1.55 -44.75 4.35 -7.65 10.25 -13.10 18.45 -17.05 6.85 -3.30 9.85 -3.95 18.05 -3.95 6.55 -0.05 7.35 0.05 12 1.55 5.40 1.75 10.10 4.25 13.50 7.25 1.20 1.05 2.30 1.90 2.45 1.90 0.15 0 0.30 -2.15 0.30 -4.75 l0 -4.75 7.20 0 7.15 0 -0.10 40.15 c-0.05 22.05 -0.15 40.55 -0.20 41.10 -0.05 0.95 -0.40 1 -6.95 0.95 l-6.85 -0.05 -0.25 -4.90 -0.25 -4.90 -2.20 1.85 c-8.95 7.50 -22.45 10.95 -33.50 8.55z m14.70 -17 c6.80 -1.80 13.50 -7.35 16.70 -13.85 2.10 -4.25 2.95 -10.25 2.10 -15.25 -1.90 -11 -10.75 -19.65 -21.90 -21.25 -12.40 -1.80 -24.50 6.10 -28 18.30 -2.35 8.10 -0.75 16.40 4.45 23.15 3.10 4.10 9.05 8 13.70 9.10 3.10 0.70 9.75 0.60 12.95 -0.20z"/>
  <path d="M748.40 218.50 c-18.15 -3.30 -31.90 -17 -35.20 -35 -0.90 -4.90 -0.85 -8.90 0.05 -14.10 2.45 -14.10 11.35 -25.60 24.45 -31.65 6.15 -2.85 9.20 -3.45 17.30 -3.45 6.75 0 7.60 0.15 11.85 1.55 5.40 1.80 10 4.30 13.25 7.10 1.25 1.15 2.45 2.05 2.60 2.05 0.15 0 0.30 -2.15 0.30 -4.75 l0 -4.75 7.50 0 7.50 0 0 40.70 c0 26.60 -0.15 40.85 -0.50 41.05 -0.25 0.15 -3.55 0.35 -7.25 0.40 -4.85 0.05 -6.80 -0.05 -6.95 -0.50 -0.15 -0.35 -0.20 -2.50 -0.15 -4.90 0.05 -2.35 0 -4.25 -0.15 -4.25 -0.15 0.05 -1.70 1.15 -3.50 2.55 -3.90 3 -10.05 6.05 -14.50 7.20 -3.75 0.95 -13.15 1.40 -16.60 0.75z m13.60 -17.30 c4.75 -1.40 7.90 -3.25 11.20 -6.50 12.45 -12.30 9.60 -32.55 -5.75 -40.90 -12.50 -6.80 -28.10 -2.05 -34.85 10.55 -6.80 12.80 -1.55 28.70 11.70 35.35 1.40 0.70 3.45 1.50 4.50 1.75 3.25 0.75 10.25 0.60 13.20 -0.25z"/>
  <path d="M249.50 217.70 c-24.40 -4.45 -42.75 -22.85 -48.30 -48.45 -1.20 -5.70 -1.20 -18.50 0 -24.25 4.15 -19.40 16.30 -35.25 33.45 -43.70 20.15 -9.90 41.95 -8.20 60.85 4.75 2.35 1.60 5.35 3.90 6.75 5.10 l2.50 2.20 -4.95 6.10 c-4.40 5.40 -5.05 6 -5.80 5.45 -0.50 -0.35 -2.35 -1.70 -4.10 -3 -6.65 -4.85 -14.85 -8.55 -22.10 -9.90 -4.90 -0.90 -12.45 -0.40 -18 1.25 -14.30 4.20 -25.30 14.40 -30.30 28.15 -1.90 5.25 -2.60 9.55 -2.55 16.20 0.10 17.40 9.20 32.45 24.20 39.95 12.90 6.50 29.90 5.65 41.90 -2.10 9.45 -6.15 17.40 -17.75 19.25 -28.05 l0.30 -1.90 -24.80 0 -24.80 0 0 -7.50 0 -7.50 33.80 0 33.85 0 -0.30 8.15 c-0.15 4.65 -0.60 9.45 -1.10 11.35 -4.80 19.85 -15.65 33.85 -32.75 42.50 -5.50 2.75 -9.70 4.15 -15.85 5.25 -5.35 0.90 -15.95 0.90 -21.15 -0.05z"/>
  <path d="M333.70 217.55 c-0.10 -0.10 -0.20 -18.65 -0.20 -41.15 l0 -40.95 6.90 0.15 6.85 0.15 -0.15 2.85 c-0.10 1.60 -0.05 2.90 0.10 2.90 0.15 0 1.45 -0.75 2.90 -1.70 5.95 -3.75 7.20 -4 21.45 -4.20 l12.85 -0.15 -2.70 6.40 c-1.50 3.50 -3.05 7.15 -3.45 8 l-0.75 1.65 -6.35 0 c-7.15 -0.05 -10 0.55 -13.70 2.95 -2.65 1.65 -4.45 3.80 -6.05 7.35 -1.15 2.45 -1.15 2.55 -1.30 29.20 l-0.15 26.75 -8 0 c-4.45 0 -8.15 -0.10 -8.25 -0.20z"/>
  <path d="M484.20 217.55 c-0.10 -0.10 -0.20 -20.70 -0.20 -45.80 0 -50.05 -0.10 -48.15 3.10 -54.75 2.15 -4.40 6.70 -8.85 11.50 -11.20 6.15 -3 8.10 -3.30 21.95 -3.30 l12.35 0 -3.25 7.60 c-1.80 4.20 -3.30 7.75 -3.40 7.80 -0.10 0.10 -3.40 0.15 -7.30 0.15 -5.40 -0.10 -7.75 0.10 -9.75 0.75 -5.60 1.75 -8.65 6.20 -8.85 12.85 l-0.10 3.60 13.15 0.15 13.15 0.10 -0.15 7.15 -0.15 7.10 -13 0.25 -13 0.25 -0.25 33.65 -0.25 33.65 -7.65 0.10 c-4.25 0.05 -7.80 0 -7.90 -0.10z"/>
  <path d="M631.20 217.55 c-0.10 -0.10 -0.20 -18.65 -0.20 -41.15 l0 -40.90 7.05 0 7.10 0 -0.30 3 c-0.15 1.80 -0.05 3 0.25 3 0.25 0 1.20 -0.55 2.05 -1.20 2.60 -2 8.90 -4.75 12.60 -5.55 7.50 -1.60 14.75 -0.60 22 2.95 9.05 4.45 15.35 12.30 18.05 22.45 0.75 2.70 0.80 6.45 0.75 30.10 -0.05 14.80 -0.25 27.10 -0.45 27.25 -0.20 0.15 -3.80 0.20 -8.05 0.05 l-7.75 -0.30 -0.15 -26.15 c-0.20 -29.95 -0.10 -29.30 -4.65 -34.25 -4.45 -4.90 -10.70 -7.15 -16.60 -5.90 -6.70 1.40 -11.55 5.35 -14.20 11.55 -0.90 2.10 -0.95 4.15 -1.20 28.65 l-0.25 26.35 -7.90 0.15 c-4.35 0.05 -8.05 0 -8.15 -0.10z"/>
 </g>
 <g fill="#585858">
  <path d="M797.50 204.50 c0 -3.65 -0.15 -4.50 -0.75 -4.50 -0.40 0 -0.75 -0.20 -0.75 -0.50 0 -0.25 0.35 -0.50 0.75 -0.50 0.50 0 0.75 -0.50 0.75 -1.50 0 -1 -0.25 -1.50 -0.75 -1.50 -0.40 0 -0.75 -0.45 -0.75 -1 0 -0.55 0.35 -1 0.75 -1 0.40 0 0.75 -0.45 0.75 -1 0 -0.55 -0.35 -1 -0.75 -1 -0.40 0 -0.75 -0.35 -0.75 -0.75 0 -0.40 0.35 -0.75 0.75 -0.75 0.45 0 0.75 -0.45 0.75 -1.25 0 -0.80 -0.30 -1.25 -0.75 -1.25 -0.40 0 -0.75 -0.45 -0.75 -1 0 -0.55 0.35 -1 0.75 -1 0.60 0 0.75 -0.90 0.75 -5 0 -4.10 -0.15 -5 -0.75 -5 -0.40 0 -0.75 -0.45 -0.75 -1 0 -0.55 0.35 -1 0.75 -1 0.40 0 0.75 -0.45 0.75 -1 0 -0.55 -0.35 -1 -0.75 -1 -0.40 0 -0.75 -0.45 -0.75 -1 0 -0.55 0.35 -1 0.75 -1 0.60 0 0.75 -0.65 0.75 -2.75 0 -2.10 -0.15 -2.75 -0.75 -2.75 -0.40 0 -0.75 -0.45 -0.75 -1 0 -0.55 0.35 -1 0.75 -1 0.60 0 0.75 -0.90 0.75 -5.25 0 -4.35 -0.15 -5.25 -0.75 -5.25 -0.40 0 -0.75 -0.35 -0.75 -0.75 0 -0.40 0.35 -0.75 0.75 -0.75 1.10 0 1 -2.40 -0.10 -2.60 -0.75 -0.15 -0.70 -0.25 0.25 -0.50 l1.10 -0.30 0 30.95 c0 17 -0.10 30.95 -0.25 30.95 -0.15 0 -0.25 -2 -0.25 -4.50z"/>
  <path d="M394.45 206.15 c-0.65 -0.80 -0.90 -1.15 -0.50 -0.80 0.35 0.30 0.95 0.45 1.25 0.35 0.35 -0.15 0.60 0.20 0.60 0.80 0 0.55 -0.05 1 -0.05 1 -0.05 0 -0.60 -0.60 -1.30 -1.35z"/>
  <path d="M773.05 157.80 c-0.70 -0.75 -0.95 -1.30 -0.60 -1.55 0.30 -0.15 0.55 -0.05 0.55 0.30 0 0.35 0.35 1.05 0.85 1.55 1.20 1.35 0.50 1.10 -0.80 -0.30z"/>
  <path d="M293.10 123.95 c-0.75 -1.20 -0.65 -1.60 0.35 -1 0.35 0.25 0.55 0.80 0.45 1.25 -0.10 0.70 -0.25 0.65 -0.80 -0.25z"/>
 </g>
</svg>