<?xml version="1.0" encoding="utf-8"?>
<!DOCTYPE svg PUBLIC "-//W3C//DTD SVG 1.0//EN" "http://www.w3.org/TR/2001/REC-SVG-20010904/DTD/svg10.dtd">
<svg version="1.0" xmlns="http://www.w3.org/2000/svg" width="512px" height="512px" viewBox="0 0 512 512" preserveAspectRatio="xMidYMid meet">
 <g fill="#000000">
  <path d="M466.5 335.8 c-6.8 -2.4 -11.5 -9.1 -11.5 -16.3 0 -8.7 4.9 -15.3 13.1 -17.5 10.8 -2.9 21.9 5.8 21.9 17.3 0 11.8 -12.2 20.4 -23.5 16.5z m14.4 -3.5 c8.2 -6.1 9.5 -17 2.9 -24 -3.1 -3.3 -10 -5.7 -14.3 -4.9 -8 1.5 -14.3 11.1 -12.5 19 2.3 10.5 15.6 16 23.9 9.9z"/>
  <path d="M466.2 319.8 l-0.2 -9.8 4.4 0 c6.9 0 9.6 1.4 9.6 4.9 0 3.8 -3.8 6 -9.2 5.4 l-3.7 -0.5 -0.4 4.8 c-0.2 2.7 -0.4 0.5 -0.5 -4.8z m11.2 -2.4 c3.3 -3.2 1.1 -5.7 -5.1 -5.8 l-4.8 -0.1 -0.3 3.8 -0.3 3.7 4.5 0 c2.7 0 5.1 -0.6 6 -1.6z"/>
  <path d="M477.2 325.4 c-1.3 -2 -2.1 -3.8 -1.9 -4.1 0.5 -0.5 5.7 5.9 5.7 7 0 1.7 -1.7 0.4 -3.8 -2.9z"/>
  <path d="M41 328.5 l0 -7.4 39 -0.1 39 0 0 7.5 0 7.5 -39 0 -39 0 0 -7.5z"/>
  <path d="M132 328.5 l0 -7.5 57.5 0 c50.5 0 57.4 0.2 56.9 1.5 -0.9 2.3 -9.8 8.5 -15.7 10.9 -5 2 -6.8 2.1 -51.9 2.4 l-46.8 0.3 0 -7.6z"/>
  <path d="M266 328.5 l0 -7.5 28 0 28 0 0 7.5 0 7.5 -28 0 -28 0 0 -7.5z"/>
  <path d="M389 328.5 l0 -7.5 27 0 27 0 0 7.5 0 7.5 -27 0 -27 0 0 -7.5z"/>
  <path d="M353.2 328.3 c-1.2 -3.3 -2.2 -6.3 -2.2 -6.7 0 -0.3 2.1 -0.6 4.6 -0.6 5.1 0 5 -0.3 1.4 8.9 l-1.7 4.3 -2.1 -5.9z"/>
  <path d="M41 311 l0 -8 11.5 0 c7 0 11.5 -0.4 11.5 -1 0 -1.6 31.8 -1.3 33.4 0.3 0.8 0.8 4.5 1.2 11.3 1.1 l10.1 -0.1 0.4 6.9 c0.2 3.8 0.2 7.3 0 7.8 -0.2 0.6 -15.5 1 -39.3 1 l-38.9 0 0 -8z"/>
  <path d="M132 311.5 l0 -7.5 10.5 0 c8.5 0 10.7 -0.3 11.1 -1.5 0.5 -1.3 3.4 -1.5 17.5 -1.5 10.6 0 16.9 0.4 16.9 1 0 1.4 32.7 1.3 33.5 0 0.4 -0.7 6.9 -1 17.7 -1 l17 0.2 -0.6 3.1 c-0.3 1.8 -1.9 5.7 -3.4 8.7 l-2.7 5.5 -58.7 0.2 -58.8 0.3 0 -7.5z"/>
  <path d="M266 311 l0 -8 11.5 0 c7 0 11.5 -0.4 11.5 -1 0 -0.6 6.2 -1 16.5 -1 l16.5 0 0 9 0 9 -28 0 -28 0 0 -8z"/>
  <path d="M349.1 316.8 c-0.4 -1.3 -1.8 -4.9 -3 -8.1 -1.1 -3.2 -2.1 -6.2 -2.1 -6.8 0 -0.6 4.3 -0.9 11.5 -0.8 6.3 0.1 11.5 0.3 11.5 0.5 0 0.1 -1.4 4.1 -3 8.7 l-3.1 8.4 -5.4 0.2 c-4.9 0.2 -5.6 0 -6.4 -2.1z"/>
  <path d="M389 309.9 l0 -9 16.5 0.1 c13.5 0.2 16.5 0.4 16.5 1.6 0 1.1 2.1 1.4 10.4 1.4 l10.4 0 0.4 6.5 c0.1 3.6 0.2 7 0 7.5 -0.2 0.5 -11.2 0.9 -27.3 0.9 l-26.9 0 0 -9z"/>
  <path d="M64 288 l0 -6 16.5 0 16.5 0 0 6 0 6 -16.5 0 -16.5 0 0 -6z"/>
  <path d="M154 288 l0 -6 17 0 17 0 0 6 0 6 -17 0 -17 0 0 -6z"/>
  <path d="M222 288 l0 -6 16.4 0 16.4 0 0.6 3 c0.3 1.7 0.9 4.4 1.2 6 l0.6 3 -17.6 0 -17.6 0 0 -6z"/>
  <path d="M289 288 l0 -6 16.5 0 16.5 0 0 6 0 6 -16.5 0 -16.5 0 0 -6z"/>
  <path d="M340.3 292.3 c-0.3 -1 -1.2 -3.3 -1.9 -5.2 -0.8 -1.8 -1.4 -3.7 -1.4 -4.2 0 -0.5 8.3 -0.9 18.4 -0.9 l18.5 0 -2.1 6 -2 6 -14.4 0 c-12.9 0 -14.5 -0.2 -15.1 -1.7z"/>
  <path d="M389 288 l0 -6 16.5 0 16.5 0 0 6 0 6 -16.5 0 -16.5 0 0 -6z"/>
  <path d="M63.8 266.1 c-0.5 -9.8 -1.9 -9.1 16.8 -9.1 l16.4 0 0 7.5 0 7.5 -16.4 0 -16.4 0 -0.4 -5.9z"/>
  <path d="M153.8 266.1 c-0.1 -3.2 -0.2 -6.6 0 -7.5 0.3 -1.4 4.4 -1.6 41.6 -1.6 39.9 0 41.4 0.1 43.9 2 2.5 2 9.7 11.2 9.7 12.4 0 0.3 -21.3 0.6 -47.4 0.6 l-47.4 0 -0.4 -5.9z"/>
  <path d="M288.8 266.1 c-0.5 -9.8 -1.9 -9.1 16.8 -9.1 l16.4 0 0 7.5 0 7.5 -16.4 0 -16.4 0 -0.4 -5.9z"/>
  <path d="M332.5 270.8 c-1.2 -3.2 -4.5 -13.2 -4.5 -13.5 0 -0.1 12.4 -0.3 27.5 -0.3 l27.4 0 -2.7 7.5 -2.7 7.5 -22.3 0 c-16.9 0 -22.4 -0.3 -22.7 -1.2z"/>
  <path d="M389 264.5 l0 -7.5 16.5 0 16.5 0 0 7.5 0 7.5 -16.5 0 -16.5 0 0 -7.5z"/>
  <path d="M80.3 250.3 l-16.1 -0.3 -0.4 -5.9 c-0.5 -9.8 -1.8 -9.1 16.8 -9.1 l16.4 0 0 8 c0 4.4 -0.1 7.9 -0.2 7.8 -0.2 -0.1 -7.6 -0.4 -16.5 -0.5z"/>
  <path d="M153.8 244.4 c-0.2 -3.4 -0.2 -6.8 0 -7.6 0.2 -1.3 7.1 -1.5 49.2 -1.5 27 0.1 49 0.3 49 0.5 0 0.8 -6.9 9.7 -9.2 11.9 -2.4 2.3 -2.5 2.3 -45.5 2.5 l-43.2 0.3 -0.3 -6.1z"/>
  <path d="M288.8 244.4 c-0.5 -10.4 -3.8 -9.5 30.9 -9.2 l30.5 0.3 2 5.5 c1.1 3 2.4 5.9 2.8 6.3 0.7 0.8 5 -9 5 -11.3 0 -0.6 11.8 -1 31 -1 l31 0 0 7.8 0 7.7 -16.5 0 -16.5 0 0 -3.2 c0 -1.8 -0.4 -3.3 -0.8 -3.3 -0.4 0 -1.3 1.5 -2 3.3 l-1.1 3.2 -30 0 -29.9 0 -1.2 -3.8 c-1.3 -4.3 -2.9 -4.2 -2.2 0.2 l0.4 3 -16.5 0.3 -16.6 0.3 -0.3 -6.1z"/>
  <path d="M63.9 232.3 c-0.1 -1.7 0 -13.4 0.1 -16 0 -1 4 -1.3 16.5 -1.3 l16.5 0 0 9.5 0 9.5 -16.5 0 c-15 0 -16.5 -0.2 -16.6 -1.7z"/>
  <path d="M153.8 232.4 c-0.2 -0.9 -0.2 -5.2 0 -9.5 l0.4 -7.9 16.9 0 16.9 0 0 9.5 0 9.5 -16.9 0 c-14.8 0 -17 -0.2 -17.3 -1.6z"/>
  <path d="M221 224.5 l0 -9.5 18 0 18 0 0 5.3 c0 3 -0.9 7 -2 9.5 l-1.9 4.2 -16.1 0 -16 0 0 -9.5z"/>
  <path d="M288.8 232.4 c-0.2 -0.9 -0.2 -5.2 0 -9.5 l0.4 -7.9 26.6 0 26.7 0 3.3 8.3 c1.7 4.5 3.2 8.8 3.2 9.5 0 0.9 -7 1.2 -29.9 1.2 -26.7 0 -30 -0.2 -30.3 -1.6z"/>
  <path d="M361 233.8 c0 -0.2 1.5 -4.3 3.3 -9.3 l3.2 -9 27.3 -0.3 27.2 -0.2 0 9.5 0 9.5 -30.5 0 c-16.8 0 -30.5 -0.1 -30.5 -0.2z"/>
  <path d="M252 210.6 c0 -0.8 0.8 -1.7 1.8 -1.9 0.9 -0.3 -26.1 -0.5 -60 -0.6 l-61.8 -0.1 0 -7.5 0 -7.5 58.3 0 c54.4 0 58.5 0.1 59.8 1.8 2.3 2.7 4.8 8.8 5.5 13.2 0.6 3.6 0.4 4 -1.5 4 -1.1 0 -2.1 -0.6 -2.1 -1.4z"/>
  <path d="M369.4 210.3 c0.3 -1 1.9 -5.2 3.4 -9.3 l2.8 -7.5 33.7 -0.3 33.7 -0.2 0 7.5 0 7.5 -36.2 0.1 c-20 0.1 -35.5 0.3 -34.5 0.6 2.7 0.7 2.1 3.3 -0.9 3.3 -2 0 -2.4 -0.4 -2 -1.7z"/>
  <path d="M41 200.5 l0 -7.5 39 0 39 0 0 7.5 0 7.5 -39 0 -39 0 0 -7.5z"/>
  <path d="M267 200.5 l0 -7.5 33.8 0 33.7 0 2.7 7.5 2.7 7.5 -36.4 0 -36.5 0 0 -7.5z"/>
  <path d="M116 188.8 c0 -0.4 0.5 -0.8 1 -0.8 0.6 0 1 -0.5 1 -1 0 -0.7 -12.7 -1 -38.5 -0.8 l-38.5 0.3 0 -5.2 0 -5.3 39 0 39 0 0 6.8 c0 5.4 -0.3 6.9 -1.5 6.9 -0.8 0 -1.5 -0.4 -1.5 -0.9z"/>
  <path d="M132 181.3 l0 -5.3 43.3 0 c46.6 0 49.4 0.3 59.5 5.4 10.4 5.4 12.8 5.1 -47.3 5.1 l-55.5 0 0 -5.2z"/>
  <path d="M267 181.3 l0 -5.3 30.5 0 30.5 0 1.4 3.3 c3.3 8 6.5 7.2 -29.9 7.2 l-32.5 0 0 -5.2z"/>
  <path d="M378.6 184.6 c0.4 -1.1 1.3 -3.4 2 -5.3 l1.4 -3.3 30.5 0 30.5 0 0 5.3 0 5.2 -32.5 0 c-31.5 0 -32.5 -0.1 -31.9 -1.9z"/>
 </g>
 <g fill="#ffffff">
  <path d="M41 320 l0 -4 39.3 0 39.3 0 -0.4 4 -0.4 4 -38.9 0 -38.9 0 0 -4z"/>
  <path d="M132 320 l0 -4 59.6 0 59.5 0 -2.8 4 -2.8 4 -56.7 0 -56.8 0 0 -4z"/>
  <path d="M266 320 l0 -4 28 0 28 0 0 4 0 4 -28 0 -28 0 0 -4z"/>
  <path d="M350.6 321.6 c-0.3 -1.3 -0.9 -3.1 -1.2 -4 -0.5 -1.4 0.4 -1.6 5.9 -1.6 l6.6 0 -1.3 3.8 c-1.2 3.4 -1.7 3.7 -5.3 4 -3.6 0.3 -4.1 0 -4.7 -2.2z"/>
  <path d="M389 320 l0 -4 27.3 0 27.3 0 -0.4 4 -0.4 4 -26.9 0 -26.9 0 0 -4z"/>
  <path d="M52.3 303.3 l11.7 -0.4 0 -4 0 -4 16.5 0.1 16.5 0.2 0 3.8 c0 2.1 0.6 4.1 1.3 4.3 0.6 0.3 -12.1 0.5 -28.3 0.4 -16.2 -0.1 -24.2 -0.3 -17.7 -0.4z"/>
  <path d="M153.8 299.5 l0.4 -4.6 16.9 0.1 16.9 0.2 0 3.9 0 3.9 16.8 -0.2 16.7 -0.3 0.5 -3.7 0.5 -3.7 17.4 0 17.3 0 -0.6 2.2 c-0.3 1.2 -0.6 3.2 -0.6 4.5 l0 2.2 -51.3 0 -51.2 0 0.3 -4.5z"/>
  <path d="M277.3 303.3 l11.7 -0.4 0 -3.9 0 -4 16.5 0 16.5 0 0 4.5 0 4.5 -28.2 -0.2 c-15.6 -0.1 -23 -0.4 -16.5 -0.5z"/>
  <path d="M342.9 299.5 l-1.7 -4.5 12.9 0 c9.6 0 12.9 0.3 12.9 1.3 0 0.8 0.4 0.7 1.1 -0.3 0.8 -1.1 0.9 -0.9 0.3 1 -2 7.4 -1.3 7 -13.1 7 l-10.8 0 -1.6 -4.5z"/>
  <path d="M389 299.6 l0 -4.4 15.5 -0.1 c12.1 -0.2 15.5 0.1 15.5 1.1 0 0.9 0.3 0.9 1 -0.2 0.7 -1.1 1 -0.2 1 3.3 l0 4.7 -16.5 0 -16.5 0 0 -4.4z"/>
  <path d="M64 277.5 l0 -3.4 16.5 -0.3 16.5 -0.3 0 3.8 0 3.7 -16.5 0 -16.5 0 0 -3.5z"/>
  <path d="M154 277.5 l0 -3.5 48 0.2 c31.5 0.2 48 0 48 -0.7 0.1 -1.1 3.9 5.5 4 6.8 0 0.4 -7.2 0.7 -16 0.7 l-16 0 0 -3 0 -3 -17 0 -17 0 0 3 0 3 -17 0 -17 0 0 -3.5z"/>
  <path d="M289 277.5 l0 -3.5 16.5 0 16.5 0 0 3.5 0 3.5 -16.5 0 -16.5 0 0 -3.5z"/>
  <path d="M335.1 277.9 c-0.6 -1.8 -1.1 -3.3 -1.1 -3.5 0 -0.2 9.7 -0.5 21.5 -0.6 11.8 -0.2 21.5 -0.2 21.5 0 0 0.1 -0.7 1.8 -1.4 3.7 l-1.5 3.5 -19 0 -18.9 0 -1.1 -3.1z"/>
  <path d="M389 277.3 l0 -3.8 16.5 0 16.5 0 0 3.8 0 3.7 -16.5 0 -16.5 0 0 -3.7z"/>
  <path d="M64 256 l0 -4 16.5 0 16.5 0 0 4 0 4 -16.5 0 -16.5 0 0 -4z"/>
  <path d="M154 256 l0 -4 42 0 42 0 -1.2 2 c-1.1 1.8 -1 2.3 1.2 4 2.5 1.9 2.2 2 -40.7 2 l-43.3 0 0 -4z"/>
  <path d="M289 256 l0 -4 16.5 0 16.5 0 0 4 0 4 -16.5 0 -16.5 0 0 -4z"/>
  <path d="M327.5 256.4 c-0.8 -2 -1.5 -3.8 -1.5 -4 0 -0.2 13.1 -0.4 29 -0.4 16 0 29 0.4 29 0.9 0 0.4 -0.5 2.2 -1.1 4 l-1.1 3.1 -26.4 0 -26.4 0 -1.5 -3.6z"/>
  <path d="M389 256 l0 -4 16.5 0 16.5 0 0 4 0 4 -16.5 0 -16.5 0 0 -4z"/>
  <path d="M64 234.5 l0 -3.5 16.5 0 16.5 0 0 3.5 0 3.5 -16.5 0 -16.5 0 0 -3.5z"/>
  <path d="M154 234.5 l0 -3.5 17 0 17 0 0 2.5 0 2.5 16.5 0 16.5 0 0 -2.5 0 -2.5 16.5 0 c9.1 0 16.5 0.2 16.5 0.5 0 0.4 -0.7 1.9 -1.5 3.5 l-1.6 3 -48.4 0 -48.5 0 0 -3.5z"/>
  <path d="M289 234.5 l0 -3.5 29.9 0 c27.6 0 29.9 0.1 30.4 1.8 0.2 0.9 0.8 2.5 1.2 3.5 0.7 1.6 -1.2 1.7 -30.4 1.7 l-31.1 0 0 -3.5z"/>
  <path d="M360 237.1 c0 -0.5 0.4 -2.1 1 -3.5 l1 -2.6 30 0 30 0 0 3.5 0 3.5 -31 0 c-18.6 0 -31 -0.4 -31 -0.9z"/>
  <path d="M64 213.5 l0 -4.5 16.5 0 16.5 0 0 4.5 0 4.5 -16.5 0 -16.5 0 0 -4.5z"/>
  <path d="M154 213.5 l0 -4.5 50.9 0 50.9 0 0.6 2.3 c0.3 1.2 0.6 3.2 0.6 4.5 l0 2.2 -18 0 -18 0 0 -3.5 0 -3.5 -16.5 0 -16.5 0 0 3.5 0 3.5 -17 0 -17 0 0 -4.5z"/>
  <path d="M289 213.5 l0 -4.5 25.8 0 25.9 0 1.1 3.9 c0.7 2.1 1.2 4.1 1.2 4.5 0 0.3 -12.1 0.6 -27 0.6 l-27 0 0 -4.5z"/>
  <path d="M367.6 215.8 c0.4 -1.3 1 -3.3 1.5 -4.5 l0.9 -2.3 26 0 26 0 0 4.5 0 4.5 -27.6 0 -27.5 0 0.7 -2.2z"/>
  <path d="M41 192 l0 -4 39 -0.2 39 -0.3 0 4.3 0 4.2 -39 0 -39 0 0 -4z"/>
  <path d="M132 192 l0 -4 56.3 0 56.4 0 2.2 2.4 c1.4 1.5 2 3 1.6 3.7 -0.5 0.7 -0.4 1 0.3 0.5 0.6 -0.3 1.3 -0.2 1.7 0.4 0.4 0.7 -18.9 1 -58.9 1 l-59.6 0 0 -4z"/>
  <path d="M267 192 l0 -4 32.8 0 32.8 0 1.2 3.3 c0.7 1.8 1.2 3.6 1.2 4 0 0.4 -15.3 0.7 -34 0.7 l-34 0 0 -4z"/>
  <path d="M375 194.9 c0 -0.5 0.5 -0.7 1.2 -0.3 0.7 0.4 0.8 0.3 0.4 -0.4 -0.4 -0.6 -0.4 -2.3 0 -3.7 l0.6 -2.5 32.9 0 32.9 0 0 4 0 4 -34 0 c-23.3 0 -34 -0.3 -34 -1.1z"/>
 </g>
</svg>