<?xml version="1.0" encoding="utf-8"?>
<!DOCTYPE svg PUBLIC "-//W3C//DTD SVG 1.0//EN" "http://www.w3.org/TR/2001/REC-SVG-20010904/DTD/svg10.dtd">
<svg version="1.0" xmlns="http://www.w3.org/2000/svg" width="512px" height="512px" viewBox="0 0 512 512" preserveAspectRatio="xMidYMid meet">
 <g fill="#000000">
  <path d="M466.5 335.8 c-6.8 -2.4 -11.5 -9.1 -11.5 -16.3 0 -8.7 4.9 -15.3 13.1 -17.5 10.8 -2.9 21.9 5.8 21.9 17.3 0 11.8 -12.2 20.4 -23.5 16.5z m14.4 -3.5 c8.2 -6.1 9.5 -17 2.9 -24 -3.1 -3.3 -10 -5.7 -14.3 -4.9 -8 1.5 -14.3 11.1 -12.5 19 2.3 10.5 15.6 16 23.9 9.9z"/>
  <path d="M466.2 319.8 l-0.2 -9.8 4.4 0 c6.9 0 9.6 1.4 9.6 4.9 0 3.8 -3.8 6 -9.2 5.4 l-3.7 -0.5 -0.4 4.8 c-0.2 2.7 -0.4 0.5 -0.5 -4.8z m11.2 -2.4 c3.3 -3.2 1.1 -5.7 -5.1 -5.8 l-4.8 -0.1 -0.3 3.8 -0.3 3.7 4.5 0 c2.7 0 5.1 -0.6 6 -1.6z"/>
  <path d="M477.2 325.4 c-1.3 -2 -2.1 -3.8 -1.9 -4.1 0.5 -0.5 5.7 5.9 5.7 7 0 1.7 -1.7 0.4 -3.8 -2.9z"/>
  <path d="M41 330 l0 -6 39 0 39 0 0 6 0 6 -39 0 -39 0 0 -6z"/>
  <path d="M132 330 l0 -6 56.8 0 56.7 0 -2.5 2.1 c-5 4 -10.6 6.8 -16.5 8.3 -4.9 1.3 -13.4 1.6 -50.2 1.6 l-44.3 0 0 -6z"/>
  <path d="M266 330 l0 -6 28 0 28 0 0 6 0 6 -28 0 -28 0 0 -6z"/>
  <path d="M389 330 l0 -6 27 0 27 0 0 6 0 6 -27 0 -27 0 0 -6z"/>
  <path d="M353.6 329.4 c-0.9 -2.6 -1.6 -4.9 -1.6 -5.1 0 -0.2 1.6 -0.3 3.6 -0.3 3.9 0 3.9 0.2 0.9 7.3 l-1.2 3 -1.7 -4.9z"/>
  <path d="M41 310 l0 -6 39 0 39 0 0 6 0 6 -39 0 -39 0 0 -6z"/>
  <path d="M132 310 l0 -6 62 0 61.9 0 -1.4 3.9 c-0.7 2.2 -1.9 4.9 -2.5 6 -1.1 2.1 -1.6 2.1 -60.5 2.1 l-59.5 0 0 -6z"/>
  <path d="M266 310 l0 -6 28 0 28 0 0 6 0 6 -28 0 -28 0 0 -6z"/>
  <path d="M347.5 312.3 c-3.7 -8.7 -4.1 -8.3 7.9 -8.3 5.8 0 10.6 0.2 10.6 0.5 0 0.2 -0.9 2.9 -2.1 6 l-2 5.5 -6.5 0 -6.4 0 -1.5 -3.7z"/>
  <path d="M389 310 l0 -6 27 0 27 0 0 6 0 6 -27 0 -27 0 0 -6z"/>
  <path d="M64 288 l0 -6 16.5 0 16.5 0 0 6 0 6 -16.5 0 -16.5 0 0 -6z"/>
  <path d="M154 288 l0 -6 17 0 17 0 0 6 0 6 -17 0 -17 0 0 -6z"/>
  <path d="M222 288 l0 -6 16.4 0 16.4 0 0.6 3 c0.3 1.7 0.9 4.4 1.2 6 l0.6 3 -17.6 0 -17.6 0 0 -6z"/>
  <path d="M289 288 l0 -6 16.5 0 16.5 0 0 6 0 6 -16.5 0 -16.5 0 0 -6z"/>
  <path d="M340.3 292.3 c-0.3 -1 -1.2 -3.3 -1.9 -5.2 -0.8 -1.8 -1.4 -3.7 -1.4 -4.2 0 -0.5 8.3 -0.9 18.4 -0.9 l18.5 0 -2.1 6 -2 6 -14.4 0 c-12.9 0 -14.5 -0.2 -15.1 -1.7z"/>
  <path d="M389 288 l0 -6 16.5 0 16.5 0 0 6 0 6 -16.5 0 -16.5 0 0 -6z"/>
  <path d="M63.8 266 l-0.3 -6 16.8 0 16.7 0 0 6 0 6 -16.4 0 -16.4 0 -0.4 -6z"/>
  <path d="M153.8 266 l-0.3 -6 43.7 0 43.7 0 4.1 5.3 c2.2 3 4 5.7 4 6 0 0.4 -21.3 0.7 -47.4 0.7 l-47.4 0 -0.4 -6z"/>
  <path d="M288.8 266 l-0.3 -6 16.8 0 16.7 0 0 6 0 6 -16.4 0 -16.4 0 -0.4 -6z"/>
  <path d="M332.5 270.8 c-1.5 -4.2 -3.5 -10.1 -3.5 -10.4 0 -0.2 11.9 -0.4 26.4 -0.4 l26.5 0 -2.2 6 -2.2 6 -22.3 0 c-16.9 0 -22.4 -0.3 -22.7 -1.2z"/>
  <path d="M389 266 l0 -6 16.5 0 16.5 0 0 6 0 6 -16.5 0 -16.5 0 0 -6z"/>
  <path d="M80.3 250.3 l-16.1 -0.3 -0.4 -6 -0.3 -6 16.8 0 16.7 0 0 6.5 c0 3.6 -0.1 6.4 -0.2 6.3 -0.2 -0.1 -7.6 -0.4 -16.5 -0.5z"/>
  <path d="M153.8 244.2 l-0.3 -6.2 48.3 0 c26.5 0 48.2 0.3 48.2 0.8 0 0.4 -2.1 3.1 -4.6 5.9 l-4.5 5.3 -43.4 0.2 -43.4 0.3 -0.3 -6.3z"/>
  <path d="M288.8 244.2 l-0.3 -6.2 31.4 0.2 31.3 0.3 1.7 4.2 c2.3 6 2.8 6 4.8 0.4 l1.8 -5.1 31.2 0 31.3 0 0 6.3 0 6.2 -16.5 0 -16.5 0 0 -3.2 c0 -1.8 -0.4 -3.3 -0.8 -3.3 -0.4 0 -1.3 1.5 -2 3.3 l-1.1 3.2 -30 0 -29.9 0 -1.2 -3.8 c-1.3 -4.3 -2.9 -4.2 -2.2 0.2 l0.4 3 -16.5 0.3 -16.6 0.3 -0.3 -6.3z"/>
  <path d="M63.5 224.5 l0 -6.5 16.8 0 16.7 0 0 6.5 0 6.5 -16.7 0 -16.8 0 0 -6.5z"/>
  <path d="M153.8 224.5 l0.4 -6.5 16.9 0 16.9 0 0 6.5 0 6.5 -17.2 0 -17.3 0 0.3 -6.5z"/>
  <path d="M221 224.5 l0 -6.5 18 0 18 0 0 3.4 c0 1.8 -0.5 4.7 -1.1 6.5 l-1.1 3.1 -16.9 0 -16.9 0 0 -6.5z"/>
  <path d="M288.8 224.5 l0.4 -6.5 27.2 0 27.3 0 2.5 6.5 2.6 6.5 -30.1 0 -30.2 0 0.3 -6.5z"/>
  <path d="M364.3 224.5 l2.1 -6.5 27.8 0 27.8 0 0 6.5 0 6.5 -29.9 0 -29.9 0 2.1 -6.5z"/>
  <path d="M193.8 208.3 l-61.8 -0.3 0 -6 0 -6 59.8 0 59.7 0 1.7 4.3 c1.8 4.6 3.1 8.8 2.6 8.5 -0.2 -0.2 -28.1 -0.4 -62 -0.5z"/>
  <path d="M370.4 207.5 c0.3 -0.5 1.3 -3.4 2.2 -6.2 l1.8 -5.3 34.3 0 34.3 0 0 6 0 6 -36.5 0.2 c-24.1 0.2 -36.4 0 -36.1 -0.7z"/>
  <path d="M41 202 l0 -6 39 0 39 0 0 6 0 6 -39 0 -39 0 0 -6z"/>
  <path d="M267 202 l0 -6 34.3 0 34.3 0 2.2 6 2.1 6 -36.4 0 -36.5 0 0 -6z"/>
  <path d="M41 181.3 l0 -5.3 39 0 39 0 0 5.3 0 5.2 -39 0 -39 0 0 -5.2z"/>
  <path d="M132 181.3 l0 -5.3 43.3 0 c46.6 0 49.4 0.3 59.5 5.4 10.4 5.4 12.8 5.1 -47.3 5.1 l-55.5 0 0 -5.2z"/>
  <path d="M267 181.3 l0 -5.3 30.5 0 30.5 0 1.4 3.3 c3.3 8 6.5 7.2 -29.9 7.2 l-32.5 0 0 -5.2z"/>
  <path d="M378.6 184.6 c0.4 -1.1 1.3 -3.4 2 -5.3 l1.4 -3.3 30.5 0 30.5 0 0 5.3 0 5.2 -32.5 0 c-31.5 0 -32.5 -0.1 -31.9 -1.9z"/>
 </g>
</svg>