<?xml version="1.0" encoding="utf-8"?>
<!DOCTYPE svg PUBLIC "-//W3C//DTD SVG 1.0//EN" "http://www.w3.org/TR/2001/REC-SVG-20010904/DTD/svg10.dtd">
<svg version="1.0" xmlns="http://www.w3.org/2000/svg" width="2000px" height="600px" viewBox="0 0 2000 600" preserveAspectRatio="xMidYMid meet">
 <g fill="#000000">
 </g>
 <g fill="#080808">
 </g>
 <g fill="#101010">
 </g>
 <g fill="#191919">
 </g>
 <g fill="#212121">
 </g>
 <g fill="#292929">
 </g>
 <g fill="#313131">
  <path d="M1239.4 514.9 c1.9 -5.2 3.7 -10.1 4.1 -11 0.5 -1.4 3 -1.7 15.3 -2.2 23.2 -0.8 35.3 -4.9 45.9 -15.4 9.2 -9.2 14.9 -24.5 17.2 -46.5 0.7 -6.2 1.1 -46.8 1.1 -110.8 l0 -101 -32.2 0 c-35.9 0 -41 0.6 -52.5 6.1 -13.2 6.3 -23.6 20.2 -27.7 36.9 -4.8 20 -4.8 59.1 0 79 3.7 15 12.6 28.1 23.6 34.7 9.4 5.7 18.3 7.3 40.9 7.3 l19.8 0 -3.8 11.3 -3.8 11.2 -10.4 0.3 c-5.7 0.2 -16.9 -0.2 -24.8 -0.8 -49.4 -3.9 -76.2 -24.9 -85.6 -67 -2.2 -10 -3.2 -48.9 -1.6 -62.6 5.2 -44.3 27.8 -68.5 71.6 -77 7.8 -1.5 17.3 -1.8 69.5 -2.1 l60.5 -0.4 -0.3 59.3 c-0.6 146.3 -0.9 168.8 -2.6 180.4 -7 48.5 -28.7 69.7 -78.6 76.9 -5.8 0.8 -19.2 1.8 -29.8 2.2 l-19.3 0.6 3.5 -9.4z"/>
  <path d="M266.2 386.3 l0.3 -102.8 2.7 -4.7 c3.1 -5.1 7.9 -8.6 13.3 -9.5 l3.5 -0.6 0 102.7 c0 100.5 0 102.8 -2 106.6 -2.9 5.6 -11 11 -16.7 11 -1.1 0 -1.3 -16.2 -1.1 -102.7z"/>
  <path d="M231 485.5 c-12.2 -2.7 -31.6 -9.6 -44.8 -16 -63.6 -30.9 -106.4 -91 -115.2 -161.5 -1.5 -12.3 -1.2 -40.7 0.5 -53 11.8 -82.6 71.8 -150.7 151.5 -171.9 6.3 -1.7 15.8 -3.8 21 -4.6 11 -1.9 39.8 -3.1 45.6 -2 l3.9 0.7 -5.7 1.8 c-8 2.5 -13.5 5.9 -19.6 12.4 -12.6 13.3 -15.3 32.2 -7 49.5 3.4 7.2 11.2 15.7 17.4 18.9 l3.9 2.1 -9.6 0.1 c-44.1 0.2 -85.4 26.2 -105.7 66.5 -8.6 17 -12.4 32.9 -12.5 52.5 -0.1 15.3 1.2 24.3 5.5 38 11.3 35.6 38.8 64.4 73.6 77 l6.2 2.3 0 44.3 c0 34.9 -0.3 44.4 -1.2 44.3 -0.7 0 -4.2 -0.7 -7.8 -1.4z"/>
  <path d="M375.4 460.5 c-0.4 -0.9 -0.2 -2.1 0.4 -2.7 1.5 -1.5 4.4 -0.1 4 1.9 -0.4 2.3 -3.6 2.9 -4.4 0.8z"/>
  <path d="M393.4 444.5 c-1.5 -2.3 -1.5 -2.7 0 -5 0.9 -1.4 2.2 -2.6 2.9 -2.6 5.6 -0.6 8.9 4.8 5.1 8.5 -2.4 2.4 -6.1 2 -8 -0.9z"/>
  <path d="M417.9 422.5 c-1.4 -0.8 -3.2 -2.8 -3.9 -4.5 -1.1 -2.7 -1.1 -3.7 0.3 -6.4 2.1 -4.6 6.4 -6 10.9 -3.8 6.5 3.3 7 11.5 0.7 14.7 -3.4 1.8 -4.7 1.8 -8 0z"/>
  <path d="M1041.5 417.5 c-2.7 -0.7 -5.6 -2.1 -6.3 -3.2 -0.8 -1 -22.7 -48.4 -48.7 -105.3 l-47.3 -103.5 13.7 -0.3 c22.5 -0.6 32.3 2.4 38.3 11.6 1.4 2 15.9 37.2 32.2 78.2 16.4 41 30.1 74.9 30.6 75.3 0.4 0.5 1.7 -1.5 2.8 -4.5 7.8 -20.7 56.4 -143.3 58.2 -146.8 1.2 -2.5 3.4 -5.8 4.9 -7.3 4.8 -5.3 7.4 -6 23.5 -6.5 14.3 -0.5 14.9 -0.4 14.4 1.4 -1.7 5.9 -90.3 206.3 -92 208.1 -3.7 4 -15 5.3 -24.3 2.8z"/>
  <path d="M665.9 414 c-6 -1 -12 -4.2 -15.2 -8 -5.8 -6.8 -5.7 -4.9 -5.7 -107.3 l0 -94 11.8 0.5 c13.8 0.6 21.1 3.1 25.4 8.9 5.5 7.4 5.3 3.1 5.6 105.2 l0.3 94.7 -6.8 0 c-3.7 0 -7.7 0.2 -8.8 0.4 -1.1 0.2 -4.1 0 -6.6 -0.4z"/>
  <path d="M751.9 414 c-6.3 -1.1 -12.3 -4.3 -15.4 -8.4 -5.6 -7.4 -5.5 -5 -5.5 -106.8 l0 -93.8 48.3 0 c26.5 0 53.2 0.5 59.2 1 45.2 4.2 73.1 25.1 82.5 61.7 3.7 14.4 4 20.8 4 84.6 l0 62.7 -6.7 0 c-16.4 0 -25.9 -3.6 -30.8 -11.5 l-3 -4.8 -0.6 -52.1 c-0.5 -40.9 -1 -54.3 -2.3 -62.1 -4.4 -27.3 -13.1 -41.8 -29.8 -49.9 -11.8 -5.7 -18.7 -6.6 -50.8 -6.6 l-28 0 0 93.5 0 93.5 -8.2 -0.1 c-4.6 -0.1 -10.4 -0.5 -12.9 -0.9z"/>
  <path d="M1467 413.9 c-39 -2.8 -62.3 -18.1 -67.9 -44.7 -3 -14.4 -0.5 -36.1 5.6 -47.5 6 -11.2 19.2 -21 34.8 -25.6 13.8 -4.2 25.3 -5.2 62.7 -5.8 l35.7 -0.6 -0.4 -2.6 c-0.2 -1.4 -0.9 -5.7 -1.5 -9.4 -3.3 -21 -14.3 -37.7 -29.6 -44.9 -10.5 -4.9 -17.2 -5.8 -46.4 -5.8 l-26.6 0 -3.6 -11.1 -3.7 -11.1 35.7 0.5 c38.4 0.5 46.5 1.3 62.4 6.3 14.2 4.5 23.2 9.8 32.9 19.4 7.3 7.2 9.4 10.1 13.2 18 2.6 5.2 5.6 13.3 6.9 18 2.1 8.3 2.2 10 2.5 78.4 l0.4 69.9 -11.9 -0.6 c-13.6 -0.6 -19.2 -2.4 -24.2 -7.9 -5.7 -6.2 -6 -9 -6 -53.5 l0 -40.3 -29.9 0 c-37.9 0 -47.9 1.5 -58.3 8.6 -8.2 5.7 -11.9 15.6 -11.9 31.7 0 12.4 1.1 17.6 5.4 23.8 3.7 5.7 9 9.3 17.7 12.1 5.5 1.8 9.7 2.2 27 2.6 l20.5 0.4 3.8 10.7 c2 5.8 3.7 10.9 3.7 11.4 0 0.9 -35 0.7 -49 -0.4z"/>
  <path d="M1693.4 414 c-34.5 -2.4 -52.2 -12.4 -60.3 -34.4 -4.6 -12.5 -5.1 -20.7 -5.1 -88.3 l0 -63.3 -17.9 -0.2 -17.9 -0.3 4 -10.7 4 -10.8 13.9 0 13.9 0 0 -30.1 0 -30.2 11.4 0.5 c10.3 0.4 12.1 0.7 17.3 3.4 4.3 2.2 6.5 4.1 8.8 7.8 l3 4.9 0.3 21.9 0.3 21.8 29 0 c15.9 0 28.9 0.3 28.9 0.8 0 0.4 -1.7 5.3 -3.7 10.9 l-3.8 10.3 -25.2 0 -25.3 0 0 59.8 c0 32.8 0.5 63.8 1 68.9 1.7 16.3 7.1 26.4 17 31.8 5.3 2.9 6 3 22 3.5 l16.5 0.5 3.6 10 c2.1 5.5 3.8 10.6 3.8 11.3 0.1 1.4 -20 1.5 -39.5 0.2z"/>
  <path d="M1828.5 413.3 c-18 -1.5 -33.8 -5.8 -47.9 -13.1 -7.4 -3.7 -10.9 -6.4 -18.7 -14.2 -8.1 -8.1 -10.2 -10.9 -14.2 -19 -8.9 -18.2 -11.2 -32.5 -10.4 -63.8 0.9 -36.7 7.4 -54.8 26.2 -73.8 9.4 -9.6 16.1 -14 28.5 -19.1 13.9 -5.7 21 -6.8 45.5 -6.8 25.9 0 33.6 1.5 49.4 9.1 7.8 3.8 10.9 6.1 17.6 12.8 6.6 6.6 8.9 9.8 12.7 17.6 9.6 19.6 12.7 43.9 9.1 72.3 l-0.6 4.7 -58.7 0 -58.7 0 3.5 -11.5 3.6 -11.5 37.8 0 37.8 0 -0.5 -4.2 c-0.2 -2.4 -0.7 -8.3 -1 -13.3 -1.7 -30.6 -14.2 -49.3 -36.4 -54.5 -8.2 -1.9 -27.3 -1.7 -34.9 0.5 -21.9 6.2 -34.2 26.5 -37.3 61.7 -1.3 15.1 -0.7 50.2 1.1 56.3 5.4 19.3 16.4 33.7 31.2 40.9 12.9 6.3 15.4 6.6 52.9 6.6 31.2 0 33.7 0.1 34.2 1.8 0.2 0.9 2.1 6.1 4 11.5 l3.5 9.7 -37.6 -0.2 c-20.8 -0.1 -39.5 -0.3 -41.7 -0.5z"/>
  <path d="M436.2 393.6 c-3.3 -1.8 -6.2 -6.6 -6.2 -10.2 0 -7.9 9.1 -14.1 16.4 -11 3.9 1.6 7.6 6.7 7.6 10.4 0 3.7 -2.8 8.6 -5.9 10.5 -3.4 2 -8.7 2.2 -11.9 0.3z"/>
  <path d="M448.5 348.4 c-11.3 -5.9 -14.3 -18.3 -6.8 -28.3 3 -3.9 9.3 -7 14.2 -7.1 8 0 17.2 7.8 18.7 15.7 1.3 7.2 -4.2 17 -11.3 19.9 -4.3 1.9 -11.1 1.7 -14.8 -0.2z"/>
  <path d="M444.5 292.1 c-15.8 -7.1 -20.3 -28.5 -8.7 -41.3 5.6 -6.2 10.4 -8.3 19.2 -8.3 8.9 0 13.6 2.1 19.4 8.5 5.1 5.6 6.6 9.7 6.6 17.2 -0.1 15.2 -10.8 25.8 -26 25.8 -4.1 0 -8 -0.7 -10.5 -1.9z"/>
  <path d="M412.5 226.5 c-9.6 -3.6 -18.9 -13.9 -21.6 -24 -4 -14.5 4.5 -31.6 19 -38.4 4.8 -2.2 6.9 -2.6 14.6 -2.6 7.8 0 9.7 0.4 14 2.7 24.4 12.8 24.6 47.1 0.3 60.3 -4.5 2.5 -6.6 2.9 -13.8 3.2 -5.7 0.2 -9.8 -0.2 -12.5 -1.2z"/>
  <path d="M335 173.6 c-21 -5.7 -34.9 -26.8 -31.1 -47.2 4.7 -25.4 29.2 -40.9 53.3 -33.4 12 3.7 20.5 11.1 26.2 23 2.9 6 3.1 7.3 3.1 17 0 9.8 -0.2 11 -3.2 17 -1.7 3.6 -4.8 8.4 -6.7 10.6 -9.8 11.4 -27.4 16.9 -41.6 13z"/>
  <path d="M663 161.5 c-15.2 -3.3 -18 -8 -18 -30 l0 -14.6 14.8 0.3 c16.6 0.3 20.3 1.5 25 7.6 2.7 3.5 2.7 3.8 3 20.9 l0.3 17.3 -9.8 -0.1 c-5.4 -0.1 -12.3 -0.7 -15.3 -1.4z"/>
 </g>
 <g fill="#3a3a3a">
 </g>
 <g fill="#424242">
 </g>
 <g fill="#4a4a4a">
 </g>
 <g fill="#525252">
 </g>
 <g fill="#5a5a5a">
 </g>
 <g fill="#636363">
 </g>
 <g fill="#6b6b6b">
 </g>
 <g fill="#737373">
 </g>
 <g fill="#7b7b7b">
 </g>
 <g fill="#848484">
 </g>
 <g fill="#8c8c8c">
 </g>
 <g fill="#949494">
 </g>
 <g fill="#9c9c9c">
 </g>
 <g fill="#a5a5a5">
 </g>
 <g fill="#adadad">
 </g>
 <g fill="#b5b5b5">
 </g>
 <g fill="#bdbdbd">
 </g>
 <g fill="#c5c5c5">
 </g>
 <g fill="#cecece">
 </g>
 <g fill="#d6d6d6">
 </g>
 <g fill="#dedede">
 </g>
 <g fill="#e6e6e6">
 </g>
 <g fill="#efefef">
 </g>
 <g fill="#f7f7f7">
 </g>
 <g fill="#ffffff">
 </g>
</svg>