<?xml version="1.0" encoding="utf-8"?>
<!DOCTYPE svg PUBLIC "-//W3C//DTD SVG 1.0//EN" "http://www.w3.org/TR/2001/REC-SVG-20010904/DTD/svg10.dtd">
<svg version="1.0" xmlns="http://www.w3.org/2000/svg" width="239px" height="55px" viewBox="0 0 239 55" preserveAspectRatio="xMidYMid meet">
 <g fill="#000000" stroke="#000000" stroke-width="0.5">
  <path d="M102.75 54.35 c-5.30 -3.05 -7.35 -7.70 -4.15 -9.40 0.90 -0.50 1.85 -0.35 5.10 0.70 10.15 3.35 10.25 3.35 12.15 2.70 2.95 -1 4.05 -3.30 3.75 -7.70 -0.15 -1.50 -1.35 -1.50 -5.10 0.10 -5.40 2.25 -9.80 1.20 -12.50 -3.05 -0.80 -1.35 -1.50 -2.65 -1.50 -3 0 -0.30 -0.55 -1.15 -1.25 -1.85 -1.20 -1.15 -1.30 -1.65 -1.45 -6.65 -0.30 -8.50 1.60 -12.20 6.95 -13.65 3.65 -1 7.20 -0.70 10.65 0.95 1.75 0.85 3.40 1.50 3.70 1.50 0.30 0 1.15 -0.55 2 -1.25 2.30 -1.95 7.30 -1.65 9.70 0.60 1.40 1.30 1.45 2.40 0.15 7.30 -0.55 2.05 -0.50 3.60 0.25 9.95 1.55 12.90 1.15 15.50 -3 19.70 -2.90 2.90 -7.70 4.50 -8.80 2.95 -0.50 -0.70 -6.80 -0.55 -7.50 0.15 -0.75 0.75 -7.80 0.70 -9.15 -0.05z m14.25 -21.20 c1.85 -1.30 2.40 -2.20 2.80 -4.55 0.65 -4.35 -2.25 -8.60 -5.90 -8.60 -4.35 0 -6.70 5.25 -4.90 10.80 1 2.95 5.35 4.20 8 2.35z"/>
  <path d="M7.75 54.15 c-3 -0.10 -6 -0.25 -6.60 -0.40 -1.50 -0.35 -1.50 -1.80 0.05 -3.60 l1.20 -1.35 12.40 -0.15 c17.35 -0.15 16.80 -0.15 23.10 0.35 3.15 0.25 6 0.70 6.40 1.05 0.90 0.70 0.90 2 0.05 3.15 -0.60 0.85 -1.80 0.90 -15.90 1 -8.35 0 -17.65 0 -20.70 -0.05z"/>
  <path d="M60 43.65 c-5.80 -2 -6.35 -3.10 -6.05 -12.05 0.05 -0.65 0.70 -1.85 1.50 -2.65 1.35 -1.35 1.75 -1.45 5.20 -1.45 2.95 0 4.15 -0.25 6 -1.25 1.30 -0.65 3.50 -1.35 4.95 -1.55 5.40 -0.70 7.35 -2.50 5.95 -5.55 -0.55 -1.20 -0.70 -1.25 -3.70 -0.90 -3.25 0.35 -6.85 1.65 -8.15 3 -0.55 0.55 -1.70 0.75 -4.10 0.70 -4.50 -0.05 -5.70 -0.50 -6.55 -2.15 -0.60 -1.25 -0.55 -1.55 0.30 -2.70 0.50 -0.70 2.30 -1.95 3.90 -2.80 2.85 -1.45 3.35 -1.55 9.50 -1.65 3.60 -0.10 7.20 -0.20 8 -0.30 3.75 -0.40 8.90 2.65 10.50 6.15 0.80 1.80 0.85 2.50 0.40 5.15 -0.35 2.25 -0.35 3.65 0.10 5.10 0.30 1.10 0.55 4.30 0.50 7.10 -0.05 6.35 -0.30 6.60 -5.65 6.65 -2.95 0 -4 -0.20 -5.15 -1 -1.30 -0.95 -1.50 -1 -2.60 -0.30 -2.25 1.50 -12.70 3.20 -14.85 2.45z m14.05 -7.65 c4.50 -1.85 5.25 -2.50 4.50 -3.85 -1.15 -2.20 -2.85 -2.75 -7.10 -2.40 -4.75 0.40 -6.45 1.45 -6.45 3.90 0 1.85 0.35 2.45 1.75 3.25 1.60 0.90 3.40 0.70 7.30 -0.90z"/>
  <path d="M210.85 42.80 c-4.35 -1.15 -7.35 -3.20 -7.35 -4.95 0 -2.35 1.65 -3.25 6.10 -3.40 2.95 -0.10 3.55 0.05 5.70 1.45 2.35 1.60 3.10 1.80 5.95 1.60 3.50 -0.20 4.95 -3 2.25 -4.35 -5 -2.50 -8.60 -3.65 -11.60 -3.65 -4.85 0 -7.60 -2.15 -8.40 -6.50 -0.70 -3.80 1.30 -7.10 5.75 -9.40 2.25 -1.15 3.20 -1.35 8.85 -1.50 7.40 -0.25 11.15 0.60 13.45 2.90 2.10 2.05 1.95 3.85 -0.35 4.80 -2.70 1.15 -5.70 1 -9.45 -0.55 -2 -0.80 -3.85 -1.20 -4.50 -1.05 -1.65 0.40 -2.85 1.75 -2.65 2.95 0.20 1.25 4.20 2.65 9.05 3.15 3.35 0.35 8.60 2.60 10.65 4.65 1.70 1.65 2 4.10 0.90 6.95 -1.15 3.10 -3 4.85 -5.45 5.30 -1.10 0.20 -3.45 0.75 -5.25 1.30 -4.85 1.40 -9.05 1.50 -13.65 0.30z"/>
  <path d="M5.20 42.90 c-2.25 -0.75 -2.75 -1.95 -3.05 -7.55 -0.30 -4.90 -0.25 -5.15 0.95 -6.60 2.55 -3.05 2.60 -3.55 0.95 -6.10 -2 -3 -2.20 -4.20 -1.95 -12.65 0.15 -7.85 0.15 -7.85 3.70 -7.90 1.20 -0.05 3.10 -0.35 4.15 -0.65 2.95 -0.90 4.20 -0.35 5.65 2.40 0.65 1.35 1.95 2.90 2.85 3.50 1.65 1.10 2.65 2.35 8.80 10.60 3.30 4.45 4.70 5.15 4.80 2.45 0.05 -0.90 0.15 -4.80 0.20 -8.65 0.05 -3.85 0.25 -7.50 0.45 -8.05 0.45 -1.50 2.70 -2.30 5.35 -2 1.20 0.10 2.55 0.25 3 0.25 1.50 0.10 3.35 2.45 3.70 4.90 0.25 1.90 0.35 9.95 0.15 22.90 0 1.10 0.05 3.90 0.10 6.25 0.20 6.35 -1.25 7.95 -6.85 7.30 -6.35 -0.75 -7.50 -1.55 -11.55 -7.80 -1.50 -2.30 -3.80 -5.50 -5.15 -7.10 -1.30 -1.55 -2.75 -3.55 -3.25 -4.35 -1 -1.75 -1.75 -2.15 -2.70 -1.55 -0.70 0.45 -1.60 10.60 -1.55 17.05 l0.05 2.80 -1.95 0.55 c-2.25 0.70 -4.70 0.70 -6.85 0z"/>
  <path d="M144.85 42.80 c-2.20 -0.80 -3.10 -1.85 -3.85 -4.30 -0.65 -2.35 -0.65 -3.50 0.15 -5 1.15 -2.20 1.25 -3.35 0.60 -6.90 -1.05 -5.55 -1.40 -10.20 -0.80 -11.70 0.55 -1.50 2.60 -2.25 5.80 -2.10 1.10 0.10 2.35 0.15 2.80 0.15 0.40 0.05 1.25 0.50 1.85 1.05 1.05 0.95 1.10 1.45 1.10 9.40 0.05 4.60 0.10 10.40 0.15 12.95 0.10 4.10 0 4.75 -0.95 5.65 -1.35 1.35 -4.40 1.70 -6.85 0.80z"/>
  <path d="M179.40 43.25 c-0.10 -0.05 -1.95 -0.30 -4.15 -0.45 -2.20 -0.20 -4.45 -0.50 -5 -0.65 -1.85 -0.55 -7.75 -4.90 -7.95 -5.90 -0.15 -0.55 -0.60 -2.55 -1.10 -4.50 -1.75 -6.90 -1 -10.65 2.55 -12.45 1.05 -0.60 2.65 -2 3.50 -3.10 0.80 -1.15 1.95 -2.30 2.50 -2.60 0.55 -0.25 4.60 -0.40 9 -0.40 7.45 0.10 8.20 0.20 10.75 1.40 8 3.65 10.40 14.35 5.05 22.40 -2.05 3.10 -4.05 4.20 -7.60 4.10 -2.05 -0.05 -3.15 0.15 -4 0.85 -1.15 0.85 -3.20 1.60 -3.55 1.30z m3.65 -9.10 c2.75 -3.10 2.35 -9.85 -0.80 -13 -5.70 -5.70 -13.55 4.60 -8.90 11.70 1.70 2.65 2.80 3.20 5.85 2.95 2 -0.15 2.75 -0.45 3.85 -1.65z"/>
  <path d="M233.25 11 c-0.15 -0.25 -0.05 -0.50 0.20 -0.50 0.70 0 0.70 -1.65 0 -2.35 -0.95 -0.95 0.45 -1.25 1.55 -0.30 1.20 1 1.30 2.15 0.25 2.15 -0.40 0 -0.75 0.25 -0.75 0.50 0 0.70 1.65 0.65 2.40 -0.10 0.45 -0.45 0.60 -0.40 0.60 0.25 0 0.65 -0.45 0.85 -1.95 0.85 -1.10 0 -2.15 -0.20 -2.30 -0.50z"/>
  <path d="M143.15 8 c-2.30 -0.95 -2.70 -4.40 -0.65 -6.25 1.10 -1 7.15 -1.15 8.25 -0.25 1.55 1.25 1.25 5.55 -0.40 6.60 -0.80 0.50 -5.85 0.45 -7.20 -0.10z"/>
  <path d="M235.80 7.35 c-0.85 -0.90 -0.90 -1 -0.10 -0.70 0.50 0.20 1.10 0.35 1.35 0.35 0.25 0 0.45 0.35 0.45 0.75 0 1 -0.55 0.90 -1.70 -0.40z"/>
 </g>
</svg>