<?xml version="1.0" encoding="utf-8"?>
<!DOCTYPE svg PUBLIC "-//W3C//DTD SVG 1.0//EN" "http://www.w3.org/TR/2001/REC-SVG-20010904/DTD/svg10.dtd">
<svg version="1.0" xmlns="http://www.w3.org/2000/svg" width="2560px" height="606px" viewBox="0 0 2560 606" preserveAspectRatio="xMidYMid meet">
 <g fill="#000000">
  <path d="M1326 461.3 c-30.3 -4.8 -54.3 -16.2 -73.6 -35 -51.4 -50.2 -45.6 -136.2 12.3 -179.7 21.5 -16.1 44.6 -23.7 71.8 -23.7 28.6 0 49.9 6.9 71.1 22.9 31.1 23.7 47.3 61.6 47.4 111 l0 9.2 -83.1 0 c-78.7 0 -83.1 0.1 -82.5 1.8 1.9 4.8 7.8 13.2 13.4 18.8 11.9 12 28.9 18.1 47.7 17 16.2 -0.9 29.1 -5.3 38.2 -13.1 5.1 -4.4 1.4 -6.7 29.6 18.4 24.1 21.4 23.3 18.2 6.9 29.2 -25.5 17.1 -49.6 24.1 -81.8 23.8 -8.2 -0.1 -16 -0.4 -17.4 -0.6z m59 -145.6 c0 -0.8 -1.4 -4.3 -3.2 -7.8 -4 -8.2 -15.2 -19.5 -22.8 -23.2 -20.4 -9.9 -45 -5.6 -59.5 10.5 -4.3 4.7 -11.5 17.6 -11.5 20.4 0 1.2 8.2 1.4 48.5 1.4 39.9 0 48.5 -0.2 48.5 -1.3z"/>
  <path d="M2206.2 461 c-28.8 -4.1 -51.1 -18.7 -61.7 -40.5 -4.7 -9.6 -6.5 -18 -6.5 -30.5 0 -45.9 38.3 -71.3 103.4 -68.6 13.8 0.5 21 1.4 41.5 5.3 l3.4 0.6 -0.5 -10.9 c-0.6 -13.6 -2.9 -19.5 -9.9 -25.8 -7.2 -6.5 -14.5 -8.7 -30.1 -9.3 -7.5 -0.3 -16.2 0 -21 0.7 -10.4 1.5 -28.1 6.6 -42.5 12.3 l-11.1 4.4 -12.5 -25.6 c-12.2 -25 -12.4 -25.6 -10.3 -26.7 6.8 -3.6 33.9 -13.1 46.9 -16.4 22.5 -5.7 35.8 -7.4 58.2 -7.4 20.6 0 30.3 1.3 45 6.1 30.8 9.9 49.9 31.6 55.4 62.7 0.7 3.9 1.1 34.6 1.1 86.3 l0 80.3 -34.5 0 -34.5 0 0 -7 c0 -3.8 -0.2 -7 -0.4 -7 -0.2 0 -3.4 1.8 -7.2 4 -8.5 5 -20.7 9.4 -31.5 11.5 -10.1 1.9 -32.1 2.7 -40.7 1.5z m52.4 -51 c4.5 -1.1 11.4 -3.3 15.3 -5.1 l7.1 -3.2 0 -15.3 0 -15.3 -3.9 -1.1 c-14.9 -4 -45.6 -5.3 -56.6 -2.5 -14.1 3.7 -21 10.7 -21 21.5 0.1 16 15.9 24.8 42 23.4 5 -0.3 12.7 -1.4 17.1 -2.4z"/>
  <path d="M1585 460.4 c-1.4 -0.2 -5.6 -0.9 -9.5 -1.5 -22.3 -3.6 -45.6 -15.8 -62.5 -32.8 -22.6 -22.6 -34 -50.8 -34 -83.7 0 -41.1 19.3 -77.3 52.7 -99.1 35.7 -23.3 80 -26.3 119.6 -8 l7.7 3.6 0 -44 c0 -24.1 0.2 -43.9 0.5 -43.9 0.8 0 65.6 -14 67.8 -14.6 1.6 -0.5 1.7 7.6 1.7 160.5 l0 161.1 -35.1 0 -35.2 0 0.6 -8.5 c0.3 -4.7 0.3 -8.5 0 -8.5 -0.3 0 -2.7 1.3 -5.2 2.9 -16.1 10.3 -34.7 16 -54.1 16.6 -6.9 0.2 -13.6 0.2 -15 -0.1z m43.4 -61.4 c8.8 -2.2 19.6 -7.6 25.5 -12.7 l4.1 -3.5 0 -41.3 0 -41.3 -4.7 -3.5 c-12.8 -9.3 -26.7 -13.7 -43.3 -13.7 -19.6 0 -33.2 5.2 -45.6 17.6 -32.3 32.1 -16.3 88 28.4 98.9 8.8 2.1 26.4 1.9 35.6 -0.5z"/>
  <path d="M2487.5 459.9 c-33.5 -4.5 -53.3 -18.9 -62.3 -45.4 l-2.7 -8 -0.3 -60.7 -0.3 -60.8 -23.4 0 -23.5 0 0 -29.5 0 -29.5 23.5 0 23.5 0 0 -29.8 0 -29.7 34.8 -7.5 34.7 -7.5 0.3 37.2 0.2 37.3 32.5 0 32.5 0 0 29.5 0 29.5 -32.5 0 -32.5 0 0 48.3 c0 54.8 0.1 55.9 6.9 62 6 5.4 9.6 6.2 26.6 6.1 11.4 -0.1 16.7 -0.6 22.3 -2.1 l7.2 -1.9 0 28.2 0 28.2 -6.8 1.6 c-19.7 4.5 -46.5 6.5 -60.7 4.5z"/>
  <path d="M944 304.4 l0 -153.5 86.8 0.4 c94.3 0.4 92.8 0.3 110.7 6.3 32.4 10.8 56.3 35.3 64.7 66.4 2 7.3 2.3 10.8 2.2 25 0 15 -0.3 17.3 -2.8 25.5 -4.9 16 -14.2 31.2 -25.9 42.2 -6.2 5.9 -17.3 13.3 -24.2 16.3 l-4.7 2 2.5 4.3 c5.7 9.8 64.7 117.5 64.7 118.1 0 0.3 -18.6 0.6 -41.3 0.6 l-41.4 0 -28.9 -56 -28.9 -56 -29.2 0 -29.3 0 0 56 0 56 -37.5 0 -37.5 0 0 -153.6z m165.2 -21.5 c15.6 -5.2 24.1 -16.4 24.2 -31.9 0 -9 -1.3 -14 -5.5 -20.3 -3.7 -5.6 -9.3 -9.9 -16.9 -13 -5.4 -2.1 -6.6 -2.2 -48.7 -2.5 l-43.3 -0.3 0 35.1 0 35 42 0 c39.9 0 42.4 -0.1 48.2 -2.1z"/>
  <path d="M1836 304.5 l0 -153.5 37.5 0 37.5 0 0 59 0 59 63.5 0 63.5 0 0 -59 0 -59 37.5 0 37.5 0 0 153.5 0 153.5 -37.5 0 -37.5 0 0 -60.5 0 -60.5 -63.7 0.2 -63.8 0.3 -0.3 60.3 -0.2 60.2 -37 0 -37 0 0 -153.5z"/>
  <path d="M506 435.6 c0 -0.8 0.8 -1.7 1.8 -1.9 0.9 -0.3 -3 -0.5 -8.8 -0.5 -5.8 0 -9.7 0.2 -8.7 0.5 2.6 0.7 1 2.3 -2.4 2.3 -3.2 0 -4.1 -2.5 -1.1 -3.3 0.9 -0.3 -0.3 -0.5 -2.8 -0.6 -17.3 -0.4 -58.5 -7.2 -87 -14.2 -100.8 -24.8 -192.9 -79.7 -226.8 -135.1 -6.7 -10.9 -12.1 -25.2 -12.3 -32.7 -0.1 -2 -0.3 -2.8 -0.6 -1.8 -0.2 0.9 -1.1 1.7 -1.9 1.7 -1.1 0 -1.4 -1.5 -1.4 -6 0 -4.5 0.3 -6 1.4 -6 0.8 0 1.7 0.8 1.9 1.8 0.3 0.9 0.5 -0.1 0.6 -2.4 0.2 -7 3.6 -18.2 11.4 -37.3 l7.4 -18.3 0.7 4.6 c2.5 16.8 29 45.7 65.5 71.8 62.1 44.3 146.6 76.6 227.1 86.8 15.3 1.9 42.7 3.6 38.7 2.4 -2.6 -0.8 -1 -2.4 2.4 -2.4 3.2 0 4.1 2.5 1.2 3.3 -1 0.3 7.2 0.5 18.2 0.5 11 0 19.2 -0.2 18.3 -0.5 -1 -0.2 -1.8 -1.1 -1.8 -1.9 0 -1 1.3 -1.4 4.4 -1.4 4.6 0 7 1.5 3.9 2.3 -1 0.3 0.7 0.5 3.7 0.5 3 0 4.7 -0.2 3.8 -0.5 -3.3 -0.8 -2 -3.3 1.6 -3.3 3.8 0 5.7 1.6 2.9 2.3 -1 0.3 0 0.5 2.2 0.5 2.2 0 3.2 -0.2 2.3 -0.5 -1 -0.2 -1.8 -1 -1.8 -1.7 0 -0.9 2.9 -1.7 8.4 -2.5 12.3 -1.7 28.7 -6.6 40.1 -11.9 5.5 -2.6 10.2 -5 10.3 -5.4 0.2 -0.5 1 -0.8 1.7 -0.8 0.7 0 1.5 -0.7 1.9 -1.5 0.3 -0.8 0.9 -1.5 1.4 -1.5 1.1 0 12.2 -11 12.2 -12.1 0 -0.4 0.6 -1.2 1.3 -1.6 1.7 -1.1 7.7 -14.4 8.4 -18.7 0.3 -2.2 1.1 -3.6 2 -3.6 1.7 0 1 4.9 -1.8 12.5 -6.5 17.5 -21.6 30.5 -45.9 39.6 -4.1 1.5 -6.9 2.8 -6.3 2.9 2.2 0 14.1 -4.8 22.6 -9.2 10.6 -5.5 23 -17.5 27.6 -26.5 3.5 -7.1 6.2 -16.2 6 -20.8 -0.1 -1.7 -0.3 -2.2 -0.6 -1.2 -0.7 2.8 -2.3 0.9 -2.3 -2.9 0 -2.4 0.5 -3.4 1.5 -3.4 0.8 0 1.5 0.8 1.6 1.8 0.1 1.1 0.3 0.9 0.8 -0.7 0.7 -2.7 4.4 12 10.1 40.4 5.2 25.5 5 35.7 -0.9 51.1 -13.7 35.6 -61.7 60.6 -123.6 64.1 -6.6 0.4 -11.2 0.9 -10.2 1.1 3.2 0.7 1.9 3.2 -1.7 3.2 -3.8 0 -5.7 -1.6 -2.9 -2.3 1 -0.3 -3.4 -0.5 -9.7 -0.5 -6.3 0 -10.7 0.2 -9.7 0.5 2.8 0.7 0.9 2.3 -2.9 2.3 -2.3 0 -3.4 -0.5 -3.4 -1.4z m84.5 -92.1 c6.7 -1.7 3.6 -1.8 -4 -0.1 -3.3 0.8 -4.9 1.4 -3.5 1.4 1.4 0 4.8 -0.6 7.5 -1.3z m10 -2.5 c1.3 -0.5 1.4 -0.9 0.5 -0.9 -0.8 0 -2.4 0.4 -3.5 0.9 -1.3 0.5 -1.4 0.9 -0.5 0.9 0.8 0 2.4 -0.4 3.5 -0.9z"/>
  <path d="M548.5 435 c-0.3 -0.5 -0.3 -1 0.2 -1 0.4 0 1.8 -0.3 3.1 -0.6 1.6 -0.5 2.2 -0.2 2.2 1 0 1.8 -4.5 2.3 -5.5 0.6z"/>
  <path d="M473 433.4 c0 -1.2 0.6 -1.5 2.3 -1 1.2 0.3 2.6 0.6 3 0.6 0.5 0 0.5 0.5 0.2 1 -1 1.7 -5.5 1.2 -5.5 -0.6z"/>
  <path d="M558.5 434 c-0.3 -0.5 -0.3 -1 0.2 -1 0.4 0 1.8 -0.3 3.1 -0.6 1.6 -0.5 2.2 -0.2 2.2 1 0 1.8 -4.5 2.3 -5.5 0.6z"/>
  <path d="M463 432.4 c0 -1.2 0.6 -1.5 2.3 -1 1.2 0.3 2.6 0.6 3 0.6 0.5 0 0.5 0.5 0.2 1 -1 1.7 -5.5 1.2 -5.5 -0.6z"/>
  <path d="M565.5 433.1 c-0.3 -0.6 1.1 -1.3 3.2 -1.6 18.6 -3.2 37.2 -8.3 48 -13.1 6.4 -2.8 7.3 -2.9 7.3 -1 0 1.5 -2.1 2.6 -5.1 2.6 -1 0 -1.9 0.5 -1.9 1 0 0.6 -1.1 1 -2.5 1 -1.4 0 -2.5 0.4 -2.5 0.9 0 1.6 -30.9 9.7 -33.5 8.7 -0.8 -0.3 -1.5 -0.1 -1.5 0.5 0 0.7 -1.2 0.9 -3 0.7 -1.6 -0.3 -3 -0.1 -3 0.4 0 1.1 -4.7 1 -5.5 -0.1z"/>
  <path d="M455 431.4 c0 -1.2 0.6 -1.5 2.3 -1 1.2 0.3 2.6 0.6 3 0.6 0.5 0 0.5 0.5 0.2 1 -1 1.7 -5.5 1.2 -5.5 -0.6z"/>
  <path d="M447 431.2 c0 -0.5 -1.3 -0.7 -3 -0.4 -1.6 0.2 -3 0 -3 -0.5 0 -0.5 -1.3 -0.8 -3 -0.5 -1.6 0.2 -3 0 -3 -0.5 0 -0.5 -1.3 -0.8 -3 -0.5 -1.8 0.2 -3 0 -3 -0.7 0 -0.6 -0.7 -0.8 -1.5 -0.5 -2.4 1 -27.5 -4.7 -27.5 -6.3 0 -1.6 -1.2 -1.7 11.6 1.1 6 1.4 16.5 3.4 23.4 4.6 17.2 2.8 18.1 3 17.4 4.1 -0.7 1.1 -5.4 1.2 -5.4 0.1z"/>
  <path d="M384.3 418.7 c-2.5 -0.5 -4.3 -1.6 -4.3 -2.3 0 -1.7 -0.2 -1.7 7.5 0.2 3.6 0.9 6.2 2 5.9 2.5 -0.6 1.1 -3.6 1 -9.1 -0.4z"/>
  <path d="M365.3 413.3 c-5.5 -1.7 -8.3 -3.1 -8.3 -4.1 0 -0.9 0.7 -1.2 1.8 -0.9 11.6 3.2 20 6.2 19.6 6.9 -0.8 1.3 -4.3 0.8 -13.1 -1.9z"/>
  <path d="M628 413.7 c0.8 -0.8 3.6 -2.6 6.3 -4.1 4.5 -2.6 4.7 -2.6 4.7 -0.6 0 1.1 -0.7 2 -1.5 2 -0.8 0 -1.5 0.4 -1.5 0.8 0 1.2 -4.6 3.2 -7.3 3.2 -1.8 0 -1.9 -0.2 -0.7 -1.3z"/>
  <path d="M342.3 405.8 c-1.8 -0.6 -3.3 -1.7 -3.3 -2.4 0 -1.8 0.6 -1.7 6.3 0.2 7.8 2.6 4.9 4.7 -3 2.2z"/>
  <path d="M643 404.3 c1.9 -1.5 7.3 -6.5 12 -11.2 11.7 -11.8 17.4 -23.4 20.5 -41.4 0.3 -2.1 1 -3.5 1.6 -3.2 1.2 0.8 1.2 5.5 0 5.5 -0.5 0 -0.7 0.8 -0.4 1.9 0.6 2.3 -2.4 14.5 -3.7 14.9 -0.6 0.2 -1 1.2 -1 2.2 0 2.3 -2 7 -3.1 7 -0.4 0 -1 1.1 -1.3 2.5 -0.4 1.4 -1.3 2.5 -2.1 2.5 -0.8 0 -1.5 0.9 -1.5 2 0 1.3 -0.7 2 -2 2 -1.4 0 -2 0.7 -2 2.3 0 2.9 -5.9 8.7 -8.8 8.7 -1.6 0 -2.2 0.6 -2.2 2.1 0 1.2 -0.8 2.3 -2 2.6 -1.1 0.3 -2 0.9 -2 1.4 0 0.5 -1.2 0.9 -2.7 0.9 l-2.8 -0.1 3.5 -2.6z"/>
  <path d="M331 401 c0 -0.5 -1.1 -1 -2.5 -1 -1.4 0 -2.5 -0.4 -2.5 -1 0 -0.5 -1.1 -1 -2.5 -1 -1.4 0 -2.5 -0.4 -2.5 -1 0 -0.5 -1.1 -1 -2.5 -1 -1.6 0 -2.5 -0.6 -2.5 -1.5 0 -2 0.2 -2 10.7 2.2 9.3 3.7 11.4 5.3 6.8 5.3 -1.4 0 -2.5 -0.4 -2.5 -1z"/>
  <path d="M309 391.5 c0 -1.6 0.9 -1.9 3.4 -0.9 2.5 0.9 1.9 2.4 -0.9 2.4 -1.6 0 -2.5 -0.6 -2.5 -1.5z"/>
  <path d="M299.3 388.3 c-3.1 -1.5 -4.5 -4.3 -2.3 -4.3 1.6 0 10 4.3 10 5.2 0 1.3 -4.3 0.8 -7.7 -0.9z"/>
  <path d="M271.3 374.3 c-1.8 -0.9 -3.3 -2.3 -3.3 -3 0 -0.7 -0.9 -1.3 -1.9 -1.3 -3 0 -5.1 -1.1 -5.1 -2.6 0 -0.8 -1 -1.4 -2.5 -1.4 -1.6 0 -2.5 -0.6 -2.5 -1.5 0 -0.9 -0.9 -1.5 -2.5 -1.5 -1.4 0 -2.5 -0.4 -2.5 -1 0 -0.5 -0.7 -1 -1.5 -1 -0.8 0 -1.5 -0.7 -1.5 -1.5 0 -0.9 -0.9 -1.5 -2.5 -1.5 -1.4 0 -2.5 -0.4 -2.5 -1 0 -0.5 -0.7 -1 -1.5 -1 -0.8 0 -1.5 -0.4 -1.5 -1 0 -0.5 -0.7 -1 -1.5 -1 -0.8 0 -1.5 -0.4 -1.5 -1 0 -0.5 -0.7 -1 -1.5 -1 -0.8 0 -1.5 -0.4 -1.5 -1 0 -0.5 -0.7 -1 -1.5 -1 -0.8 0 -1.5 -0.7 -1.5 -1.5 0 -0.8 -0.9 -1.5 -2 -1.5 -1.1 0 -2 -0.7 -2 -1.5 0 -0.8 -0.9 -1.5 -2 -1.5 -1.1 0 -2 -0.4 -2 -1 0 -0.5 -0.7 -1 -1.6 -1 -0.9 0 -1.8 -0.9 -2.1 -2 -0.3 -1.1 -1.4 -2 -2.5 -2 -1.1 0 -2.2 -0.9 -2.5 -2 -0.3 -1.1 -1.4 -2 -2.4 -2 -2 0 -3.4 -2.1 -2.7 -4 0.2 -0.6 5 2.6 10.8 7.1 12.8 10 32.1 22.8 46.6 30.9 5.9 3.2 11.2 6.4 11.8 7 1.6 1.6 -3.4 1.1 -7.1 -0.7z"/>
  <path d="M492.7 346.3 c-2.4 -0.6 -1.1 -2.3 1.9 -2.3 1.5 0 2.4 0.6 2.4 1.5 0 1.5 -0.9 1.7 -4.3 0.8z"/>
  <path d="M481.7 345.3 c-2.4 -0.6 -1.1 -2.3 1.9 -2.3 1.5 0 2.4 0.6 2.4 1.5 0 1.5 -0.9 1.7 -4.3 0.8z"/>
  <path d="M472.7 344.3 c-2.4 -0.6 -1.1 -2.3 1.9 -2.3 1.5 0 2.4 0.6 2.4 1.5 0 1.5 -0.9 1.7 -4.3 0.8z"/>
  <path d="M464.7 343.3 c-2.4 -0.6 -1.1 -2.3 1.9 -2.3 1.5 0 2.4 0.6 2.4 1.5 0 1.5 -0.9 1.7 -4.3 0.8z"/>
  <path d="M457.7 342.3 c-2.4 -0.6 -1.1 -2.3 1.9 -2.3 1.5 0 2.4 0.6 2.4 1.5 0 1.5 -0.9 1.7 -4.3 0.8z"/>
  <path d="M443 339.9 c-19.6 -3.8 -24.3 -5 -23.2 -6.1 1.2 -1.2 23.4 2.9 24 4.4 0.2 0.4 0.8 0.6 1.3 0.2 1.7 -1 9.9 0.8 9.9 2.2 0 1.7 0 1.7 -12 -0.7z"/>
  <path d="M675.6 337.7 c-0.9 -3.3 -0.8 -3.7 0.9 -3.7 0.9 0 1.5 0.9 1.5 2.4 0 3.3 -1.6 4.2 -2.4 1.3z"/>
  <path d="M407.7 332.3 c-4 -1.1 -5.5 -1.9 -4.8 -2.6 1.4 -1.4 13.1 1.1 13.1 2.9 0 1.7 -0.8 1.6 -8.3 -0.3z"/>
  <path d="M675 332.9 c0 -0.3 -1.3 -7.3 -3 -15.4 -1.6 -8.1 -3 -15 -3 -15.1 0 -0.2 0.6 -0.1 1.4 0.2 2 0.8 7.3 28.1 5.7 29.7 -0.6 0.6 -1.1 0.9 -1.1 0.6z"/>
  <path d="M393 328.2 c-3.8 -1.2 -5.1 -2 -4.1 -2.6 1.9 -1.2 12.1 1.4 12.1 3.1 0 1.7 -1.2 1.6 -8 -0.5z"/>
  <path d="M202 326.5 c-0.6 -0.8 -1 -2.2 -0.8 -3.2 0.3 -1.4 0.8 -1.2 3.8 1.5 l3.5 3.1 -2.6 0.1 c-1.5 0 -3.2 -0.7 -3.9 -1.5z"/>
  <path d="M379.5 324 c-3.9 -1.4 -4.6 -1.9 -3.2 -2.5 2.4 -1 10.7 1.4 10.7 3.1 0 1.8 -1.3 1.7 -7.5 -0.6z"/>
  <path d="M362.9 318.5 c-13 -4.5 -32.9 -12.8 -32.9 -13.6 0 -0.5 1.1 -0.9 2.5 -0.9 1.4 0 2.5 0.5 2.5 1 0 0.6 0.8 1 1.8 1 2.2 0 17.6 6.1 18 7.2 0.2 0.4 1.1 0.8 2 0.8 3.3 0 15.2 4.4 15.2 5.7 0 1.7 -1.3 1.6 -9.1 -1.2z"/>
  <path d="M183.7 308.2 c-1 -1 -1.7 -2.8 -1.7 -4 0 -1.4 -0.7 -2.2 -2.2 -2.4 -1.5 -0.2 -2.4 -1.1 -2.6 -2.5 -0.2 -1.3 -1 -2.3 -1.8 -2.3 -0.8 0 -1.4 -0.9 -1.4 -2 0 -1.1 -0.7 -2 -1.5 -2 -0.8 0 -1.5 -0.7 -1.5 -1.5 0 -0.8 -0.4 -1.5 -1 -1.5 -0.5 0 -1 -1.1 -1 -2.5 0 -1.6 -0.6 -2.5 -1.5 -2.5 -0.9 0 -1.5 -0.9 -1.5 -2.5 0 -1.5 -0.6 -2.5 -1.4 -2.5 -1.5 0 -2.6 -2.1 -2.6 -5.1 0 -3 1.5 -2.2 3.4 1.9 2.8 5.9 12 19.1 18 26 3.1 3.5 5.6 6.5 5.6 6.8 0 1.2 -3.9 0.2 -5.3 -1.4z"/>
  <path d="M322.3 302.3 c-3.7 -1.9 -4.3 -3.3 -1.3 -3.3 2.9 0 7 2.1 7 3.7 0 1.7 -1.7 1.6 -5.7 -0.4z"/>
  <path d="M300.5 291.7 c-16.4 -8.6 -25 -13.5 -40 -23 -11.5 -7.3 -34.1 -23.9 -41 -30.1 l-4 -3.6 3 0.2 c2 0.2 3.3 1.1 4 2.5 0.5 1.2 1.9 2.3 3 2.5 1.2 0.2 2.1 1.2 2.3 2.6 0.3 1.6 1 2.2 2.8 2.2 1.5 0 2.4 0.6 2.4 1.5 0 0.8 0.9 1.5 2 1.5 1.1 0 2 0.7 2 1.5 0 0.8 0.9 1.5 2 1.5 1.1 0 2 0.7 2 1.5 0 0.8 0.9 1.5 2 1.5 1.1 0 2 0.5 2 1 0 0.6 0.7 1 1.5 1 0.8 0 1.5 0.5 1.5 1 0 0.6 0.7 1 1.5 1 0.9 0 1.8 0.7 2.1 1.5 0.4 0.8 1.2 1.5 2 1.5 0.8 0 1.4 0.5 1.4 1 0 0.6 0.7 1 1.5 1 0.8 0 1.5 0.7 1.5 1.5 0 0.9 0.9 1.5 2.5 1.5 1.4 0 2.5 0.5 2.5 1 0 0.6 0.7 1 1.5 1 0.8 0 1.5 0.4 1.5 0.9 0 0.5 1.1 1.2 2.5 1.5 1.4 0.4 2.5 1.1 2.5 1.6 0 0.6 0.6 1 1.4 1 0.8 0 2.1 0.6 2.8 1.4 0.8 0.7 2.4 1.7 3.6 2 1.2 0.4 2.2 1.4 2.2 2.2 0 0.8 0.9 1.4 2 1.4 2.9 0 7 2.1 7 3.7 0 0.7 0.9 1.3 2 1.3 2.9 0 25 11.2 25 12.7 0 2.2 -2.1 1.4 -16.5 -6z"/>
  <path d="M159 268.5 c0 -2.8 1.5 -3.4 2.4 -0.9 1 2.5 0.7 3.4 -0.9 3.4 -0.9 0 -1.5 -0.9 -1.5 -2.5z"/>
  <path d="M155.5 257.9 c-1 -5.9 0.9 -7.2 2.4 -1.5 1.4 5.6 1.4 5.6 -0.3 5.6 -0.9 0 -1.7 -1.6 -2.1 -4.1z"/>
  <path d="M155.7 234.4 c-1.3 -1.4 -0.7 -5.4 0.8 -5.4 1.6 0 1.8 1.4 0.6 4.3 -0.3 1 -1 1.5 -1.4 1.1z"/>
  <path d="M204.9 225.1 c-7.4 -7.5 -9 -9.5 -7.6 -9.9 2.3 -0.5 7.7 4.4 7.7 7 0 1.1 0.7 1.8 1.8 1.8 2.6 0 8.5 6.4 8 8.6 -0.4 1.5 -2.4 -0.1 -9.9 -7.5z"/>
  <path d="M157.7 225.4 c-1.3 -1.4 -0.7 -5.4 0.8 -5.4 1.6 0 1.8 1.4 0.6 4.3 -0.3 1 -1 1.5 -1.4 1.1z"/>
  <path d="M159 216.5 c0 -1.6 0.6 -2.5 1.5 -2.5 1.6 0 1.9 0.9 0.9 3.4 -0.9 2.5 -2.4 1.9 -2.4 -0.9z"/>
  <path d="M189.6 208 c-2.6 -3.6 -5.4 -7.7 -6.2 -9.2 -1.4 -2.6 -1.3 -2.8 0.6 -2.8 1.3 0 2.2 0.9 2.6 2.5 0.3 1.4 1 2.5 1.5 2.5 0.5 0 0.9 0.7 0.9 1.5 0 0.8 0.5 1.5 1 1.5 0.6 0 1.4 0.8 1.7 1.8 0.4 0.9 1.3 2.2 2.1 2.8 0.8 0.5 1.2 2.1 1 3.5 -0.3 2.1 -0.8 1.7 -5.2 -4.1z"/>
  <path d="M179.1 189.3 c-1.4 -4.9 -1.4 -5.3 0.3 -5.3 1.2 0 2.6 4 2.6 7.6 0 2.8 -1.9 1.3 -2.9 -2.3z"/>
 </g>
 <g fill="#ee0000">
  <path d="M524.5 602 c-80 -5.5 -164.1 -24.6 -245.3 -55.9 -66.5 -25.6 -130.7 -59.9 -177.7 -95.2 -42.4 -31.7 -72.7 -65 -87.6 -96.4 -7.4 -15.6 -10 -25.6 -10.6 -41.1 -0.9 -21.3 3.7 -37.1 15.1 -52.1 16.9 -22.3 52.9 -37.5 103.6 -43.7 13.7 -1.7 39.2 -3.7 39.8 -3.1 0.2 0.2 -0.4 2.5 -1.3 5.2 -2.6 7.6 -3.6 14.1 -3.6 23.9 -0.1 11.5 1.9 19.3 8.1 31.9 25 50.6 106.2 105.5 198.5 134.2 82 25.5 170.5 32 228.5 16.9 28.1 -7.3 46.7 -17.1 62.5 -33 7.2 -7.3 9.9 -10.8 13.3 -17.6 8.8 -17.7 9.9 -32.2 4.3 -58.4 -1.7 -8.2 -2.9 -15.1 -2.7 -15.3 0.2 -0.2 7.1 3 15.3 7.1 64.3 32.5 106.8 83.1 111.1 132.2 1.9 21.4 -2.7 46.2 -12.1 65.7 -25.6 53 -82.6 83.9 -171.7 93.2 -17.4 1.9 -69.2 2.7 -87.5 1.5z"/>
  <path d="M498.5 346.9 c-97.1 -6.9 -196.6 -43.9 -269 -100.1 -13.9 -10.8 -33.2 -29.5 -40 -38.8 -8.1 -11.1 -10.9 -17.5 -10.9 -25 -0.1 -7.1 -1.2 -3.7 28 -86.4 18.2 -51.5 21.4 -58.6 31.7 -70.2 9.7 -10.9 19.6 -15.4 33.6 -15.4 11.1 0 15.8 1.4 35.3 10.5 20.7 9.8 27.9 11.9 39.4 12 8.4 0 9.5 -0.2 16.5 -3.7 4.8 -2.5 10.8 -6.9 17.3 -12.7 5.5 -4.9 12.3 -10.1 15.2 -11.5 9 -4.4 20.1 -3.4 45.8 4.1 36.8 10.7 99.8 36.3 131.1 53.4 17.2 9.3 25.6 15 34 23 8.3 7.9 13.6 16.4 17.1 27.4 4.1 12.8 35.4 150.3 36 158 1.2 15.1 -4.4 32.2 -14.1 43.3 -15.4 17.3 -45 28.6 -84.5 32.2 -13.3 1.2 -45.1 1.1 -62.5 -0.1z"/>
 </g>
</svg>