<?xml version="1.0" encoding="utf-8"?>
<!DOCTYPE svg PUBLIC "-//W3C//DTD SVG 1.0//EN" "http://www.w3.org/TR/2001/REC-SVG-20010904/DTD/svg10.dtd">
<svg version="1.0" xmlns="http://www.w3.org/2000/svg" width="264px" height="191px" viewBox="0 0 264 191" preserveAspectRatio="xMidYMid meet">
 <g fill="#e20003">
  <path d="M10.50 107.40 c0 -3.15 0 -3.15 3.40 -7.20 1.85 -2.25 5.70 -6.95 8.60 -10.45 2.90 -3.50 6.95 -8.45 9.05 -10.95 l3.80 -4.55 -11.40 -0.15 -11.45 -0.10 0 -3.50 0 -3.50 16.40 0.10 16.35 0.15 0.15 2.90 c0.15 2.80 0.05 3 -2.05 5.50 -2.65 3.10 -22.10 27.05 -22.50 27.65 -0.15 0.25 5.40 0.45 12.30 0.45 l12.60 0 0.15 3.40 0.15 3.35 -17.80 0 -17.75 0 0 -3.10z"/>
  <path d="M51.50 110.20 c0 -0.40 2.45 -6.95 7.50 -19.95 2.25 -5.80 4.40 -11.40 4.75 -12.50 0.40 -1.10 1.50 -3.90 2.40 -6.20 l1.70 -4.20 3.85 0 c2.15 0 4.05 0.20 4.25 0.45 0.20 0.25 1.95 4.60 3.90 9.70 3 7.80 11.70 30.35 12.50 32.40 0.20 0.45 -0.80 0.60 -3.90 0.60 l-4.20 0 -2 -5.75 -2 -5.75 -8.55 0 -8.55 0 -1.65 4.65 c-0.85 2.50 -1.70 5.10 -1.85 5.75 -0.25 1 -0.55 1.10 -4.20 1.10 -2.20 0 -3.95 -0.15 -3.95 -0.30z m26.25 -18.30 c-0.55 -1.80 -5.80 -16.65 -5.95 -16.80 -0.10 -0.05 -1.45 3.65 -3.05 8.25 -1.60 4.65 -3 8.70 -3.15 9.05 -0.15 0.45 1.25 0.60 6.15 0.60 l6.30 0 -0.30 -1.10z"/>
  <path d="M101 88.90 l0 -21.65 12.30 0.10 c7.70 0.05 13 0.35 14.15 0.70 4.45 1.40 7.05 5 7.05 9.60 0 3.55 -1.05 5.95 -3.45 7.90 l-2 1.60 2.10 1.05 c4.90 2.45 6.85 10.10 4 15.60 -1.15 2.25 -4.35 4.90 -7.05 5.75 -1.15 0.40 -6.50 0.70 -14.45 0.80 l-12.65 0.25 0 -21.70z m24.45 14.45 c1.70 -0.85 3.05 -2.80 3.35 -4.95 0.45 -2.60 -1.30 -6.15 -3.40 -6.85 -0.85 -0.30 -5 -0.55 -9.20 -0.55 l-7.70 0 0 6.50 0 6.50 7.90 0 c5.25 0 8.25 -0.20 9.05 -0.65z m-1 -19.25 c2.40 -1.75 3.25 -5.05 2 -7.75 -1.05 -2.25 -2.20 -2.60 -10.30 -2.75 l-7.65 -0.20 0 5.70 c0 3.15 0.15 5.90 0.35 6.10 0.20 0.15 3.50 0.20 7.35 0.10 5.85 -0.20 7.20 -0.40 8.25 -1.20z"/>
  <path d="M148 110.25 c0 -0.30 0 -42.15 0 -42.60 0 -0.25 5.60 -0.35 12.50 -0.30 12.10 0.05 12.55 0.10 15.15 1.30 6.95 3.20 7.95 12.75 1.80 17.25 l-1.95 1.45 1.35 0.30 c2.05 0.40 5 3.60 5.95 6.45 1.60 4.85 -0.15 10.65 -4.05 13.45 -3.45 2.45 -6.65 2.95 -19.35 2.95 -6.25 0 -11.40 -0.10 -11.40 -0.25z m24.50 -7 c0.80 -0.45 1.80 -1.45 2.25 -2.25 1 -1.90 0.95 -5.95 -0.05 -7.40 -1.55 -2.25 -3.10 -2.60 -11.45 -2.60 l-7.75 0 0 6.50 0 6.50 7.75 0 c6 0 8.15 -0.20 9.25 -0.75z m-1.55 -18.75 c1.90 -1 2.60 -2.70 2.45 -5.80 -0.15 -2.45 -0.35 -3 -1.55 -3.90 -1.25 -0.95 -2.25 -1.05 -8.90 -1.20 l-7.45 -0.15 0 6 0 6.05 7.20 -0.20 c4 -0.15 7.70 -0.45 8.25 -0.80z"/>
  <path d="M194.60 88.95 l0.15 -21.65 3.50 0.10 c1.95 0 3.60 0.05 3.75 0.10 0.15 0 0.20 9.60 0.15 21.35 l-0.10 21.40 -3.80 0.15 -3.75 0.15 0.10 -21.60z"/>
  <path d="M211.50 109.90 c0 -0.30 0.30 -0.95 0.65 -1.35 0.40 -0.45 2.70 -3.70 5.10 -7.30 2.45 -3.55 5.40 -7.90 6.60 -9.60 1.20 -1.75 2.15 -3.40 2.15 -3.65 0 -0.30 -0.95 -1.85 -2.10 -3.50 -5.85 -8.10 -11.40 -16.65 -11.05 -16.95 0.20 -0.20 2.25 -0.25 4.50 -0.15 l4.10 0.15 2.05 3.35 c4.45 7.20 6.85 10.80 7.30 10.95 0.25 0.05 2.50 -2.95 4.95 -6.70 2.50 -3.75 4.75 -7.05 5.05 -7.35 0.55 -0.60 8.10 -0.80 8.30 -0.25 0.10 0.20 -2.55 4.20 -5.85 9 -3.30 4.75 -6.40 9.30 -6.90 10.15 l-0.95 1.45 4.95 7.30 c2.70 4 6.10 8.90 7.55 10.95 1.40 2 2.60 3.75 2.60 3.90 0 0.10 -2.10 0.20 -4.60 0.20 l-4.65 -0.05 -5.15 -7.95 c-2.85 -4.40 -5.35 -8 -5.50 -8 -0.20 0 -2.70 3.60 -5.60 8 l-5.25 8 -4.10 0 c-2.85 0 -4.15 -0.20 -4.15 -0.60z"/>
 </g>
</svg>