<?xml version="1.0" encoding="utf-8"?>
<!DOCTYPE svg PUBLIC "-//W3C//DTD SVG 1.0//EN" "http://www.w3.org/TR/2001/REC-SVG-20010904/DTD/svg10.dtd">
<svg version="1.0" xmlns="http://www.w3.org/2000/svg" width="1158px" height="259px" viewBox="0 0 1158 259" preserveAspectRatio="xMidYMid meet">
 <g fill="#1b30dc">
  <path d="M811.6 195.3 c-7 -2.1 -13.1 -6.6 -16.2 -12 -3.7 -6.1 -4.5 -18 -1.9 -25 2.4 -6.3 8.4 -12.6 14.8 -15.4 7.5 -3.4 22.9 -3.4 30.4 0 l5.1 2.3 -1.4 3.9 c-2 5.9 -2 5.9 -7.4 3.8 -9.4 -3.6 -20 -2.2 -25.7 3.3 -8.3 8 -6.4 22.2 3.7 27.5 3.2 1.7 5.9 2.3 10.9 2.3 10.5 0 11.1 -0.4 11.1 -6.1 l0 -4.9 -7 0 -7 0 0 -5.5 0 -5.5 11.1 0 c6.1 0 11.9 0.5 13 1 1.7 1 1.9 2.2 1.9 13.3 l0 12.3 -2.7 1.6 c-8 4.7 -23.1 6.1 -32.7 3.1z"/>
  <path d="M365.4 125.7 c-67.5 -67.9 -70.2 -70.5 -77.6 -74.1 -13.1 -6.5 -25.6 -5.7 -37.5 2.5 -3.8 2.6 -4.6 2.9 -6 1.7 -1.4 -1.1 -3.1 0.3 -13.4 11.2 l-11.9 12.5 0 -30.3 0 -30.3 5.3 -2.4 c12.2 -5.5 25.2 -5.3 37.9 0.6 5.8 2.8 13.7 10.4 94.3 91 l88 87.9 -4.6 0 -4.7 0 -69.8 -70.3z"/>
  <path d="M501.3 193.6 l-2.8 -2.4 -0.3 -25.1 -0.3 -25.1 25.1 0 25 0 0 5 0 5 -18.5 0 -18.5 0 0 6 0 6 16 0 16 0 0 5.5 0 5.5 -16 0 -16 0 0 6 0 6 18.5 0 18.5 0 0 5 0 5 -21.9 0 c-21.8 0 -22 0 -24.8 -2.4z"/>
  <path d="M570 168.5 l0 -27.5 6.1 0 c3.3 0 6.9 0.5 8.1 1.1 1.1 0.6 7.4 8.3 13.9 17.2 6.6 8.9 12.4 16.4 13 16.5 0.5 0.2 0.9 -6.7 0.9 -17.2 l0 -17.6 5.5 0 5.5 0 0 27.5 0 27.5 -4.4 0 c-2.4 0 -5.1 -0.3 -6 -0.6 -0.8 -0.3 -7.9 -9.2 -15.8 -19.7 l-14.3 -19.1 -0.3 19.7 -0.2 19.7 -6 0 -6 0 0 -27.5z"/>
  <path d="M650.5 193.5 l-2.5 -2.4 0 -25.1 0 -25 25 0 25 0 0 5 0 5 -19 0 -19 0 0 6 0 6 16 0 16 0 0 5.5 0 5.5 -16 0 -16 0 0 6 0 6 19 0 19 0 0 5 0 5 -22.5 0 -22.6 0 -2.4 -2.5z"/>
  <path d="M719 171.4 l0 -24.6 3 -2.9 3 -3 17.2 0.3 c14.4 0.2 17.9 0.6 21 2.2 6.6 3.2 9.9 11.7 7.8 19.8 -1.3 4.4 -6.7 10.8 -9.4 10.8 -0.9 0 -1.6 0.4 -1.6 0.8 0 0.5 3.1 5.4 7 11 l7 10.2 -7.3 0 -7.2 0 -6.5 -10 -6.5 -10 -7.7 0 -7.8 0 0 10 0 10 -6 0 -6 0 0 -24.6z m37.8 -8 c2.3 -1.6 3 -6.6 1.4 -9.2 -1.4 -2.1 -7.2 -3.2 -17.4 -3.2 l-9.8 0 0 7 0 7 11.8 0 c9 0 12.3 -0.4 14 -1.6z"/>
  <path d="M869 168.5 l0 -27.5 6.5 0 6.5 0 0 27.5 0 27.5 -6.5 0 -6.5 0 0 -27.5z"/>
  <path d="M902 195.7 c0 -0.2 5.4 -12.4 11.9 -27.3 l12 -26.9 4.9 -0.3 c4 -0.2 5.5 0.1 7.5 2 2.2 2 8.7 15.8 22.8 48.6 l1.8 4.2 -6.5 0 -6.5 0 -2.6 -6 -2.6 -6 -12.7 0 -12.7 0 -2.4 6 -2.4 6 -6.2 0 c-3.5 0 -6.3 -0.1 -6.3 -0.3z m38 -22.4 c0 -1.4 -7.3 -19.3 -7.9 -19.3 -0.5 0 -4.3 9 -7.7 18.3 -0.5 1.5 0.2 1.7 7.5 1.7 4.5 0 8.1 -0.3 8.1 -0.7z"/>
  <path d="M870 133.5 c0 -0.3 1.6 -2.7 3.6 -5.5 3.6 -5 3.6 -5 9.2 -5 l5.6 0 -5.4 5.5 c-4.7 4.7 -6 5.5 -9.2 5.5 -2.1 0 -3.8 -0.2 -3.8 -0.5z"/>
  <path d="M590.3 100.6 c-10.6 -2.7 -17.2 -9.2 -19.9 -19.5 -3.6 -14.2 2.5 -27.6 15.1 -33.2 9.4 -4.2 26.3 -3.4 32.9 1.4 1.9 1.4 1.9 1.6 0.2 6.1 l-1.8 4.6 -3.1 -1.7 c-2 -1 -6.3 -1.8 -11.2 -2 -6.9 -0.3 -8.5 -0.1 -11.9 1.9 -6.5 3.8 -8.1 6.8 -8.1 15.3 0 8.7 1.7 11.8 8.5 15.3 5.7 2.9 14.9 3 22.2 0.2 2.8 -1.1 5.3 -1.9 5.4 -1.7 0.5 0.5 3.4 8 3.4 8.7 0 0.4 -2.4 1.8 -5.2 3 -6.5 2.8 -19 3.5 -26.5 1.6z"/>
  <path d="M659.5 100.4 c-8.8 -2.8 -15.6 -9.2 -18.3 -17.3 -1.7 -4.7 -1.5 -15 0.3 -20.1 2.3 -6.4 6.9 -11.6 13.3 -14.7 5 -2.5 6.8 -2.8 15.2 -2.8 10.7 0 15.9 1.8 21.9 7.7 5.9 5.8 7.6 10.2 7.6 20.3 0 10.1 -1.6 14.4 -7.7 20.2 -7.4 7.1 -21.6 10.1 -32.3 6.7z m19.1 -11.3 c5.9 -2.7 8.9 -8 8.9 -15.6 -0.1 -7 -2 -11.3 -6.7 -14.7 -2.8 -1.9 -4.5 -2.3 -11 -2.3 -9.1 0 -12 1.6 -15.5 8.5 -6.3 12.3 1.7 26 15.2 26 2.8 0 6.8 -0.9 9.1 -1.9z"/>
  <path d="M817.9 100.7 c-14.7 -4.2 -21.9 -14.7 -20.7 -30.1 0.9 -11.2 7 -19.2 17.8 -23.7 2.2 -0.9 7 -1.4 13 -1.4 7.8 0 10.4 0.4 14.7 2.3 l5.1 2.4 -1.5 4.6 c-0.9 2.6 -1.7 4.8 -1.8 5 -0.1 0.1 -2.2 -0.7 -4.6 -1.8 -6.1 -2.7 -15.8 -2.7 -21.5 0.1 -13.3 6.4 -11.5 27.8 2.7 31.9 4.9 1.4 13.8 1.1 18.4 -0.6 2.2 -0.8 4.6 -1.6 5.3 -1.7 1.6 -0.2 4.7 6.7 3.9 8.7 -1.5 3.9 -21.9 6.8 -30.8 4.3z"/>
  <path d="M963 100.4 c-14.3 -3.8 -22.3 -15.6 -20.6 -30.1 0.8 -7.1 2.6 -11.2 7 -16.1 7.6 -8.4 22.8 -11.4 36.5 -7.3 3.8 1.2 7.2 2.5 7.5 3 0.3 0.5 -0.1 2.9 -1 5.4 l-1.5 4.5 -5 -1.9 c-7 -2.7 -16.2 -2.5 -21.9 0.4 -6.5 3.2 -9 7.5 -9 15.2 0 4.8 0.5 7 2.3 9.6 3.2 4.9 9.7 7.9 17.2 7.9 10 0 10.5 -0.4 10.5 -6.6 l0 -5.4 -7 0 -7 0 0 -5 0 -5 11.8 0 c7.8 0 12.2 0.4 13 1.2 0.8 0.8 1.2 5.3 1.2 13.5 l0 12.3 -3.7 1.9 c-8.2 4.1 -20.5 5.1 -30.3 2.5z"/>
  <path d="M1035.7 101 c-7.8 -2 -12.4 -5.7 -15.2 -12.2 -1.2 -2.9 -1.5 -7.9 -1.5 -23.3 l0 -19.5 5.9 0 6 0 0.3 19.5 0.3 19.5 2.7 2.7 c2.4 2.3 3.8 2.8 9.6 3.1 7.7 0.5 12.2 -1.2 14.4 -5.1 0.9 -1.5 1.4 -8.3 1.6 -20.9 l0.4 -18.8 5.4 0 5.4 0 0 20 c0 21.9 -0.5 24.4 -5.6 29.2 -1.6 1.5 -4.7 3.4 -6.9 4.4 -4.7 1.9 -17.4 2.7 -22.8 1.4z"/>
  <path d="M500.4 86.8 c3.4 -7.9 8.9 -20.3 12.1 -27.5 l5.9 -13.3 5.2 0 c3.5 0 5.8 0.6 7.2 1.8 1.6 1.3 24.2 50.6 24.2 52.7 0 0.3 -2.9 0.5 -6.3 0.5 l-6.4 0 -2.6 -6 -2.6 -6 -12.6 0 -12.6 0 -2.6 6 -2.6 6 -6.3 0 -6.3 0 6.3 -14.2z m30.5 -13 c-1.2 -2.9 -2.9 -7.2 -3.8 -9.6 -1 -2.4 -2.1 -4.4 -2.5 -4.5 -0.5 -0.1 -1.6 1.8 -2.6 4.3 -1 2.5 -2.7 6.9 -3.9 9.8 l-2.1 5.2 8.5 0 8.5 0 -2.1 -5.2z"/>
  <path d="M722 73.5 l0 -27.5 6.1 0 c3.3 0 6.9 0.5 8 1.1 1.2 0.6 7.5 8.3 14.1 17.2 6.6 8.9 12.4 16.4 12.9 16.5 0.5 0.2 0.9 -7.1 0.9 -17.2 l0 -17.6 5.5 0 5.5 0 0 27.5 0 27.5 -5.1 0 c-6.2 0 -6 0.3 -22.9 -22.8 -6.9 -9.4 -12.8 -17.1 -13.2 -17.1 -0.5 -0.1 -0.8 8.9 -0.8 19.9 l0 20 -5.5 0 -5.5 0 0 -27.5z"/>
  <path d="M867.3 100.3 c0.2 -0.5 5.7 -12.8 12.2 -27.5 l11.8 -26.8 5.1 0 c2.8 0 5.9 0.7 7 1.5 1.4 1 24.6 51.1 24.6 53.1 0 0.2 -2.9 0.4 -6.4 0.4 l-6.3 0 -2.6 -6 -2.6 -6 -12.8 0 -12.8 0 -2.4 6 -2.4 6 -6.4 0 c-3.5 0 -6.2 -0.3 -6 -0.7z m34.5 -31.4 c-2.3 -5.5 -4.4 -9.7 -4.9 -9.2 -0.6 0.7 -7.9 18.1 -7.9 19 0 0.2 3.8 0.3 8.4 0.3 l8.4 0 -4 -10.1z"/>
  <path d="M1100.4 73.5 l12.1 -27.5 5.1 0 c3.5 0 5.9 0.6 7.2 1.8 1.8 1.4 24.2 50.1 24.2 52.4 0 0.4 -2.9 0.8 -6.3 0.8 l-6.4 0 -2.4 -6 -2.4 -6 -12.8 0 -12.8 0 -2.6 6 -2.6 6 -6.2 0 -6.3 0 12.2 -27.5z m26.6 5.2 c0 -0.9 -7.3 -18.3 -7.9 -19 -0.5 -0.5 -2.6 3.7 -4.9 9.2 l-4 10.1 8.4 0 c4.6 0 8.4 -0.1 8.4 -0.3z"/>
 </g>
 <g fill="#2541df">
  <path d="M190 80 l0 -30.9 11.1 -12.3 c10.2 -11.2 18.3 -18.8 20.2 -18.8 0.4 0 0.7 13.2 0.7 29.3 l0 29.3 -15.6 17.2 c-8.5 9.5 -15.7 17.2 -16 17.2 -0.2 0 -0.4 -13.9 -0.4 -31z"/>
  <path d="M312.2 72.7 c-7.8 -7.8 -14.2 -14.8 -14.2 -15.5 0 -0.6 -0.9 -1.2 -2 -1.2 -1.1 0 -2 -0.4 -2 -1 0 -0.5 -0.7 -1 -1.5 -1 -0.9 0 -1.5 -0.9 -1.5 -2.5 0 -3.2 0.8 -3.2 6.1 0.6 4.8 3.4 29.8 27.8 33 32.2 l2 2.7 -2.8 0 c-2.3 0 -5.4 -2.6 -17.1 -14.3z"/>
  <path d="M243.5 55.1 c-0.5 -1 6.3 -6.2 9.8 -7.4 1.3 -0.5 1.7 -0.1 1.7 1.8 0 2.1 -0.5 2.5 -3 2.5 -2.3 0 -3 0.4 -3 2 0 1.5 -0.7 2 -2.4 2 -1.4 0 -2.7 -0.4 -3.1 -0.9z"/>
  <path d="M283 47.5 c0 -2.4 0.1 -2.5 3.2 -1.2 4.6 1.9 4.8 3.7 0.4 3.7 -3.2 0 -3.6 -0.3 -3.6 -2.5z"/>
 </g>
 <g fill="#0067f6">
  <path d="M392.3 194.7 c-4.8 -1.1 -5.4 -2.7 -2.6 -6.7 1 -1.4 4.6 -7 8 -12.5 l6.3 -10 -4.1 -4.1 c-3.3 -3.4 -4 -4.7 -3.7 -7.3 0.3 -3.1 0.9 -2.6 22.8 19.4 l22.5 22.5 -22.5 -0.1 c-12.4 -0.1 -24.4 -0.6 -26.7 -1.2z"/>
 </g>
 <g fill="#3154e3">
  <path d="M156 118 l0.1 -31.5 13.6 -15 c7.4 -8.2 15.8 -17.4 18.4 -20.3 l4.9 -5.4 0 31.4 0 31.4 -17.6 19.4 c-9.7 10.7 -18 19.9 -18.5 20.5 -0.5 0.5 -0.9 -11.5 -0.9 -30.5z"/>
  <path d="M247.3 51.5 c3.6 -3.2 4.7 -3.1 4.7 0 0 2.2 -0.4 2.5 -3.7 2.5 l-3.8 -0.1 2.8 -2.4z"/>
  <path d="M253.2 48.8 c0.3 -0.7 1.9 -1.8 3.6 -2.5 3.1 -1.3 3.2 -1.2 3.2 1.2 0 2.2 -0.4 2.5 -3.6 2.5 -2.3 0 -3.4 -0.4 -3.2 -1.2z"/>
  <path d="M278.3 48.3 c-1.5 -0.3 -2.3 -1.2 -2.3 -2.5 0 -1.8 0.4 -1.9 3.7 -1.3 4.5 0.8 7.3 2.2 7.3 3.5 0 1 -4.4 1.1 -8.7 0.3z"/>
 </g>
 <g fill="#0c75f3">
  <path d="M381.6 190.3 c-3.7 -2 -7 -4.2 -7.3 -4.9 -0.2 -0.6 2.6 -5.8 6.4 -11.5 3.7 -5.7 7.9 -12.5 9.3 -15.1 l2.5 -4.8 -6.3 -6.3 c-5.3 -5.3 -6.2 -6.8 -6.1 -9.7 0 -3.5 0.1 -3.4 14.4 11.5 l14.4 14.9 -3.1 5.6 c-5.7 10.3 -15 24 -16.2 24 -0.6 0 -4.2 -1.7 -8 -3.7z"/>
 </g>
 <g fill="#385fe5">
  <path d="M425.5 181 c-8.2 -8.2 -14.7 -15 -14.5 -15 0.3 0 7.3 6.8 15.5 15 8.2 8.3 14.7 15 14.5 15 -0.3 0 -7.3 -6.7 -15.5 -15z"/>
  <path d="M140 135.5 l0 -31.1 7.1 -7.9 c3.9 -4.4 8.1 -9.1 9.5 -10.5 l2.4 -2.5 0 31.5 -0.1 31.5 -9.4 10 -9.4 10 -0.1 -31z"/>
  <path d="M244.1 55.6 c-0.9 -1.1 -0.6 -1.7 1.4 -3 2.5 -1.6 2.5 -1.6 2.5 1.4 0 3.2 -1.9 4 -3.9 1.6z"/>
  <path d="M256 48 c0 -1.3 2.8 -2.7 7.3 -3.5 3.3 -0.6 3.7 -0.5 3.7 1.3 0 1.4 -0.9 2.1 -3.1 2.6 -4.6 0.9 -7.9 0.7 -7.9 -0.4z"/>
 </g>
 <g fill="#3e6ae7">
  <path d="M121 156.3 l0 -31.2 10.8 -11.7 10.7 -11.8 0.3 30.9 0.2 30.8 -2.4 3.1 c-1.4 1.7 -6.3 7.2 -11 12.1 l-8.5 9 -0.1 -31.2z"/>
  <path d="M295 53.9 l0 -3 3 2.1 c4.4 3.1 4.5 4 0.6 4 -3.3 0 -3.6 -0.2 -3.6 -3.1z"/>
 </g>
 <g fill="#1c87ef">
  <path d="M366.9 178.4 l-8.7 -8.7 5.3 -8.1 c3 -4.5 7.2 -11.6 9.4 -15.7 l4.1 -7.5 -7.5 -7.4 c-6.5 -6.4 -7.5 -7.9 -7.5 -10.9 l0 -3.5 3.1 3 c1.7 1.6 9.7 9.9 17.9 18.4 l14.8 15.5 -5.3 9.1 c-6.4 11.1 -15.3 24.4 -16.3 24.4 -0.4 0 -4.6 -3.9 -9.3 -8.6z"/>
  <path d="M279 47 c0 -2.1 1 -2.4 4.8 -1.4 3.6 1 2.7 3.4 -1.3 3.4 -2.8 0 -3.5 -0.4 -3.5 -2z"/>
  <path d="M261 46.6 c0 -1.3 2.8 -2.6 5.8 -2.6 0.6 0 1.2 0.9 1.2 2 0 1.6 -0.7 2 -3.5 2 -2.3 0 -3.5 -0.5 -3.5 -1.4z"/>
 </g>
 <g fill="#4678ea">
  <path d="M92 188.1 l0 -30.9 16 -17.6 16 -17.6 0 31.3 0 31.4 -15.6 17.1 c-8.5 9.5 -15.7 17.2 -16 17.2 -0.2 0 -0.4 -13.9 -0.4 -30.9z"/>
  <path d="M244.8 56.3 c-1.6 -1.8 -1.5 -2 3 -5 2.6 -1.8 5.9 -3.7 7.5 -4.2 2.5 -1 2.7 -0.9 2.7 1.4 0 1.8 -0.5 2.5 -2 2.5 -1.1 0 -2 0.5 -2 1 0 0.6 -1.5 1 -3.4 1 -3 0 -3.5 0.4 -3.8 2.6 -0.3 2.6 -0.3 2.6 -2 0.7z"/>
  <path d="M287.3 51.8 c-1.4 -0.7 -2.3 -2 -2.3 -3.4 0 -2.1 0.3 -2.3 2.7 -1.3 3.8 1.4 8.3 4.2 8.3 5.1 0 1.2 -6.1 0.8 -8.7 -0.4z"/>
  <path d="M275 46 c0 -2.1 1 -2.4 4.8 -1.4 3.6 1 2.7 3.4 -1.3 3.4 -2.8 0 -3.5 -0.4 -3.5 -2z"/>
 </g>
 <g fill="#319eea">
  <path d="M351.3 162.8 l-9.2 -9.3 4.5 -7 c2.5 -3.8 6.6 -11 9.1 -15.9 l4.5 -8.9 -9.1 -9.1 c-8 -8.1 -9.1 -9.5 -9.1 -12.6 0.1 -3.4 0.4 -3.1 20 17 l19.9 20.5 -4.8 9 c-5.3 10.1 -14.9 25.5 -16 25.5 -0.3 0 -4.8 -4.2 -9.8 -9.2z"/>
  <path d="M257 47.6 c0 -0.9 1.9 -1.8 5 -2.5 6.7 -1.4 7 -1.4 7 0.8 0 1.4 -1 2 -3.7 2.5 -6 0.9 -8.3 0.7 -8.3 -0.8z"/>
 </g>
 <g fill="#4d83ec">
  <path d="M80 201.3 l0 -30.8 7.5 -8.3 7.5 -8.3 0 31.4 0 31.4 -6.7 7.6 c-3.8 4.1 -7.1 7.6 -7.5 7.6 -0.5 0.1 -0.8 -13.7 -0.8 -30.6z"/>
  <path d="M96.4 183.5 c0 -17.6 0.2 -24.7 0.3 -15.7 0.2 9 0.2 23.4 0 32 -0.1 8.6 -0.3 1.3 -0.3 -16.3z"/>
 </g>
 <g fill="#528bee">
  <path d="M62 218.7 l0 -28.3 10.1 -11.2 c5.6 -6.2 10.3 -11.2 10.5 -11.2 0.2 0 0.4 14 0.4 31.1 l0 31 -5.1 5.5 c-4.9 5.1 -13.2 11.4 -15.1 11.4 -0.4 0 -0.8 -12.7 -0.8 -28.3z"/>
 </g>
 <g fill="#44b3e5">
  <path d="M335.7 147.2 c-4.8 -4.8 -8.7 -9 -8.7 -9.3 0 -0.3 2.3 -4.6 5.1 -9.5 5.1 -8.8 11.9 -22.8 11.9 -24.5 0 -0.5 -0.6 -0.9 -1.3 -0.9 -0.7 0 -5.4 -4.2 -10.5 -9.3 -8.5 -8.5 -9.3 -9.7 -9 -12.7 0.3 -3.3 0.6 -3 21.1 18.3 l20.8 21.5 -4.6 9.4 c-4.8 9.5 -14.5 25.8 -15.5 25.8 -0.3 0 -4.5 -3.9 -9.3 -8.8z"/>
  <path d="M297 56 c0 -2.6 0.3 -2.9 1.8 -2.1 0.9 0.5 2.6 1.9 3.6 3 1.9 2.1 1.9 2.1 -1.7 2.1 -3.4 0 -3.7 -0.2 -3.7 -3z"/>
  <path d="M254 49 c0 -1.2 3.3 -3 5.4 -3 0.9 0 1.6 0.9 1.6 2 0 1.6 -0.7 2 -3.5 2 -1.9 0 -3.5 -0.4 -3.5 -1z"/>
 </g>
 <g fill="#5997f0">
  <path d="M37 235.1 l0 -17.3 13.8 -15 13.7 -15.1 0.3 28.9 c0.3 32.7 0.9 30.2 -8.1 32.9 -2.6 0.8 -8.2 1.7 -12.3 2.1 l-7.4 0.7 0 -17.2z"/>
  <path d="M296 56.5 c0 -0.8 -0.9 -1.5 -2 -1.5 -1.5 0 -2 -0.7 -2 -2.5 0 -1.4 0.4 -2.5 0.9 -2.5 0.8 0 5 3.1 8.5 6.2 1.9 1.8 1.9 1.8 -1.7 1.8 -2.6 0 -3.7 -0.4 -3.7 -1.5z"/>
  <path d="M244.5 54 c0.8 -1.2 7.1 -5.3 9.8 -6.3 1.3 -0.5 1.7 -0.1 1.7 1.8 0 2 -0.5 2.5 -2.5 2.5 -1.6 0 -2.5 0.6 -2.5 1.5 0 1.1 -1.1 1.5 -3.6 1.5 -2.2 0 -3.3 -0.4 -2.9 -1z"/>
  <path d="M282 48 c0 -2.2 2 -2.6 5.1 -1 3 1.6 2.3 3 -1.6 3 -2.8 0 -3.5 -0.4 -3.5 -2z"/>
  <path d="M274 46 c0 -2.1 1 -2.4 4.8 -1.4 3.6 1 2.7 3.4 -1.3 3.4 -2.8 0 -3.5 -0.4 -3.5 -2z"/>
 </g>
 <g fill="#61a6f3">
  <path d="M7 251.4 c0 -0.4 20.5 -23.3 31.6 -35.4 1.2 -1.2 1.4 1.5 1.4 17.3 l0 18.7 -16.5 0 c-9.1 0 -16.5 -0.2 -16.5 -0.6z"/>
 </g>
 <g fill="#57c8e0">
  <path d="M320.8 132.2 l-8.6 -8.7 2 -3 c3.2 -5 10.3 -19.5 13.3 -27.3 l2.9 -7.3 8.8 8.8 c7.6 7.6 8.8 9.2 8.3 11.3 -0.8 3.3 -10.7 23.1 -14.8 29.7 l-3.3 5.3 -8.6 -8.8z"/>
  <path d="M313.2 74.7 c-8 -8.1 -9.2 -9.7 -9.2 -12.7 l0 -3.5 10.1 10 c5.5 5.5 10.9 11.2 12 12.8 l2 2.7 -2.8 0 c-2.3 0 -4.8 -1.9 -12.1 -9.3z"/>
  <path d="M244 55 c0 -1 6.9 -6 8.2 -6 0.5 0 0.8 1.1 0.8 2.5 0 1.6 -0.6 2.5 -1.5 2.5 -0.8 0 -1.5 0.5 -1.5 1 0 0.6 -1.3 1 -3 1 -1.6 0 -3 -0.4 -3 -1z"/>
  <path d="M290 52.5 c0 -1 -1 -1.5 -3 -1.5 -1.6 0 -3 -0.4 -3 -0.9 0 -0.5 -2.7 -1.2 -6 -1.6 -5 -0.6 -6 -1 -6 -2.6 0 -2.3 1.7 -2.4 9.5 -0.4 6.2 1.6 15.5 6.2 15.5 7.7 0 0.4 -1.6 0.8 -3.5 0.8 -2.4 0 -3.5 -0.5 -3.5 -1.5z"/>
  <path d="M263 46.6 c0 -0.7 1 -1.6 2.3 -2 4.1 -1.1 5.7 -0.7 5.7 1.4 0 1.7 -0.7 2 -4 2 -2.7 0 -4 -0.4 -4 -1.4z"/>
 </g>
 <g fill="#69dbdc">
  <path d="M306.2 117.7 l-8.4 -8.4 4.6 -9.1 c2.5 -4.9 6.2 -13.8 8.2 -19.7 l3.7 -10.7 9.5 9.6 9.6 9.5 -3.7 9.3 c-4.1 10.2 -12.8 27 -14.3 27.5 -0.5 0.2 -4.7 -3.5 -9.2 -8z"/>
  <path d="M300.7 62.2 c-1.5 -1.5 -2.7 -3.6 -2.7 -4.5 0 -1.1 -0.8 -1.7 -2.5 -1.7 -2 0 -2.5 -0.5 -2.5 -2.5 0 -1.4 0.4 -2.5 0.9 -2.5 1.5 0 11.6 8.6 13.5 11.4 1.6 2.6 1.6 2.6 -1.2 2.6 -1.8 0 -3.8 -1 -5.5 -2.8z"/>
  <path d="M258 47.6 c0 -1.3 2.8 -2.6 5.8 -2.6 0.6 0 1.2 0.9 1.2 2 0 1.6 -0.7 2 -3.5 2 -2.3 0 -3.5 -0.5 -3.5 -1.4z"/>
 </g>
 <g fill="#7cf1d7">
  <path d="M292.2 103.7 l-8.2 -8.2 4.4 -10.5 c2.5 -5.8 5.6 -14.3 6.9 -19 2.4 -8.2 2.4 -8.5 0.6 -8.8 -1.1 -0.2 -1.9 -1.2 -1.9 -2.3 0 -1.4 -0.7 -1.9 -2.9 -1.9 -1.6 0 -3.6 -0.6 -4.3 -1.4 -0.8 -0.8 -4.7 -2 -8.6 -2.7 -5.9 -1.1 -7.2 -1.7 -7.2 -3.2 0 -1.6 0.6 -1.7 4.8 -1.1 12.4 1.7 19.3 5.8 32.6 19.2 l8.9 9 -3.7 10.7 c-3 8.9 -11.9 28.5 -12.9 28.5 -0.1 0 -3.9 -3.7 -8.5 -8.3z"/>
  <path d="M244.4 55.9 c-0.8 -1.4 2.4 -4 9 -7.4 5.9 -3 8.6 -3.2 8.6 -0.7 0 1.9 -6.9 5.2 -10.8 5.2 -1.5 0 -2.2 0.6 -2.2 2 0 2.2 -3.4 2.8 -4.6 0.9z"/>
 </g>
 <g fill="#89ffd4">
  <path d="M265 76.5 c-24.3 -24.3 -23.3 -21.8 -11.5 -27.6 8.4 -4 15.9 -5.3 23.7 -3.9 7 1.2 16.7 5.5 21.3 9.3 l3 2.5 -2.2 8.6 c-2.2 8.6 -9.6 28.3 -11.7 31.1 -0.9 1.3 -4.7 -2.1 -22.6 -20z"/>
 </g>
</svg>