<?xml version="1.0" encoding="utf-8"?>
<!DOCTYPE svg PUBLIC "-//W3C//DTD SVG 1.0//EN" "http://www.w3.org/TR/2001/REC-SVG-20010904/DTD/svg10.dtd">
<svg version="1.0" xmlns="http://www.w3.org/2000/svg" width="694px" height="210px" viewBox="0 0 694 210" preserveAspectRatio="xMidYMid meet">
 <g fill="#9f9f9f" stroke="#9f9f9f" stroke-width="1">
  <path d="M293.6 124 c-12.4 -3.7 -15.8 -23.2 -5.7 -32.3 5.1 -4.6 10.4 -5.5 16.3 -2.9 4.8 2.1 6.2 3.5 7.7 7.5 0.8 2.1 0.8 2.7 -0.3 2.7 -0.8 0 -1.7 -1.1 -2 -2.5 -0.9 -3.6 -6.1 -6.5 -11.8 -6.5 -9.6 0 -15.5 9.7 -12.8 21 1.7 7.1 6.3 11 13.1 11 4.5 0 5.5 -0.4 8.5 -3.4 1.9 -1.9 3.4 -4.1 3.4 -5 0 -0.9 0.7 -1.6 1.5 -1.6 1.2 0 1.3 0.5 0.4 2.8 -1.4 3.7 -4.8 7.2 -8.6 8.8 -3.6 1.6 -5.5 1.6 -9.7 0.4z"/>
  <path d="M332.6 124 c-9.3 -2.8 -14.3 -16.4 -9.7 -26.5 3.9 -8.7 12.3 -12.3 20.4 -8.7 13.6 6 13.8 28.1 0.3 34.3 -4.5 2 -6.6 2.2 -11 0.9z m12 -3.9 c4 -2.5 6.4 -7.7 6.4 -14.1 0 -10.1 -5.2 -16 -14.1 -16 -8.1 0 -13.2 6.2 -13.2 16 0 6.2 1.9 10.8 5.9 13.9 3.5 2.7 10.7 2.8 15 0.2z"/>
  <path d="M368 123.7 c-3.1 -1.1 -8 -6.5 -8 -8.8 0 -2 2.8 -0.7 3.4 1.6 0.8 3.2 5.4 5.5 11.1 5.5 7.2 0 10.5 -2.2 10.5 -7.2 0 -3.7 -3.6 -6.2 -11.7 -8.2 -8.4 -2.1 -11.3 -4.6 -11.3 -9.7 0 -4.5 4 -8.4 9.6 -9.5 5 -0.9 12 1.9 14 5.8 2.3 4.4 1 4.6 -2.9 0.4 -3.1 -3.2 -4 -3.6 -8.4 -3.6 -11.2 0 -14.5 10.3 -4.3 13 2.2 0.5 5.9 1.5 8.1 2.1 11.7 3 12.2 15.7 0.8 18.9 -4.3 1.3 -6.5 1.2 -10.9 -0.3z"/>
  <path d="M471.6 124 c-9.3 -2.8 -14.3 -16.4 -9.7 -26.5 3.9 -8.7 12.3 -12.3 20.4 -8.7 13.6 6 13.8 28.1 0.3 34.3 -4.5 2 -6.6 2.2 -11 0.9z m12 -3.9 c4 -2.5 6.4 -7.7 6.4 -14.1 0 -10.1 -5.2 -16 -14.1 -16 -8.1 0 -13.2 6.2 -13.2 16 0 6.2 1.9 10.8 5.9 13.9 3.5 2.7 10.7 2.8 15 0.2z"/>
  <path d="M531 123.9 c-4.5 -1.8 -6 -3.9 -6 -8.5 0 -7 5.3 -10.3 19.3 -11.9 5.2 -0.7 5.7 -0.9 5.7 -3.2 0 -3.2 -2.5 -8 -4.9 -9.3 -1.1 -0.5 -4 -1 -6.6 -1 -4.7 0 -7.3 1.7 -10.1 6.6 -1.9 3.1 -2.7 0.9 -1 -2.5 4.6 -8.9 18.8 -8.9 23.3 0 1.6 3 1.8 29.9 0.3 29.9 -0.5 0 -1 -1.7 -1 -3.7 l0 -3.8 -2.3 2.7 c-3.9 4.8 -11.2 6.9 -16.7 4.7z m13 -3.4 c3.7 -1.9 6 -6.2 6 -11.1 l0 -3.7 -7.4 0.6 c-4 0.3 -8.8 1.2 -10.5 2.1 -5.3 2.8 -6.7 8 -3.1 11.6 2.5 2.5 10.7 2.7 15 0.5z"/>
  <path d="M571.5 123.6 c-6 -2.6 -9.5 -9.3 -9.5 -17.8 0.1 -15.9 14.5 -24.2 24.6 -14.1 l3.4 3.4 0 -10.6 c0 -8.7 0.3 -10.5 1.5 -10.5 1.3 0 1.5 3.4 1.5 25 0 14.4 -0.4 25 -0.9 25 -1.4 0 -2.4 -7.3 -2.5 -17.8 l-0.1 -9.4 -3.7 -3.4 c-3 -2.7 -4.6 -3.4 -7.8 -3.4 -8.6 0 -13.3 5.7 -13.3 16 0 10.3 4.7 16 13.2 16 3.1 0 4.9 -0.7 7.6 -3.1 3.6 -3.2 4.2 -3.2 2.4 0.3 -1.2 2.2 -8.3 5.8 -11.4 5.7 -1.1 0 -3.3 -0.6 -5 -1.3z"/>
  <path d="M614.6 124 c-9.3 -2.8 -14.3 -16.4 -9.7 -26.5 3.9 -8.7 12.3 -12.3 20.4 -8.7 13.6 6 13.8 28.1 0.3 34.3 -4.5 2 -6.6 2.2 -11 0.9z m12 -3.9 c4 -2.5 6.4 -7.7 6.4 -14.1 0 -10.1 -5.2 -16 -14.1 -16 -8.1 0 -13.2 6.2 -13.2 16 0 6.2 1.9 10.8 5.9 13.9 3.5 2.7 10.7 2.8 15 0.2z"/>
  <path d="M651 123.7 c-3.1 -1.1 -8 -6.5 -8 -8.8 0 -2 2.8 -0.7 3.4 1.6 0.8 3.2 5.4 5.5 11.1 5.5 7.2 0 10.5 -2.2 10.5 -7.2 0 -3.7 -3.6 -6.2 -11.7 -8.2 -8.4 -2.1 -11.3 -4.6 -11.3 -9.7 0 -4.5 4 -8.4 9.6 -9.5 5 -0.9 12 1.9 14 5.8 2.3 4.4 1 4.6 -2.9 0.4 -3.1 -3.2 -4 -3.6 -8.4 -3.6 -11.2 0 -14.5 10.3 -4.3 13 2.2 0.5 5.9 1.5 8.1 2.1 11.7 3 12.2 15.7 0.8 18.9 -4.3 1.3 -6.5 1.2 -10.9 -0.3z"/>
  <path d="M213.4 122.4 c0.3 -1.1 4.4 -11.8 9 -23.9 6.4 -16.8 8.7 -22 10 -22 1.4 0 3.8 5.5 10.7 23.5 4.9 12.9 8.9 23.6 8.9 23.8 0 0.1 -0.6 0.2 -1.3 0.2 -0.7 0 -2.4 -2.9 -3.6 -6.5 l-2.3 -6.6 -12.6 0.3 -12.5 0.3 -2.2 6 c-1.2 3.2 -2.8 6.1 -3.5 6.3 -0.8 0.3 -1 -0.2 -0.6 -1.4z m29.6 -15.4 c0 -1.1 -8.7 -24.7 -10 -26.9 -0.9 -1.7 -1 -1.4 -4.5 7.9 -0.7 1.9 -2.7 7.2 -4.4 11.8 l-3 8.2 10.9 0 c6.3 0 11 -0.4 11 -1z"/>
  <path d="M261 106 c0 -11.3 0.4 -18 1 -18 0.6 0 1 0.9 1 1.9 0 4.6 1.1 5 4.3 1.5 3.6 -3.9 9.7 -5.8 9.7 -3 0 1.1 -0.9 1.6 -2.8 1.6 -1.5 0 -3.8 0.7 -5 1.6 -4.3 3 -5.2 6.4 -5.2 19.9 0 10.4 -0.2 12.5 -1.5 12.5 -1.3 0 -1.5 -2.7 -1.5 -18z"/>
  <path d="M413 100 l0 -24.3 10.8 0.5 c8.6 0.3 11.8 0.9 15.6 2.7 16.3 7.9 16.3 34.3 0 42.2 -3.8 1.8 -7 2.4 -15.6 2.7 l-10.8 0.5 0 -24.3z m23.5 19.7 c8.4 -3.3 12 -9.2 12 -19.7 -0.1 -9.1 -2.6 -14.6 -8.2 -18.1 -3.2 -2 -5.5 -2.4 -14 -2.7 l-10.3 -0.4 0 21.1 0 21.1 8.8 -0.1 c4.8 0 10.1 -0.6 11.7 -1.2z"/>
  <path d="M503 106 c0 -11.3 0.4 -18 1 -18 0.6 0 1 0.9 1 1.9 0 4.6 1.1 5 4.3 1.5 3.6 -3.9 9.7 -5.8 9.7 -3 0 1.1 -0.9 1.6 -2.8 1.6 -1.5 0 -3.8 0.7 -5 1.6 -4.3 3 -5.2 6.4 -5.2 19.9 0 10.4 -0.2 12.5 -1.5 12.5 -1.3 0 -1.5 -2.7 -1.5 -18z"/>
 </g>
 <g fill="#9f9f9f" stroke="#9f9f9f" stroke-width="1">
  <path d="M80 184.5 c-22.8 -4.6 -40.8 -18.5 -51.5 -39.7 -6.1 -12.2 -7.9 -21 -7.2 -36.2 0.3 -8.5 1.2 -14.3 2.8 -19.3 2.8 -9.2 4.1 -9.6 1.8 -0.5 -2.3 8.5 -2.4 23.1 -0.3 32.5 5.2 23.7 24 44.9 47.1 53.1 26.8 9.5 57.9 1.8 77.5 -19.2 4.5 -4.8 12.8 -16.6 12.8 -18.2 0 -1.6 3.1 -8.2 3.6 -7.7 1 1 -5.6 15.9 -10.2 23 -16.4 25.3 -46.9 38.2 -76.4 32.2z"/>
  <path d="M171.9 148.5 c19.3 -32.5 0.7 -76.3 -36.1 -85 -19.9 -4.7 -40.3 1 -54.5 15 -8.2 8.2 -8 6.6 0.3 -2.4 11.7 -12.6 26.1 -19.1 42.6 -19.1 16.9 0 30.4 5.5 42.4 17.5 15.6 15.4 21.1 38.4 13.9 58.8 -2.4 7.1 -6 13.7 -9.4 17.7 -1.4 1.6 -1 0.6 0.8 -2.5z"/>
  <path d="M70.5 136.8 c1 -11 4.3 -26.3 7.1 -33.2 7.9 -19.5 17 -20 24 -1.3 l1.7 4.9 4.1 -8.4 c5 -10.1 7.8 -12 12.9 -9.1 6.9 4 14.4 25.5 16.3 46.6 l0.6 7.7 -4.1 0 -4.1 0 0 -5.3 c0 -17 -6.3 -43.3 -11.1 -46.3 -4.4 -2.7 -9.8 20.7 -9.9 42.4 l0 6.2 -4.5 0 -4.5 0 0 -6.7 c-0.1 -16.3 -3.6 -36.4 -7.1 -40.6 l-1.9 -2.2 -2 2.3 c-2.2 2.7 -6.2 14.7 -7.9 23.5 -0.6 3.1 -1.3 10.5 -1.7 16.2 l-0.7 10.5 -3.9 0 -4 0 0.7 -7.2z"/>
  <path d="M50.2 135.3 c-9.1 -14.2 -12.6 -26.8 -11.9 -43.3 0.3 -9.8 0.9 -12.8 3.5 -19.9 3.9 -10.4 9.4 -19 17.1 -26.6 15 -14.8 31.6 -21.2 52.6 -20.2 15.8 0.8 26.6 4.6 39.4 14.3 6 4.5 19.7 20.2 18.6 21.3 -0.3 0.3 -1.3 -0.6 -2.2 -2 -6.2 -8.8 -19.3 -18.9 -30 -22.9 -18.7 -7.1 -38.5 -6.1 -56.8 3 -23.5 11.6 -37.5 34.2 -37.7 61 -0.2 14.1 2.7 25.2 9 35.3 1.3 2.2 2.1 4.1 1.9 4.3 -0.2 0.3 -1.8 -1.7 -3.5 -4.3z"/>
 </g>
</svg>