<?xml version="1.0" encoding="utf-8"?>
<!DOCTYPE svg PUBLIC "-//W3C//DTD SVG 1.0//EN" "http://www.w3.org/TR/2001/REC-SVG-20010904/DTD/svg10.dtd">
<svg version="1.0" xmlns="http://www.w3.org/2000/svg" width="418px" height="418px" viewBox="0 0 418 418" preserveAspectRatio="xMidYMid meet">
 <g fill="#9f9f9f" stroke="#9f9f9f" stroke-width="1">
  <path d="M245 221.9 c-9.6 -4.3 -15.3 -12.6 -15.4 -22.4 0 -7.8 1.7 -12.5 6.3 -17.2 5.3 -5.6 10.4 -7.7 18.1 -7.8 6.1 0 15 2.6 15 4.5 0 0.3 -1.2 1.8 -2.8 3.3 -2 1.9 -3.1 2.4 -4.2 1.7 -0.8 -0.5 -3.8 -1 -6.5 -1 -10.4 0 -17 6.9 -16.2 17.1 0.6 6.5 2.5 10 7.2 12.9 3.6 2.2 12.2 2.7 15.7 0.9 1.7 -0.9 2.5 -0.6 5.1 2 l3.1 3 -5.5 2.5 c-6.7 3.2 -13.6 3.3 -19.9 0.5z"/>
  <path d="M289.5 222.4 c-8.3 -2.9 -15.3 -11.4 -17 -20.6 -1 -5.4 1.9 -14.1 6.2 -18.9 5.7 -6.3 10.5 -8.4 19.3 -8.4 10.8 0 17.7 4.2 22.6 13.5 2.6 4.9 2.6 16.2 0 21.3 -5.7 11.6 -19.4 17.3 -31.1 13.1z m16.6 -9.7 c5.1 -3.4 7.9 -8.2 7.9 -13.6 0 -9.6 -6.4 -16.1 -15.7 -16.1 -8.4 0 -13.9 3.8 -16.3 11.3 -1.5 4.7 -0.7 9 2.4 13.8 4.6 6.9 15 9.1 21.7 4.6z"/>
  <path d="M81 198.6 l0 -24.4 11.8 0.4 c14.3 0.5 16 0.8 19.5 4.2 3.9 3.7 5.2 9.1 3.2 13.8 -1.4 3.5 -1.4 3.9 0.4 5.8 4.8 5.3 5.5 12.2 1.8 17.7 -3.9 5.9 -7.3 6.9 -22.9 6.9 l-13.8 0 0 -24.4z m27.4 16.4 c3.7 -1.4 5.2 -5.1 3.6 -8.9 -1.6 -3.9 -4.6 -4.8 -14.5 -4.6 l-8 0.2 -0.3 5.8 c-0.2 3.2 -0.1 6.4 0.2 7.1 0.6 1.7 15 2 19 0.4z m-1.4 -23 c2.6 -2.6 2.5 -5.5 0 -8 -1.8 -1.8 -3.1 -2 -9.8 -1.8 l-7.7 0.3 -0.3 5.8 -0.3 5.7 8.1 0 c6.7 0 8.3 -0.3 10 -2z"/>
  <path d="M125.3 220.8 c0.8 -1.3 6.5 -12.2 12.7 -24.3 6.2 -12.1 11.4 -22.2 11.7 -22.5 0.6 -0.7 1.4 0.9 12.6 24 13.3 27.7 12.6 25 7.2 25 -4.4 0 -4.6 -0.2 -6.7 -4.5 -1.5 -3.1 -2.8 -4.5 -4.2 -4.5 -7.9 -0.2 -19.8 -0.1 -20.1 0.2 -0.1 0.2 -1.2 2.2 -2.4 4.6 -2.1 4.1 -2.3 4.2 -7.1 4.2 -5 0 -5 0 -3.7 -2.2z m30.2 -15.7 c0.6 -1 -4.5 -12.1 -5.5 -12.1 -1 0 -7 11.7 -6.3 12.3 1 1.1 11.1 0.8 11.8 -0.2z"/>
  <path d="M181 198.5 c0 -23.1 0.1 -24.5 1.8 -23.6 0.9 0.5 7.5 6.8 14.7 14 7.1 7.2 13.3 13.1 13.7 13.1 0.5 0 0.8 -6.2 0.8 -13.8 0 -13.8 0 -13.9 2.3 -13.6 1.2 0.1 3.2 0.3 4.5 0.3 l2.2 0.1 0 24 c0 13.2 -0.4 24 -0.8 24 -0.4 0 -7.3 -6.6 -15.3 -14.6 l-14.4 -14.6 -0.3 14.6 -0.3 14.6 -4.4 0 -4.5 0 0 -24.5z"/>
  <path d="M331.2 198.8 l0.3 -24.2 13.7 0 13.6 -0.1 3.9 3.1 c7.7 6.2 8.1 14.8 1.2 21.8 l-4 3.9 2.2 5.1 c1.2 2.8 3.2 7.2 4.5 9.9 l2.4 4.7 -4.5 0 -4.6 0 -4.4 -9.6 -4.5 -9.5 -5.7 0.3 -5.8 0.3 0 9.2 0 9.3 -4.3 0 -4.2 0 0.2 -24.2z m27.3 -5.3 c3 -2.9 3.2 -5.5 0.7 -8.6 -1.6 -1.9 -3.1 -2.3 -10.5 -2.7 l-8.5 -0.4 -0.4 6.7 c-0.1 3.7 -0.1 6.9 0.1 7.1 0.2 0.2 4 0.4 8.3 0.4 7 0 8.2 -0.3 10.3 -2.5z"/>
 </g>
 <g fill="#9f9f9f" stroke="#9f9f9f" stroke-width="1">
  <path d="M49.6 260.4 c-0.3 -0.9 -0.6 -20.5 -0.6 -43.6 0 -39.6 -0.1 -42 -1.8 -41.4 -1.3 0.5 -1.1 0.1 0.6 -1.6 2.1 -2.1 2.4 -2.1 3.2 -0.7 0.7 1.2 1.9 1.6 4.3 1.2 1.8 -0.2 4.5 0 5.9 0.6 l2.6 1 0.1 43 0.2 43.1 -7 0 c-5.4 0 -7 -0.3 -7.5 -1.6z"/>
 </g>
</svg>