<?xml version="1.0" encoding="utf-8"?>
<!DOCTYPE svg PUBLIC "-//W3C//DTD SVG 1.0//EN" "http://www.w3.org/TR/2001/REC-SVG-20010904/DTD/svg10.dtd">
<svg version="1.0" xmlns="http://www.w3.org/2000/svg" width="1920px" height="1080px" viewBox="0 0 1920 1080" preserveAspectRatio="xMidYMid meet">
 <g fill="#9f9f9f" stroke="#9f9f9f" stroke-width="1">
  <path d="M279.6 741.8 c-1.4 -2 -1.6 -18.9 -1.6 -176.4 l0 -174.3 2.7 -2.1 2.7 -2.1 97.6 0.4 c94.5 0.3 97.8 0.4 106.5 2.4 29.7 6.9 50.9 20.8 64.1 41.9 10.1 16.2 13.9 31.6 13.1 52.9 -0.6 14.9 -2.2 22.7 -7.2 34 -5.2 11.7 -16.9 25.3 -26.6 30.8 -2.1 1.2 -3.9 2.4 -3.9 2.7 0 0.3 2.1 1.3 4.6 2.4 2.5 1 7.8 4 11.8 6.6 27.8 18.1 41.4 50.2 37.6 88.7 -2.1 21.4 -8.4 39.8 -17.8 52.5 -4.8 6.4 -15 16.2 -21.5 20.7 -7.4 5 -22.2 11.7 -32.2 14.5 -21.6 6.1 -16.9 5.9 -127.2 6.3 l-101.1 0.4 -1.6 -2.3z m197.6 -51.2 c23.4 -4.2 35.7 -13.1 42 -30.1 1.9 -5.2 2.2 -8 2.3 -21.5 0 -18 -1.2 -23.3 -7.5 -32.8 -6.8 -10.1 -18.6 -16.6 -36.2 -19.9 -8.3 -1.6 -16.5 -1.8 -73.1 -1.8 l-63.9 0 -1.9 2.4 c-1.8 2.2 -1.9 4.6 -1.9 51.5 0 42.9 0.2 49.4 1.6 51.4 l1.5 2.2 64.7 0 c50.5 -0.1 66.4 -0.4 72.4 -1.4z m-1 -162.2 c4.7 -1.7 10.9 -4.7 13.6 -6.7 10.2 -7.5 16.2 -20.7 16.2 -35.7 0 -18.8 -7.7 -32.3 -22.9 -40 -12.6 -6.3 -12.5 -6.3 -79.8 -6.7 l-61.3 -0.4 -2.5 2.5 -2.5 2.5 0 42.1 c0 41 0.1 42.1 2 44 2.1 2.1 2.8 2.1 65.3 1.8 l63.2 -0.3 8.7 -3.1z"/>
  <path d="M640.4 741.9 c-1.9 -2.1 -1.9 -5.5 -2.2 -174.5 -0.3 -190.6 -0.6 -178.7 6 -179.9 1.8 -0.3 46.3 -0.5 98.8 -0.3 83.9 0.4 96.4 0.6 103 2 23.1 5.1 38.8 12.9 52.9 26.2 11.8 11.3 19.8 24.8 24.3 41.1 3.1 11.5 3.1 36.3 0 48 -4.8 17.5 -15.4 33.5 -28.2 42.2 -3.8 2.7 -6.9 5.1 -7 5.4 0 0.4 1.9 1.4 4.3 2.3 12.1 4.6 29.4 19.7 37.1 32.4 4.6 7.7 9 19.4 11.2 30.3 1.3 6.7 1.6 11.6 1.1 25.3 -0.3 9.4 -1.3 20 -2.1 23.6 -9.5 41.6 -37.1 66 -85.1 75.2 -10.7 2.1 -13.9 2.2 -111.6 2.5 l-100.5 0.4 -2 -2.2z m202.1 -52.3 c14.1 -3 21.7 -6.8 28.8 -14.5 8.7 -9.3 11.9 -20.2 11.3 -39.1 -0.5 -17.8 -3.2 -25.6 -12 -34.8 -8.4 -8.8 -22.8 -14.2 -43 -16.2 -6.1 -0.5 -36 -1 -67.6 -1 -55.9 0 -56.8 0 -59.4 2.1 l-2.6 2 0 50.3 c0 47.4 0.1 50.4 1.8 51.9 1.7 1.5 7.6 1.7 59.3 1.9 60 0.3 71.8 -0.1 83.4 -2.6z m-13.3 -159.1 c25.5 -5.4 39.6 -23.8 37.4 -49.1 -1.5 -17.5 -9.4 -29.3 -23.8 -35.9 -13 -5.9 -12 -5.8 -78.3 -6.3 l-61.1 -0.3 -2.7 2.1 -2.7 2.1 0 42.3 c0 36.5 0.2 42.5 1.6 44.4 l1.5 2.2 60.4 0 c50.4 0 61.6 -0.3 67.7 -1.5z"/>
  <path d="M1132.3 742.8 c-1.1 -1.4 -4.1 -6.7 -12.3 -22.3 -2.9 -5.5 -8.1 -15.2 -11.5 -21.5 -3.4 -6.3 -11.6 -21.6 -18.2 -34 -6.6 -12.4 -17.3 -32.4 -23.8 -44.5 -6.4 -12.1 -13.8 -25.8 -16.2 -30.5 -6.2 -11.7 -10.3 -19.3 -22.5 -42 -5.8 -10.7 -13.3 -24.9 -16.8 -31.5 -3.4 -6.6 -7 -13.3 -8 -15 -1 -1.6 -4.1 -7.5 -7 -13 -2.9 -5.5 -6.5 -12.2 -8 -15 -1.5 -2.7 -5.1 -9.5 -8 -15 -2.9 -5.5 -11.8 -22 -19.7 -36.7 -14.8 -27.5 -16.3 -31.7 -12.4 -33.8 2.4 -1.2 59 -1.4 62.3 -0.1 1.7 0.6 6.2 8.3 17.7 30.2 8.5 16.2 16.9 32.1 18.6 35.4 1.8 3.3 6.3 11.9 10 19 3.7 7.2 8.5 16.2 10.5 20 5 9.4 17 32.3 31 59 3.5 6.6 7.7 14.7 9.5 18 1.8 3.3 7.2 13.7 12 23 11.3 21.6 13 24.3 15.9 25.1 5 1.2 5.9 0.1 19.8 -26.6 5.4 -10.3 22.5 -42.8 31.8 -60.5 5.2 -9.9 20.2 -38.5 35.8 -68 5.5 -10.4 13.5 -25.7 17.7 -34 4.3 -8.2 8.1 -15.4 8.5 -16 0.4 -0.5 3.3 -6 6.4 -12.1 4 -7.7 6.5 -11.5 8.2 -12.3 1.7 -0.7 12.2 -1.1 31.9 -1.1 27.9 0 29.6 0.1 31.4 1.9 2.2 2.2 1.8 5 -1.6 11.1 -1.1 1.9 -6.6 12.3 -12.3 23 -5.7 10.7 -14.4 27.2 -19.5 36.5 -5.1 9.4 -12 22.4 -15.5 29 -3.5 6.6 -12.5 23.5 -20 37.5 -7.5 14 -16.3 30.5 -19.5 36.5 -3.2 6.1 -8.4 15.7 -11.5 21.5 -7.8 14.4 -17.9 33.4 -36.3 68 -2.7 5.2 -5.8 10.9 -6.7 12.5 -1 1.7 -4.1 7.5 -7 13 -2.9 5.5 -6.5 12.3 -8 15 -1.5 2.8 -5.1 9.5 -8 15 -9.6 18.2 -18.2 34 -19.2 35.3 -0.6 0.6 -2.7 1.2 -4.8 1.2 -2.1 0 -4.2 -0.6 -4.7 -1.2z"/>
  <path d="M1261.2 691.4 c-3.8 -2.6 -4.1 -1.9 15.8 -38.9 2 -3.8 5.8 -10.8 8.2 -15.5 2.5 -4.7 7.9 -14.8 12 -22.5 10.3 -19.2 30.1 -56.3 35.3 -66 2.4 -4.4 7.4 -13.8 11.3 -21 13.8 -25.8 22 -41.2 28.7 -54 3.8 -7.1 7.1 -13.4 7.5 -14 0.4 -0.5 4.9 -8.9 10 -18.5 13.7 -25.8 17 -32.1 19.5 -36.5 2.3 -4.1 6.5 -12.1 24.5 -45.9 5.9 -11.2 11.7 -20.7 13.1 -21.8 2 -1.5 3 -1.7 5.6 -0.8 2.6 1 4.2 3.3 11.4 16.8 4.5 8.6 9.2 17.5 10.4 19.7 1.2 2.2 8 14.8 15 28 7 13.2 19.3 36.2 27.3 51 7.9 14.9 16.4 30.6 18.7 35 2.3 4.4 7.5 14.1 11.5 21.5 4 7.4 9.3 17.3 11.7 22 4.9 9.2 9.5 17.8 16.3 30.5 2.4 4.4 6 11.2 8 15 2.1 3.9 6.7 12.4 10.2 19 3.6 6.6 9.6 17.9 13.3 25 3.7 7.2 7.6 14.4 8.5 16 6.8 11.6 27 50.8 27 52.3 0 1 -0.8 2.6 -1.8 3.5 -1.6 1.5 -5.3 1.7 -31.9 1.7 -34.8 0 -31.8 0.9 -38 -11 -2.2 -4.1 -6.3 -11.8 -9 -17 -2.8 -5.2 -7.6 -14.4 -10.8 -20.5 -3.2 -6 -7.9 -15 -10.5 -20 -2.6 -4.9 -9.8 -18.7 -16 -30.5 -6.2 -11.8 -15.2 -28.9 -20 -38 -4.8 -9.1 -11.8 -22.3 -15.5 -29.5 -6.4 -12.4 -9.4 -17.9 -19.7 -37.5 -2.5 -4.7 -6.5 -12.3 -8.9 -16.9 -4.8 -9.2 -7.1 -11.1 -11.6 -9.2 -2.8 1.2 -3.4 2.1 -36.6 65.6 -3.8 7.1 -11.6 22 -17.4 33 -11.5 21.8 -15.7 29.7 -31.8 60.5 -5.9 11.3 -12.2 23.2 -14 26.5 -1.8 3.3 -7.4 14 -12.4 23.8 -5.1 9.7 -10.2 18.4 -11.4 19.2 -3.3 2.3 -60.2 2.2 -63.5 -0.1z"/>
 </g>
</svg>