<?xml version="1.0" encoding="utf-8"?>
<!DOCTYPE svg PUBLIC "-//W3C//DTD SVG 1.0//EN" "http://www.w3.org/TR/2001/REC-SVG-20010904/DTD/svg10.dtd">
<svg version="1.0" xmlns="http://www.w3.org/2000/svg" width="418px" height="418px" viewBox="0 0 418 418" preserveAspectRatio="xMidYMid meet">
 <g fill="none" stroke="#ffffff" stroke-width="1">
  <path d="M0 209 l0 -209 209 0 209 0 0 209 0 209 -209 0 -209 0 0 -209z m211.7 31.6 c-0.4 -2.5 -0.9 -8.1 -1.3 -12.6 -0.6 -6.4 -1 -8 -2.2 -7.8 -0.8 0.2 -2.1 2 -2.8 4.1 -1.2 3.4 -1.1 3.7 0.5 3.7 1.9 0 3.1 5 3.1 13.1 0 2.9 0.4 3.9 1.6 3.9 1.4 0 1.6 -0.7 1.1 -4.4z m32.7 2.2 c-0.4 -1.3 -2.5 -6.9 -4.6 -12.5 -3.5 -9.1 -4.3 -10.3 -6.4 -10.3 -1.5 0 -2.4 0.6 -2.4 1.5 0 0.9 0.9 1.5 2.3 1.5 1.9 0 2.6 0.8 3.5 3.9 0.7 2.1 1.2 4.8 1.2 6 0 1.1 0.9 3 2 4.1 1.1 1.1 2 3.3 2 5 0 2.1 0.5 3 1.6 3 1.1 0 1.4 -0.6 0.8 -2.2z m16.6 -10.3 c0 -10.4 -0.2 -12.5 -1.5 -12.5 -1.3 0 -1.5 2.1 -1.5 12.5 0 10.4 0.2 12.5 1.5 12.5 1.3 0 1.5 -2.1 1.5 -12.5z m18 0 c0 -10.4 -0.2 -12.5 -1.5 -12.5 -1.3 0 -1.5 2.1 -1.5 12.5 0 10.4 0.2 12.5 1.5 12.5 1.3 0 1.5 -2.1 1.5 -12.5z m30.2 -0.2 c-0.3 -9.9 -0.6 -12.3 -1.8 -12.3 -2.2 0 -2 19.7 0.2 22.8 0.9 1.3 1.7 2.2 1.8 2 0 -0.2 0 -5.8 -0.2 -12.5z m19.8 0.2 c0 -10.2 -0.3 -12.5 -1.4 -12.5 -1.2 0 -1.5 2.3 -1.8 11.5 -0.3 12.8 -0.2 13.5 1.8 13.5 1.1 0 1.4 -2.4 1.4 -12.5z m-132 6.9 c0 -0.7 -0.8 -1.4 -1.8 -1.6 -1.2 -0.3 -3 -3.5 -5.1 -9.2 -2.6 -6.5 -3.8 -8.6 -5.2 -8.6 -1.5 0 -1.9 0.8 -1.9 4 0 3.7 0.2 4 2.8 4 2.6 0 3.2 0.7 6.2 7.6 2.3 5.2 3.6 7.1 4.1 6.2 0.5 -0.7 0.9 -1.8 0.9 -2.4z m96 -13.3 c0 -1 -0.6 -2.3 -1.3 -2.9 -1 -0.9 -1.2 -0.4 -0.9 2.3 0.4 3.5 2.2 3.9 2.2 0.6z m-51 -28.6 c0 -10.4 -0.2 -12.5 -1.5 -12.5 -1.3 0 -1.5 2.1 -1.5 12.5 0 10.4 0.2 12.5 1.5 12.5 1.3 0 1.5 -2.1 1.5 -12.5z m21 0 c0 -10.4 -0.2 -12.5 -1.5 -12.5 -1.3 0 -1.5 2.1 -1.5 12.5 0 10.4 0.2 12.5 1.5 12.5 1.3 0 1.5 -2.1 1.5 -12.5z m-231 -0.5 c0 -7.3 -0.4 -12 -1 -12 -0.6 0 -1 4.7 -1 12 0 7.3 0.4 12 1 12 0.6 0 1 -4.7 1 -12z m34 0 c0 -10 -0.2 -12 -1.5 -12 -1.2 0 -1.5 2 -1.5 12 0 10 0.3 12 1.5 12 1.3 0 1.5 -2 1.5 -12z m29.9 11.3 c0 -0.5 -0.4 -1.7 -0.9 -2.8 -0.8 -1.8 -0.9 -1.7 -0.9 0.8 -0.1 1.5 0.4 2.7 0.9 2.7 0.6 0 1 -0.3 0.9 -0.7z m29.8 -6 c-0.2 -1.6 -0.4 -0.5 -0.4 2.2 0 2.8 0.2 4 0.4 2.8 0.2 -1.3 0.2 -3.5 0 -5z m32.3 2.7 c0 -2.5 -0.4 -3 -2.5 -3 -3.1 0 -3.1 0.7 -0.3 3.7 2.7 2.9 2.8 2.9 2.8 -0.7z m65 -1.4 c0 -0.7 -0.6 -2 -1.3 -3 -1.2 -1.6 -1.3 -1.4 -0.9 1.8 0.4 3.2 2.2 4.3 2.2 1.2z m-114.8 -6 c-0.3 -3.9 -0.7 -5.4 -1.3 -4.5 -1.2 1.9 -1.1 5.3 0.3 8.4 1.5 3.2 1.5 3.1 1 -3.9z m64.8 -0.2 c0 -6.7 -1.3 -7.9 -2.5 -2.3 -0.6 2.6 0.9 8.9 2.1 8.9 0.2 0 0.4 -3 0.4 -6.6z m135 -0.1 c-0.1 -6.4 -0.2 -6.7 -1.5 -4.3 -0.8 1.4 -1.4 3.3 -1.5 4.2 0 1.7 2 6.8 2.7 6.8 0.1 0 0.3 -3 0.3 -6.7z m-256.6 2.2 c0.3 -1.3 0 -3.9 -0.8 -5.7 l-1.4 -3.3 -0.1 6.3 c-0.1 6.2 1.1 7.6 2.3 2.7z m41.2 -1.1 c-1.1 -2.9 -1.5 -3.3 -1.5 -1.6 -0.1 2 1.9 6.5 2.6 5.8 0.2 -0.1 -0.3 -2 -1.1 -4.2z m103.9 -5.1 c-0.8 -2 -1.7 -3.4 -1.8 -3.2 -0.2 0.2 -0.1 3.3 0.1 6.9 l0.5 6.5 1.3 -3.3 c1.2 -2.8 1.2 -3.7 -0.1 -6.9z m80.5 3.5 c-0.1 -6 -0.1 -6.2 -1.5 -3.8 -1.7 3 -1.9 5.5 -0.5 8.1 1.7 3 2 2.3 2 -4.3z m55.6 -1.1 c-0.3 -1.2 -1.1 -3 -1.8 -4 -1.1 -1.5 -1.2 -0.7 -1 5 0.4 6.7 0.4 6.7 1.9 3.9 0.8 -1.5 1.2 -3.8 0.9 -4.9z m-121.4 -1.9 c-0.7 -0.7 -1.2 -2.3 -1.2 -3.7 0 -1.9 -0.3 -2.2 -1.1 -1.4 -0.9 0.9 -0.8 1.8 0.5 3.7 0.9 1.5 2 2.6 2.3 2.6 0.4 0 0.2 -0.5 -0.5 -1.2z m-121.8 -4.7 c-1.7 -4.3 -4.4 -5.6 -4.4 -2.1 0 1.3 0.7 2 1.9 2 1.2 0 2.1 0.9 2.5 2.6 0.4 1.5 0.9 2.4 1.2 2.1 0.3 -0.2 -0.3 -2.3 -1.2 -4.6z m53 -0.6 c-1.4 -1.9 -2.8 -3.5 -3 -3.5 -0.2 0 -0.4 1.6 -0.4 3.5 0 3.2 0.2 3.5 3.1 3.5 l3 0 -2.7 -3.5z"/>
 </g>
 <g fill="#9f9f9f">
  <path d="M341 247.8 c0.1 -1.3 3.8 -7.4 8.5 -13.8 4.7 -6.3 8.5 -10.7 8.5 -9.9 0 0.9 -2.4 7 -5.4 13.5 -5.1 11.2 -5.6 11.9 -8.5 12.2 -2.7 0.3 -3.1 0 -3.1 -2z"/>
  <path d="M349.2 249.1 c2.8 -7.2 11.3 -25.1 11.5 -24.4 0.2 0.6 -0.8 6.3 -2.2 12.7 -1.4 6.5 -2.5 11.9 -2.5 12.2 0 0.2 -1.6 0.4 -3.6 0.4 -2 0 -3.4 -0.4 -3.2 -0.9z"/>
  <path d="M358 248.8 c0.1 -2.4 4.8 -22.9 5.4 -23.5 0.3 -0.4 0.6 5.1 0.6 12 l0 12.7 -3 0 c-1.7 0 -3 -0.5 -3 -1.2z"/>
  <path d="M366 237.3 c0 -6.9 0.2 -12.4 0.4 -12.2 0.2 0.2 1.3 5.1 2.6 10.9 1.2 5.8 2.4 11.3 2.6 12.3 0.4 1.3 -0.1 1.7 -2.5 1.7 l-3.1 0 0 -12.7z"/>
  <path d="M373.5 248.8 c-0.2 -0.7 -1.3 -5.8 -2.5 -11.3 -1.1 -5.5 -2.3 -10.9 -2.6 -12 -1.5 -5 1.9 0.9 7 12.3 l5.4 12.2 -3.4 0 c-1.9 0 -3.7 -0.6 -3.9 -1.2z"/>
  <path d="M376.6 236.9 c-3.2 -7.2 -5.5 -13.3 -5.3 -13.5 0.4 -0.5 14.8 18.6 17.4 23 1.9 3.2 1.6 3.6 -2.5 3.6 l-3.8 0 -5.8 -13.1z"/>
  <path d="M176.5 247.1 c1.3 -3.3 3.7 -22.9 3.2 -26.3 l-0.5 -3.8 5.3 0 5.2 0 3.3 8.5 c1.8 4.7 3.7 8.8 4.1 9 0.4 0.3 2 -3.4 3.6 -8.2 l3 -8.8 5.2 -0.3 c5 -0.3 5.2 -0.2 4.6 1.8 -0.8 2.4 1.3 22.2 2.7 25.9 0.5 1.5 1.2 2.1 1.8 1.5 1.9 -2 10.2 -24.8 9.7 -27 -0.4 -2.3 -0.2 -2.4 5.3 -2.4 l5.8 0 3.7 9.8 c2 5.3 4.9 12.3 6.4 15.5 l2.8 5.7 -5.9 0 c-7.2 0 -7.3 0 -7 -2.7 0.6 -4.4 -1.4 -6.3 -6.8 -6.3 -4.6 0 -4.9 0.2 -5.9 3.3 -0.7 1.9 -0.9 4 -0.6 4.8 0.4 1.2 -1.3 1.4 -9.7 1.3 -10.1 -0.2 -10.3 -0.2 -10 -2.5 0.6 -3.6 -0.9 -15.2 -1.8 -14.3 -0.4 0.5 -2 4.6 -3.5 9.2 -1.4 4.5 -3 8.2 -3.4 8.2 -2.2 0 -5.3 -3.9 -8.2 -10.5 -2 -4.6 -3.6 -7.2 -4.2 -6.6 -0.5 0.5 -1 4.4 -1.1 8.8 l-0.1 7.8 -3.8 0 c-2.8 0 -3.6 -0.4 -3.2 -1.4z m58.4 -13.3 c0 -0.7 -0.6 -2.9 -1.3 -4.8 l-1.3 -3.4 -1 2.9 c-0.6 1.7 -1.4 3.8 -1.8 4.8 -0.6 1.4 -0.2 1.7 2.4 1.7 1.9 0 3.1 -0.5 3 -1.2z"/>
  <path d="M258.5 248.3 l-4 -0.4 0.4 -12.4 c0.2 -7.1 -0.1 -13.8 -0.7 -15.5 l-1.1 -3 6.4 0 6.4 0 -1 2.9 c-1 2.8 -0.9 24.1 0.1 27 0.6 1.7 -0.7 1.9 -6.5 1.4z"/>
  <path d="M305.5 246.5 c-2.4 -2.3 -2.5 -3.1 -2.5 -13.4 0 -6 -0.4 -12.1 -1 -13.5 l-1 -2.6 6.6 0 c6.1 0 6.4 0.1 5.4 1.9 -0.5 1.1 -1 6.2 -1 11.4 0 7.7 0.3 9.9 1.8 11.7 2.4 3 6.8 2.1 8.2 -1.6 1.3 -3.3 1.3 -17.5 0 -20.8 l-1 -2.6 6.5 0 6.4 0 -1 2.9 c-1 2.8 -0.9 24 0.1 27.1 0.4 1.2 -0.4 1.4 -4.5 1.2 -2.7 -0.2 -5.1 -0.8 -5.3 -1.3 -0.2 -0.5 -1.6 -0.2 -3.2 0.6 -4.7 2.4 -11.6 2 -14.5 -1z"/>
  <path d="M272.8 234.6 c0.3 -8.7 0 -14.1 -0.7 -15.5 -1.2 -2.1 -1 -2.1 7.6 -2.1 10.1 0 15.2 1.9 16.7 6.1 2 5.8 -1.6 10.4 -9 11.6 -3.8 0.6 -3.8 0.5 -2.2 -1.3 2.9 -3.3 3.2 -7 0.9 -9.3 -1.2 -1.2 -2.6 -1.9 -3.1 -1.6 -1.3 0.8 -1.3 21.1 0 23.6 1 1.8 0.7 1.9 -4.7 1.9 l-5.8 0 0.3 -13.4z"/>
  <path d="M380.8 233.2 c-10 -14 -9.4 -14.9 2.6 -3.5 6 5.7 6.6 6.7 6.6 10.3 0 2.2 -0.3 4 -0.7 4 -0.5 0 -4.3 -4.9 -8.5 -10.8z"/>
  <path d="M341 238.8 c0 -4.4 0.2 -4.8 7 -10.8 3.9 -3.5 7.3 -6 7.6 -5.7 0.5 0.4 -10.3 16.2 -13.8 20.2 -0.4 0.5 -0.8 -1.2 -0.8 -3.7z"/>
  <path d="M382.1 227 c-6.3 -5.8 -7.6 -8.4 -2.9 -5.9 2.3 1.2 2.3 1.2 0.4 -1 -2.5 -2.7 -1.7 -3.4 2.3 -2 1.8 0.6 3.5 0.9 3.8 0.5 0.4 -0.3 0.1 -0.6 -0.5 -0.6 -0.6 0 -2.3 -0.5 -3.7 -1 -2.3 -0.9 -2.5 -1.3 -1.5 -2.5 0.7 -0.8 0.9 -1.5 0.4 -1.5 -0.5 0 0 -0.7 1 -1.5 1.1 -0.8 1.4 -1.5 0.8 -1.5 -1.6 0 -1.5 -2.7 0.1 -3.3 1 -0.4 1 -0.6 0 -0.6 -2.7 -0.2 -1.1 -3.2 2.7 -5.1 2.1 -1.1 4.1 -2 4.3 -2 0.3 0 0.5 2.2 0.5 4.9 0 4.3 -0.3 5 -2.2 5.4 -2 0.4 -2 0.4 0.2 0.6 3.4 0.2 3 3.9 -0.5 4.4 l-2.8 0.4 2.6 0.2 c2.6 0.1 2.6 0.1 2.7 9.1 0 5 -0.2 9 -0.6 9 -0.4 -0.1 -3.6 -2.8 -7.1 -6z"/>
  <path d="M341 229.1 c0 -2.5 0.8 -3.4 5.5 -6 3 -1.7 6 -3.1 6.7 -3.1 1.4 0 -7.7 9.6 -10.4 11.1 -1.5 0.8 -1.8 0.5 -1.8 -2z"/>
  <path d="M341 222.6 c0 -1.3 0.6 -2.7 1.3 -2.9 1 -0.4 1 -0.6 0 -0.6 -2 -0.1 -1.5 -3.9 0.5 -4.4 1.4 -0.4 1.5 -0.5 0.1 -0.6 -1.4 -0.1 -1.7 -1.4 -1.7 -7.6 0 -7.3 0 -7.5 2.1 -6.5 2.1 1 2.1 1 0 -0.6 -1.5 -1.1 -2.3 -2.7 -2.3 -4.6 l0 -2.9 4.4 3.6 c4.3 3.5 5.4 7.1 1.8 5.8 -1.4 -0.5 -1.5 -0.3 -0.4 0.8 2.2 2.3 1.5 4 -1.5 3.4 l-2.8 -0.5 2.8 1.1 c2.8 1.1 3.6 3.4 1.5 4.2 -1 0.4 -1 0.6 0 0.6 0.6 0.1 1.2 0.6 1.2 1.2 0 0.6 0.9 2.4 2 3.9 l2 2.8 -4.7 2.7 c-2.7 1.6 -5.1 3 -5.5 3.2 -0.5 0.2 -0.8 -0.7 -0.8 -2.1z"/>
  <path d="M28 212.3 c-1.3 -0.3 -1.5 -2.6 -1.2 -15.3 l0.3 -15 7.7 0 c13.2 0 20.2 5.4 20.2 15.5 0 9.7 -6 14.7 -17.9 14.9 -4.2 0.1 -8.3 0 -9.1 -0.1z m14.1 -5.6 c5.9 -4.5 4.8 -17.7 -1.6 -19.3 -4.9 -1.2 -5.5 -0.2 -5.5 9.9 0 5.2 0.3 9.7 0.7 10 1 1.1 4.7 0.7 6.4 -0.6z"/>
  <path d="M60 212.7 c0 -0.1 -0.2 -7.1 -0.3 -15.5 l-0.2 -15.2 5 0 5 0 -0.2 15.2 -0.2 15.3 -4.6 0.2 c-2.5 0.1 -4.5 0.1 -4.5 0z"/>
  <path d="M74.3 212.3 c-2.6 -0.5 -2.7 -0.7 -1.3 -3.1 2.1 -3.7 8.8 -24.5 8.3 -25.8 -0.4 -1.1 0.6 -1.4 4.5 -1.4 5.7 0 4.5 -1.9 11.5 18 1.9 5.2 3.7 10.2 4.1 11.2 0.6 1.4 0 1.6 -5.1 1.3 -5.6 -0.2 -5.8 -0.3 -5.5 -2.8 0.6 -4.5 -1.4 -6.7 -5.8 -6.7 -4.4 0 -6 1.8 -6 6.9 0 3.1 -0.3 3.3 -4.7 2.4z m13.2 -15 c-0.4 -1 -1 -2.6 -1.2 -3.5 -0.3 -1 -0.9 -1.8 -1.3 -1.8 -0.4 0 -1 0.8 -1.3 1.8 -0.2 0.9 -0.8 2.5 -1.2 3.5 -0.6 1.4 -0.2 1.7 2.5 1.7 2.7 0 3.1 -0.3 2.5 -1.7z"/>
  <path d="M111 211.2 c-5.3 -2.6 -8 -7.4 -8 -14.3 0 -5.3 0.3 -6.3 3.5 -9.8 4 -4.4 11.1 -6.8 17 -5.7 3.1 0.6 3.5 1 3.5 3.8 0 2.3 -0.3 2.9 -1.6 2.4 -6.6 -2.5 -10.8 -1.2 -13 4 -2.9 7 1.3 17 6.9 16.2 2 -0.3 2.2 -0.8 2.1 -5.5 l-0.2 -5.3 3.9 0 3.9 0 0 7.4 c0 5.8 -0.3 7.5 -1.6 8 -3.1 1.2 -12.9 0.5 -16.4 -1.2z"/>
  <path d="M134.8 212.5 c-0.4 -0.4 -0.2 -1.9 0.3 -3.5 1.2 -3.2 0.8 -22.6 -0.5 -25.3 -0.7 -1.5 -0.3 -1.7 3.7 -1.7 4.4 0 4.5 0.1 10.2 7.8 3.2 4.2 6.2 8.2 6.7 8.7 0.6 0.6 0.9 -2.2 0.6 -7.8 l-0.3 -8.7 3.7 0 c3.7 0 3.7 0 2.7 3.2 -0.5 1.8 -0.9 8.8 -0.9 15.5 0 7.9 -0.4 12.3 -1 12.3 -2.9 0 -7.3 -3.6 -12.1 -9.7 -2.9 -3.7 -5.7 -7.2 -6.1 -7.8 -0.6 -0.6 -0.8 2.7 -0.7 8 l0.2 9 -2.9 0.3 c-1.6 0.2 -3.3 0 -3.6 -0.3z"/>
  <path d="M175.4 211.6 c-6.5 -2.9 -10.5 -11.7 -8.3 -18.4 5.9 -18.6 35.3 -14.1 33.6 5.1 -0.4 5.1 -2.6 8.8 -7 12.1 -3.5 2.6 -13.8 3.3 -18.3 1.2z m13.1 -4.8 c6.8 -5.9 2.4 -20.8 -6.1 -20.8 -0.8 0 -2.6 1.1 -3.9 2.5 -4.6 4.5 -2.7 17.3 2.8 19.5 3.4 1.4 4.4 1.2 7.2 -1.2z"/>
  <path d="M207.3 212 c-1.3 -0.5 -2.3 -1.6 -2.3 -2.4 0 -0.8 -0.3 -2.1 -0.6 -3 -0.6 -1.4 -0.3 -1.4 3.1 0 5.2 2.1 9.9 1.5 10.3 -1.3 0.3 -1.8 -0.8 -2.8 -5.4 -5.4 -9.7 -5.5 -10.6 -13.1 -2.1 -17.3 2.9 -1.3 4.9 -1.6 8.2 -1.1 4.1 0.6 4.5 0.9 4.5 3.5 0 2.7 -0.1 2.8 -3 1.7 -2.2 -0.8 -3.5 -0.9 -4.8 -0.1 -2.9 1.9 -1.9 3.6 3.7 6.9 6.1 3.6 8.5 7.3 7.6 11.4 -1 4.9 -4.8 7.4 -11.3 7.8 -3.1 0.1 -6.7 -0.2 -7.9 -0.7z"/>
  <path d="M235.9 212.3 c0 -0.5 0 -6.3 0.1 -13 0.1 -7.5 -0.3 -12.3 -0.9 -12.3 -0.5 0 -2.2 0.5 -3.7 1 -2.5 1 -2.6 0.9 -2 -1.2 0.3 -1.3 0.6 -2.9 0.6 -3.5 0 -1 3 -1.3 11.6 -1.3 10.2 0 11.5 0.2 11 1.6 -0.3 0.9 -0.6 2.2 -0.6 3 0 1 -1 1.3 -3.2 1.2 l-3.3 -0.3 0 12.8 0 12.7 -4.7 0 c-2.7 0 -4.8 -0.3 -4.9 -0.7z"/>
  <path d="M256.5 197.5 l0 -15.5 5 0 5 0 -0.2 15.2 -0.2 15.3 -4.8 0.3 -4.8 0.3 0 -15.6z"/>
  <path d="M278.8 211 c-10.2 -5.5 -10.6 -20.9 -0.6 -27 4.1 -2.5 8.8 -3.4 13.3 -2.6 3.1 0.6 3.5 1.1 3.5 3.6 0 2.8 -0.2 2.9 -2.6 2 -4.2 -1.6 -6.4 -1.2 -9.5 1.9 -2.3 2.3 -2.9 3.8 -2.9 7.1 0 4.7 2.1 9.5 4.9 11 2.5 1.3 8.2 1.3 11.6 0 2.6 -1 2.7 -0.9 2 1.7 -0.4 1.6 -0.9 3 -1.1 3.3 -0.3 0.2 -3.8 0.6 -7.7 0.7 -5.7 0.3 -8 -0.1 -10.9 -1.7z"/>
  <path d="M310 211.3 c-10.6 -5.5 -10.8 -21.4 -0.3 -27.5 5.2 -3.1 12 -3.3 17.3 -0.6 11.4 5.8 12.2 19.4 1.7 27.2 -3.9 2.8 -14 3.4 -18.7 0.9z m14.1 -5.2 c2.3 -2.3 2.9 -3.8 2.9 -7.1 0 -5.2 -2.2 -10.5 -5 -12 -2.9 -1.6 -7.5 -0.3 -9.4 2.5 -3.4 5.2 -1.1 16.5 3.7 18.5 3.6 1.4 4.7 1.2 7.8 -1.9z"/>
  <path d="M380 200.7 c0 -1.3 8 -9.7 9.3 -9.7 0.4 0 0.7 1.3 0.7 3 0 2.4 -0.8 3.4 -4.3 5.5 -5 2.9 -5.7 3 -5.7 1.2z"/>
  <path d="M345.2 193.7 c-3.6 -3.7 -4.2 -4.9 -4.2 -8.7 l0 -4.4 5.5 7.4 c3.1 4.1 5.4 7.8 5.2 8.4 -0.7 2.1 -2.4 1.4 -6.5 -2.7z"/>
  <path d="M377.6 197.2 c-0.6 -1 10.2 -16.2 11.5 -16.2 0.5 0 0.9 1.8 0.9 3.9 0 3.5 -0.6 4.4 -5.4 8.5 -5.6 4.8 -6.2 5.1 -7 3.8z"/>
  <path d="M348.2 188 c-2.9 -3.8 -5.2 -7.2 -5.2 -7.5 0 -0.3 1.5 -0.5 3.4 -0.5 3.2 0 3.5 0.3 6.2 6.5 4 9.4 2 10.1 -4.4 1.5z"/>
  <path d="M374.6 194.1 c-0.3 -0.5 0.7 -3.9 2.4 -7.5 2.8 -6.4 3 -6.6 6.5 -6.6 l3.7 0 -3.8 5.3 c-2.1 2.8 -4.5 6.2 -5.4 7.4 -1.6 2.4 -2.6 2.8 -3.4 1.4z"/>
  <path d="M354.2 186.7 c-2.8 -6.5 -2.8 -6.7 0.2 -6.7 3.1 0 3.3 0.4 4.2 6.8 0.9 7 -1.3 7 -4.4 -0.1z"/>
  <path d="M370.3 189.8 c0.3 -1.3 0.9 -4 1.2 -6 0.6 -3.4 1.1 -3.8 3.6 -3.8 1.6 0 2.9 0.2 2.9 0.4 0 2.1 -5.5 11.6 -6.7 11.6 -1.1 0 -1.4 -0.7 -1 -2.2z"/>
  <path d="M360.1 186 c-0.6 -2.8 -1.1 -5.3 -1.1 -5.5 0 -0.3 1.1 -0.5 2.5 -0.5 2.4 0 2.5 0.3 2.5 5.5 0 7.3 -2.4 7.6 -3.9 0.5z"/>
  <path d="M366 185.6 c0 -5.2 0.2 -5.6 2.4 -5.6 2.4 0 2.4 0.1 1.2 5.2 -1.6 7.3 -3.6 7.5 -3.6 0.4z"/>
 </g>
</svg>