<?xml version="1.0" encoding="utf-8"?>
<!DOCTYPE svg PUBLIC "-//W3C//DTD SVG 1.0//EN" "http://www.w3.org/TR/2001/REC-SVG-20010904/DTD/svg10.dtd">
<svg version="1.0" xmlns="http://www.w3.org/2000/svg" width="277px" height="312px" viewBox="0 0 277 312" preserveAspectRatio="xMidYMid meet">
 <g fill="#566e91">
  <path d="M99.90 187.65 c-3.70 -3.80 -7.25 -7.85 -7.85 -9.05 -2.50 -4.95 -2.35 -11.05 0.35 -15.80 0.80 -1.35 13.95 -15.05 32.50 -33.75 33.60 -34 33.25 -33.65 39.15 -34.35 3.20 -0.35 7.10 0.40 10.20 1.95 2.05 1 50.75 49.10 50.75 50.10 0 0.30 -5.25 5.80 -11.70 12.20 l-11.75 11.70 -17.65 -17.55 -17.65 -17.60 -29.50 29.50 c-16.20 16.20 -29.65 29.50 -29.75 29.50 -0.15 0 -3.35 -3.10 -7.10 -6.85z"/>
 </g>
 <g fill="#17253b">
  <path d="M162.80 249.20 c-1.40 -0.45 -3.40 -1.45 -4.50 -2.20 -1.15 -0.80 -12.55 -11.95 -25.45 -24.85 l-23.35 -23.40 11.75 -11.75 11.75 -11.75 29 29 29.05 29.05 -6.75 6.70 c-7.95 7.90 -10.35 9.45 -15.55 9.75 -2.40 0.15 -4.30 0 -5.95 -0.55z"/>
 </g>
 <g fill="#4b5e7a">
  <path d="M182.10 218.90 l-11.60 -11.65 29 -29 29.05 -29 6.85 7 c7.70 7.75 9.05 9.95 9.45 14.95 0.30 3.50 -0.75 8 -2.45 10.55 -1.05 1.50 -47.95 48.75 -48.40 48.75 -0.15 0 -5.50 -5.25 -11.90 -11.60z"/>
 </g>
</svg>