<?xml version="1.0" encoding="utf-8"?>
<!DOCTYPE svg PUBLIC "-//W3C//DTD SVG 1.0//EN" "http://www.w3.org/TR/2001/REC-SVG-20010904/DTD/svg10.dtd">
<svg version="1.0" xmlns="http://www.w3.org/2000/svg" width="790px" height="154px" viewBox="0 0 790 154" preserveAspectRatio="xMidYMid meet">
 <g fill="none" stroke="#ffffff" stroke-width="0.5">
  <path d="M0 77 l0 -77 395 0 395 0 0 77 0 77 -395 0 -395 0 0 -77z m650.15 -41.45 c0.45 -1.25 1.45 -3 2.15 -3.90 l1.25 -1.65 -8.50 0 -8.55 0 1.50 2.15 c2.90 4.05 3 5.55 3 42.75 l0 33.60 -1.65 0 c-1.25 0 -1.95 -0.35 -2.70 -1.35 -1.20 -1.65 -34.75 -45.45 -45.80 -59.90 -4.20 -5.50 -8.75 -11.65 -10.10 -13.65 l-2.45 -3.60 -6.30 0.05 c-3.45 0.05 -6.75 0.20 -7.40 0.35 l-1.15 0.35 1.20 1.65 c2.60 3.50 2.60 3.25 2.60 47.60 0 22.70 -0.20 42.10 -0.40 43.10 -0.20 1 -1.15 3 -2.10 4.40 l-1.70 2.50 8.45 0 8.50 0 -1.50 -2.35 c-0.85 -1.30 -1.80 -3.15 -2.10 -4.15 -0.45 -1.25 -0.65 -11.75 -0.75 -37.35 l-0.20 -35.65 1.90 0 c1.90 0 1.95 0.05 11.25 12.40 26.85 35.40 44.65 58.65 46.95 61.25 2.85 3.25 6.50 6.15 10.50 8.35 l2.70 1.45 0.25 -48.10 c0.25 -44.50 0.30 -48.25 1.15 -50.30z m-385.80 96.20 c3.25 -0.40 9.10 -1.35 13.05 -2.10 l7.10 -1.35 0 -23.65 0 -23.65 -7.80 0 c-4.30 0 -7.70 0.15 -7.60 0.40 2.65 5.05 2.90 7.35 2.90 24.95 l0 15.05 -4.40 1.05 c-9.70 2.25 -21.85 2.50 -29.85 0.50 -16 -3.95 -28.30 -17.15 -31.45 -33.90 -1.10 -5.80 -1.05 -15.60 0.15 -21.35 2.45 -11.80 9.85 -21.55 20.25 -26.65 6.10 -3 10.80 -4.10 19.30 -4.40 11.15 -0.40 18.55 1.10 25.10 5.05 l2.80 1.65 -0.25 -6.30 c-0.15 -3.45 -0.35 -6.35 -0.40 -6.45 -0.60 -0.70 -11.95 -2.15 -18.75 -2.40 -7.15 -0.30 -9.15 -0.15 -14.75 0.80 -25.15 4.25 -41.35 17.80 -47.10 39.25 -1.15 4.40 -1.30 5.95 -1.30 12.75 0 6.80 0.15 8.35 1.30 12.75 2.50 9.30 6.75 16.60 13.40 23.05 7.95 7.70 19.30 13 31.70 14.90 6.15 0.95 19.40 0.95 26.60 0.05z m461.65 -0.55 c15.40 -2.90 29.40 -14.20 36.55 -29.45 5.25 -11.15 6.45 -25.10 3.20 -36.50 -4.10 -14.40 -13.60 -26.20 -26.25 -32.50 -8.40 -4.20 -14.70 -5.55 -24.40 -5.10 -7.60 0.30 -12.80 1.70 -19.75 5.15 -15.45 7.80 -26 22.40 -28.60 39.70 -0.95 6 -0.95 9.05 0 15 3.55 23.45 21.45 41.35 44.50 44.45 4.05 0.55 9.35 0.30 14.75 -0.75z m-411.50 -0.90 c0 -0.10 -0.35 -0.85 -0.75 -1.60 -0.85 -1.65 -0.95 -5.45 -0.25 -8.55 0.30 -1.15 2.55 -7.95 5.05 -15.15 l4.60 -13 20.45 0.10 20.50 0.15 2.50 6.75 c8.35 22.85 8.40 22.90 8.40 26.35 0 2.40 -0.25 3.60 -0.85 4.25 -0.80 0.85 -0.45 0.90 9.85 0.90 l10.65 0 -1.95 -2.10 c-2.95 -3.25 -4.95 -6.60 -7.15 -12.15 -2.25 -5.75 -8.50 -21.70 -13.25 -33.85 -1.80 -4.60 -4.60 -11.80 -6.25 -16 -1.65 -4.20 -5.50 -13.95 -8.50 -21.65 l-5.45 -14 -8.85 -0.15 -8.80 -0.10 0.60 1.10 c0.35 0.70 0.50 2.45 0.30 4.85 -0.20 3.50 -1.45 6.90 -14.30 40.55 -7.75 20.20 -14.85 38.65 -15.80 41 -0.95 2.35 -1.75 4.60 -1.75 5 0 1.10 -1.65 3.65 -3.70 5.70 l-1.85 1.80 8.30 0 c4.55 0 8.25 -0.10 8.25 -0.20z m154.15 -2.55 c0.55 -1.35 1.70 -4.60 2.65 -7.15 l1.70 -4.60 -3.55 1.80 c-7.55 3.75 -14.30 4.40 -33.20 3.05 l-8 -0.60 -0.15 -39.75 c-0.15 -41.05 0 -44.55 1.90 -48.20 l0.90 -1.80 -9.20 0 -9.25 0 0.80 1.55 c2.15 4.05 2.25 6.30 2.25 48.70 0 43.05 -0.05 44 -2.40 47.95 l-1.05 1.80 27.80 -0.10 27.85 -0.15 0.95 -2.50z m-349.05 1.05 c1.25 -0.75 1.15 -1.05 -1.05 -4.75 -2.25 -3.75 -8 -9.60 -12.05 -12.15 -2.75 -1.75 -9.70 -5.40 -10.30 -5.40 -0.15 0 1 1 2.65 2.15 4.40 3.30 6.90 6.45 10.25 13.20 3.05 6.20 3.90 7.35 5.65 7.80 1.25 0.30 3.70 -0.10 4.85 -0.85z m425.95 -5.15 c1.15 -3.55 2.20 -6.70 2.30 -7 0.15 -0.35 -1.70 0.30 -4.05 1.40 -2.40 1.10 -5.85 2.35 -7.70 2.70 -4.40 0.95 -14.15 0.90 -24.60 -0.15 l-8.25 -0.85 -0.15 -19.90 -0.10 -19.95 10.85 0.20 c9.25 0.15 11.15 0.30 12.55 1.05 l1.60 0.90 0 -5.40 0 -5.40 -12.55 0 -12.60 0 0 -15.65 c0 -8.60 0.10 -15.75 0.25 -15.85 0.10 -0.10 3.45 -0.50 7.45 -0.80 11.50 -0.90 20.05 0 24.20 2.55 l1.75 1.10 0 -6.20 0 -6.15 -24.35 0.15 c-13.40 0.05 -24.40 0.20 -24.50 0.30 -0.10 0.05 0.30 1.15 0.85 2.40 0.55 1.25 1.20 4.40 1.50 6.95 0.65 6.35 0.65 77.70 0 81.95 -0.30 1.80 -1.05 4.30 -1.70 5.65 l-1.15 2.35 28.15 0 28.10 0 2.15 -6.35z m-487.45 5.15 c0.45 -0.35 1.50 -2.45 2.35 -4.75 1.80 -4.90 4.90 -9.45 9.10 -13.25 2.60 -2.30 2.85 -2.70 1.65 -2.35 -2.50 0.75 -3.35 1.15 -6.75 3.10 -4.45 2.60 -8.75 6.90 -11.90 12 l-2.60 4.20 1.10 0.90 c1.25 1 5.75 1.15 7.05 0.15z m-20.75 -1.75 c0.85 -0.55 2.35 -2.20 3.35 -3.70 4.25 -6.70 13.25 -14.45 21.05 -18.15 5.35 -2.55 9.75 -3.40 15.75 -3 3.55 0.20 3.90 0.15 2.25 -0.25 -3.25 -0.85 -12.35 -0.20 -18 1.25 -9.80 2.55 -21.10 9.15 -29.10 17 -5.50 5.45 -5.50 7.80 0.05 7.80 2.15 0 3.50 -0.30 4.65 -0.95z m104.55 -0.70 c0.65 -0.70 0.60 -0.95 -0.35 -2.50 -1.25 -2.05 -5.70 -6.05 -11.75 -10.55 -5.20 -3.90 -13.55 -8.20 -19.20 -10 -8.15 -2.55 -15.60 -3.75 -9.80 -1.55 11.50 4.30 23.85 13.25 29 20.95 2.55 3.90 4.50 4.95 8.40 4.65 1.65 -0.15 3.25 -0.60 3.70 -1z m9.65 -16.30 l1.15 -0.90 -1.90 -3.25 c-1.05 -1.80 -2.55 -3.65 -3.35 -4.10 -0.80 -0.45 -3.65 -1.15 -6.30 -1.55 -8.90 -1.35 -18.90 -5.40 -25.40 -10.30 l-3.50 -2.65 2.10 2.50 c7.40 8.85 17.35 15.55 29.40 19.75 4.80 1.65 6.25 1.75 7.80 0.50z m-122.45 -1.90 c11.50 -3.65 19.60 -8.50 28.25 -16.95 l5.40 -5.20 -4.25 2.80 c-9.45 6.25 -20.25 10.40 -28.45 11 -2.35 0.20 -4.90 0.65 -5.65 1 -2.50 1.30 -6.40 7.65 -5.25 8.60 1.65 1.30 2.25 1.25 9.95 -1.25z m112.55 -17.70 c0.60 -0.35 1.25 -0.85 1.45 -1.10 0.45 -0.70 -1.70 -4.80 -3.25 -6.25 -1.10 -1.05 -1.40 -1.10 -3.40 -0.65 -4.95 1.15 -14.45 0.20 -19.25 -1.90 l-2.45 -1.10 1.75 1.80 c4.35 4.55 12.15 8.35 18.70 9.20 4.50 0.60 5.25 0.60 6.45 0z m-100.85 -0.95 c4.80 -1.25 10.15 -3.70 15.35 -7.10 4.20 -2.75 4.90 -3.45 2 -1.95 -4.60 2.30 -15.55 3.30 -22.20 2.05 -3.25 -0.60 -4.35 0 -6.70 3.75 l-1.45 2.35 1.15 0.95 c1.60 1.30 6.65 1.25 11.85 -0.05z m63.20 -38 c0.95 -3.50 3.65 -8.50 7 -12.95 2.35 -3.10 3.05 -4.35 2.80 -5.20 -0.35 -1.40 -3.15 -5.35 -3.75 -5.35 -0.80 0 -3.05 3 -4.65 6.15 -3.55 7.05 -4.80 17.40 -3.30 27.10 l0.65 4 0.30 -5.75 c0.15 -3.15 0.60 -6.75 0.95 -8z m-32.30 3.65 c1.05 -4.75 1 -7.65 -0.20 -12.45 -1.10 -4.20 -3.70 -10.15 -5.35 -12.20 -0.95 -1.10 -1.15 -1.15 -1.95 -0.50 -1.10 0.95 -3.70 5 -3.70 5.80 0 0.30 0.90 1.70 2.05 3 2.25 2.75 5.55 9.30 6.35 12.70 0.30 1.25 0.70 3.70 0.90 5.45 0.40 3.65 0.75 3.30 1.90 -1.80z m23.95 -2.75 c-0.45 -12.55 1.15 -22.55 4.90 -30.20 1.95 -3.95 2 -4.30 1.40 -5.85 -0.85 -2.10 -3.95 -6.85 -4.50 -6.85 -1.05 0 -3 4.10 -3.95 8.25 -3.05 13.05 -3.25 22.15 -0.70 32.50 1.10 4.30 2.70 9.75 2.95 9.75 0.10 0 0.05 -3.45 -0.10 -7.60z m-14.35 -3.15 c2.75 -9.70 2.90 -19.75 0.40 -30.50 -0.95 -3.95 -1.85 -5.80 -3.35 -6.75 -0.90 -0.55 -1.15 -0.50 -2 0.55 -0.55 0.65 -1.60 2.50 -2.40 4.10 l-1.50 2.85 1.50 3.40 c1.75 4 3.30 9.60 4.05 15 0.60 3.95 0.45 16.80 -0.20 19.85 -0.60 2.65 2.30 -4.35 3.50 -8.50z"/>
  <path d="M712.75 123.70 c-0.55 -0.10 -2.25 -0.45 -3.75 -0.75 -9.45 -1.85 -19 -10.10 -24.30 -21 -3.55 -7.25 -5.20 -14.90 -5.20 -24 0 -13.75 3.75 -24.15 11.50 -32 6.80 -6.90 13.10 -9.45 24.25 -9.80 10.45 -0.35 16.35 1.40 23.05 6.80 6 4.80 11.15 13.15 14.05 22.80 1.30 4.35 1.35 4.90 1.35 16.25 0.05 11.60 0 11.80 -1.40 16 -5.60 16.70 -16.45 25.15 -33.05 25.75 -3 0.10 -5.95 0.10 -6.50 -0.05z"/>
  <path d="M327.50 81.15 c0 -1.40 7.45 -22.10 13.75 -38.25 0.25 -0.65 0.90 -0.90 2.20 -0.90 l1.80 0.05 6.90 18.35 c4.80 12.90 6.85 19.05 6.85 20.50 l0 2.10 -15.75 0 -15.75 0 0 -1.85z"/>
 </g>
 <g fill="#9f9f9f" stroke="#9f9f9f" stroke-width="0.5">
  <path d="M646.25 134.80 c-4.55 -2.15 -8.95 -5.45 -12.15 -9.10 -2.30 -2.65 -20.05 -25.75 -47 -61.30 -5.15 -6.80 -9.50 -12.40 -9.70 -12.40 -0.60 0 -0.45 62.60 0.10 66.90 0.60 4.55 2.50 8.20 5.35 10.30 1.15 0.85 2.10 1.70 2.15 1.95 0 0.20 -6.10 0.35 -13.60 0.35 l-13.60 0 2.85 -2.60 c1.60 -1.55 3.30 -3.70 3.95 -5.15 l1.15 -2.50 0 -41 c0 -37.55 -0.05 -41.20 -0.85 -43.15 -1.15 -2.85 -3.15 -5.35 -5.35 -6.70 l-1.80 -1.15 3.50 -0.30 c1.95 -0.20 6.90 -0.35 11.05 -0.40 l7.50 -0.05 2.15 3.25 c1.20 1.80 5.70 7.85 10 13.45 4.30 5.60 16.35 21.40 26.80 35.05 10.45 13.65 19.40 25.30 19.90 25.90 0.80 1.05 0.85 -0.40 0.70 -32.65 -0.10 -30.70 -0.20 -34 -1 -36.35 -0.85 -2.50 -2.75 -4.90 -5.85 -7.40 l-1.25 -1 13.20 -0.15 c7.25 -0.05 13.30 0 13.45 0.10 0.10 0.15 -1 1.45 -2.50 2.90 -5 4.85 -4.60 0.55 -4.80 56.30 -0.05 26.70 -0.30 48.60 -0.50 48.60 -0.20 -0.05 -1.90 -0.80 -3.85 -1.70z"/>
  <path d="M244.25 133.95 c-17 -1.10 -29.85 -6.15 -39.70 -15.65 -6.65 -6.45 -10.90 -13.70 -13.40 -23.05 -1.20 -4.55 -1.35 -5.80 -1.35 -14.25 0 -8.45 0.15 -9.70 1.35 -14.25 5.75 -21.45 22 -35 47.10 -39.25 5.75 -1 7.65 -1.10 16.25 -0.85 6.55 0.20 11.45 0.65 14.95 1.30 2.85 0.55 5.20 1.05 5.30 1.15 0.05 0.10 0.30 4.15 0.50 9 0.25 6.85 0.20 8.90 -0.25 8.90 -0.35 0 -1.55 -0.80 -2.60 -1.80 -2.65 -2.35 -8.25 -5 -12.90 -6.05 -5.85 -1.35 -17.50 -1.20 -23 0.25 -18.15 4.85 -29.45 19.85 -29.50 39.15 -0.05 23.30 16.10 41.65 38.60 44 5.40 0.55 14.25 -0.15 20.50 -1.60 l4.40 -1.05 0 -13.55 c0 -7.50 -0.20 -14.90 -0.50 -16.55 -0.65 -4.10 -2.25 -7.10 -4.55 -8.65 -1.05 -0.70 -1.85 -1.40 -1.75 -1.60 0.15 -0.25 17.25 -0.30 22.85 -0.05 0.20 0 0.15 0.85 -0.10 1.90 -0.55 2.50 -0.55 43.90 0 45.95 0.35 1.10 0.30 1.75 -0.10 2.05 -0.90 0.70 -13.25 2.95 -20.60 3.80 -8.55 1 -14.80 1.20 -21.50 0.75z"/>
  <path d="M709.75 133.45 c-22.85 -2.90 -40.95 -21 -44.50 -44.45 -4.25 -27.95 11.40 -53.50 37.60 -61.30 3.65 -1.10 5.75 -1.35 12.30 -1.55 11.40 -0.40 17.20 0.75 25.85 5.10 5.30 2.65 9.20 5.55 13.30 9.85 11.10 11.65 16.10 26.45 14.65 43.15 -1.90 22.20 -15.75 40.25 -36.20 47.15 -3.75 1.25 -12.60 2.60 -16.55 2.55 -1.65 -0.05 -4.50 -0.30 -6.45 -0.50z m17.25 -12.50 c11.70 -3.25 19.35 -11.10 23.80 -24.45 1.40 -4.10 1.40 -4.55 1.40 -14.50 0 -9.70 -0.05 -10.50 -1.35 -14.75 -2.90 -9.65 -8.05 -18 -14.05 -22.80 -6.40 -5.20 -12.85 -7.20 -21.55 -6.80 -9.65 0.45 -16.35 3.35 -22.75 9.80 -5.80 5.85 -9.15 12.65 -10.75 22 -3.50 19.95 6.25 42 21.85 49.50 2.30 1.05 5.40 2.20 6.90 2.50 1.50 0.30 3.20 0.65 3.75 0.75 2 0.50 9.10 -0.20 12.75 -1.25z"/>
  <path d="M293.25 131.50 c-0.15 -0.25 0.35 -0.80 1.15 -1.20 2.90 -1.50 7.60 -6.90 7.60 -8.80 0 -0.40 0.80 -2.65 1.75 -5 6.20 -15.35 29.70 -77.70 30 -79.65 0.45 -3.05 -0.35 -5 -2.70 -6.45 l-1.80 -1.15 11.95 -0.15 c6.60 -0.05 12.15 0.05 12.30 0.25 0.20 0.25 2.65 6.35 5.50 13.65 2.85 7.30 7.05 18.10 9.35 24 2.35 5.90 5.25 13.35 6.45 16.50 2.85 7.30 9.70 24.70 12.25 31.25 3 7.55 6.20 12.05 10.85 15.20 0.85 0.60 1.60 1.35 1.60 1.60 0 0.25 -6.25 0.45 -15.50 0.45 -9.60 0 -15.50 -0.20 -15.50 -0.50 0 -0.25 0.50 -0.75 1.15 -1.05 0.60 -0.30 1.70 -1.15 2.50 -1.85 2.45 -2.30 2.45 -2.15 -7.05 -28.10 l-2.50 -6.75 -19 -0.15 -18.95 -0.10 -4.60 13.10 c-2.55 7.25 -4.90 14.40 -5.15 15.95 -0.70 3.55 0.25 5.80 3.10 7.40 1.10 0.60 2 1.30 2 1.60 0 0.60 -26.35 0.60 -26.75 -0.05z m64.25 -50.60 c0 -0.55 -13.45 -36.80 -13.85 -37.35 -0.10 -0.10 -0.30 -0.10 -0.45 0.05 -0.30 0.35 -14.20 36.95 -14.20 37.55 0 0.20 6.40 0.35 14.25 0.35 10.85 0 14.25 -0.15 14.25 -0.60z"/>
  <path d="M407.50 131.55 c0 -0.25 0.80 -1.05 1.75 -1.75 2.10 -1.60 3.40 -4.05 4.20 -7.70 0.40 -1.85 0.55 -14.65 0.55 -41.50 0 -32.05 -0.15 -39.45 -0.75 -42.30 -0.90 -4.20 -2 -6.20 -4.40 -7.75 -1 -0.65 -1.75 -1.35 -1.65 -1.50 0.10 -0.15 6.65 -0.25 14.55 -0.15 l14.35 0.15 -2.30 2 c-4.20 3.70 -4.05 1.85 -4.05 47.70 l0 40 8 0.60 c12.50 0.90 18.50 0.80 22.85 -0.30 4.40 -1.15 9.55 -3.65 13.35 -6.50 1.50 -1.15 2.80 -1.95 2.90 -1.85 0.10 0.10 -1.60 4.85 -3.75 10.60 l-3.90 10.45 -30.85 0.15 c-17.75 0.05 -30.85 -0.10 -30.85 -0.35z"/>
  <path d="M113.25 131.15 c-1.80 -0.45 -2.60 -1.60 -5.75 -8 -2.60 -5.35 -3.60 -6.80 -6.65 -9.85 -5.75 -5.65 -12 -8.35 -21.55 -9.25 -6.80 -0.65 -10.30 -0.10 -16.05 2.65 -7.80 3.70 -16.80 11.45 -21.05 18.15 -2.55 3.95 -3.95 4.65 -9.55 4.65 -4.20 0 -4.65 -0.10 -5.35 -1.10 -1.80 -2.55 -0.40 -5.80 4.50 -10.40 8.25 -7.65 18.95 -13.80 28.45 -16.30 7.30 -1.90 16.55 -2.20 23.85 -0.75 9 1.80 17.30 5.15 24.45 9.85 4.55 3 10.30 9.20 12.40 13.30 1.85 3.65 1.85 5.20 0 6.35 -1.20 0.70 -6.05 1.15 -7.70 0.70z"/>
  <path d="M484.45 129.15 c4.45 -4.35 4.25 -2.45 4.45 -44.90 0.05 -22.40 -0.10 -39.05 -0.40 -42.20 -0.65 -6.55 -2.10 -10.05 -4.85 -11.70 l-1.90 -1.10 27 -0.30 c14.85 -0.15 27.50 -0.45 28.15 -0.65 l1.10 -0.40 0 9 c0 5 -0.20 9.15 -0.45 9.30 -0.20 0.15 -0.95 -0.30 -1.60 -1 -4 -4.30 -11.45 -5.75 -24.20 -4.70 -3.80 0.30 -7.05 0.60 -7.15 0.70 -0.05 0.10 -0.15 6.55 -0.15 14.35 l0 14.20 10.90 0 c6 0 11.60 -0.10 12.40 -0.25 l1.50 -0.25 0.15 7.95 c0.10 7.90 -0.25 9.95 -1.35 7.85 -0.35 -0.55 -1.55 -1.55 -2.70 -2.15 -1.90 -1.05 -2.95 -1.15 -11.50 -1.30 l-9.35 -0.20 0.10 18.45 0.15 18.40 8.25 0.85 c10.35 1 17.30 1.10 21.60 0.20 4.20 -0.90 10.30 -3.70 13.80 -6.35 1.45 -1.10 2.80 -1.90 2.95 -1.80 0.15 0.15 -1.25 4.80 -3.10 10.30 l-3.35 10.05 -31.45 0 -31.45 0 2.45 -2.35z"/>
  <path d="M147.75 112.65 c-3.25 -0.70 -9.65 -3.10 -14 -5.15 -21.70 -10.40 -34.10 -30.80 -33.90 -55.75 0.10 -9.95 2.85 -19 7.20 -24 2.50 -2.80 4.80 -2.15 7.25 2.05 2.15 3.65 1.85 5.45 -1.85 10.35 -7.65 10.15 -9.55 19.15 -6.45 30.30 1.30 4.60 4.45 11.20 6.55 13.70 5.45 6.55 18.50 12.85 30.10 14.60 2.65 0.40 5.50 1.10 6.30 1.55 1.35 0.80 4.60 5.70 5.30 8.10 0.50 1.65 -0.90 3.45 -3.10 4.05 -1.05 0.30 -2 0.50 -2.15 0.50 -0.15 -0.05 -0.70 -0.15 -1.25 -0.30z"/>
  <path d="M79.25 105.50 l-1.50 -0.40 1.65 -0.05 c0.85 0 1.60 0.20 1.60 0.45 0 0.30 -0.05 0.45 -0.10 0.45 -0.10 -0.05 -0.80 -0.25 -1.65 -0.45z"/>
  <path d="M27.60 91.20 c-1.70 -1.15 -1.50 -4 0.55 -7 2.45 -3.65 3.40 -4.05 8.45 -3.30 13 1.85 21.25 -0.65 29.65 -9.10 5.35 -5.40 8.60 -10.45 9.85 -15.50 2.15 -8.50 0.35 -23.35 -3.85 -32.40 -1.60 -3.40 -1.55 -5.30 0.05 -8.55 2.85 -5.65 4.35 -6.70 7.20 -5.05 1.80 1.10 2.70 2.75 3.70 6.95 3.20 13.60 2.25 27.75 -2.55 39.75 -6.10 15.20 -22.85 30.05 -38.35 34 -5 1.25 -13 1.40 -14.70 0.20z"/>
  <path d="M109 75.40 c-0.95 -1.60 -1 -2.25 -0.10 -1.70 0.55 0.30 1.70 3.30 1.30 3.30 -0.10 0 -0.65 -0.70 -1.20 -1.60z"/>
  <path d="M68.50 67 c0 -0.40 2.15 -3.85 2.85 -4.50 0.15 -0.15 -0.30 0.95 -1.05 2.40 -1.25 2.50 -1.80 3.15 -1.80 2.10z"/>
 </g>
 <g fill="#9f9f9f" stroke="#9f9f9f" stroke-width="0.5">
  <path d="M51.90 131.05 c-4.30 -0.90 -4.50 -3.05 -0.85 -9 5.90 -9.55 14.45 -15.10 25.60 -16.60 2.15 -0.30 4.05 -0.40 4.25 -0.20 0.20 0.20 0.10 0.45 -0.20 0.60 -0.25 0.10 -1.90 1 -3.65 2.05 -7 4.10 -12.85 11.05 -15.30 18.10 -0.70 2.10 -1.70 4.05 -2.15 4.35 -1.25 0.75 -5.50 1.15 -7.70 0.70z"/>
  <path d="M132 128.10 c-1 -0.50 -2.60 -2.20 -3.70 -3.90 -7.15 -10.70 -23.60 -20.55 -41.80 -25.05 -5.30 -1.30 -5.55 -1.40 -3.50 -1.55 3.15 -0.25 15 0.80 19.50 1.70 13.65 2.75 24.80 8.45 36.30 18.50 3.70 3.30 5.35 5.70 5.30 7.85 -0.05 2.45 -1.05 3 -5.95 3.25 -3.60 0.15 -4.70 0 -6.15 -0.80z"/>
  <path d="M18.50 111.40 c-2.35 -1.25 -1.65 -5.15 1.85 -9.80 1.70 -2.30 3.30 -2.90 8.20 -3.30 7.65 -0.55 16.55 -3.75 25.60 -9.25 5.25 -3.20 13.70 -10 17.70 -14.25 1.75 -1.80 3.25 -3.30 3.40 -3.30 0.50 0 -4.50 7.40 -8.45 12.45 -7.55 9.65 -17.65 18.05 -26.95 22.25 -5.25 2.35 -14.50 5.35 -17.60 5.60 -1.55 0.15 -3 0 -3.75 -0.40z"/>
  <path d="M133.70 91.95 c-7.20 -0.90 -14.70 -4.85 -19.80 -10.40 -2.75 -2.95 -6.05 -7.55 -5.70 -7.90 0.10 -0.15 1.40 0.60 2.90 1.55 6.75 4.50 16.80 7.05 23.10 5.90 4.80 -0.90 5.95 -0.80 7.40 0.80 2.60 2.75 4.10 7.25 3 8.90 -1.10 1.70 -4.35 2.05 -10.90 1.15z"/>
  <path d="M99.25 73 c-6.60 -13.15 -9.75 -25.15 -9.75 -37.10 0 -9.20 2.45 -22.50 4.80 -26 1.05 -1.65 1.45 -1.90 3.15 -1.90 1.75 0 2.05 0.20 3.60 2.65 3.65 5.55 3.80 7.35 0.95 13.15 -4.35 8.90 -5.95 22.10 -4.30 34.70 0.80 5.90 2.50 14.05 3.55 17.05 1.15 3.15 0.40 2.25 -2 -2.55z"/>
  <path d="M68.35 61.40 c-0.15 -3.40 -0.65 -7.40 -1.05 -8.90 -1.10 -3.85 -3.90 -9.30 -6.30 -12.20 -2.70 -3.30 -2.90 -4.25 -1.30 -7.55 1.45 -2.95 3.80 -5.25 5.35 -5.25 1.50 0 3.30 2.15 5.20 6.15 4.80 10.05 4.95 20.45 0.50 30.25 -0.95 1.95 -1.80 3.60 -1.90 3.60 -0.10 0 -0.35 -2.75 -0.50 -6.10z"/>
 </g>
</svg>