<?xml version="1.0" encoding="utf-8"?>
<!DOCTYPE svg PUBLIC "-//W3C//DTD SVG 1.0//EN" "http://www.w3.org/TR/2001/REC-SVG-20010904/DTD/svg10.dtd">
<svg version="1.0" xmlns="http://www.w3.org/2000/svg" width="1177px" height="312px" viewBox="0 0 1177 312" preserveAspectRatio="xMidYMid meet">
 <g fill="#17253b">
  <path d="M162.80 249.20 c-1.40 -0.45 -3.40 -1.45 -4.50 -2.20 -1.15 -0.80 -12.55 -11.95 -25.45 -24.85 l-23.35 -23.40 11.75 -11.75 11.75 -11.75 29 29 29.05 29.05 -6.75 6.70 c-7.95 7.90 -10.35 9.45 -15.55 9.75 -2.40 0.15 -4.30 0 -5.95 -0.55z"/>
  <path d="M441.85 221.45 c-5.35 -0.55 -12.75 -2.60 -17 -4.70 -4.35 -2.15 -8.35 -4.80 -8.35 -5.55 0 -0.30 1.45 -3.65 3.25 -7.40 l3.25 -6.85 2.25 1.55 c6.60 4.50 15.60 7.50 22.70 7.50 7.30 0 10.30 -1.60 10.30 -5.50 0 -3.65 -3.05 -5.70 -13 -8.75 -11.40 -3.50 -16.45 -5.85 -20.15 -9.40 -5.40 -5.20 -6.85 -16.10 -3.10 -23.70 1.90 -3.85 6.35 -8.05 10.65 -10.05 11.40 -5.40 30 -3.90 42.70 3.40 l2.65 1.50 -3.55 7.15 c-1.95 3.90 -3.60 7.15 -3.70 7.25 -0.05 0.05 -2.25 -0.90 -4.90 -2.15 -9.05 -4.30 -18.65 -5.85 -23.20 -3.80 -4.65 2.15 -4.20 7 0.90 9.60 1.10 0.55 4.85 1.90 8.35 3 7.50 2.35 13.65 4.70 16.10 6.10 7 4.15 10.50 10.05 10.50 17.90 0 12.65 -9.60 21.30 -25.45 22.90 -5.65 0.60 -5.55 0.60 -11.20 0z"/>
  <path d="M561.25 221.45 c-14.90 -2.25 -25.15 -12.15 -28.60 -27.60 -1.30 -5.75 -1.15 -16.50 0.30 -22.05 1.45 -5.70 2.55 -8.15 5.35 -12.35 2.95 -4.50 6.90 -7.90 11.90 -10.45 4.95 -2.45 9.50 -3.50 15.80 -3.50 8.75 0 15.75 2.70 21.10 8.15 l2.90 2.95 0.10 -19.45 0.15 -19.40 10.40 -0.15 c5.70 -0.05 10.35 0.05 10.40 0.25 0 0.25 0.05 23.45 0.05 51.65 l0.05 51.25 -10.60 0.15 -10.55 0.10 0 -5.35 0 -5.35 -1.85 2.20 c-3 3.45 -7.30 6.35 -11.55 7.70 -4.45 1.40 -11 1.95 -15.35 1.25z m15.75 -17.75 c8.10 -2.40 13 -9.80 13 -19.70 0 -9.05 -3.75 -15.75 -10.60 -19 -11 -5.20 -23.30 1.20 -25.95 13.55 -0.80 3.80 -0.30 10.60 1 14.10 3.60 9.25 13.05 13.90 22.55 11.05z"/>
  <path d="M661 221.50 c-9.30 -1.10 -16.40 -4.35 -22.30 -10.25 -2.20 -2.20 -4.75 -5.25 -5.65 -6.85 -6.75 -12 -6.75 -29.45 0.05 -41.30 2.30 -4.05 7.70 -9.50 11.90 -12 6.95 -4.15 14.65 -5.90 23.75 -5.45 6.90 0.40 10.85 1.35 16.20 3.90 7.55 3.65 13.45 11.15 16.05 20.45 1.15 4.15 2.35 16.50 1.85 18.65 l-0.35 1.35 -26.50 0 c-20.85 0 -26.50 0.15 -26.50 0.65 0 0.95 2.25 5.40 3.60 7.20 6.75 8.90 22.20 9.60 31.75 1.40 1.15 -0.95 2.30 -1.75 2.55 -1.75 0.30 0 2.90 2.50 5.80 5.60 l5.30 5.60 -1.35 1.45 c-3.70 3.85 -12 8.60 -17.90 10.10 -3.35 0.85 -10.55 1.75 -13.25 1.70 -0.95 -0.05 -3.20 -0.25 -5 -0.45z m21.35 -46.75 c-0.85 -8.15 -7.15 -13.40 -16.10 -13.40 -7.90 0 -13.25 3.90 -16.20 11.80 -1.75 4.75 -3.25 4.35 15.75 4.35 l16.85 0 -0.30 -2.75z"/>
  <path d="M285 172.25 l0 -48.75 10.90 0.10 10.85 0.15 0.15 48.65 0.10 48.60 -11 0 -11 0 0 -48.75z"/>
  <path d="M329.50 183.50 l0 -37.50 10.65 0.10 10.60 0.15 -0.05 6.15 c0 3.35 0.10 6.10 0.25 6.10 0.15 -0.05 1.10 -1.15 2.05 -2.55 4.65 -6.60 13.30 -10.45 23.45 -10.45 8.35 0 14.40 2.25 19.30 7.20 3.60 3.65 5.45 6.90 6.75 12.10 0.95 3.60 1 5.60 1 30.05 l0 26.15 -10.50 0 -10.50 0 0 -21.50 c0 -13.55 -0.20 -22.40 -0.55 -24 -0.75 -3.60 -3.20 -6.85 -6.45 -8.70 -2.55 -1.45 -3.10 -1.55 -7.50 -1.55 -3.90 0 -5.20 0.20 -7.25 1.15 -5.55 2.55 -8.85 7.75 -9.80 15.30 -0.30 2.50 -0.45 11.60 -0.35 21.80 l0.15 17.50 -10.60 0 -10.65 0 0 -37.50z"/>
  <path d="M494.50 183.50 l0 -37.50 10.50 0 10.50 0 0 37.50 0 37.50 -10.50 0 -10.50 0 0 -37.50z"/>
  <path d="M502.20 136.55 c-4.40 -1.10 -7.40 -4.50 -8.30 -9.35 -2.10 -11.35 10.55 -18.80 18.90 -11.10 4.65 4.30 4.90 12.50 0.50 17.30 -2.30 2.60 -7.55 4.05 -11.10 3.15z"/>
 </g>
 <g fill="#566e91">
  <path d="M829.95 221.50 c-9.50 -1.10 -16.25 -4.30 -22.50 -10.50 -3.55 -3.50 -4.70 -5.05 -6.35 -8.50 -3.20 -6.80 -3.85 -10.05 -3.85 -19 0.05 -8.95 0.65 -11.85 3.90 -18.50 7.20 -14.65 25 -22.35 43.10 -18.55 6.20 1.30 9.55 2.65 13.70 5.60 5.70 4 10.30 11.10 12.25 18.95 1.10 4.55 1.95 13.25 1.55 16.40 l-0.30 2.60 -26.50 0 c-20.80 0 -26.45 0.15 -26.45 0.65 0 0.30 0.65 1.95 1.40 3.60 1.80 3.75 5.25 7.25 9 9.10 2.60 1.30 3.35 1.40 8.35 1.40 7.70 0 10.60 -1.05 18.20 -6.60 l1.20 -0.90 5.40 5.75 5.40 5.75 -1.10 1.15 c-3.70 3.95 -12.20 8.85 -18.10 10.35 -3.15 0.80 -10.90 1.75 -13.50 1.70 -0.80 -0.05 -3 -0.25 -4.80 -0.45z m21.55 -45.70 c0 -3.45 -1.55 -6.90 -4.50 -9.85 -3.40 -3.45 -6.50 -4.60 -12.10 -4.65 -3.30 0 -4.25 0.25 -7.10 1.65 -4.80 2.35 -8.55 7.35 -9.55 12.70 l-0.35 1.85 16.80 0 16.80 0 0 -1.70z"/>
  <path d="M913.20 221.45 c-8.35 -0.95 -15.70 -4.50 -21.45 -10.20 -6.05 -6.05 -9.20 -13 -10.35 -22.75 -0.70 -5.90 -0.05 -12.45 1.85 -18.35 3.55 -11.25 12.60 -19.80 24.50 -23.25 5.65 -1.60 17.10 -1.60 23 0 5.15 1.45 9.20 3.40 13.10 6.25 3.05 2.30 7.15 6.90 7.15 8 -0.05 0.35 -2.25 2.10 -4.90 4 -2.65 1.85 -5.75 4.05 -6.90 4.90 l-2 1.50 -2.15 -2.05 c-6 -5.75 -15.85 -7.40 -22.90 -3.90 -3.05 1.55 -6.80 5.75 -8.25 9.30 -0.95 2.40 -1.15 3.75 -1.15 8.85 0 5.10 0.20 6.45 1.15 8.90 2.65 6.55 7.95 10.65 14.45 11.20 6.70 0.55 12.20 -1.35 16.55 -5.70 l2.70 -2.70 6.05 4.10 c3.35 2.30 6.60 4.50 7.25 5 l1.10 0.85 -2.20 2.95 c-5.45 7.25 -14.55 11.90 -25.55 13.15 -5 0.55 -6 0.55 -11.05 -0.05z"/>
  <path d="M739 181.75 l0 -39.25 -14.75 0 -14.75 0 0 -9.50 0 -9.50 40.25 0 40.25 0 0 9.50 0 9.50 -14.75 0 -14.75 0 0 39.25 0 39.25 -10.75 0 -10.75 0 0 -39.25z"/>
  <path d="M967.60 169.40 l0.15 -51.65 10.50 0 10.50 0 0.25 20.50 0.25 20.50 1.15 -1.85 c1.75 -2.80 6.05 -6.50 9.70 -8.30 8.10 -3.95 19.10 -4.20 27.30 -0.55 7.30 3.20 12.55 10.65 14.05 20 0.35 1.90 0.55 13.25 0.55 28.10 l0 24.85 -10.60 -0.10 -10.65 -0.15 -0.25 -23 c-0.25 -22.85 -0.25 -23 -1.40 -25.35 -2.55 -5.15 -7.45 -7.70 -14.05 -7.30 -7.80 0.45 -12.95 4.65 -15.25 12.35 -0.70 2.30 -0.80 5.85 -0.80 23.15 l0 20.40 -10.75 0 -10.75 0 0.10 -51.60z"/>
  <path d="M99.90 187.65 c-3.70 -3.80 -7.25 -7.85 -7.85 -9.05 -2.50 -4.95 -2.35 -11.05 0.35 -15.80 0.80 -1.35 13.95 -15.05 32.50 -33.75 33.60 -34 33.25 -33.65 39.15 -34.35 3.20 -0.35 7.10 0.40 10.20 1.95 2.05 1 50.75 49.10 50.75 50.10 0 0.30 -5.25 5.80 -11.70 12.20 l-11.75 11.70 -17.65 -17.55 -17.65 -17.60 -29.50 29.50 c-16.20 16.20 -29.65 29.50 -29.75 29.50 -0.15 0 -3.35 -3.10 -7.10 -6.85z"/>
 </g>
 <g fill="#4b5e7a">
  <path d="M182.10 218.90 l-11.60 -11.65 29 -29 29.05 -29 6.85 7 c7.70 7.75 9.05 9.95 9.45 14.95 0.30 3.50 -0.75 8 -2.45 10.55 -1.05 1.50 -47.95 48.75 -48.40 48.75 -0.15 0 -5.50 -5.25 -11.90 -11.60z"/>
 </g>
</svg>