<?xml version="1.0" encoding="UTF-8"?>
<svg version="1.1" xmlns="http://www.w3.org/2000/svg" width="2000" height="2000">
<path d="M0 0 C0.85078125 0.04382813 1.7015625 0.08765625 2.578125 0.1328125 C11.89121408 2.31198359 18.3302847 7.73643004 24.87158203 14.42895508 C25.72160294 15.27824585 26.57162384 16.12753662 27.44740295 17.00256348 C29.75139414 19.30941914 32.04398266 21.62689563 34.33177042 23.94980073 C36.73431431 26.38383022 39.15124756 28.80348947 41.56661987 31.22477722 C46.12736565 35.80099671 50.67522685 40.3897978 55.21847618 44.98338097 C60.39604377 50.21704474 65.58799982 55.43633533 70.78114915 60.65453112 C81.45339751 71.3788908 92.10765274 82.12096095 102.75 92.875 C99.52736442 96.68796792 96.30310331 100.44797152 92.76416016 103.97436523 C92.04386627 104.69458359 91.32357239 105.41480194 90.58145142 106.15684509 C89.82496307 106.90817215 89.06847473 107.65949921 88.2890625 108.43359375 C87.49849457 109.22274673 86.70792664 110.01189972 85.8934021 110.82496643 C83.38962374 113.32318661 80.88237525 115.81789044 78.375 118.3125 C76.66773752 120.01474208 74.96070391 121.71721373 73.25390625 123.41992188 C69.08858102 127.57427363 64.92040781 131.72575081 60.75 135.875 C56.69397286 134.25876737 53.98044472 131.37347324 50.97167969 128.32373047 C50.40538849 127.75773132 49.83909729 127.19173218 49.25564575 126.60858154 C47.38960762 124.7411528 45.53074904 122.86674538 43.671875 120.9921875 C42.37765446 119.69423589 41.08299095 118.39672584 39.78790283 117.09963989 C36.38374354 113.68785164 32.98563366 110.27009948 29.58874512 106.85107422 C26.12008593 103.3619408 22.64574417 99.87847613 19.171875 96.39453125 C12.35900698 89.56022632 5.5525158 82.71960797 -1.25 75.875 C-4.73029121 77.36868515 -6.97618348 79.35417418 -9.64129639 82.02578735 C-10.51345291 82.89519455 -11.38560944 83.76460175 -12.28419495 84.66035461 C-13.2426163 85.62585363 -14.20094133 86.59144827 -15.15917969 87.55712891 C-16.17410545 88.57261894 -17.18947208 89.58766852 -18.20524597 90.60231018 C-20.95941754 93.3559079 -23.70737879 96.11562883 -26.45427227 98.87648439 C-29.326797 101.76151097 -32.20498586 104.64087542 -35.08258057 107.52084351 C-40.52989947 112.97437878 -45.97210002 118.43299229 -51.41248345 123.89344537 C-57.60681738 130.1101334 -63.80683076 136.32114388 -70.00732946 142.53168225 C-82.76121944 155.30647778 -95.507954 168.08839139 -108.25 180.875 C-109.36559812 179.92313843 -110.48057466 178.97054833 -111.59529114 178.01765442 C-112.21626081 177.48725965 -112.83723047 176.95686487 -113.4770174 176.41039753 C-117.45769679 172.96314131 -121.18354081 169.25228894 -124.9375 165.5625 C-125.77861328 164.75876953 -126.61972656 163.95503906 -127.48632812 163.12695312 C-134.7235531 155.99303509 -139.29985075 148.54522366 -139.5 138.1875 C-139.38311146 128.2665853 -135.40056293 120.92273631 -128.4375 114 C-127.81230469 113.40445313 -127.18710938 112.80890625 -126.54296875 112.1953125 C-124.75803043 110.38908872 -123.15381753 108.58651476 -121.52270508 106.64990234 C-116.20810646 100.55937636 -110.41627498 94.93105178 -104.68611145 89.23594666 C-102.55568874 87.11841912 -100.42852078 84.9976685 -98.30212402 82.87609863 C-93.02305066 77.6103148 -87.73852263 72.35001608 -82.4541626 67.08953857 C-77.97826698 62.63344939 -73.50447671 58.17526615 -69.03340149 53.71434021 C-66.94892822 51.63629658 -64.86144079 49.56131465 -62.77380371 47.4864502 C-54.45241945 39.20460056 -54.45241945 39.20460056 -46.60836792 30.47381592 C-43.26401449 26.53747038 -39.60126895 22.88290518 -35.98168945 19.20166016 C-35.03812739 18.23650962 -34.10087726 17.26514638 -33.17016602 16.28759766 C-23.98115109 6.64406536 -13.91608066 -0.95829298 0 0 Z " fill="#69A1CB" transform="translate(304.25,860.125)"/>
<path d="M0 0 C12.54 0 25.08 0 38 0 C38 61.05 38 122.1 38 185 C25.13 185 12.26 185 -1 185 C-1.33 179.72 -1.66 174.44 -2 169 C-3.546875 170.7634375 -3.546875 170.7634375 -5.125 172.5625 C-14.18404259 181.63766188 -26.73487797 186.16048224 -39.40869141 186.38037109 C-58.28786028 186.34216118 -73.52155752 182.01310971 -87.4921875 168.69921875 C-94.38075695 161.28488621 -98.68227796 152.49135865 -102 143 C-102.32097656 142.08605469 -102.64195312 141.17210937 -102.97265625 140.23046875 C-108.60135389 120.67401695 -106.44364742 96.59104928 -96.6953125 78.7109375 C-87.50367113 64.01278286 -75.48862354 54.65039843 -58.51953125 50.5234375 C-43.40991268 47.38438496 -27.69659832 48.48664292 -14 56 C-3.89443378 63.21113244 -3.89443378 63.21113244 -2 67 C-1.98969254 66.17536758 -1.97938507 65.35073517 -1.96876526 64.50111389 C-1.8709612 56.74594316 -1.76847166 48.99085547 -1.66066074 41.23581791 C-1.60539527 37.24846784 -1.55196963 33.26111048 -1.50268555 29.27368164 C-1.45509524 25.42868399 -1.40275464 21.58377818 -1.34705925 17.73888969 C-1.32661143 16.26883658 -1.30790244 14.79875826 -1.29092598 13.32866096 C-1.26693536 11.27638724 -1.2368741 9.22428853 -1.20532227 7.17211914 C-1.18977798 6.00185684 -1.1742337 4.83159454 -1.15821838 3.62586975 C-1 1 -1 1 0 0 Z M-59 94 C-65.84616306 105.11240362 -67.85434308 116.47135755 -65.3515625 129.33203125 C-62.29976939 139.49163308 -56.97170584 146.74262239 -47.60546875 151.84375 C-39.4826973 155.44845817 -31.1478309 155.88219781 -22.65234375 153.28125 C-13.27788558 149.55076236 -7.01471749 143.19650401 -3 134 C0.74871224 124.86581383 0.51906092 112.19903627 -2.5625 102.875 C-6.56901826 93.85332952 -11.97073018 87.97956707 -21 84 C-21.928125 83.566875 -22.85625 83.13375 -23.8125 82.6875 C-37.31628129 79.77491972 -50.05362032 83.24697278 -59 94 Z " fill="#FEFEFE" transform="translate(1027,911)"/>
<path d="M0 0 C12.87 0 25.74 0 39 0 C39.33 23.1 39.66 46.2 40 70 C43.96 65.545 43.96 65.545 48 61 C59.39074387 51.5321571 74.43301844 48.10533499 89 49 C102.89014521 50.48487344 113.6683844 54.9487117 123.25 65.3125 C134.72600118 79.68134358 134.43503362 97.0492527 134.29296875 114.4921875 C134.28736107 116.5348377 134.28309653 118.57749199 134.28010559 120.62014771 C134.26874902 125.94988497 134.23936277 131.27936997 134.20599365 136.60900879 C134.17509276 142.06612742 134.16155781 147.52328752 134.14648438 152.98046875 C134.11448271 163.65377348 134.06179173 174.32682613 134 185 C121.13 185 108.26 185 95 185 C94.96261719 179.48539063 94.92523437 173.97078125 94.88671875 168.2890625 C94.85641618 164.77991762 94.82525339 161.27082206 94.79101562 157.76171875 C94.73684211 152.20103545 94.6857266 146.6404497 94.65356445 141.07958984 C94.62741258 136.59253739 94.58692753 132.1058155 94.53681374 127.61896896 C94.52022496 125.91354889 94.50866122 124.20807175 94.50238609 122.50258255 C94.709315 107.29646972 94.709315 107.29646972 88.8125 93.625 C82.61968785 87.84504199 75.67787936 85.60642001 67.234375 85.796875 C58.20501289 86.6177261 51.96409842 90.2065382 46 97 C41.20784553 104.01853785 39.76952519 112.15161502 39.68115234 120.51757812 C39.66608391 121.57271606 39.66608391 121.57271606 39.65071106 122.64916992 C39.62015149 124.9431893 39.60292091 127.23709352 39.5859375 129.53125 C39.56720384 131.13408379 39.54762883 132.73690794 39.5272522 134.33972168 C39.47615688 138.53501681 39.436411 142.73034383 39.39910889 146.92578125 C39.3518477 151.9720791 39.29034767 157.0182215 39.23126221 162.06439209 C39.14332579 169.70953119 39.07336452 177.35464467 39 185 C26.13 185 13.26 185 0 185 C0 123.95 0 62.9 0 0 Z " fill="#69A1CB" transform="translate(1701,911)"/>
<path d="M0 0 C13.25198428 -0.59671224 24.71215492 3.88883244 35.51953125 11.09375 C44.53632958 19.85292552 50.62217934 32.15233241 50.94754028 44.82531738 C50.95326458 46.53002559 50.94818874 48.23479368 50.93408203 49.93945312 C50.93437408 50.87696411 50.93466614 51.8144751 50.93496704 52.78039551 C50.9335829 55.85369388 50.91806501 58.92674441 50.90234375 62 C50.89861036 64.14090848 50.89576493 66.28181868 50.89376831 68.42272949 C50.88615751 74.03854141 50.86653102 79.65424874 50.84436035 85.27001953 C50.82384681 91.00812363 50.81475484 96.74624475 50.8046875 102.484375 C50.78328265 113.72921985 50.74812139 124.97395984 50.70703125 136.21875 C37.83703125 136.21875 24.96703125 136.21875 11.70703125 136.21875 C11.68125 130.47597656 11.65546875 124.73320313 11.62890625 118.81640625 C11.60372295 115.16597174 11.57737866 111.51561886 11.546875 107.86523438 C11.49862813 102.0783666 11.45455038 96.29168792 11.43603516 90.50463867 C11.42082819 85.83598225 11.3863113 81.16782241 11.33872223 76.49938774 C11.32394998 74.72336596 11.31599263 72.94727327 11.3151474 71.17119026 C11.58241259 56.78700678 11.58241259 56.78700678 5.09246826 44.39735413 C-0.05608431 39.31208215 -6.17058955 37.51611945 -13.23046875 36.84375 C-20.63370561 37.19698595 -27.67853092 39.54431934 -33.46875 44.20703125 C-39.97588502 51.38299386 -42.38631913 60.06018217 -42.49829102 69.46582031 C-42.50819061 70.18816864 -42.51809021 70.91051697 -42.52828979 71.65475464 C-42.55980359 74.03542842 -42.58462205 76.41612213 -42.609375 78.796875 C-42.62995328 80.45026154 -42.65094998 82.10364291 -42.67234802 83.75701904 C-42.72747849 88.10363583 -42.77692748 92.45029938 -42.82519531 96.79699707 C-42.88432042 102.01502587 -42.95049864 107.2329694 -43.0154953 112.45092773 C-43.11339125 120.37348297 -43.20232492 128.29609351 -43.29296875 136.21875 C-56.16296875 136.21875 -69.03296875 136.21875 -82.29296875 136.21875 C-82.29296875 91.99875 -82.29296875 47.77875 -82.29296875 2.21875 C-69.42296875 2.21875 -56.55296875 2.21875 -43.29296875 2.21875 C-42.79796875 11.62375 -42.79796875 11.62375 -42.29296875 21.21875 C-41.30296875 20.0225 -40.31296875 18.82625 -39.29296875 17.59375 C-28.64529207 5.54338538 -15.69712596 1.49751116 0 0 Z " fill="#FEFEFE" transform="translate(643.29296875,959.78125)"/>
<path d="M0 0 C18.917718 19.34766614 20.75 40.29873858 20.75 66.8125 C-10.6 66.8125 -41.95 66.8125 -74.25 66.8125 C-67.02585239 81.59453638 -67.02585239 81.59453638 -54.375 89.6875 C-43.03175161 93.2967154 -31.51824276 92.10454659 -20.875 87 C-17.51314261 85.2181278 -14.57771914 83.41852626 -11.75 80.875 C-9.25 78.8125 -9.25 78.8125 -7.36425781 78.93139648 C-4.58594712 80.08923982 -3.02621952 81.69821863 -0.921875 83.84765625 C-0.12265625 84.65654297 0.6765625 85.46542969 1.5 86.29882812 C2.325 87.14896484 3.15 87.99910156 4 88.875 C5.26070312 90.15600586 5.26070312 90.15600586 6.546875 91.46289062 C8.62147597 93.57285412 10.68875832 95.68949708 12.75 97.8125 C7.58099914 108.44040336 -3.69023315 114.57201211 -14.50390625 118.39453125 C-36.44428547 125.60226425 -59.93857361 125.05726437 -81.05859375 115.4765625 C-85.64123042 113.08708487 -89.4316822 110.27493575 -93.25 106.8125 C-93.92417969 106.24144531 -94.59835937 105.67039062 -95.29296875 105.08203125 C-106.99276436 94.46848359 -113.49238319 78.19310997 -114.37475586 62.60913086 C-115.1225036 40.06255641 -110.7080978 21.04331154 -94.9375 4.0625 C-69.37182058 -20.06042099 -27.81394971 -18.72092769 0 0 Z M-69.5546875 27.33203125 C-72.74148807 31.99474636 -75.25 37.1018974 -75.25 42.8125 C-55.78 42.8125 -36.31 42.8125 -16.25 42.8125 C-17.32612335 34.20351323 -19.04039954 27.38966015 -25.5625 21.375 C-39.74613233 10.72218678 -58.5854813 14.07572335 -69.5546875 27.33203125 Z " fill="#FEFEFE" transform="translate(1208.25,974.1875)"/>
<path d="M0 0 C15.74828482 13.19779139 22.09430879 29.90361993 24 50 C24 56.27 24 62.54 24 69 C-7.35 69 -38.7 69 -71 69 C-65.84405906 80.60086712 -61.79465816 87.09126304 -50.1875 92.25 C-38.02028322 95.11287454 -26.11630092 93.91674081 -15 88 C-12.56879968 86.18806768 -10.26713161 84.31468419 -8.0078125 82.29296875 C-6 81 -6 81 -4.14501953 81.16699219 C-1.31173682 82.26728363 0.20427244 83.86579256 2.328125 86.03515625 C3.12734375 86.84404297 3.9265625 87.65292969 4.75 88.48632812 C5.575 89.33646484 6.4 90.18660156 7.25 91.0625 C8.51070312 92.34350586 8.51070312 92.34350586 9.796875 93.65039062 C11.87147597 95.76035412 13.93875832 97.87699708 16 100 C10.55362633 111.49289872 -2.59099095 117.5490324 -13.99560547 121.73193359 C-34.61047814 128.58651933 -58.24042138 126.54079768 -77.80859375 117.6640625 C-82.38832168 115.27610155 -86.1911548 112.46995375 -90 109 C-91.04607422 108.07380859 -91.04607422 108.07380859 -92.11328125 107.12890625 C-97.22316309 102.34621082 -100.75160414 97.17680049 -104 91 C-104.38027344 90.29230469 -104.76054688 89.58460937 -105.15234375 88.85546875 C-113.26772775 72.34908394 -113.43350707 51.09752407 -108.3125 33.671875 C-101.8650933 15.6344872 -90.98604262 2.73654985 -73.6875 -5.75 C-50.81231201 -15.32345575 -20.70790005 -14.37309258 0 0 Z M-65.4609375 27.90234375 C-69.22258313 33.02925671 -72 38.6135792 -72 45 C-52.53 45 -33.06 45 -13 45 C-14.07612335 36.39101323 -15.79039954 29.57716015 -22.3125 23.5625 C-35.62596563 13.56323752 -54.2945929 15.86280158 -65.4609375 27.90234375 Z " fill="#69A1CB" transform="translate(1507,972)"/>
<path d="M0 0 C48.18 0 96.36 0 146 0 C146 11.22 146 22.44 146 34 C128.51 34 111.02 34 93 34 C93 80.2 93 126.4 93 174 C79.8 174 66.6 174 53 174 C53 127.8 53 81.6 53 34 C35.51 34 18.02 34 0 34 C0 22.78 0 11.56 0 0 Z " fill="#69A1CB" transform="translate(1239,922)"/>
<path d="M0 0 C1 3 1 3 0.01196289 5.54370117 C-0.4960083 6.53345947 -1.00397949 7.52321777 -1.52734375 8.54296875 C-2.07197266 9.61611328 -2.61660156 10.68925781 -3.17773438 11.79492188 C-3.75845703 12.91447266 -4.33917969 14.03402344 -4.9375 15.1875 C-5.51435547 16.31865234 -6.09121094 17.44980469 -6.68554688 18.61523438 C-8.11487551 21.41482848 -9.55331136 24.20934805 -11 27 C-15.4945631 27 -18.30619144 25.62834417 -22.25 23.75 C-33.58303765 18.59529998 -47.63329645 13.22052151 -60.15625 16.578125 C-63.56267062 17.89043458 -64.94748747 18.92123121 -67 22 C-67.17589542 23.99551147 -67.17589542 23.99551147 -66.875 26.0625 C-66.81054688 26.75472656 -66.74609375 27.44695313 -66.6796875 28.16015625 C-66.15610768 30.13764702 -66.15610768 30.13764702 -64.3046875 31.11328125 C-63.54414062 31.40589844 -62.78359375 31.69851563 -62 32 C-61.13890625 32.33257813 -60.2778125 32.66515625 -59.390625 33.0078125 C-53.65762524 35.04716316 -47.92277537 37.0350344 -42.12890625 38.89453125 C-41.08895508 39.23145996 -40.04900391 39.56838867 -38.97753906 39.91552734 C-36.91873427 40.58030341 -34.8569933 41.23607654 -32.79199219 41.88134766 C-19.75001933 46.1046061 -7.65600385 52.13420258 -1.0078125 64.59375 C3.01878355 74.20763825 3.70336442 84.99401129 0.375 94.9375 C-4.06512103 105.43799674 -11.73895047 113.0691677 -22.05078125 117.83203125 C-44.85251188 126.8621206 -70.82486367 124.83373744 -93.28125 115.68359375 C-99.86491301 112.82356113 -105.97385504 109.1464779 -111 104 C-109.0516436 99.84940507 -107.08967143 95.7053941 -105.125 91.5625 C-104.56941406 90.37849609 -104.01382813 89.19449219 -103.44140625 87.97460938 C-102.63896484 86.28754883 -102.63896484 86.28754883 -101.8203125 84.56640625 C-101.32805176 83.52427979 -100.83579102 82.48215332 -100.32861328 81.40844727 C-99 79 -99 79 -97 78 C-94.8053918 79.14264725 -92.73066093 80.3350405 -90.625 81.625 C-77.05619974 89.64332549 -61.17727433 96.21720645 -45.0625 93.375 C-40.93488107 92.24723527 -38.45755091 90.604408 -36 87 C-35.92658355 83.4025941 -36.39273343 81.71276627 -38.72851562 78.97119141 C-46.79480274 71.97127716 -59.9108533 69.64896998 -69.93359375 66.5703125 C-82.78891225 62.44718629 -94.56845346 56.70580334 -101.375 44.54296875 C-105.47165818 35.0552222 -105.59198207 23.60918588 -102.25 13.875 C-100.55323231 9.9139047 -98.69410911 6.38688003 -96 3 C-95.56558594 2.44957031 -95.13117187 1.89914062 -94.68359375 1.33203125 C-73.56505328 -22.64465755 -23.72974695 -17.85490669 0 0 Z " fill="#FEFEFE" transform="translate(826,974)"/>
<path d="M0 0 C6.35820829 4.50338275 13.53903807 9.78422088 17 17 C15.8739368 20.37818959 15.25781977 20.79874949 12.4296875 22.7421875 C11.6975 23.25136719 10.9653125 23.76054688 10.2109375 24.28515625 C9.44007812 24.80980469 8.66921875 25.33445312 7.875 25.875 C6.37230551 26.91393188 4.8697004 27.95299304 3.3671875 28.9921875 C2.63725586 29.49331055 1.90732422 29.99443359 1.15527344 30.51074219 C-1.92286501 32.63768425 -4.96200531 34.8161895 -8 37 C-10.85629596 35.69886735 -12.92210213 34.28411995 -15.1875 32.125 C-22.86840577 25.35454642 -31.56952354 23.6363742 -41.53515625 23.71484375 C-48.60235282 24.29647323 -56.10581727 26.68631589 -61 32 C-68.37300283 42.744577 -71.3404437 53.6339871 -69.375 66.6875 C-67.25324711 76.2772647 -63.1291544 83.37694329 -55 89 C-46.84616712 93.6153771 -37.63706786 93.70792587 -28.640625 91.79296875 C-21.81917374 89.74451519 -16.80442618 86.21623414 -12 81 C-10.02 79.515 -10.02 79.515 -8 78 C4.87 86.415 4.87 86.415 18 95 C15.49383859 105.02464562 6.47188378 111.83014966 -2 117 C-19.82404193 126.89975125 -41.90447672 129.32229816 -61.75 124.375 C-77.44797581 119.73881025 -92.00824168 110.83857914 -100.171875 96.25390625 C-110.36993415 77.04564315 -112.61622616 57.02103673 -107.1875 35.828125 C-101.86968699 18.72249316 -91.64456892 5.54921449 -75.90136719 -3.06152344 C-52.89360378 -14.41769223 -21.83110323 -13.65579412 0 0 Z " fill="#69A1CB" transform="translate(1656,971)"/>
<path d="M0 0 C2.81858349 1.08980039 4.33007182 2.64389882 6.46331978 4.78510666 C7.31864799 5.63631088 8.17397621 6.48751511 9.05522346 7.3645134 C9.99480103 8.31470792 10.93423406 9.26504538 11.87353706 10.21551132 C12.86854386 11.21136438 13.86421181 12.20655722 14.8604908 13.20113754 C17.56320758 15.90299291 20.25656915 18.61400411 22.94836521 21.32673383 C25.76304999 24.16016087 28.58622161 26.98510553 31.40851021 29.81095505 C36.75159625 35.16336874 42.08698837 40.52338446 47.41966939 45.8861627 C53.49111516 51.99113 59.57107245 58.08759014 65.65176535 64.18334496 C78.15999913 76.72294409 90.65748552 89.27320504 103.14795113 101.83050156 C102.19378878 102.94829361 101.23897004 104.06552538 100.28387642 105.18252182 C99.48641062 106.11584996 99.48641062 106.11584996 98.6728344 107.06803322 C95.40349318 110.84675549 91.89714199 114.39129194 88.39795113 117.95550156 C87.27646675 119.13306015 87.27646675 119.13306015 86.13232613 120.33440781 C78.60081602 127.98198571 71.0292344 132.50973096 60.16357613 132.95550156 C46.32623393 132.38193297 38.06381037 124.06665986 28.78247261 114.69207382 C28.00087273 113.91076599 27.21927284 113.12945816 26.41398811 112.32447433 C23.86089746 109.77000299 21.31494245 107.20854638 18.76904488 104.64690781 C16.98872671 102.86285503 15.20796316 101.07924662 13.42677498 99.29606247 C9.23719217 95.09965322 5.0520815 90.89881916 0.86917216 86.69576067 C-3.89840735 81.90572193 -8.6717587 77.12145233 -13.44557106 72.33762658 C-23.2541047 62.50826342 -33.05547328 52.6717819 -42.85204887 42.83050156 C-41.3027405 39.57809684 -39.64583897 37.35781369 -37.10839653 34.78045273 C-36.34064903 33.99671783 -35.57290154 33.21298294 -34.78188896 32.4054985 C-33.95168236 31.5699292 -33.12147575 30.73435989 -32.26611137 29.87347031 C-31.41278221 29.01111267 -30.55945305 28.14875504 -29.68026543 27.26026535 C-27.87568791 25.44118814 -26.06829188 23.62490329 -24.25829887 21.81121445 C-21.48243158 19.02340742 -18.72575716 16.21750064 -15.96923637 13.41057968 C-14.21517944 11.64706392 -12.46000848 9.88465535 -10.70361137 8.12347031 C-9.46437416 6.85493462 -9.46437416 6.85493462 -8.20010185 5.56077194 C-7.42605003 4.79279785 -6.65199821 4.02482376 -5.85449028 3.23357773 C-5.17657433 2.55059113 -4.49865837 1.86760452 -3.80019951 1.16392136 C-1.85204887 -0.16949844 -1.85204887 -0.16949844 0 0 Z " fill="#FEFEFE" transform="translate(243.85204887390137,1007.1694984436035)"/>
<path d="M0 0 C1.11993704 0.95685114 2.23943565 1.91421546 3.35874939 2.87179565 C3.98221725 3.40487272 4.6056851 3.93794979 5.24804592 4.48718071 C28.69516511 24.73386106 28.69516511 24.73386106 30.47265625 38.71875 C30.87384377 49.00560946 29.41399847 56.52856256 22.34673309 64.18183708 C21.8617057 64.69562479 21.37667831 65.2094125 20.87695312 65.73876953 C20.35468391 66.29779024 19.8324147 66.85681095 19.29431915 67.43277168 C12.0770482 75.11008297 4.64495195 82.58045104 -2.78125 90.0546875 C-3.55959702 90.83835819 -4.33794403 91.62202888 -5.13987732 92.42944717 C-9.23919762 96.5552233 -13.34199709 100.67750633 -17.44726562 104.79736328 C-20.83708422 108.20064657 -24.21943012 111.61111105 -27.59570312 115.02783203 C-31.69636266 119.17757785 -35.808947 123.31513022 -39.9306488 127.44397354 C-41.49465055 129.01470394 -43.05438168 130.58969853 -44.60975647 132.16897202 C-46.77067991 134.36126782 -48.94657635 136.53752497 -51.12695312 138.71044922 C-51.76697266 139.36687408 -52.40699219 140.02329895 -53.06640625 140.69961548 C-53.66038208 141.28527283 -54.25435791 141.87093018 -54.86633301 142.47433472 C-55.37801277 142.98932463 -55.88969254 143.50431454 -56.41687775 144.0349102 C-58 145 -58 145 -60.07088089 144.76027966 C-62.68816786 143.72878812 -64.14795488 142.21139998 -66.12597656 140.21459961 C-67.32676849 139.01346779 -67.32676849 139.01346779 -68.55181885 137.78807068 C-69.40612488 136.91828079 -70.26043091 136.04849091 -71.140625 135.15234375 C-72.02280701 134.2659169 -72.90498901 133.37949005 -73.81390381 132.46620178 C-76.15378577 130.11236944 -78.48695398 127.75226246 -80.81713867 125.38885498 C-83.19814663 122.97711583 -85.58770853 120.57388521 -87.9765625 118.16992188 C-92.6589678 113.45441941 -97.33270728 108.73045844 -102 104 C-98.41866431 97.91362151 -93.53915873 93.2723335 -88.54980469 88.32275391 C-87.58327984 87.35679387 -86.6171965 86.39039189 -85.65151978 85.42358398 C-83.04059576 82.81208822 -80.42356944 80.2067874 -77.80537319 77.60258532 C-75.06581554 74.8755647 -72.33195366 72.14284599 -69.59747314 69.41073608 C-64.42379522 64.2432642 -59.24504208 59.08091002 -54.06442952 53.92039144 C-48.16448091 48.04282911 -42.2702379 42.15955911 -36.37645864 36.27581143 C-24.25729362 24.17752856 -12.13101086 12.08640473 0 0 Z " fill="#68A1CA" transform="translate(413,958)"/>
<path d="M0 0 C13.2 0 26.4 0 40 0 C40 57.42 40 114.84 40 174 C26.8 174 13.6 174 0 174 C0 116.58 0 59.16 0 0 Z " fill="#FEFEFE" transform="translate(481,922)"/>
<path d="M0 0 C12.87 0 25.74 0 39 0 C39 44.22 39 88.44 39 134 C26.13 134 13.26 134 0 134 C0 89.78 0 45.56 0 0 Z " fill="#FEFEFE" transform="translate(856,962)"/>
<path d="M0 0 C4.65906801 2.75088423 7.48925419 6.17740144 9.875 11.0625 C11.44133436 18.60938373 11.44554015 25.54620525 7.5625 32.375 C4.32684421 37.04872503 1.17923125 40.13931912 -4.4375 41.375 C-11.85354883 42.20241041 -18.32710524 41.96842901 -24.4375 37.375 C-28.93471024 33.28035333 -31.08061288 28.89994662 -31.69140625 22.8671875 C-32.00320145 15.6456084 -30.95510887 9.31664939 -26.01171875 3.77734375 C-18.91098614 -2.51607042 -8.67704111 -3.95910621 0 0 Z " fill="#FDFDFD" transform="translate(885.4375,904.625)"/>
</svg>
