<?xml version="1.0" encoding="UTF-8"?>
<svg version="1.1" xmlns="http://www.w3.org/2000/svg" width="516" height="316">
<path d="M0 0 C2.80859375 2.35546875 2.80859375 2.35546875 5.4375 5.1875 C8.60970689 8.53469888 11.77870531 11.77809221 15.3125 14.75 C18.9706642 17.86509653 21.96323955 21.27996845 25 25 C23.46751951 28.58402695 21.3325399 31.02850134 18.625 33.8125 C17.46871094 35.02873047 17.46871094 35.02873047 16.2890625 36.26953125 C14 38 14 38 11.92578125 37.96484375 C9.67415704 36.83674805 8.28825223 35.58336264 6.5625 33.75 C5.65951172 32.80640625 5.65951172 32.80640625 4.73828125 31.84375 C4.16464844 31.2353125 3.59101562 30.626875 3 30 C2.0925 29.0925 1.185 28.185 0.25 27.25 C-1.5 25.5 -3.25 23.75 -5 22 C-5.598125 22.309375 -6.19625 22.61875 -6.8125 22.9375 C-9 24 -9 24 -12 25 C-12.309375 25.639375 -12.61875 26.27875 -12.9375 26.9375 C-14.2342338 29.45468915 -15.4221737 29.96886948 -18 31 C-18 31.66 -18 32.32 -18 33 C-18.66 33 -19.32 33 -20 33 C-20.33 33.99 -20.66 34.98 -21 36 C-21.66 36 -22.32 36 -23 36 C-23.400979 36.88993652 -23.400979 36.88993652 -23.81005859 37.79785156 C-25.01584993 40.02933245 -26.2358095 41.4664799 -28.0390625 43.234375 C-28.61914062 43.80800781 -29.19921875 44.38164062 -29.796875 44.97265625 C-30.40015625 45.55917969 -31.0034375 46.14570313 -31.625 46.75 C-32.23601562 47.35199219 -32.84703125 47.95398438 -33.4765625 48.57421875 C-34.97988624 50.05405305 -36.48934856 51.52764676 -38 53 C-42.46571936 51.4538854 -44.49860589 49.90251072 -47.03515625 45.98828125 C-48.74804684 42.45847837 -48.99041336 39.78697735 -48 36 C-42.89489853 28.451815 -35.25214114 21.99765634 -28.83862305 15.54345703 C-27.56494206 14.25816292 -26.29576509 12.96839071 -25.03100586 11.67431641 C-23.18533294 9.78601989 -21.3268021 7.91128637 -19.46484375 6.0390625 C-18.90530502 5.46201569 -18.3457663 4.88496887 -17.76927185 4.29043579 C-12.2209424 -1.22769648 -7.60208939 -3.17967887 0 0 Z " fill="#7CB6DB" transform="translate(117,106)"/>
<path d="M0 0 C3.3 0 6.6 0 10 0 C10 14.19 10 28.38 10 43 C-11.60834739 45.54215852 -11.60834739 45.54215852 -16.14453125 42.6171875 C-20.52467448 38.04214328 -22.95422165 34.35657253 -23.0234375 27.76953125 C-22.62876404 21.56900348 -20.56498869 17.75498786 -16.3125 13.1875 C-12.74257783 11.35429673 -8.99809614 10.85841481 -5 11 C-3.35 11.66 -1.7 12.32 0 13 C0 8.71 0 4.42 0 0 Z M-9.75 21.5 C-12.31491501 23.8830566 -12.31491501 23.8830566 -12.5 27.5 C-11.88378843 31.88824104 -11.88378843 31.88824104 -9 35 C-5.87757843 35.45535315 -3.93163039 35.49686954 -1.125 34 C0.68092424 30.78946801 0.55464458 27.59019935 0 24 C-1.43211968 21.7802145 -2.54663279 21.22668361 -4.875 20.0625 C-7.21080037 19.81498449 -7.21080037 19.81498449 -9.75 21.5 Z " fill="#FAFAFA" transform="translate(288,121)"/>
<path d="M0 0 C4.59272107 1.42426192 7.4414588 4.01735008 10.73828125 7.375 C11.52672676 8.16269775 11.52672676 8.16269775 12.33110046 8.96630859 C13.43471381 10.07225338 14.53465778 11.18187065 15.63110352 12.29492188 C17.31560868 14.00315246 19.01318079 15.69753646 20.71289062 17.390625 C21.78465087 18.467958 22.85564217 19.54605664 23.92578125 20.625 C24.43506668 21.13337402 24.94435211 21.64174805 25.46907043 22.16552734 C29 25.76893709 29 25.76893709 29 28 C30.32 28.66 31.64 29.32 33 30 C32.43997584 33.53659092 31.32225676 34.95559692 28.5625 37.1875 C27.94503906 37.69667969 27.32757813 38.20585937 26.69140625 38.73046875 C23.3872121 41.2105221 21.11084531 41.39527359 17 41 C12.62974305 38.41612002 9.16071896 35.39790389 5.6015625 31.796875 C5.1217392 31.3142218 4.64191589 30.8315686 4.14755249 30.33428955 C2.63521944 28.81087521 1.13004085 27.28061545 -0.375 25.75 C-1.40708452 24.70787007 -2.43963254 23.66619895 -3.47265625 22.625 C-5.98714596 20.08861021 -8.49527439 17.54603674 -11 15 C-9.60878151 12.12337563 -8.17647546 9.84194537 -6.0625 7.4375 C-5.55847656 6.85871094 -5.05445312 6.27992188 -4.53515625 5.68359375 C-3.49280909 4.54045984 -2.41519937 3.42870516 -1.30859375 2.34765625 C0.11610547 1.19350461 0.11610547 1.19350461 0 0 Z " fill="#FBFBFC" transform="translate(91,147)"/>
<path d="M0 0 C4.4990582 2.16135777 7.36705533 4.71831042 10 9 C10.94949367 11.95463559 10.83660061 14.02821514 10 17 C5.31860061 23.66324617 -1.17224799 29.29174287 -6.9375 35 C-7.81212891 35.87011719 -8.68675781 36.74023438 -9.58789062 37.63671875 C-11.72297449 39.76013549 -13.86037205 41.88116378 -16 44 C-19.80475512 42.22997053 -22.28089246 39.98647075 -25.25 37 C-26.14203125 36.113125 -27.0340625 35.22625 -27.953125 34.3125 C-30 32 -30 32 -30 30 C-29.34 30 -28.68 30 -28 30 C-27.79133301 29.46536133 -27.58266602 28.93072266 -27.36767578 28.37988281 C-25.46064425 25.06147094 -22.82689136 22.58148695 -20.1171875 19.921875 C-19.54292023 19.35043762 -18.96865295 18.77900024 -18.37698364 18.19024658 C-16.5476419 16.37207055 -14.71145807 14.56098508 -12.875 12.75 C-11.63105226 11.51608671 -10.3875573 10.28171678 -9.14453125 9.046875 C-6.10157633 6.02593257 -3.05246746 3.01132908 0 0 Z " fill="#7DB6D9" transform="translate(143,133)"/>
<path d="M0 0 C0.8146875 0.00257812 1.629375 0.00515625 2.46875 0.0078125 C3.2834375 0.00523438 4.098125 0.00265625 4.9375 0 C6.96875 0.1328125 6.96875 0.1328125 7.96875 1.1328125 C8.20238881 2.98173196 8.38178635 4.83769281 8.53125 6.6953125 C8.61503906 7.70722656 8.69882812 8.71914062 8.78515625 9.76171875 C8.84574219 10.54417969 8.90632813 11.32664063 8.96875 12.1328125 C9.54882812 12.02582031 10.12890625 11.91882813 10.7265625 11.80859375 C16.0535451 10.99108652 19.40030293 10.83928089 23.96875 14.1328125 C28.93597219 19.62290018 28.44747145 24.86466558 28.21875 32.0078125 C28.20070313 33.07773438 28.18265625 34.14765625 28.1640625 35.25 C28.11713408 37.87799162 28.04539712 40.50551971 27.96875 43.1328125 C24.66875 43.1328125 21.36875 43.1328125 17.96875 43.1328125 C17.93136719 41.79605469 17.89398438 40.45929688 17.85546875 39.08203125 C17.78981345 37.32809673 17.72336596 35.57419174 17.65625 33.8203125 C17.63369141 32.93923828 17.61113281 32.05816406 17.58789062 31.15039062 C17.5347168 29.87905273 17.5347168 29.87905273 17.48046875 28.58203125 C17.45428467 27.80174561 17.42810059 27.02145996 17.40112305 26.2175293 C16.85216936 23.57071081 16.19481868 22.66050669 13.96875 21.1328125 C12.31875 21.1328125 10.66875 21.1328125 8.96875 21.1328125 C8.63875 28.3928125 8.30875 35.6528125 7.96875 43.1328125 C4.66875 43.1328125 1.36875 43.1328125 -2.03125 43.1328125 C-2.94978693 33.34055276 -3.14072992 23.59042993 -3.15625 13.7578125 C-3.16076172 12.53860107 -3.16527344 11.31938965 -3.16992188 10.06323242 C-3.16798828 8.92345947 -3.16605469 7.78368652 -3.1640625 6.609375 C-3.16293457 5.57893066 -3.16180664 4.54848633 -3.16064453 3.48681641 C-2.99783375 0.52488901 -2.95124591 0.19296608 0 0 Z " fill="#7DB4D8" transform="translate(429.03125,120.8671875)"/>
<path d="M0 0 C0.845625 0.07863281 1.69125 0.15726563 2.5625 0.23828125 C6.82534681 1.02390206 8.57670416 2.11907415 11.1875 5.625 C14.38916674 11.03471278 14 12.70416234 14 19.6875 C4.1 20.1825 4.1 20.1825 -6 20.6875 C-4.0869689 23.04400179 -4.0869689 23.04400179 -0.75 22.875 C2.58816523 22.70809174 5.72364133 22.3267895 9 21.6875 C9.33 22.6775 9.66 23.6675 10 24.6875 C10.66 24.6875 11.32 24.6875 12 24.6875 C12 26.9375 12 26.9375 11 29.6875 C6.88197899 32.90181565 2.21183183 34.37717511 -2.984375 34.0703125 C-8.34037658 33.05308739 -12.01192139 30.90359675 -15.4375 26.6875 C-17.95127937 21.86104361 -18.45713695 18.17314339 -18 12.6875 C-16.19590442 7.44189602 -13.78405886 3.67753678 -9 0.6875 C-5.8618018 -0.36299855 -3.27708606 -0.33470239 0 0 Z M-5.875 10.125 C-7.09738412 11.50186152 -7.09738412 11.50186152 -7 12.6875 C-4.03 12.6875 -1.06 12.6875 2 12.6875 C2 11.3675 2 10.0475 2 8.6875 C-2.23386764 8.29149688 -2.23386764 8.29149688 -5.875 10.125 Z " fill="#7CB4D7" transform="translate(379,132.3125)"/>
<path d="M0 0 C3.46370581 3.04130267 5.41063905 5.05307822 5.73828125 9.79296875 C5.74880175 12.27931408 5.66187524 14.76561912 5.5625 17.25 C-0.7075 17.58 -6.9775 17.91 -13.4375 18.25 C-13.7675 18.91 -14.0975 19.57 -14.4375 20.25 C-9.57479817 21.20347095 -6.94047994 21.19723457 -2.4375 19.25 C-0.3125 19.3125 -0.3125 19.3125 1.5625 20.25 C3.3125 22.8125 3.3125 22.8125 4.5625 25.25 C-1.64756149 30.45302449 -6.51362747 30.88572616 -14.4375 30.25 C-18.65253413 28.71726032 -21.67559819 26.80101661 -24.4375 23.25 C-26.68501191 17.79175679 -26.9659623 12.9043115 -25.4375 7.25 C-23.47847507 3.03931571 -21.17928907 0.71543628 -17.25 -1.75 C-10.97663705 -3.39547225 -5.79049969 -2.94789075 0 0 Z M-13.4375 6.25 C-14.0975 7.57 -14.7575 8.89 -15.4375 10.25 C-11.8075 10.25 -8.1775 10.25 -4.4375 10.25 C-5.0975 8.93 -5.7575 7.61 -6.4375 6.25 C-8.7475 6.25 -11.0575 6.25 -13.4375 6.25 Z " fill="#F8F9FA" transform="translate(327.4375,134.75)"/>
<path d="M0 0 C3.0625 1.9375 3.0625 1.9375 5 4 C5 4.66 5 5.32 5 6 C5.66 6.33 6.32 6.66 7 7 C7 14.92 7 22.84 7 31 C2.05 31.495 2.05 31.495 -3 32 C-3.04898438 30.74703125 -3.09796875 29.4940625 -3.1484375 28.203125 C-3.22348583 26.55206179 -3.29903277 24.90102119 -3.375 23.25 C-3.4059375 22.425 -3.436875 21.6 -3.46875 20.75 C-3.50742188 19.95078125 -3.54609375 19.1515625 -3.5859375 18.328125 C-3.63306885 17.22839355 -3.63306885 17.22839355 -3.68115234 16.10644531 C-4.03772523 13.75077082 -4.83662883 12.06549409 -6 10 C-8.41645782 9.83312552 -8.41645782 9.83312552 -11 10 C-13.3968665 12.3968665 -13.28281133 13.07028314 -13.4140625 16.3515625 C-13.47207031 17.62773437 -13.47207031 17.62773437 -13.53125 18.9296875 C-13.57765625 20.26386719 -13.57765625 20.26386719 -13.625 21.625 C-13.68300781 22.97078125 -13.68300781 22.97078125 -13.7421875 24.34375 C-13.83658776 26.56215605 -13.91938805 28.78105013 -14 31 C-17.63 31 -21.26 31 -25 31 C-25.02902168 26.58334712 -25.04680608 22.16671877 -25.0625 17.75 C-25.07087891 16.49574219 -25.07925781 15.24148437 -25.08789062 13.94921875 C-25.09111328 12.74394531 -25.09433594 11.53867188 -25.09765625 10.296875 C-25.10289307 9.18666992 -25.10812988 8.07646484 -25.11352539 6.93261719 C-25.01658493 4.42842621 -24.73230276 2.3818844 -24 0 C-20 0 -16 0 -12 0 C-7.82541784 -1.39152739 -4.26036033 -0.9848819 0 0 Z " fill="#FAFAFA" transform="translate(208,133)"/>
<path d="M0 0 C-1.12451727 2.9719385 -2.22293791 5.33440687 -4 8 C-4.99 8 -5.98 8 -7 8 C-7 7.34 -7 6.68 -7 6 C-10.3 6 -13.6 6 -17 6 C-17 6.33 -17 6.66 -17 7 C-16.34773437 7.10957031 -15.69546875 7.21914062 -15.0234375 7.33203125 C-9.91257634 8.25922288 -5.48876406 9.23768366 -1 12 C0.60779352 15.21558704 0.46277636 18.51241005 0 22 C-2.2858671 26.28600081 -5.23259105 28.09680006 -9.7265625 29.55859375 C-17.32298216 31.03349997 -23.48243256 28.7415665 -30 25 C-28.79641403 21.57440916 -27.64107354 19.46741391 -25 17 C-24.39671875 17.2165625 -23.7934375 17.433125 -23.171875 17.65625 C-22.37265625 17.9346875 -21.5734375 18.213125 -20.75 18.5 C-19.96109375 18.7784375 -19.1721875 19.056875 -18.359375 19.34375 C-15.76587262 20.17864861 -15.76587262 20.17864861 -12 20 C-11.67 19.34 -11.34 18.68 -11 18 C-11.80824219 17.91363281 -12.61648437 17.82726562 -13.44921875 17.73828125 C-22.21366072 16.58589986 -22.21366072 16.58589986 -26.1875 13.625 C-29 9.55172414 -29 9.55172414 -29 7 C-27.76156094 3.07827632 -26.85591976 0.65839981 -23.5625 -1.875 C-15.81860609 -5.2747583 -7.16361703 -4.45305924 0 0 Z " fill="#FAFAFA" transform="translate(248,136)"/>
<path d="M0 0 C10.56 0 21.12 0 32 0 C32 2.97 32 5.94 32 9 C28.37 9 24.74 9 21 9 C21 19.23 21 29.46 21 40 C18 41 18 41 10 41 C10 30.44 10 19.88 10 9 C6.7 9.33 3.4 9.66 0 10 C0 6.7 0 3.4 0 0 Z " fill="#7BB4D8" transform="translate(332,124)"/>
<path d="M0 0 C3.14137047 1.72467398 4.14884782 2.40323186 5.1875 5.75 C3.8675 7.4 2.5475 9.05 1.1875 10.75 C0.506875 10.399375 -0.17375 10.04875 -0.875 9.6875 C-4.5212789 8.52379397 -7.09739978 9.02154898 -10.8125 9.75 C-12.61519686 14.04683069 -12.61519686 14.04683069 -12.0625 18.5625 C-11.00317819 20.88578599 -11.00317819 20.88578599 -8.8125 21.75 C-5.8829001 21.87737391 -3.46958142 21.98191109 -0.6875 21 C1.1875 20.75 1.1875 20.75 3.5 22.4375 C5.1875 24.75 5.1875 24.75 5.25 26.8125 C3.65180425 29.72685695 2.26470727 30.43119688 -0.8125 31.75 C-5.2755732 32.98065544 -9.02436466 33.52733072 -13.35546875 31.64453125 C-18.31583527 28.49676196 -21.90291935 25.56879496 -23.3046875 19.68359375 C-24.23508773 14.07271075 -23.46135407 10.74207113 -20.8125 5.75 C-20.4825 5.09 -20.1525 4.43 -19.8125 3.75 C-19.1525 3.75 -18.4925 3.75 -17.8125 3.75 C-17.8125 3.09 -17.8125 2.43 -17.8125 1.75 C-11.66526688 -1.26088969 -6.65941401 -2.50934441 0 0 Z " fill="#7DB4D7" transform="translate(417.8125,133.25)"/>
<path d="M0 0 C3.63 0 7.26 0 11 0 C11 13.86 11 27.72 11 42 C7.37 42 3.74 42 0 42 C0 28.14 0 14.28 0 0 Z " fill="#F8F8F9" transform="translate(167,122)"/>
<path d="M0 0 C3.3 0 6.6 0 10 0 C10 10.23 10 20.46 10 31 C6.7 31 3.4 31 0 31 C-0.19688523 26.58369908 -0.38088923 22.16695334 -0.5625 17.75 C-0.61857422 16.49574219 -0.67464844 15.24148437 -0.73242188 13.94921875 C-0.78076172 12.74394531 -0.82910156 11.53867188 -0.87890625 10.296875 C-0.9260376 9.18666992 -0.97316895 8.07646484 -1.02172852 6.93261719 C-1 4 -1 4 0 0 Z " fill="#FAFBFB" transform="translate(252,133)"/>
<path d="M0 0 C1.875 1.125 1.875 1.125 3 3 C3.5 6 3.5 6 3 9 C0.875 11 0.875 11 -2 12 C-5.3125 11.1875 -5.3125 11.1875 -8 10 C-9.32850242 3.59903382 -9.32850242 3.59903382 -7.9375 1.0625 C-5.13281671 -0.47555213 -3.14485925 -0.39310741 0 0 Z " fill="#F6F6F7" transform="translate(260,120)"/>
<path d="M0 0 C0.99 0.33 1.98 0.66 3 1 C-0.50897269 5.18423892 -4.08060535 9.19588166 -8 13 C-6.41332422 16.90285767 -3.86649519 19.33520982 -0.875 22.25 C0.03507812 23.14203125 0.94515625 24.0340625 1.8828125 24.953125 C2.58148438 25.62859375 3.28015625 26.3040625 4 27 C3.67 27.66 3.34 28.32 3 29 C-1.62 24.38 -6.24 19.76 -11 15 C-9.43682129 11.87364259 -8.28950749 9.97050852 -6.0625 7.4375 C-5.55847656 6.85871094 -5.05445312 6.27992188 -4.53515625 5.68359375 C-3.49280909 4.54045984 -2.41519937 3.42870516 -1.30859375 2.34765625 C0.11610547 1.19350461 0.11610547 1.19350461 0 0 Z " fill="#EEF0F4" transform="translate(91,147)"/>
<path d="M0 0 C-1.49097658 3.7952131 -3.75700849 5.61042731 -7 8 C-4.18918919 0 -4.18918919 0 0 0 Z " fill="#EFF0F1" transform="translate(274,134)"/>
<path d="M0 0 C0.99 0.33 1.98 0.66 3 1 C-0.465 3.97 -0.465 3.97 -4 7 C-2.92598892 4.08482708 -2.22189824 2.22189824 0 0 Z " fill="#78AFCF" transform="translate(367,135)"/>
<path d="" fill="#000000" transform="translate(0,0)"/>
<path d="" fill="#FFFFFF" transform="translate(0,0)"/>
<path d="" fill="#000000" transform="translate(0,0)"/>
</svg>
