<?xml version="1.0" encoding="UTF-8"?>
<svg version="1.1" xmlns="http://www.w3.org/2000/svg" width="678" height="476">
<path d="M0 0 C2.88707472 1.80490296 5.12624483 4.07102461 7.4765625 6.51953125 C8.13208099 7.17451096 8.78759949 7.82949066 9.46298218 8.50431824 C10.83538734 9.88438811 12.19804948 11.27420891 13.55126953 12.6730957 C15.63098759 14.81867721 17.74368129 16.92708662 19.86328125 19.03320312 C21.19478503 20.3807637 22.52428649 21.73030634 23.8515625 23.08203125 C24.48470367 23.71446243 25.11784485 24.34689362 25.77017212 24.99848938 C26.62764542 25.89412849 26.62764542 25.89412849 27.50244141 26.80786133 C28.01046295 27.32890945 28.5184845 27.84995758 29.04190063 28.38679504 C30 30 30 30 29.73777771 32.10227966 C28.8616716 34.35580991 27.85626096 35.40994167 26.05859375 37.015625 C25.47529297 37.54414063 24.89199219 38.07265625 24.29101562 38.6171875 C23.67935547 39.15601563 23.06769531 39.69484375 22.4375 40.25 C21.51420898 41.08144531 21.51420898 41.08144531 20.57226562 41.9296875 C19.05498325 43.29406545 17.52837406 44.64805855 16 46 C12.63664406 44.54254576 10.45465995 42.68882146 7.890625 40.0859375 C7.13652344 39.32539063 6.38242188 38.56484375 5.60546875 37.78125 C4.82816406 36.9871875 4.05085938 36.193125 3.25 35.375 C2.45722656 34.57320312 1.66445312 33.77140625 0.84765625 32.9453125 C-1.10614493 30.96797154 -3.05512103 28.98611091 -5 27 C-8.21611185 28.51494924 -10.00400439 29.91271416 -12.25 32.6875 C-14.58163933 35.44800322 -16.91031971 37.87799456 -19.6875 40.1875 C-24.08540564 43.89823289 -27.87467138 48.09690795 -31.69995117 52.3815918 C-34.59449194 55.5957692 -37.52491814 58.38892387 -41 61 C-45.91614633 58.86207323 -48.97003023 55.347691 -52 51 C-53.40226442 46.71940334 -53.51364507 45.02729014 -51.5 41 C-48.98046213 37.97655456 -46.3382025 35.22518611 -43.48828125 32.515625 C-41.89721278 31.05074174 -41.89721278 31.05074174 -41 29 C-40.34 29 -39.68 29 -39 29 C-38.74476562 28.42024414 -38.48953125 27.84048828 -38.2265625 27.24316406 C-36.87415223 24.76984688 -35.36267476 23.10397891 -33.375 21.109375 C-32.31539062 20.04589844 -32.31539062 20.04589844 -31.234375 18.9609375 C-30.49703125 18.23132813 -29.7596875 17.50171875 -29 16.75 C-27.89398438 15.63238281 -27.89398438 15.63238281 -26.765625 14.4921875 C-26.05921875 13.78835937 -25.3528125 13.08453125 -24.625 12.359375 C-23.97789063 11.71452148 -23.33078125 11.06966797 -22.6640625 10.40527344 C-21 9 -21 9 -19 9 C-18.79375 8.443125 -18.5875 7.88625 -18.375 7.3125 C-14.05107202 0.04043931 -7.94371351 -2.1806649 0 0 Z " fill="#69A1CC" transform="translate(108,100)"/>
<path d="M0 0 C4.29 0 8.58 0 13 0 C13 21.12 13 42.24 13 64 C8.71 64 4.42 64 0 64 C-0.66 63.01 -1.32 62.02 -2 61 C-2.721875 61.495 -3.44375 61.99 -4.1875 62.5 C-10.06299388 65.39597803 -17.54138529 65.09379323 -23.66796875 63.15625 C-29.21520302 60.40586249 -32.49135574 56.63325027 -35 51 C-37.21794284 44.18876908 -37.0783743 35.69854312 -34.4375 29.0625 C-31.6157474 23.63835366 -27.590097 20.23874204 -22.125 17.625 C-14.9417335 16.1883467 -9.51274271 16.60794651 -3 20 C-2.67 20.33 -2.34 20.66 -2 21 C-1.96241577 20.09906616 -1.96241577 20.09906616 -1.92407227 19.17993164 C-1.8084472 16.47388563 -1.68557064 13.76821717 -1.5625 11.0625 C-1.52318359 10.11697266 -1.48386719 9.17144531 -1.44335938 8.19726562 C-1.38051758 6.84858398 -1.38051758 6.84858398 -1.31640625 5.47265625 C-1.27974854 4.64000244 -1.24309082 3.80734863 -1.20532227 2.94946289 C-1 1 -1 1 0 0 Z M-19 32 C-22.08730697 36.32222975 -22.41721191 39.78264986 -21.65234375 44.87890625 C-20.63291033 48.19359096 -18.68014781 49.90817732 -16 52 C-13.09704195 53.45147903 -11.22738221 53.37239025 -8 53 C-5.07062346 51.18689858 -2.56352051 49.12704101 -1 46 C-0.57691462 41.40301468 -0.46105533 37.29346722 -2.25 33 C-4.98083019 29.87905122 -6.82337032 29.12517337 -10.9375 28.6875 C-14.52375446 29.05344433 -16.2027603 29.73196781 -19 32 Z " fill="#2D2B61" transform="translate(348,116)"/>
<path d="M0 0 C4.62 0 9.24 0 14 0 C14.33 7.59 14.66 15.18 15 23 C17.97 20.525 17.97 20.525 21 18 C23.109375 17.20703125 23.109375 17.20703125 25 17 C25.68578125 16.92136719 26.3715625 16.84273437 27.078125 16.76171875 C32.78543841 16.56668466 37.47615146 17.30518253 42 21 C45.98241327 26.72040288 47.14943221 32.42656724 47.09765625 39.29296875 C47.0962413 39.99899734 47.09482635 40.70502594 47.09336853 41.43244934 C47.08777764 43.68417626 47.07522688 45.93580321 47.0625 48.1875 C47.05748382 49.71549335 47.05292112 51.24348827 47.04882812 52.77148438 C47.0386627 56.51439228 47.01908569 60.25708443 47 64 C42.05 64 37.1 64 32 64 C31.97421875 61.95296875 31.9484375 59.9059375 31.921875 57.796875 C31.88014511 55.80775005 31.83827597 53.81862535 31.79248047 51.82958984 C31.76430901 50.45048349 31.74307528 49.07121682 31.72900391 47.69189453 C31.70752455 45.70577051 31.65876868 43.72000091 31.609375 41.734375 C31.58842773 40.54038086 31.56748047 39.34638672 31.54589844 38.11621094 C30.89956891 34.42669835 29.96109499 33.22789714 27 31 C24.04308291 30.24984805 24.04308291 30.24984805 21 31 C17.89835231 33.55024365 16.27433584 35.17699247 15 39 C14.85060226 40.91765594 14.75189717 42.83946522 14.68359375 44.76171875 C14.64169922 45.87998047 14.59980469 46.99824219 14.55664062 48.15039062 C14.51732422 49.31763672 14.47800781 50.48488281 14.4375 51.6875 C14.39431641 52.86634766 14.35113281 54.04519531 14.30664062 55.25976562 C14.20048906 58.17303626 14.09973371 61.0865026 14 64 C9.38 64 4.76 64 0 64 C0 42.88 0 21.76 0 0 Z " fill="#69A1CA" transform="translate(576,116)"/>
<path d="M0 0 C4.93509152 4.1736774 7.9957741 8.52832197 9 15 C9 18.3 9 21.6 9 25 C-1.56 25 -12.12 25 -23 25 C-20.37261102 30.02979589 -20.37261102 30.02979589 -16 32 C-10.25079176 32.45628637 -7.90449521 32.04874026 -3 29 C0.33407767 29.08131897 1.71943387 29.78588374 4.375 31.8125 C6 34 6 34 6.0625 36 C4.08376529 39.7246771 1.12467391 41.54980772 -2.72265625 43.08984375 C-10.46418568 45.23975598 -19.24698177 45.30524406 -26.625 41.9375 C-32.32856541 38.57410179 -35.02117356 34.61020383 -37.3125 28.5 C-38.86735609 20.58436898 -38.06046697 12.82994049 -33.67578125 5.91015625 C-25.68202735 -4.01384793 -11.11769317 -6.07524217 0 0 Z M-22 12 C-22.33 13.32 -22.66 14.64 -23 16 C-16.73 16 -10.46 16 -4 16 C-6.33848142 10.08268982 -6.33848142 10.08268982 -10 8 C-15.44422452 7.39508616 -18.20066614 7.97717592 -22 12 Z " fill="#2E2C62" transform="translate(408,136)"/>
<path d="M0 0 C4.32837356 2.46123202 6.40626132 4.89726145 8.28076172 9.49267578 C9.31105532 13.26487082 9.44069244 16.74341023 9.3828125 20.6171875 C9.3799826 21.3411673 9.37715271 22.06514709 9.37423706 22.81106567 C9.36312087 25.1033849 9.33803312 27.39530063 9.3125 29.6875 C9.3024591 31.24999432 9.29333519 32.81249482 9.28515625 34.375 C9.26320973 38.18765338 9.22874013 42.00000848 9.1875 45.8125 C4.5675 45.8125 -0.0525 45.8125 -4.8125 45.8125 C-4.87308594 43.83765625 -4.93367188 41.8628125 -4.99609375 39.828125 C-5.08050296 37.23957595 -5.16515077 34.65103467 -5.25 32.0625 C-5.28931641 30.76054687 -5.32863281 29.45859375 -5.36914062 28.1171875 C-5.41103516 26.86679688 -5.45292969 25.61640625 -5.49609375 24.328125 C-5.53275146 23.17602539 -5.56940918 22.02392578 -5.60717773 20.83691406 C-5.77702174 18.33509776 -6.09218475 16.20158832 -6.8125 13.8125 C-8.22683206 13.5888663 -9.64417618 13.38423524 -11.0625 13.1875 C-11.85140625 13.07148438 -12.6403125 12.95546875 -13.453125 12.8359375 C-16.23159296 12.80833682 -17.53812897 13.22821591 -19.8125 14.8125 C-21.99367635 18.19141518 -22.11426311 21.14146323 -22.2265625 25.109375 C-22.28457031 26.91728516 -22.28457031 26.91728516 -22.34375 28.76171875 C-22.3746875 30.01597656 -22.405625 31.27023438 -22.4375 32.5625 C-22.47617188 33.83222656 -22.51484375 35.10195312 -22.5546875 36.41015625 C-22.6489394 39.54403181 -22.73180782 42.67824598 -22.8125 45.8125 C-27.4325 45.8125 -32.0525 45.8125 -36.8125 45.8125 C-36.8125 30.6325 -36.8125 15.4525 -36.8125 -0.1875 C-32.1925 -0.1875 -27.5725 -0.1875 -22.8125 -0.1875 C-22.4825 1.1325 -22.1525 2.4525 -21.8125 3.8125 C-20.884375 3.173125 -19.95625 2.53375 -19 1.875 C-12.83248729 -2.11574352 -6.89942881 -2.14900242 0 0 Z " fill="#2E2C62" transform="translate(226.8125,134.1875)"/>
<path d="M0 0 C4.45654378 3.84536064 7.96051538 8.10958713 9 14 C9 17.63 9 21.26 9 25 C-6.345 25.495 -6.345 25.495 -22 26 C-18.72171131 30.81375192 -18.72171131 30.81375192 -16 32 C-10.13957232 32.39069518 -7.2582122 31.74861092 -2 29 C1.36588782 29 2.22865105 30.2130612 4.75 32.5625 C5.86375 33.7690625 5.86375 33.7690625 7 35 C5.14834287 39.56092389 2.53245463 40.9718636 -1.8125 43.01171875 C-9.07118079 45.26226561 -18.56650348 45.55952731 -25.625 42.4375 C-31.10035208 39.02146175 -35.03616184 34.1314404 -37 28 C-38.03202208 19.10288331 -37.50304322 11.3050473 -32 4 C-23.7624 -4.2767335 -10.12280103 -5.55002388 0 0 Z M-22 13 C-22.33 13.99 -22.66 14.98 -23 16 C-16.73 16 -10.46 16 -4 16 C-5.87920333 10.76066994 -5.87920333 10.76066994 -10 8 C-15.96073159 7.1329845 -18.29522739 8.31455229 -22 13 Z " fill="#69A1CB" transform="translate(510,136)"/>
<path d="M0 0 C16.5 0 33 0 50 0 C50 4.29 50 8.58 50 13 C44.06 13 38.12 13 32 13 C32 28.51 32 44.02 32 60 C27.38 60 22.76 60 18 60 C18 44.49 18 28.98 18 13 C12.06 13 6.12 13 0 13 C0 8.71 0 4.42 0 0 Z " fill="#69A1CB" transform="translate(420,120)"/>
<path d="M0 0 C2.08203125 1.16796875 2.08203125 1.16796875 3.08203125 4.16796875 C2.3046875 6.2109375 2.3046875 6.2109375 1.14453125 8.35546875 C0.57412109 9.42861328 0.57412109 9.42861328 -0.0078125 10.5234375 C-0.30816406 11.06613281 -0.60851562 11.60882813 -0.91796875 12.16796875 C-3.54654357 11.71735592 -5.79837267 11.2229183 -8.23046875 10.10546875 C-11.9186183 8.81890495 -15.02163436 9.03588962 -18.91796875 9.16796875 C-18.91796875 10.15796875 -18.91796875 11.14796875 -18.91796875 12.16796875 C-17.82097656 12.54308594 -16.72398437 12.91820312 -15.59375 13.3046875 C-14.13905798 13.82086854 -12.68464539 14.33783755 -11.23046875 14.85546875 C-10.50923828 15.09974609 -9.78800781 15.34402344 -9.04492188 15.59570312 C-3.73437034 17.51138153 0.44460148 19.89310922 3.08203125 25.16796875 C3.51214944 29.37816413 3.55199475 33.0548973 1.89453125 36.98046875 C-0.96168977 40.42763205 -3.65172559 42.7458877 -7.91796875 44.16796875 C-26.33119716 45.44289149 -26.33119716 45.44289149 -33.91796875 40.16796875 C-35.29296875 38.29296875 -35.29296875 38.29296875 -35.91796875 36.16796875 C-35.23828125 34.02734375 -35.23828125 34.02734375 -34.04296875 31.91796875 C-33.65367187 31.2115625 -33.264375 30.50515625 -32.86328125 29.77734375 C-32.55132812 29.24625 -32.239375 28.71515625 -31.91796875 28.16796875 C-31.25796875 28.43609375 -30.59796875 28.70421875 -29.91796875 28.98046875 C-28.92796875 29.37234375 -27.93796875 29.76421875 -26.91796875 30.16796875 C-26.31339844 30.43222656 -25.70882812 30.69648438 -25.0859375 30.96875 C-20.12966547 33.03141942 -16.27978064 33.45520867 -10.91796875 33.16796875 C-11.15540727 31.20240735 -11.15540727 31.20240735 -11.91796875 29.16796875 C-14.52408025 28.00473861 -16.96165916 27.08095513 -19.66796875 26.23046875 C-25.2550495 24.46692078 -29.14085198 22.93261414 -32.91796875 18.16796875 C-34.53453578 13.76904117 -34.09028561 9.82492676 -32.91796875 5.35546875 C-25.80502933 -5.98077846 -10.86648068 -4.05744129 0 0 Z " fill="#2E2C62" transform="translate(277.91796875,135.83203125)"/>
<path d="M0 0 C2.68693356 2.12261339 4.04129318 3.50669203 5.13671875 6.79296875 C2.16671875 8.77296875 -0.80328125 10.75296875 -3.86328125 12.79296875 C-5.98828125 11.73046875 -8.11328125 10.66796875 -10.23828125 9.60546875 C-13.55136349 8.57999092 -15.53614702 8.87269758 -18.86328125 9.79296875 C-21.96829381 11.63919243 -22.69949888 12.30162163 -23.86328125 15.79296875 C-24.1309134 19.9412671 -24.23882145 22.77680116 -22.80078125 26.66796875 C-20.02414826 29.71330816 -17.9231962 30.25164676 -13.86328125 30.79296875 C-10.06778204 29.52780235 -7.18430811 28.00698666 -3.86328125 25.79296875 C0.59171875 28.76296875 0.59171875 28.76296875 5.13671875 31.79296875 C2.60385483 36.85869659 -0.07281489 40.131417 -5.48046875 42.25 C-13.09190838 43.98441001 -22.38238771 44.32902426 -29.21875 40.12890625 C-34.73986805 35.64381748 -38.39921189 30.79373516 -39.234375 23.59375 C-39.38709689 15.57135913 -38.79082474 9.33406552 -33.86328125 2.79296875 C-24.98715022 -6.12532917 -10.36625258 -6.71524538 0 0 Z " fill="#69A1CB" transform="translate(562.86328125,137.20703125)"/>
<path d="M0 0 C2.38836595 0.99417177 3.69720272 2.14981712 5.51483154 3.98841858 C6.17521423 4.64902786 6.83559692 5.30963715 7.51599121 5.99026489 C8.21718079 6.70693832 8.91837036 7.42361176 9.64080811 8.16200256 C10.73102264 9.25858437 10.73102264 9.25858437 11.84326172 10.37731934 C14.16311712 12.71396788 16.47232511 15.06083116 18.78143311 17.40809631 C20.35235754 18.99406667 21.92396404 20.57936174 23.49627686 22.16395569 C27.34927794 26.05003453 31.19358829 29.94455174 35.03143311 33.84559631 C32.55170936 38.96371958 29.33291822 43.65339335 23.78143311 45.65809631 C18.97835362 46.43697407 16.75648686 45.89138514 12.67729187 43.08822632 C9.80666173 40.92088899 7.27562027 38.43556734 4.72283936 35.90809631 C3.86637062 35.06517029 3.86637062 35.06517029 2.99259949 34.20521545 C1.79754021 33.02457399 0.60519529 31.84117922 -0.58453369 30.65516663 C-2.41317552 28.83853438 -4.25967764 27.04139613 -6.10723877 25.24403381 C-7.2691876 24.09153774 -8.43003547 22.93793038 -9.58966064 21.78309631 C-10.14471786 21.24757141 -10.69977509 20.71204651 -11.27165222 20.16029358 C-14.96920771 16.41790461 -14.96920771 16.41790461 -14.96612549 13.66517639 C-13.22776431 10.49434775 -10.6957809 8.06081639 -8.15606689 5.53309631 C-7.35459229 4.68908264 -7.35459229 4.68908264 -6.53692627 3.82801819 C-2.53016883 -0.19845269 -2.53016883 -0.19845269 0 0 Z " fill="#2D2B63" transform="translate(82.96856689453125,149.15440368652344)"/>
<path d="M0 0 C4.02856676 1.62675638 6.565062 5.23472181 8.90792847 8.77043152 C9.99930414 11.76485923 10.01602123 13.47360219 9.90792847 16.77043152 C7.70624657 21.3261279 4.36802699 24.6478842 0.84933472 28.20011902 C-0.0290078 29.09200424 -0.0290078 29.09200424 -0.9250946 30.00190735 C-2.15877545 31.25003781 -3.39523673 32.49542548 -4.63430786 33.73820496 C-6.5322424 35.64811924 -8.41072284 37.57590941 -10.28933716 39.50480652 C-11.49196225 40.71688708 -12.69570042 41.92786447 -13.90066528 43.13761902 C-14.46120102 43.71768707 -15.02173676 44.29775513 -15.59925842 44.895401 C-17.20706177 46.48478699 -17.20706177 46.48478699 -20.09207153 48.77043152 C-23.29809708 48.33763674 -24.87738298 47.35081644 -27.10769653 45.04777527 C-27.63621216 44.50959167 -28.16472778 43.97140808 -28.70925903 43.41691589 C-29.24808716 42.85295105 -29.78691528 42.28898621 -30.34207153 41.70793152 C-30.89636841 41.14009949 -31.45066528 40.57226746 -32.02175903 39.98722839 C-33.38541367 38.58830683 -34.7396757 37.18024038 -36.09207153 35.77043152 C-34.75226297 32.80053182 -33.26869556 30.68456404 -30.99099731 28.36296082 C-30.36339508 27.71937119 -29.73579285 27.07578156 -29.08917236 26.41268921 C-28.07353714 25.38900993 -28.07353714 25.38900993 -27.03738403 24.34465027 C-25.99044876 23.28417229 -25.99044876 23.28417229 -24.92236328 22.20227051 C-23.4473311 20.71275017 -21.96948765 19.22600922 -20.48904419 17.74186707 C-18.22013039 15.46100648 -15.97053402 13.16216251 -13.72097778 10.86222839 C-12.28593162 9.41772389 -10.84977105 7.97432547 -9.41238403 6.53215027 C-8.73934235 5.83957626 -8.06630066 5.14700226 -7.37286377 4.43344116 C-6.73895721 3.80561234 -6.10505066 3.17778351 -5.45193481 2.53092957 C-4.89837311 1.97229721 -4.3448114 1.41366486 -3.7744751 0.83810425 C-2.09207153 -0.22956848 -2.09207153 -0.22956848 0 0 Z " fill="#69A2CC" transform="translate(141.09207153320313,133.2295684814453)"/>
<path d="M0 0 C4.62 0 9.24 0 14 0 C14 19.8 14 39.6 14 60 C9.38 60 4.76 60 0 60 C0 40.2 0 20.4 0 0 Z " fill="#2E2D62" transform="translate(163,120)"/>
<path d="M0 0 C4.62 0 9.24 0 14 0 C14 15.18 14 30.36 14 46 C9.38 46 4.76 46 0 46 C0 30.82 0 15.64 0 0 Z " fill="#2E2C62" transform="translate(290,134)"/>
<path d="M0 0 C2.91781637 2.27954404 2.97820387 3.82563093 3.4375 7.5 C3 11 3 11 1.4375 13.4375 C-1.94217804 15.60396028 -4.05983987 15.56288002 -8 15 C-10.4375 13.4375 -10.4375 13.4375 -12 11 C-12.55802097 7.09385318 -12.58392818 4.94888329 -10.5 1.5625 C-6.72171101 -0.79893062 -4.42209561 -0.56153595 0 0 Z " fill="#2C2A62" transform="translate(301,114)"/>
</svg>
