<?xml version="1.0" encoding="utf-8"?>
<!DOCTYPE svg PUBLIC "-//W3C//DTD SVG 1.0//EN" "http://www.w3.org/TR/2001/REC-SVG-20010904/DTD/svg10.dtd">
<svg version="1.0" xmlns="http://www.w3.org/2000/svg" width="1751px" height="328px" viewBox="0 0 1751 328" preserveAspectRatio="xMidYMid meet">
 <g fill="#6aa2cc">
  <path d="M205 255.5 l-20.4 -20.5 49.9 -50.2 c27.5 -27.7 50.3 -50.4 50.6 -50.6 0.3 -0.1 6.2 5.5 13 12.5 14 14.3 15.9 17.7 15.9 28.8 0 11.8 -1.1 13.2 -47.2 59.3 l-41.3 41.2 -20.5 -20.5z"/>
  <path d="M1319.5 268.4 c-10.4 -2.2 -24 -9.2 -30.7 -15.6 -12.4 -11.9 -18.7 -26.6 -19.6 -45.4 -1.6 -34.9 16.9 -61.4 48.4 -69.4 9.7 -2.5 27.4 -2.7 37.7 -0.4 28.8 6.4 44.6 28.2 46.4 64.2 l0.6 12.2 -48.2 0 -48.2 0 0.7 2.3 c2.8 9.2 10.1 17.9 17.9 21.6 13.5 6.3 33.5 3.4 46.4 -6.8 l3.7 -3 9.8 9.8 9.8 9.8 -6.3 5.2 c-7.3 6 -19.7 12.3 -28.4 14.7 -8.7 2.3 -31.1 2.8 -40 0.8z m47 -81.1 c-1.5 -10 -7.2 -17.8 -16 -21.9 -6.1 -2.9 -17.6 -3.3 -24.7 -0.8 -8.9 3 -16 11.2 -19.2 22.2 l-1.5 5.2 31.1 0 31 0 -0.7 -4.7z"/>
  <path d="M1468.2 268.1 c-21.6 -5.5 -38.3 -20.5 -45 -40.6 -6.9 -20.6 -4.2 -45.5 7 -63.2 8.1 -12.9 23.8 -23.6 39.3 -26.8 10.3 -2.2 27.5 -1.9 37.1 0.5 14.1 3.5 27.4 11.7 34.7 21.3 l2.6 3.5 -11.9 8.6 c-6.5 4.7 -12.1 8.6 -12.5 8.6 -0.3 0 -2.9 -2 -5.9 -4.4 -7.8 -6.3 -13.2 -8.1 -24.6 -8.1 -8.4 0 -10.1 0.3 -14.6 2.7 -5.9 3.1 -11.9 9.4 -14.5 15.2 -4.6 10.4 -4.4 25.4 0.4 35.8 3.5 7.7 7 11.3 14.4 15 5.8 2.8 7.4 3.2 14.8 3.1 11 -0.1 19.2 -3.4 25.5 -10.1 l4.5 -4.8 12.6 8.6 c14.7 9.9 14.5 8.7 4 19 -7.2 7.1 -17 12.6 -27.6 15.5 -9.4 2.6 -31.2 2.9 -40.3 0.6z"/>
  <path d="M1165 199 l0 -70 -26.5 0 -26.5 0 0 -16 0 -16 72 0 72 0 0 16 0 16 -26.5 0 -26.5 0 0 70 0 70 -19 0 -19 0 0 -70z"/>
  <path d="M1574 177.5 l0 -91.5 18.5 0 18.5 0 0.1 37.3 0 37.2 2.2 -3 c10.7 -14.7 24.9 -21.8 43.7 -21.9 20.2 0 35.6 8.7 43.4 24.7 5.1 10.4 5.6 15.4 5.6 64 l0 44.7 -18.5 0 -18.5 0 0 -37.5 c0 -22.6 -0.4 -39.4 -1.1 -42.4 -1.6 -7.5 -5.7 -13.1 -12 -16.6 -4.7 -2.6 -6.4 -3 -13.4 -2.9 -13.5 0 -22.6 5.7 -28.2 17.8 l-2.8 6.1 -0.3 37.8 -0.3 37.7 -18.5 0 -18.4 0 0 -91.5z"/>
  <path d="M55.4 201.8 c-14.6 -15 -16.9 -19.1 -16.9 -29.8 0 -5.5 0.6 -8.7 2.2 -12.3 1.7 -3.6 14.8 -17.5 58 -61.3 30.7 -31.1 57.6 -57.7 59.9 -59 2.3 -1.3 6.6 -2.9 9.8 -3.5 7.1 -1.3 15.7 0.7 21.9 5 2.3 1.6 22.9 21.7 45.7 44.5 l41.5 41.6 -21 21 -21 21 -30.7 -30.7 -30.8 -30.8 -53.3 53.3 -53.3 53.3 -12 -12.3z"/>
 </g>
 <g fill="#ffffff">
  <path d="M169 311.7 c-2.6 -0.7 -6.2 -2.3 -8 -3.4 -1.9 -1.2 -22.2 -20.9 -45 -43.8 l-41.5 -41.5 20.5 -20.5 20.5 -20.5 50.7 50.7 50.8 50.8 -12.2 12.2 c-13 13 -17.2 15.7 -26.3 16.7 -2.8 0.3 -7 0 -9.5 -0.7z"/>
  <path d="M630.5 269.3 c-10 -1.4 -23.3 -5.9 -32 -10.9 -11 -6.2 -10.7 -4.6 -4 -18.7 l5.9 -12.4 3.6 2.5 c11.6 7.9 28 13.3 41 13.4 12.2 0 17.4 -2.4 18.6 -8.8 1.4 -7.6 -4.7 -12 -24.6 -17.9 -25.2 -7.4 -37.2 -15.4 -42 -28.1 -3.1 -8.2 -2.5 -20.4 1.4 -28.7 7.8 -16.4 28.4 -25.9 53.1 -24.3 15.4 0.9 26.7 4.1 41.2 11.3 l5.1 2.6 -6 12.1 c-3.3 6.7 -6.2 12.3 -6.4 12.5 -0.2 0.2 -3.9 -1.2 -8.1 -3.2 -11.2 -5.1 -20.7 -7.8 -29.8 -8.4 -7 -0.4 -8.6 -0.2 -12.5 1.9 -8 4.1 -7.8 11.9 0.3 16.9 1.8 1 10.4 4.2 19.2 7 26.2 8.4 35.6 14.2 41.2 25.7 2.5 5.1 2.8 6.7 2.8 15.7 -0.1 8.8 -0.4 10.7 -2.8 15.6 -5.4 11.2 -18.3 20.2 -33.3 23.4 -6.4 1.4 -24.5 1.8 -31.9 0.8z"/>
  <path d="M845 269.3 c-17.5 -2.9 -34.8 -15.8 -42.4 -31.5 -5.9 -12.3 -7.1 -18.3 -7.1 -35.8 0 -13.5 0.3 -16.5 2.3 -23 3.6 -11.3 7.9 -18.7 15.7 -26.6 11.4 -11.6 24.7 -16.8 42.5 -16.8 15.6 0 27.3 4.5 37.2 14.4 l5.8 5.8 0 -34.9 0 -34.9 18.5 0 18.5 0 0 91.5 0 91.5 -18.5 0 -18.5 0 0 -10.1 0 -10.2 -3.1 3.9 c-6.2 7.9 -14.5 13.2 -25.4 16 -4.6 1.3 -19.7 1.7 -25.5 0.7z m35.7 -32.4 c11.7 -5.6 17.5 -15.4 18.1 -31.1 0.6 -13.4 -1.9 -21.5 -8.8 -29.1 -6.9 -7.6 -13 -10.2 -24 -10.2 -9.2 0 -12.8 1.1 -19.8 5.8 -13.3 8.9 -18.3 32.3 -10.5 48.9 8.3 17.5 27.3 24.1 45 15.7z"/>
  <path d="M1020.1 269 c-26.4 -5.6 -44.1 -21.6 -50.8 -46 -1.3 -4.9 -1.8 -10 -1.7 -20.5 0 -12.4 0.3 -14.9 2.7 -22 7.2 -21.8 23.4 -36.9 45.5 -42.6 9.5 -2.4 27.3 -2.6 37.5 -0.3 29.9 6.6 46.7 31.1 46.7 68.2 l0 8.2 -47.9 0 -48 0 0.8 2.8 c2.4 8.4 9.8 17.1 17.8 21.1 12.8 6.4 33.4 3.3 46.2 -6.8 l3.7 -3 9.8 9.8 9.8 9.8 -6.2 5.2 c-7.1 5.9 -16.5 10.9 -26.5 14.1 -5.5 1.7 -10 2.3 -21 2.6 -7.7 0.2 -16 -0.1 -18.4 -0.6z m44.4 -81.7 c-1.5 -10.4 -6.1 -16.9 -14.8 -21.3 -5.1 -2.6 -7.2 -3 -13.7 -3 -4.5 0 -9.6 0.7 -12.6 1.7 -6.8 2.3 -14.4 10.1 -17.2 17.6 -4 10.6 -6.6 9.7 28.4 9.7 l30.6 0 -0.7 -4.7z"/>
  <path d="M354 183 l0 -86 19 0 19 0 0 86 0 86 -19 0 -19 0 0 -86z"/>
  <path d="M434 203 l0 -66 18.5 0 18.5 0 0.1 11.8 c0 11.2 0.1 11.6 1.6 9.2 0.9 -1.4 4.4 -5.2 7.7 -8.6 9.7 -9.6 20.8 -13.8 37.1 -13.8 21.5 0 37.5 10.6 44.7 29.9 2.3 5.9 2.3 6.9 2.6 54.8 l0.3 48.7 -18.5 0 -18.5 0 -0.3 -41.2 c-0.3 -40.1 -0.4 -41.4 -2.5 -45.3 -5.9 -11 -18.7 -15.8 -31.9 -12 -9.3 2.7 -14.7 7.3 -19.2 16.5 l-2.7 5.5 -0.3 38.3 -0.3 38.2 -18.5 0 -18.4 0 0 -66z"/>
  <path d="M728 203 l0 -66 19 0 19 0 0 66 0 66 -19 0 -19 0 0 -66z"/>
  <path d="M737.9 117 c-14.6 -7.9 -14.5 -29.6 0.2 -37 5 -2.6 12.8 -2.6 17.7 -0.1 13.6 7 15.1 25.8 2.9 35.5 -3.3 2.6 -4.8 3.1 -10.5 3.3 -5.2 0.3 -7.5 -0.1 -10.3 -1.7z"/>
 </g>
</svg>